G75*
%MOIN*%
%OFA0B0*%
%FSLAX25Y25*%
%IPPOS*%
%LPD*%
%AMOC8*
5,1,8,0,0,1.08239X$1,22.5*
%
%ADD10C,0.00000*%
%ADD11C,0.00600*%
%ADD12C,0.00700*%
%ADD13C,0.00500*%
%ADD14C,0.00400*%
%ADD15C,0.00800*%
%ADD16R,0.03000X0.01800*%
%ADD17C,0.00100*%
%ADD18R,0.01800X0.03000*%
%ADD19C,0.02200*%
D10*
X0001300Y0001300D02*
X0001300Y0395001D01*
X0087560Y0357009D02*
X0087562Y0357170D01*
X0087568Y0357330D01*
X0087578Y0357491D01*
X0087592Y0357651D01*
X0087610Y0357810D01*
X0087631Y0357970D01*
X0087657Y0358128D01*
X0087687Y0358286D01*
X0087720Y0358443D01*
X0087758Y0358600D01*
X0087799Y0358755D01*
X0087844Y0358909D01*
X0087893Y0359062D01*
X0087946Y0359214D01*
X0088002Y0359364D01*
X0088062Y0359513D01*
X0088126Y0359661D01*
X0088193Y0359807D01*
X0088264Y0359951D01*
X0088339Y0360093D01*
X0088417Y0360234D01*
X0088498Y0360372D01*
X0088583Y0360509D01*
X0088672Y0360643D01*
X0088763Y0360775D01*
X0088858Y0360905D01*
X0088956Y0361032D01*
X0089057Y0361157D01*
X0089161Y0361280D01*
X0089268Y0361399D01*
X0089378Y0361516D01*
X0089491Y0361631D01*
X0089607Y0361742D01*
X0089725Y0361851D01*
X0089846Y0361956D01*
X0089970Y0362059D01*
X0090096Y0362159D01*
X0090225Y0362255D01*
X0090356Y0362348D01*
X0090489Y0362438D01*
X0090624Y0362525D01*
X0090762Y0362608D01*
X0090901Y0362687D01*
X0091043Y0362764D01*
X0091186Y0362837D01*
X0091331Y0362906D01*
X0091478Y0362971D01*
X0091626Y0363033D01*
X0091776Y0363092D01*
X0091927Y0363146D01*
X0092079Y0363197D01*
X0092233Y0363244D01*
X0092388Y0363287D01*
X0092543Y0363326D01*
X0092700Y0363362D01*
X0092858Y0363394D01*
X0093016Y0363421D01*
X0093175Y0363445D01*
X0093334Y0363465D01*
X0093494Y0363481D01*
X0093655Y0363493D01*
X0093815Y0363501D01*
X0093976Y0363505D01*
X0094136Y0363505D01*
X0094297Y0363501D01*
X0094457Y0363493D01*
X0094618Y0363481D01*
X0094778Y0363465D01*
X0094937Y0363445D01*
X0095096Y0363421D01*
X0095254Y0363394D01*
X0095412Y0363362D01*
X0095569Y0363326D01*
X0095724Y0363287D01*
X0095879Y0363244D01*
X0096033Y0363197D01*
X0096185Y0363146D01*
X0096336Y0363092D01*
X0096486Y0363033D01*
X0096634Y0362971D01*
X0096781Y0362906D01*
X0096926Y0362837D01*
X0097069Y0362764D01*
X0097211Y0362687D01*
X0097350Y0362608D01*
X0097488Y0362525D01*
X0097623Y0362438D01*
X0097756Y0362348D01*
X0097887Y0362255D01*
X0098016Y0362159D01*
X0098142Y0362059D01*
X0098266Y0361956D01*
X0098387Y0361851D01*
X0098505Y0361742D01*
X0098621Y0361631D01*
X0098734Y0361516D01*
X0098844Y0361399D01*
X0098951Y0361280D01*
X0099055Y0361157D01*
X0099156Y0361032D01*
X0099254Y0360905D01*
X0099349Y0360775D01*
X0099440Y0360643D01*
X0099529Y0360509D01*
X0099614Y0360372D01*
X0099695Y0360234D01*
X0099773Y0360093D01*
X0099848Y0359951D01*
X0099919Y0359807D01*
X0099986Y0359661D01*
X0100050Y0359513D01*
X0100110Y0359364D01*
X0100166Y0359214D01*
X0100219Y0359062D01*
X0100268Y0358909D01*
X0100313Y0358755D01*
X0100354Y0358600D01*
X0100392Y0358443D01*
X0100425Y0358286D01*
X0100455Y0358128D01*
X0100481Y0357970D01*
X0100502Y0357810D01*
X0100520Y0357651D01*
X0100534Y0357491D01*
X0100544Y0357330D01*
X0100550Y0357170D01*
X0100552Y0357009D01*
X0100550Y0356848D01*
X0100544Y0356688D01*
X0100534Y0356527D01*
X0100520Y0356367D01*
X0100502Y0356208D01*
X0100481Y0356048D01*
X0100455Y0355890D01*
X0100425Y0355732D01*
X0100392Y0355575D01*
X0100354Y0355418D01*
X0100313Y0355263D01*
X0100268Y0355109D01*
X0100219Y0354956D01*
X0100166Y0354804D01*
X0100110Y0354654D01*
X0100050Y0354505D01*
X0099986Y0354357D01*
X0099919Y0354211D01*
X0099848Y0354067D01*
X0099773Y0353925D01*
X0099695Y0353784D01*
X0099614Y0353646D01*
X0099529Y0353509D01*
X0099440Y0353375D01*
X0099349Y0353243D01*
X0099254Y0353113D01*
X0099156Y0352986D01*
X0099055Y0352861D01*
X0098951Y0352738D01*
X0098844Y0352619D01*
X0098734Y0352502D01*
X0098621Y0352387D01*
X0098505Y0352276D01*
X0098387Y0352167D01*
X0098266Y0352062D01*
X0098142Y0351959D01*
X0098016Y0351859D01*
X0097887Y0351763D01*
X0097756Y0351670D01*
X0097623Y0351580D01*
X0097488Y0351493D01*
X0097350Y0351410D01*
X0097211Y0351331D01*
X0097069Y0351254D01*
X0096926Y0351181D01*
X0096781Y0351112D01*
X0096634Y0351047D01*
X0096486Y0350985D01*
X0096336Y0350926D01*
X0096185Y0350872D01*
X0096033Y0350821D01*
X0095879Y0350774D01*
X0095724Y0350731D01*
X0095569Y0350692D01*
X0095412Y0350656D01*
X0095254Y0350624D01*
X0095096Y0350597D01*
X0094937Y0350573D01*
X0094778Y0350553D01*
X0094618Y0350537D01*
X0094457Y0350525D01*
X0094297Y0350517D01*
X0094136Y0350513D01*
X0093976Y0350513D01*
X0093815Y0350517D01*
X0093655Y0350525D01*
X0093494Y0350537D01*
X0093334Y0350553D01*
X0093175Y0350573D01*
X0093016Y0350597D01*
X0092858Y0350624D01*
X0092700Y0350656D01*
X0092543Y0350692D01*
X0092388Y0350731D01*
X0092233Y0350774D01*
X0092079Y0350821D01*
X0091927Y0350872D01*
X0091776Y0350926D01*
X0091626Y0350985D01*
X0091478Y0351047D01*
X0091331Y0351112D01*
X0091186Y0351181D01*
X0091043Y0351254D01*
X0090901Y0351331D01*
X0090762Y0351410D01*
X0090624Y0351493D01*
X0090489Y0351580D01*
X0090356Y0351670D01*
X0090225Y0351763D01*
X0090096Y0351859D01*
X0089970Y0351959D01*
X0089846Y0352062D01*
X0089725Y0352167D01*
X0089607Y0352276D01*
X0089491Y0352387D01*
X0089378Y0352502D01*
X0089268Y0352619D01*
X0089161Y0352738D01*
X0089057Y0352861D01*
X0088956Y0352986D01*
X0088858Y0353113D01*
X0088763Y0353243D01*
X0088672Y0353375D01*
X0088583Y0353509D01*
X0088498Y0353646D01*
X0088417Y0353784D01*
X0088339Y0353925D01*
X0088264Y0354067D01*
X0088193Y0354211D01*
X0088126Y0354357D01*
X0088062Y0354505D01*
X0088002Y0354654D01*
X0087946Y0354804D01*
X0087893Y0354956D01*
X0087844Y0355109D01*
X0087799Y0355263D01*
X0087758Y0355418D01*
X0087720Y0355575D01*
X0087687Y0355732D01*
X0087657Y0355890D01*
X0087631Y0356048D01*
X0087610Y0356208D01*
X0087592Y0356367D01*
X0087578Y0356527D01*
X0087568Y0356688D01*
X0087562Y0356848D01*
X0087560Y0357009D01*
X0127560Y0357009D02*
X0127562Y0357170D01*
X0127568Y0357330D01*
X0127578Y0357491D01*
X0127592Y0357651D01*
X0127610Y0357810D01*
X0127631Y0357970D01*
X0127657Y0358128D01*
X0127687Y0358286D01*
X0127720Y0358443D01*
X0127758Y0358600D01*
X0127799Y0358755D01*
X0127844Y0358909D01*
X0127893Y0359062D01*
X0127946Y0359214D01*
X0128002Y0359364D01*
X0128062Y0359513D01*
X0128126Y0359661D01*
X0128193Y0359807D01*
X0128264Y0359951D01*
X0128339Y0360093D01*
X0128417Y0360234D01*
X0128498Y0360372D01*
X0128583Y0360509D01*
X0128672Y0360643D01*
X0128763Y0360775D01*
X0128858Y0360905D01*
X0128956Y0361032D01*
X0129057Y0361157D01*
X0129161Y0361280D01*
X0129268Y0361399D01*
X0129378Y0361516D01*
X0129491Y0361631D01*
X0129607Y0361742D01*
X0129725Y0361851D01*
X0129846Y0361956D01*
X0129970Y0362059D01*
X0130096Y0362159D01*
X0130225Y0362255D01*
X0130356Y0362348D01*
X0130489Y0362438D01*
X0130624Y0362525D01*
X0130762Y0362608D01*
X0130901Y0362687D01*
X0131043Y0362764D01*
X0131186Y0362837D01*
X0131331Y0362906D01*
X0131478Y0362971D01*
X0131626Y0363033D01*
X0131776Y0363092D01*
X0131927Y0363146D01*
X0132079Y0363197D01*
X0132233Y0363244D01*
X0132388Y0363287D01*
X0132543Y0363326D01*
X0132700Y0363362D01*
X0132858Y0363394D01*
X0133016Y0363421D01*
X0133175Y0363445D01*
X0133334Y0363465D01*
X0133494Y0363481D01*
X0133655Y0363493D01*
X0133815Y0363501D01*
X0133976Y0363505D01*
X0134136Y0363505D01*
X0134297Y0363501D01*
X0134457Y0363493D01*
X0134618Y0363481D01*
X0134778Y0363465D01*
X0134937Y0363445D01*
X0135096Y0363421D01*
X0135254Y0363394D01*
X0135412Y0363362D01*
X0135569Y0363326D01*
X0135724Y0363287D01*
X0135879Y0363244D01*
X0136033Y0363197D01*
X0136185Y0363146D01*
X0136336Y0363092D01*
X0136486Y0363033D01*
X0136634Y0362971D01*
X0136781Y0362906D01*
X0136926Y0362837D01*
X0137069Y0362764D01*
X0137211Y0362687D01*
X0137350Y0362608D01*
X0137488Y0362525D01*
X0137623Y0362438D01*
X0137756Y0362348D01*
X0137887Y0362255D01*
X0138016Y0362159D01*
X0138142Y0362059D01*
X0138266Y0361956D01*
X0138387Y0361851D01*
X0138505Y0361742D01*
X0138621Y0361631D01*
X0138734Y0361516D01*
X0138844Y0361399D01*
X0138951Y0361280D01*
X0139055Y0361157D01*
X0139156Y0361032D01*
X0139254Y0360905D01*
X0139349Y0360775D01*
X0139440Y0360643D01*
X0139529Y0360509D01*
X0139614Y0360372D01*
X0139695Y0360234D01*
X0139773Y0360093D01*
X0139848Y0359951D01*
X0139919Y0359807D01*
X0139986Y0359661D01*
X0140050Y0359513D01*
X0140110Y0359364D01*
X0140166Y0359214D01*
X0140219Y0359062D01*
X0140268Y0358909D01*
X0140313Y0358755D01*
X0140354Y0358600D01*
X0140392Y0358443D01*
X0140425Y0358286D01*
X0140455Y0358128D01*
X0140481Y0357970D01*
X0140502Y0357810D01*
X0140520Y0357651D01*
X0140534Y0357491D01*
X0140544Y0357330D01*
X0140550Y0357170D01*
X0140552Y0357009D01*
X0140550Y0356848D01*
X0140544Y0356688D01*
X0140534Y0356527D01*
X0140520Y0356367D01*
X0140502Y0356208D01*
X0140481Y0356048D01*
X0140455Y0355890D01*
X0140425Y0355732D01*
X0140392Y0355575D01*
X0140354Y0355418D01*
X0140313Y0355263D01*
X0140268Y0355109D01*
X0140219Y0354956D01*
X0140166Y0354804D01*
X0140110Y0354654D01*
X0140050Y0354505D01*
X0139986Y0354357D01*
X0139919Y0354211D01*
X0139848Y0354067D01*
X0139773Y0353925D01*
X0139695Y0353784D01*
X0139614Y0353646D01*
X0139529Y0353509D01*
X0139440Y0353375D01*
X0139349Y0353243D01*
X0139254Y0353113D01*
X0139156Y0352986D01*
X0139055Y0352861D01*
X0138951Y0352738D01*
X0138844Y0352619D01*
X0138734Y0352502D01*
X0138621Y0352387D01*
X0138505Y0352276D01*
X0138387Y0352167D01*
X0138266Y0352062D01*
X0138142Y0351959D01*
X0138016Y0351859D01*
X0137887Y0351763D01*
X0137756Y0351670D01*
X0137623Y0351580D01*
X0137488Y0351493D01*
X0137350Y0351410D01*
X0137211Y0351331D01*
X0137069Y0351254D01*
X0136926Y0351181D01*
X0136781Y0351112D01*
X0136634Y0351047D01*
X0136486Y0350985D01*
X0136336Y0350926D01*
X0136185Y0350872D01*
X0136033Y0350821D01*
X0135879Y0350774D01*
X0135724Y0350731D01*
X0135569Y0350692D01*
X0135412Y0350656D01*
X0135254Y0350624D01*
X0135096Y0350597D01*
X0134937Y0350573D01*
X0134778Y0350553D01*
X0134618Y0350537D01*
X0134457Y0350525D01*
X0134297Y0350517D01*
X0134136Y0350513D01*
X0133976Y0350513D01*
X0133815Y0350517D01*
X0133655Y0350525D01*
X0133494Y0350537D01*
X0133334Y0350553D01*
X0133175Y0350573D01*
X0133016Y0350597D01*
X0132858Y0350624D01*
X0132700Y0350656D01*
X0132543Y0350692D01*
X0132388Y0350731D01*
X0132233Y0350774D01*
X0132079Y0350821D01*
X0131927Y0350872D01*
X0131776Y0350926D01*
X0131626Y0350985D01*
X0131478Y0351047D01*
X0131331Y0351112D01*
X0131186Y0351181D01*
X0131043Y0351254D01*
X0130901Y0351331D01*
X0130762Y0351410D01*
X0130624Y0351493D01*
X0130489Y0351580D01*
X0130356Y0351670D01*
X0130225Y0351763D01*
X0130096Y0351859D01*
X0129970Y0351959D01*
X0129846Y0352062D01*
X0129725Y0352167D01*
X0129607Y0352276D01*
X0129491Y0352387D01*
X0129378Y0352502D01*
X0129268Y0352619D01*
X0129161Y0352738D01*
X0129057Y0352861D01*
X0128956Y0352986D01*
X0128858Y0353113D01*
X0128763Y0353243D01*
X0128672Y0353375D01*
X0128583Y0353509D01*
X0128498Y0353646D01*
X0128417Y0353784D01*
X0128339Y0353925D01*
X0128264Y0354067D01*
X0128193Y0354211D01*
X0128126Y0354357D01*
X0128062Y0354505D01*
X0128002Y0354654D01*
X0127946Y0354804D01*
X0127893Y0354956D01*
X0127844Y0355109D01*
X0127799Y0355263D01*
X0127758Y0355418D01*
X0127720Y0355575D01*
X0127687Y0355732D01*
X0127657Y0355890D01*
X0127631Y0356048D01*
X0127610Y0356208D01*
X0127592Y0356367D01*
X0127578Y0356527D01*
X0127568Y0356688D01*
X0127562Y0356848D01*
X0127560Y0357009D01*
X0152280Y0324135D02*
X0152282Y0324296D01*
X0152288Y0324456D01*
X0152298Y0324617D01*
X0152312Y0324777D01*
X0152330Y0324937D01*
X0152351Y0325096D01*
X0152377Y0325255D01*
X0152407Y0325413D01*
X0152440Y0325570D01*
X0152478Y0325727D01*
X0152519Y0325882D01*
X0152564Y0326036D01*
X0152613Y0326189D01*
X0152666Y0326341D01*
X0152722Y0326492D01*
X0152783Y0326641D01*
X0152846Y0326789D01*
X0152914Y0326935D01*
X0152985Y0327079D01*
X0153059Y0327221D01*
X0153137Y0327362D01*
X0153219Y0327500D01*
X0153304Y0327637D01*
X0153392Y0327771D01*
X0153484Y0327903D01*
X0153579Y0328033D01*
X0153677Y0328161D01*
X0153778Y0328286D01*
X0153882Y0328408D01*
X0153989Y0328528D01*
X0154099Y0328645D01*
X0154212Y0328760D01*
X0154328Y0328871D01*
X0154447Y0328980D01*
X0154568Y0329085D01*
X0154692Y0329188D01*
X0154818Y0329288D01*
X0154946Y0329384D01*
X0155077Y0329477D01*
X0155211Y0329567D01*
X0155346Y0329654D01*
X0155484Y0329737D01*
X0155623Y0329817D01*
X0155765Y0329893D01*
X0155908Y0329966D01*
X0156053Y0330035D01*
X0156200Y0330101D01*
X0156348Y0330163D01*
X0156498Y0330221D01*
X0156649Y0330276D01*
X0156802Y0330327D01*
X0156956Y0330374D01*
X0157111Y0330417D01*
X0157267Y0330456D01*
X0157423Y0330492D01*
X0157581Y0330523D01*
X0157739Y0330551D01*
X0157898Y0330575D01*
X0158058Y0330595D01*
X0158218Y0330611D01*
X0158378Y0330623D01*
X0158539Y0330631D01*
X0158700Y0330635D01*
X0158860Y0330635D01*
X0159021Y0330631D01*
X0159182Y0330623D01*
X0159342Y0330611D01*
X0159502Y0330595D01*
X0159662Y0330575D01*
X0159821Y0330551D01*
X0159979Y0330523D01*
X0160137Y0330492D01*
X0160293Y0330456D01*
X0160449Y0330417D01*
X0160604Y0330374D01*
X0160758Y0330327D01*
X0160911Y0330276D01*
X0161062Y0330221D01*
X0161212Y0330163D01*
X0161360Y0330101D01*
X0161507Y0330035D01*
X0161652Y0329966D01*
X0161795Y0329893D01*
X0161937Y0329817D01*
X0162076Y0329737D01*
X0162214Y0329654D01*
X0162349Y0329567D01*
X0162483Y0329477D01*
X0162614Y0329384D01*
X0162742Y0329288D01*
X0162868Y0329188D01*
X0162992Y0329085D01*
X0163113Y0328980D01*
X0163232Y0328871D01*
X0163348Y0328760D01*
X0163461Y0328645D01*
X0163571Y0328528D01*
X0163678Y0328408D01*
X0163782Y0328286D01*
X0163883Y0328161D01*
X0163981Y0328033D01*
X0164076Y0327903D01*
X0164168Y0327771D01*
X0164256Y0327637D01*
X0164341Y0327500D01*
X0164423Y0327362D01*
X0164501Y0327221D01*
X0164575Y0327079D01*
X0164646Y0326935D01*
X0164714Y0326789D01*
X0164777Y0326641D01*
X0164838Y0326492D01*
X0164894Y0326341D01*
X0164947Y0326189D01*
X0164996Y0326036D01*
X0165041Y0325882D01*
X0165082Y0325727D01*
X0165120Y0325570D01*
X0165153Y0325413D01*
X0165183Y0325255D01*
X0165209Y0325096D01*
X0165230Y0324937D01*
X0165248Y0324777D01*
X0165262Y0324617D01*
X0165272Y0324456D01*
X0165278Y0324296D01*
X0165280Y0324135D01*
X0165278Y0323974D01*
X0165272Y0323814D01*
X0165262Y0323653D01*
X0165248Y0323493D01*
X0165230Y0323333D01*
X0165209Y0323174D01*
X0165183Y0323015D01*
X0165153Y0322857D01*
X0165120Y0322700D01*
X0165082Y0322543D01*
X0165041Y0322388D01*
X0164996Y0322234D01*
X0164947Y0322081D01*
X0164894Y0321929D01*
X0164838Y0321778D01*
X0164777Y0321629D01*
X0164714Y0321481D01*
X0164646Y0321335D01*
X0164575Y0321191D01*
X0164501Y0321049D01*
X0164423Y0320908D01*
X0164341Y0320770D01*
X0164256Y0320633D01*
X0164168Y0320499D01*
X0164076Y0320367D01*
X0163981Y0320237D01*
X0163883Y0320109D01*
X0163782Y0319984D01*
X0163678Y0319862D01*
X0163571Y0319742D01*
X0163461Y0319625D01*
X0163348Y0319510D01*
X0163232Y0319399D01*
X0163113Y0319290D01*
X0162992Y0319185D01*
X0162868Y0319082D01*
X0162742Y0318982D01*
X0162614Y0318886D01*
X0162483Y0318793D01*
X0162349Y0318703D01*
X0162214Y0318616D01*
X0162076Y0318533D01*
X0161937Y0318453D01*
X0161795Y0318377D01*
X0161652Y0318304D01*
X0161507Y0318235D01*
X0161360Y0318169D01*
X0161212Y0318107D01*
X0161062Y0318049D01*
X0160911Y0317994D01*
X0160758Y0317943D01*
X0160604Y0317896D01*
X0160449Y0317853D01*
X0160293Y0317814D01*
X0160137Y0317778D01*
X0159979Y0317747D01*
X0159821Y0317719D01*
X0159662Y0317695D01*
X0159502Y0317675D01*
X0159342Y0317659D01*
X0159182Y0317647D01*
X0159021Y0317639D01*
X0158860Y0317635D01*
X0158700Y0317635D01*
X0158539Y0317639D01*
X0158378Y0317647D01*
X0158218Y0317659D01*
X0158058Y0317675D01*
X0157898Y0317695D01*
X0157739Y0317719D01*
X0157581Y0317747D01*
X0157423Y0317778D01*
X0157267Y0317814D01*
X0157111Y0317853D01*
X0156956Y0317896D01*
X0156802Y0317943D01*
X0156649Y0317994D01*
X0156498Y0318049D01*
X0156348Y0318107D01*
X0156200Y0318169D01*
X0156053Y0318235D01*
X0155908Y0318304D01*
X0155765Y0318377D01*
X0155623Y0318453D01*
X0155484Y0318533D01*
X0155346Y0318616D01*
X0155211Y0318703D01*
X0155077Y0318793D01*
X0154946Y0318886D01*
X0154818Y0318982D01*
X0154692Y0319082D01*
X0154568Y0319185D01*
X0154447Y0319290D01*
X0154328Y0319399D01*
X0154212Y0319510D01*
X0154099Y0319625D01*
X0153989Y0319742D01*
X0153882Y0319862D01*
X0153778Y0319984D01*
X0153677Y0320109D01*
X0153579Y0320237D01*
X0153484Y0320367D01*
X0153392Y0320499D01*
X0153304Y0320633D01*
X0153219Y0320770D01*
X0153137Y0320908D01*
X0153059Y0321049D01*
X0152985Y0321191D01*
X0152914Y0321335D01*
X0152846Y0321481D01*
X0152783Y0321629D01*
X0152722Y0321778D01*
X0152666Y0321929D01*
X0152613Y0322081D01*
X0152564Y0322234D01*
X0152519Y0322388D01*
X0152478Y0322543D01*
X0152440Y0322700D01*
X0152407Y0322857D01*
X0152377Y0323015D01*
X0152351Y0323174D01*
X0152330Y0323333D01*
X0152312Y0323493D01*
X0152298Y0323653D01*
X0152288Y0323814D01*
X0152282Y0323974D01*
X0152280Y0324135D01*
X0588702Y0343583D02*
X0588704Y0343744D01*
X0588710Y0343904D01*
X0588720Y0344065D01*
X0588734Y0344225D01*
X0588752Y0344384D01*
X0588773Y0344544D01*
X0588799Y0344702D01*
X0588829Y0344860D01*
X0588862Y0345017D01*
X0588900Y0345174D01*
X0588941Y0345329D01*
X0588986Y0345483D01*
X0589035Y0345636D01*
X0589088Y0345788D01*
X0589144Y0345938D01*
X0589204Y0346087D01*
X0589268Y0346235D01*
X0589335Y0346381D01*
X0589406Y0346525D01*
X0589481Y0346667D01*
X0589559Y0346808D01*
X0589640Y0346946D01*
X0589725Y0347083D01*
X0589814Y0347217D01*
X0589905Y0347349D01*
X0590000Y0347479D01*
X0590098Y0347606D01*
X0590199Y0347731D01*
X0590303Y0347854D01*
X0590410Y0347973D01*
X0590520Y0348090D01*
X0590633Y0348205D01*
X0590749Y0348316D01*
X0590867Y0348425D01*
X0590988Y0348530D01*
X0591112Y0348633D01*
X0591238Y0348733D01*
X0591367Y0348829D01*
X0591498Y0348922D01*
X0591631Y0349012D01*
X0591766Y0349099D01*
X0591904Y0349182D01*
X0592043Y0349261D01*
X0592185Y0349338D01*
X0592328Y0349411D01*
X0592473Y0349480D01*
X0592620Y0349545D01*
X0592768Y0349607D01*
X0592918Y0349666D01*
X0593069Y0349720D01*
X0593221Y0349771D01*
X0593375Y0349818D01*
X0593530Y0349861D01*
X0593685Y0349900D01*
X0593842Y0349936D01*
X0594000Y0349968D01*
X0594158Y0349995D01*
X0594317Y0350019D01*
X0594476Y0350039D01*
X0594636Y0350055D01*
X0594797Y0350067D01*
X0594957Y0350075D01*
X0595118Y0350079D01*
X0595278Y0350079D01*
X0595439Y0350075D01*
X0595599Y0350067D01*
X0595760Y0350055D01*
X0595920Y0350039D01*
X0596079Y0350019D01*
X0596238Y0349995D01*
X0596396Y0349968D01*
X0596554Y0349936D01*
X0596711Y0349900D01*
X0596866Y0349861D01*
X0597021Y0349818D01*
X0597175Y0349771D01*
X0597327Y0349720D01*
X0597478Y0349666D01*
X0597628Y0349607D01*
X0597776Y0349545D01*
X0597923Y0349480D01*
X0598068Y0349411D01*
X0598211Y0349338D01*
X0598353Y0349261D01*
X0598492Y0349182D01*
X0598630Y0349099D01*
X0598765Y0349012D01*
X0598898Y0348922D01*
X0599029Y0348829D01*
X0599158Y0348733D01*
X0599284Y0348633D01*
X0599408Y0348530D01*
X0599529Y0348425D01*
X0599647Y0348316D01*
X0599763Y0348205D01*
X0599876Y0348090D01*
X0599986Y0347973D01*
X0600093Y0347854D01*
X0600197Y0347731D01*
X0600298Y0347606D01*
X0600396Y0347479D01*
X0600491Y0347349D01*
X0600582Y0347217D01*
X0600671Y0347083D01*
X0600756Y0346946D01*
X0600837Y0346808D01*
X0600915Y0346667D01*
X0600990Y0346525D01*
X0601061Y0346381D01*
X0601128Y0346235D01*
X0601192Y0346087D01*
X0601252Y0345938D01*
X0601308Y0345788D01*
X0601361Y0345636D01*
X0601410Y0345483D01*
X0601455Y0345329D01*
X0601496Y0345174D01*
X0601534Y0345017D01*
X0601567Y0344860D01*
X0601597Y0344702D01*
X0601623Y0344544D01*
X0601644Y0344384D01*
X0601662Y0344225D01*
X0601676Y0344065D01*
X0601686Y0343904D01*
X0601692Y0343744D01*
X0601694Y0343583D01*
X0601692Y0343422D01*
X0601686Y0343262D01*
X0601676Y0343101D01*
X0601662Y0342941D01*
X0601644Y0342782D01*
X0601623Y0342622D01*
X0601597Y0342464D01*
X0601567Y0342306D01*
X0601534Y0342149D01*
X0601496Y0341992D01*
X0601455Y0341837D01*
X0601410Y0341683D01*
X0601361Y0341530D01*
X0601308Y0341378D01*
X0601252Y0341228D01*
X0601192Y0341079D01*
X0601128Y0340931D01*
X0601061Y0340785D01*
X0600990Y0340641D01*
X0600915Y0340499D01*
X0600837Y0340358D01*
X0600756Y0340220D01*
X0600671Y0340083D01*
X0600582Y0339949D01*
X0600491Y0339817D01*
X0600396Y0339687D01*
X0600298Y0339560D01*
X0600197Y0339435D01*
X0600093Y0339312D01*
X0599986Y0339193D01*
X0599876Y0339076D01*
X0599763Y0338961D01*
X0599647Y0338850D01*
X0599529Y0338741D01*
X0599408Y0338636D01*
X0599284Y0338533D01*
X0599158Y0338433D01*
X0599029Y0338337D01*
X0598898Y0338244D01*
X0598765Y0338154D01*
X0598630Y0338067D01*
X0598492Y0337984D01*
X0598353Y0337905D01*
X0598211Y0337828D01*
X0598068Y0337755D01*
X0597923Y0337686D01*
X0597776Y0337621D01*
X0597628Y0337559D01*
X0597478Y0337500D01*
X0597327Y0337446D01*
X0597175Y0337395D01*
X0597021Y0337348D01*
X0596866Y0337305D01*
X0596711Y0337266D01*
X0596554Y0337230D01*
X0596396Y0337198D01*
X0596238Y0337171D01*
X0596079Y0337147D01*
X0595920Y0337127D01*
X0595760Y0337111D01*
X0595599Y0337099D01*
X0595439Y0337091D01*
X0595278Y0337087D01*
X0595118Y0337087D01*
X0594957Y0337091D01*
X0594797Y0337099D01*
X0594636Y0337111D01*
X0594476Y0337127D01*
X0594317Y0337147D01*
X0594158Y0337171D01*
X0594000Y0337198D01*
X0593842Y0337230D01*
X0593685Y0337266D01*
X0593530Y0337305D01*
X0593375Y0337348D01*
X0593221Y0337395D01*
X0593069Y0337446D01*
X0592918Y0337500D01*
X0592768Y0337559D01*
X0592620Y0337621D01*
X0592473Y0337686D01*
X0592328Y0337755D01*
X0592185Y0337828D01*
X0592043Y0337905D01*
X0591904Y0337984D01*
X0591766Y0338067D01*
X0591631Y0338154D01*
X0591498Y0338244D01*
X0591367Y0338337D01*
X0591238Y0338433D01*
X0591112Y0338533D01*
X0590988Y0338636D01*
X0590867Y0338741D01*
X0590749Y0338850D01*
X0590633Y0338961D01*
X0590520Y0339076D01*
X0590410Y0339193D01*
X0590303Y0339312D01*
X0590199Y0339435D01*
X0590098Y0339560D01*
X0590000Y0339687D01*
X0589905Y0339817D01*
X0589814Y0339949D01*
X0589725Y0340083D01*
X0589640Y0340220D01*
X0589559Y0340358D01*
X0589481Y0340499D01*
X0589406Y0340641D01*
X0589335Y0340785D01*
X0589268Y0340931D01*
X0589204Y0341079D01*
X0589144Y0341228D01*
X0589088Y0341378D01*
X0589035Y0341530D01*
X0588986Y0341683D01*
X0588941Y0341837D01*
X0588900Y0341992D01*
X0588862Y0342149D01*
X0588829Y0342306D01*
X0588799Y0342464D01*
X0588773Y0342622D01*
X0588752Y0342782D01*
X0588734Y0342941D01*
X0588720Y0343101D01*
X0588710Y0343262D01*
X0588704Y0343422D01*
X0588702Y0343583D01*
X0603068Y0373347D02*
X0603070Y0373508D01*
X0603076Y0373668D01*
X0603086Y0373829D01*
X0603100Y0373989D01*
X0603118Y0374149D01*
X0603139Y0374308D01*
X0603165Y0374467D01*
X0603195Y0374625D01*
X0603228Y0374782D01*
X0603266Y0374939D01*
X0603307Y0375094D01*
X0603352Y0375248D01*
X0603401Y0375401D01*
X0603454Y0375553D01*
X0603510Y0375704D01*
X0603571Y0375853D01*
X0603634Y0376001D01*
X0603702Y0376147D01*
X0603773Y0376291D01*
X0603847Y0376433D01*
X0603925Y0376574D01*
X0604007Y0376712D01*
X0604092Y0376849D01*
X0604180Y0376983D01*
X0604272Y0377115D01*
X0604367Y0377245D01*
X0604465Y0377373D01*
X0604566Y0377498D01*
X0604670Y0377620D01*
X0604777Y0377740D01*
X0604887Y0377857D01*
X0605000Y0377972D01*
X0605116Y0378083D01*
X0605235Y0378192D01*
X0605356Y0378297D01*
X0605480Y0378400D01*
X0605606Y0378500D01*
X0605734Y0378596D01*
X0605865Y0378689D01*
X0605999Y0378779D01*
X0606134Y0378866D01*
X0606272Y0378949D01*
X0606411Y0379029D01*
X0606553Y0379105D01*
X0606696Y0379178D01*
X0606841Y0379247D01*
X0606988Y0379313D01*
X0607136Y0379375D01*
X0607286Y0379433D01*
X0607437Y0379488D01*
X0607590Y0379539D01*
X0607744Y0379586D01*
X0607899Y0379629D01*
X0608055Y0379668D01*
X0608211Y0379704D01*
X0608369Y0379735D01*
X0608527Y0379763D01*
X0608686Y0379787D01*
X0608846Y0379807D01*
X0609006Y0379823D01*
X0609166Y0379835D01*
X0609327Y0379843D01*
X0609488Y0379847D01*
X0609648Y0379847D01*
X0609809Y0379843D01*
X0609970Y0379835D01*
X0610130Y0379823D01*
X0610290Y0379807D01*
X0610450Y0379787D01*
X0610609Y0379763D01*
X0610767Y0379735D01*
X0610925Y0379704D01*
X0611081Y0379668D01*
X0611237Y0379629D01*
X0611392Y0379586D01*
X0611546Y0379539D01*
X0611699Y0379488D01*
X0611850Y0379433D01*
X0612000Y0379375D01*
X0612148Y0379313D01*
X0612295Y0379247D01*
X0612440Y0379178D01*
X0612583Y0379105D01*
X0612725Y0379029D01*
X0612864Y0378949D01*
X0613002Y0378866D01*
X0613137Y0378779D01*
X0613271Y0378689D01*
X0613402Y0378596D01*
X0613530Y0378500D01*
X0613656Y0378400D01*
X0613780Y0378297D01*
X0613901Y0378192D01*
X0614020Y0378083D01*
X0614136Y0377972D01*
X0614249Y0377857D01*
X0614359Y0377740D01*
X0614466Y0377620D01*
X0614570Y0377498D01*
X0614671Y0377373D01*
X0614769Y0377245D01*
X0614864Y0377115D01*
X0614956Y0376983D01*
X0615044Y0376849D01*
X0615129Y0376712D01*
X0615211Y0376574D01*
X0615289Y0376433D01*
X0615363Y0376291D01*
X0615434Y0376147D01*
X0615502Y0376001D01*
X0615565Y0375853D01*
X0615626Y0375704D01*
X0615682Y0375553D01*
X0615735Y0375401D01*
X0615784Y0375248D01*
X0615829Y0375094D01*
X0615870Y0374939D01*
X0615908Y0374782D01*
X0615941Y0374625D01*
X0615971Y0374467D01*
X0615997Y0374308D01*
X0616018Y0374149D01*
X0616036Y0373989D01*
X0616050Y0373829D01*
X0616060Y0373668D01*
X0616066Y0373508D01*
X0616068Y0373347D01*
X0616066Y0373186D01*
X0616060Y0373026D01*
X0616050Y0372865D01*
X0616036Y0372705D01*
X0616018Y0372545D01*
X0615997Y0372386D01*
X0615971Y0372227D01*
X0615941Y0372069D01*
X0615908Y0371912D01*
X0615870Y0371755D01*
X0615829Y0371600D01*
X0615784Y0371446D01*
X0615735Y0371293D01*
X0615682Y0371141D01*
X0615626Y0370990D01*
X0615565Y0370841D01*
X0615502Y0370693D01*
X0615434Y0370547D01*
X0615363Y0370403D01*
X0615289Y0370261D01*
X0615211Y0370120D01*
X0615129Y0369982D01*
X0615044Y0369845D01*
X0614956Y0369711D01*
X0614864Y0369579D01*
X0614769Y0369449D01*
X0614671Y0369321D01*
X0614570Y0369196D01*
X0614466Y0369074D01*
X0614359Y0368954D01*
X0614249Y0368837D01*
X0614136Y0368722D01*
X0614020Y0368611D01*
X0613901Y0368502D01*
X0613780Y0368397D01*
X0613656Y0368294D01*
X0613530Y0368194D01*
X0613402Y0368098D01*
X0613271Y0368005D01*
X0613137Y0367915D01*
X0613002Y0367828D01*
X0612864Y0367745D01*
X0612725Y0367665D01*
X0612583Y0367589D01*
X0612440Y0367516D01*
X0612295Y0367447D01*
X0612148Y0367381D01*
X0612000Y0367319D01*
X0611850Y0367261D01*
X0611699Y0367206D01*
X0611546Y0367155D01*
X0611392Y0367108D01*
X0611237Y0367065D01*
X0611081Y0367026D01*
X0610925Y0366990D01*
X0610767Y0366959D01*
X0610609Y0366931D01*
X0610450Y0366907D01*
X0610290Y0366887D01*
X0610130Y0366871D01*
X0609970Y0366859D01*
X0609809Y0366851D01*
X0609648Y0366847D01*
X0609488Y0366847D01*
X0609327Y0366851D01*
X0609166Y0366859D01*
X0609006Y0366871D01*
X0608846Y0366887D01*
X0608686Y0366907D01*
X0608527Y0366931D01*
X0608369Y0366959D01*
X0608211Y0366990D01*
X0608055Y0367026D01*
X0607899Y0367065D01*
X0607744Y0367108D01*
X0607590Y0367155D01*
X0607437Y0367206D01*
X0607286Y0367261D01*
X0607136Y0367319D01*
X0606988Y0367381D01*
X0606841Y0367447D01*
X0606696Y0367516D01*
X0606553Y0367589D01*
X0606411Y0367665D01*
X0606272Y0367745D01*
X0606134Y0367828D01*
X0605999Y0367915D01*
X0605865Y0368005D01*
X0605734Y0368098D01*
X0605606Y0368194D01*
X0605480Y0368294D01*
X0605356Y0368397D01*
X0605235Y0368502D01*
X0605116Y0368611D01*
X0605000Y0368722D01*
X0604887Y0368837D01*
X0604777Y0368954D01*
X0604670Y0369074D01*
X0604566Y0369196D01*
X0604465Y0369321D01*
X0604367Y0369449D01*
X0604272Y0369579D01*
X0604180Y0369711D01*
X0604092Y0369845D01*
X0604007Y0369982D01*
X0603925Y0370120D01*
X0603847Y0370261D01*
X0603773Y0370403D01*
X0603702Y0370547D01*
X0603634Y0370693D01*
X0603571Y0370841D01*
X0603510Y0370990D01*
X0603454Y0371141D01*
X0603401Y0371293D01*
X0603352Y0371446D01*
X0603307Y0371600D01*
X0603266Y0371755D01*
X0603228Y0371912D01*
X0603195Y0372069D01*
X0603165Y0372227D01*
X0603139Y0372386D01*
X0603118Y0372545D01*
X0603100Y0372705D01*
X0603086Y0372865D01*
X0603076Y0373026D01*
X0603070Y0373186D01*
X0603068Y0373347D01*
X0588702Y0303583D02*
X0588704Y0303744D01*
X0588710Y0303904D01*
X0588720Y0304065D01*
X0588734Y0304225D01*
X0588752Y0304384D01*
X0588773Y0304544D01*
X0588799Y0304702D01*
X0588829Y0304860D01*
X0588862Y0305017D01*
X0588900Y0305174D01*
X0588941Y0305329D01*
X0588986Y0305483D01*
X0589035Y0305636D01*
X0589088Y0305788D01*
X0589144Y0305938D01*
X0589204Y0306087D01*
X0589268Y0306235D01*
X0589335Y0306381D01*
X0589406Y0306525D01*
X0589481Y0306667D01*
X0589559Y0306808D01*
X0589640Y0306946D01*
X0589725Y0307083D01*
X0589814Y0307217D01*
X0589905Y0307349D01*
X0590000Y0307479D01*
X0590098Y0307606D01*
X0590199Y0307731D01*
X0590303Y0307854D01*
X0590410Y0307973D01*
X0590520Y0308090D01*
X0590633Y0308205D01*
X0590749Y0308316D01*
X0590867Y0308425D01*
X0590988Y0308530D01*
X0591112Y0308633D01*
X0591238Y0308733D01*
X0591367Y0308829D01*
X0591498Y0308922D01*
X0591631Y0309012D01*
X0591766Y0309099D01*
X0591904Y0309182D01*
X0592043Y0309261D01*
X0592185Y0309338D01*
X0592328Y0309411D01*
X0592473Y0309480D01*
X0592620Y0309545D01*
X0592768Y0309607D01*
X0592918Y0309666D01*
X0593069Y0309720D01*
X0593221Y0309771D01*
X0593375Y0309818D01*
X0593530Y0309861D01*
X0593685Y0309900D01*
X0593842Y0309936D01*
X0594000Y0309968D01*
X0594158Y0309995D01*
X0594317Y0310019D01*
X0594476Y0310039D01*
X0594636Y0310055D01*
X0594797Y0310067D01*
X0594957Y0310075D01*
X0595118Y0310079D01*
X0595278Y0310079D01*
X0595439Y0310075D01*
X0595599Y0310067D01*
X0595760Y0310055D01*
X0595920Y0310039D01*
X0596079Y0310019D01*
X0596238Y0309995D01*
X0596396Y0309968D01*
X0596554Y0309936D01*
X0596711Y0309900D01*
X0596866Y0309861D01*
X0597021Y0309818D01*
X0597175Y0309771D01*
X0597327Y0309720D01*
X0597478Y0309666D01*
X0597628Y0309607D01*
X0597776Y0309545D01*
X0597923Y0309480D01*
X0598068Y0309411D01*
X0598211Y0309338D01*
X0598353Y0309261D01*
X0598492Y0309182D01*
X0598630Y0309099D01*
X0598765Y0309012D01*
X0598898Y0308922D01*
X0599029Y0308829D01*
X0599158Y0308733D01*
X0599284Y0308633D01*
X0599408Y0308530D01*
X0599529Y0308425D01*
X0599647Y0308316D01*
X0599763Y0308205D01*
X0599876Y0308090D01*
X0599986Y0307973D01*
X0600093Y0307854D01*
X0600197Y0307731D01*
X0600298Y0307606D01*
X0600396Y0307479D01*
X0600491Y0307349D01*
X0600582Y0307217D01*
X0600671Y0307083D01*
X0600756Y0306946D01*
X0600837Y0306808D01*
X0600915Y0306667D01*
X0600990Y0306525D01*
X0601061Y0306381D01*
X0601128Y0306235D01*
X0601192Y0306087D01*
X0601252Y0305938D01*
X0601308Y0305788D01*
X0601361Y0305636D01*
X0601410Y0305483D01*
X0601455Y0305329D01*
X0601496Y0305174D01*
X0601534Y0305017D01*
X0601567Y0304860D01*
X0601597Y0304702D01*
X0601623Y0304544D01*
X0601644Y0304384D01*
X0601662Y0304225D01*
X0601676Y0304065D01*
X0601686Y0303904D01*
X0601692Y0303744D01*
X0601694Y0303583D01*
X0601692Y0303422D01*
X0601686Y0303262D01*
X0601676Y0303101D01*
X0601662Y0302941D01*
X0601644Y0302782D01*
X0601623Y0302622D01*
X0601597Y0302464D01*
X0601567Y0302306D01*
X0601534Y0302149D01*
X0601496Y0301992D01*
X0601455Y0301837D01*
X0601410Y0301683D01*
X0601361Y0301530D01*
X0601308Y0301378D01*
X0601252Y0301228D01*
X0601192Y0301079D01*
X0601128Y0300931D01*
X0601061Y0300785D01*
X0600990Y0300641D01*
X0600915Y0300499D01*
X0600837Y0300358D01*
X0600756Y0300220D01*
X0600671Y0300083D01*
X0600582Y0299949D01*
X0600491Y0299817D01*
X0600396Y0299687D01*
X0600298Y0299560D01*
X0600197Y0299435D01*
X0600093Y0299312D01*
X0599986Y0299193D01*
X0599876Y0299076D01*
X0599763Y0298961D01*
X0599647Y0298850D01*
X0599529Y0298741D01*
X0599408Y0298636D01*
X0599284Y0298533D01*
X0599158Y0298433D01*
X0599029Y0298337D01*
X0598898Y0298244D01*
X0598765Y0298154D01*
X0598630Y0298067D01*
X0598492Y0297984D01*
X0598353Y0297905D01*
X0598211Y0297828D01*
X0598068Y0297755D01*
X0597923Y0297686D01*
X0597776Y0297621D01*
X0597628Y0297559D01*
X0597478Y0297500D01*
X0597327Y0297446D01*
X0597175Y0297395D01*
X0597021Y0297348D01*
X0596866Y0297305D01*
X0596711Y0297266D01*
X0596554Y0297230D01*
X0596396Y0297198D01*
X0596238Y0297171D01*
X0596079Y0297147D01*
X0595920Y0297127D01*
X0595760Y0297111D01*
X0595599Y0297099D01*
X0595439Y0297091D01*
X0595278Y0297087D01*
X0595118Y0297087D01*
X0594957Y0297091D01*
X0594797Y0297099D01*
X0594636Y0297111D01*
X0594476Y0297127D01*
X0594317Y0297147D01*
X0594158Y0297171D01*
X0594000Y0297198D01*
X0593842Y0297230D01*
X0593685Y0297266D01*
X0593530Y0297305D01*
X0593375Y0297348D01*
X0593221Y0297395D01*
X0593069Y0297446D01*
X0592918Y0297500D01*
X0592768Y0297559D01*
X0592620Y0297621D01*
X0592473Y0297686D01*
X0592328Y0297755D01*
X0592185Y0297828D01*
X0592043Y0297905D01*
X0591904Y0297984D01*
X0591766Y0298067D01*
X0591631Y0298154D01*
X0591498Y0298244D01*
X0591367Y0298337D01*
X0591238Y0298433D01*
X0591112Y0298533D01*
X0590988Y0298636D01*
X0590867Y0298741D01*
X0590749Y0298850D01*
X0590633Y0298961D01*
X0590520Y0299076D01*
X0590410Y0299193D01*
X0590303Y0299312D01*
X0590199Y0299435D01*
X0590098Y0299560D01*
X0590000Y0299687D01*
X0589905Y0299817D01*
X0589814Y0299949D01*
X0589725Y0300083D01*
X0589640Y0300220D01*
X0589559Y0300358D01*
X0589481Y0300499D01*
X0589406Y0300641D01*
X0589335Y0300785D01*
X0589268Y0300931D01*
X0589204Y0301079D01*
X0589144Y0301228D01*
X0589088Y0301378D01*
X0589035Y0301530D01*
X0588986Y0301683D01*
X0588941Y0301837D01*
X0588900Y0301992D01*
X0588862Y0302149D01*
X0588829Y0302306D01*
X0588799Y0302464D01*
X0588773Y0302622D01*
X0588752Y0302782D01*
X0588734Y0302941D01*
X0588720Y0303101D01*
X0588710Y0303262D01*
X0588704Y0303422D01*
X0588702Y0303583D01*
X0588702Y0268780D02*
X0588704Y0268941D01*
X0588710Y0269101D01*
X0588720Y0269262D01*
X0588734Y0269422D01*
X0588752Y0269581D01*
X0588773Y0269741D01*
X0588799Y0269899D01*
X0588829Y0270057D01*
X0588862Y0270214D01*
X0588900Y0270371D01*
X0588941Y0270526D01*
X0588986Y0270680D01*
X0589035Y0270833D01*
X0589088Y0270985D01*
X0589144Y0271135D01*
X0589204Y0271284D01*
X0589268Y0271432D01*
X0589335Y0271578D01*
X0589406Y0271722D01*
X0589481Y0271864D01*
X0589559Y0272005D01*
X0589640Y0272143D01*
X0589725Y0272280D01*
X0589814Y0272414D01*
X0589905Y0272546D01*
X0590000Y0272676D01*
X0590098Y0272803D01*
X0590199Y0272928D01*
X0590303Y0273051D01*
X0590410Y0273170D01*
X0590520Y0273287D01*
X0590633Y0273402D01*
X0590749Y0273513D01*
X0590867Y0273622D01*
X0590988Y0273727D01*
X0591112Y0273830D01*
X0591238Y0273930D01*
X0591367Y0274026D01*
X0591498Y0274119D01*
X0591631Y0274209D01*
X0591766Y0274296D01*
X0591904Y0274379D01*
X0592043Y0274458D01*
X0592185Y0274535D01*
X0592328Y0274608D01*
X0592473Y0274677D01*
X0592620Y0274742D01*
X0592768Y0274804D01*
X0592918Y0274863D01*
X0593069Y0274917D01*
X0593221Y0274968D01*
X0593375Y0275015D01*
X0593530Y0275058D01*
X0593685Y0275097D01*
X0593842Y0275133D01*
X0594000Y0275165D01*
X0594158Y0275192D01*
X0594317Y0275216D01*
X0594476Y0275236D01*
X0594636Y0275252D01*
X0594797Y0275264D01*
X0594957Y0275272D01*
X0595118Y0275276D01*
X0595278Y0275276D01*
X0595439Y0275272D01*
X0595599Y0275264D01*
X0595760Y0275252D01*
X0595920Y0275236D01*
X0596079Y0275216D01*
X0596238Y0275192D01*
X0596396Y0275165D01*
X0596554Y0275133D01*
X0596711Y0275097D01*
X0596866Y0275058D01*
X0597021Y0275015D01*
X0597175Y0274968D01*
X0597327Y0274917D01*
X0597478Y0274863D01*
X0597628Y0274804D01*
X0597776Y0274742D01*
X0597923Y0274677D01*
X0598068Y0274608D01*
X0598211Y0274535D01*
X0598353Y0274458D01*
X0598492Y0274379D01*
X0598630Y0274296D01*
X0598765Y0274209D01*
X0598898Y0274119D01*
X0599029Y0274026D01*
X0599158Y0273930D01*
X0599284Y0273830D01*
X0599408Y0273727D01*
X0599529Y0273622D01*
X0599647Y0273513D01*
X0599763Y0273402D01*
X0599876Y0273287D01*
X0599986Y0273170D01*
X0600093Y0273051D01*
X0600197Y0272928D01*
X0600298Y0272803D01*
X0600396Y0272676D01*
X0600491Y0272546D01*
X0600582Y0272414D01*
X0600671Y0272280D01*
X0600756Y0272143D01*
X0600837Y0272005D01*
X0600915Y0271864D01*
X0600990Y0271722D01*
X0601061Y0271578D01*
X0601128Y0271432D01*
X0601192Y0271284D01*
X0601252Y0271135D01*
X0601308Y0270985D01*
X0601361Y0270833D01*
X0601410Y0270680D01*
X0601455Y0270526D01*
X0601496Y0270371D01*
X0601534Y0270214D01*
X0601567Y0270057D01*
X0601597Y0269899D01*
X0601623Y0269741D01*
X0601644Y0269581D01*
X0601662Y0269422D01*
X0601676Y0269262D01*
X0601686Y0269101D01*
X0601692Y0268941D01*
X0601694Y0268780D01*
X0601692Y0268619D01*
X0601686Y0268459D01*
X0601676Y0268298D01*
X0601662Y0268138D01*
X0601644Y0267979D01*
X0601623Y0267819D01*
X0601597Y0267661D01*
X0601567Y0267503D01*
X0601534Y0267346D01*
X0601496Y0267189D01*
X0601455Y0267034D01*
X0601410Y0266880D01*
X0601361Y0266727D01*
X0601308Y0266575D01*
X0601252Y0266425D01*
X0601192Y0266276D01*
X0601128Y0266128D01*
X0601061Y0265982D01*
X0600990Y0265838D01*
X0600915Y0265696D01*
X0600837Y0265555D01*
X0600756Y0265417D01*
X0600671Y0265280D01*
X0600582Y0265146D01*
X0600491Y0265014D01*
X0600396Y0264884D01*
X0600298Y0264757D01*
X0600197Y0264632D01*
X0600093Y0264509D01*
X0599986Y0264390D01*
X0599876Y0264273D01*
X0599763Y0264158D01*
X0599647Y0264047D01*
X0599529Y0263938D01*
X0599408Y0263833D01*
X0599284Y0263730D01*
X0599158Y0263630D01*
X0599029Y0263534D01*
X0598898Y0263441D01*
X0598765Y0263351D01*
X0598630Y0263264D01*
X0598492Y0263181D01*
X0598353Y0263102D01*
X0598211Y0263025D01*
X0598068Y0262952D01*
X0597923Y0262883D01*
X0597776Y0262818D01*
X0597628Y0262756D01*
X0597478Y0262697D01*
X0597327Y0262643D01*
X0597175Y0262592D01*
X0597021Y0262545D01*
X0596866Y0262502D01*
X0596711Y0262463D01*
X0596554Y0262427D01*
X0596396Y0262395D01*
X0596238Y0262368D01*
X0596079Y0262344D01*
X0595920Y0262324D01*
X0595760Y0262308D01*
X0595599Y0262296D01*
X0595439Y0262288D01*
X0595278Y0262284D01*
X0595118Y0262284D01*
X0594957Y0262288D01*
X0594797Y0262296D01*
X0594636Y0262308D01*
X0594476Y0262324D01*
X0594317Y0262344D01*
X0594158Y0262368D01*
X0594000Y0262395D01*
X0593842Y0262427D01*
X0593685Y0262463D01*
X0593530Y0262502D01*
X0593375Y0262545D01*
X0593221Y0262592D01*
X0593069Y0262643D01*
X0592918Y0262697D01*
X0592768Y0262756D01*
X0592620Y0262818D01*
X0592473Y0262883D01*
X0592328Y0262952D01*
X0592185Y0263025D01*
X0592043Y0263102D01*
X0591904Y0263181D01*
X0591766Y0263264D01*
X0591631Y0263351D01*
X0591498Y0263441D01*
X0591367Y0263534D01*
X0591238Y0263630D01*
X0591112Y0263730D01*
X0590988Y0263833D01*
X0590867Y0263938D01*
X0590749Y0264047D01*
X0590633Y0264158D01*
X0590520Y0264273D01*
X0590410Y0264390D01*
X0590303Y0264509D01*
X0590199Y0264632D01*
X0590098Y0264757D01*
X0590000Y0264884D01*
X0589905Y0265014D01*
X0589814Y0265146D01*
X0589725Y0265280D01*
X0589640Y0265417D01*
X0589559Y0265555D01*
X0589481Y0265696D01*
X0589406Y0265838D01*
X0589335Y0265982D01*
X0589268Y0266128D01*
X0589204Y0266276D01*
X0589144Y0266425D01*
X0589088Y0266575D01*
X0589035Y0266727D01*
X0588986Y0266880D01*
X0588941Y0267034D01*
X0588900Y0267189D01*
X0588862Y0267346D01*
X0588829Y0267503D01*
X0588799Y0267661D01*
X0588773Y0267819D01*
X0588752Y0267979D01*
X0588734Y0268138D01*
X0588720Y0268298D01*
X0588710Y0268459D01*
X0588704Y0268619D01*
X0588702Y0268780D01*
X0588702Y0228780D02*
X0588704Y0228941D01*
X0588710Y0229101D01*
X0588720Y0229262D01*
X0588734Y0229422D01*
X0588752Y0229581D01*
X0588773Y0229741D01*
X0588799Y0229899D01*
X0588829Y0230057D01*
X0588862Y0230214D01*
X0588900Y0230371D01*
X0588941Y0230526D01*
X0588986Y0230680D01*
X0589035Y0230833D01*
X0589088Y0230985D01*
X0589144Y0231135D01*
X0589204Y0231284D01*
X0589268Y0231432D01*
X0589335Y0231578D01*
X0589406Y0231722D01*
X0589481Y0231864D01*
X0589559Y0232005D01*
X0589640Y0232143D01*
X0589725Y0232280D01*
X0589814Y0232414D01*
X0589905Y0232546D01*
X0590000Y0232676D01*
X0590098Y0232803D01*
X0590199Y0232928D01*
X0590303Y0233051D01*
X0590410Y0233170D01*
X0590520Y0233287D01*
X0590633Y0233402D01*
X0590749Y0233513D01*
X0590867Y0233622D01*
X0590988Y0233727D01*
X0591112Y0233830D01*
X0591238Y0233930D01*
X0591367Y0234026D01*
X0591498Y0234119D01*
X0591631Y0234209D01*
X0591766Y0234296D01*
X0591904Y0234379D01*
X0592043Y0234458D01*
X0592185Y0234535D01*
X0592328Y0234608D01*
X0592473Y0234677D01*
X0592620Y0234742D01*
X0592768Y0234804D01*
X0592918Y0234863D01*
X0593069Y0234917D01*
X0593221Y0234968D01*
X0593375Y0235015D01*
X0593530Y0235058D01*
X0593685Y0235097D01*
X0593842Y0235133D01*
X0594000Y0235165D01*
X0594158Y0235192D01*
X0594317Y0235216D01*
X0594476Y0235236D01*
X0594636Y0235252D01*
X0594797Y0235264D01*
X0594957Y0235272D01*
X0595118Y0235276D01*
X0595278Y0235276D01*
X0595439Y0235272D01*
X0595599Y0235264D01*
X0595760Y0235252D01*
X0595920Y0235236D01*
X0596079Y0235216D01*
X0596238Y0235192D01*
X0596396Y0235165D01*
X0596554Y0235133D01*
X0596711Y0235097D01*
X0596866Y0235058D01*
X0597021Y0235015D01*
X0597175Y0234968D01*
X0597327Y0234917D01*
X0597478Y0234863D01*
X0597628Y0234804D01*
X0597776Y0234742D01*
X0597923Y0234677D01*
X0598068Y0234608D01*
X0598211Y0234535D01*
X0598353Y0234458D01*
X0598492Y0234379D01*
X0598630Y0234296D01*
X0598765Y0234209D01*
X0598898Y0234119D01*
X0599029Y0234026D01*
X0599158Y0233930D01*
X0599284Y0233830D01*
X0599408Y0233727D01*
X0599529Y0233622D01*
X0599647Y0233513D01*
X0599763Y0233402D01*
X0599876Y0233287D01*
X0599986Y0233170D01*
X0600093Y0233051D01*
X0600197Y0232928D01*
X0600298Y0232803D01*
X0600396Y0232676D01*
X0600491Y0232546D01*
X0600582Y0232414D01*
X0600671Y0232280D01*
X0600756Y0232143D01*
X0600837Y0232005D01*
X0600915Y0231864D01*
X0600990Y0231722D01*
X0601061Y0231578D01*
X0601128Y0231432D01*
X0601192Y0231284D01*
X0601252Y0231135D01*
X0601308Y0230985D01*
X0601361Y0230833D01*
X0601410Y0230680D01*
X0601455Y0230526D01*
X0601496Y0230371D01*
X0601534Y0230214D01*
X0601567Y0230057D01*
X0601597Y0229899D01*
X0601623Y0229741D01*
X0601644Y0229581D01*
X0601662Y0229422D01*
X0601676Y0229262D01*
X0601686Y0229101D01*
X0601692Y0228941D01*
X0601694Y0228780D01*
X0601692Y0228619D01*
X0601686Y0228459D01*
X0601676Y0228298D01*
X0601662Y0228138D01*
X0601644Y0227979D01*
X0601623Y0227819D01*
X0601597Y0227661D01*
X0601567Y0227503D01*
X0601534Y0227346D01*
X0601496Y0227189D01*
X0601455Y0227034D01*
X0601410Y0226880D01*
X0601361Y0226727D01*
X0601308Y0226575D01*
X0601252Y0226425D01*
X0601192Y0226276D01*
X0601128Y0226128D01*
X0601061Y0225982D01*
X0600990Y0225838D01*
X0600915Y0225696D01*
X0600837Y0225555D01*
X0600756Y0225417D01*
X0600671Y0225280D01*
X0600582Y0225146D01*
X0600491Y0225014D01*
X0600396Y0224884D01*
X0600298Y0224757D01*
X0600197Y0224632D01*
X0600093Y0224509D01*
X0599986Y0224390D01*
X0599876Y0224273D01*
X0599763Y0224158D01*
X0599647Y0224047D01*
X0599529Y0223938D01*
X0599408Y0223833D01*
X0599284Y0223730D01*
X0599158Y0223630D01*
X0599029Y0223534D01*
X0598898Y0223441D01*
X0598765Y0223351D01*
X0598630Y0223264D01*
X0598492Y0223181D01*
X0598353Y0223102D01*
X0598211Y0223025D01*
X0598068Y0222952D01*
X0597923Y0222883D01*
X0597776Y0222818D01*
X0597628Y0222756D01*
X0597478Y0222697D01*
X0597327Y0222643D01*
X0597175Y0222592D01*
X0597021Y0222545D01*
X0596866Y0222502D01*
X0596711Y0222463D01*
X0596554Y0222427D01*
X0596396Y0222395D01*
X0596238Y0222368D01*
X0596079Y0222344D01*
X0595920Y0222324D01*
X0595760Y0222308D01*
X0595599Y0222296D01*
X0595439Y0222288D01*
X0595278Y0222284D01*
X0595118Y0222284D01*
X0594957Y0222288D01*
X0594797Y0222296D01*
X0594636Y0222308D01*
X0594476Y0222324D01*
X0594317Y0222344D01*
X0594158Y0222368D01*
X0594000Y0222395D01*
X0593842Y0222427D01*
X0593685Y0222463D01*
X0593530Y0222502D01*
X0593375Y0222545D01*
X0593221Y0222592D01*
X0593069Y0222643D01*
X0592918Y0222697D01*
X0592768Y0222756D01*
X0592620Y0222818D01*
X0592473Y0222883D01*
X0592328Y0222952D01*
X0592185Y0223025D01*
X0592043Y0223102D01*
X0591904Y0223181D01*
X0591766Y0223264D01*
X0591631Y0223351D01*
X0591498Y0223441D01*
X0591367Y0223534D01*
X0591238Y0223630D01*
X0591112Y0223730D01*
X0590988Y0223833D01*
X0590867Y0223938D01*
X0590749Y0224047D01*
X0590633Y0224158D01*
X0590520Y0224273D01*
X0590410Y0224390D01*
X0590303Y0224509D01*
X0590199Y0224632D01*
X0590098Y0224757D01*
X0590000Y0224884D01*
X0589905Y0225014D01*
X0589814Y0225146D01*
X0589725Y0225280D01*
X0589640Y0225417D01*
X0589559Y0225555D01*
X0589481Y0225696D01*
X0589406Y0225838D01*
X0589335Y0225982D01*
X0589268Y0226128D01*
X0589204Y0226276D01*
X0589144Y0226425D01*
X0589088Y0226575D01*
X0589035Y0226727D01*
X0588986Y0226880D01*
X0588941Y0227034D01*
X0588900Y0227189D01*
X0588862Y0227346D01*
X0588829Y0227503D01*
X0588799Y0227661D01*
X0588773Y0227819D01*
X0588752Y0227979D01*
X0588734Y0228138D01*
X0588720Y0228298D01*
X0588710Y0228459D01*
X0588704Y0228619D01*
X0588702Y0228780D01*
X0601716Y0099411D02*
X0601718Y0099571D01*
X0601724Y0099730D01*
X0601734Y0099889D01*
X0601748Y0100048D01*
X0601766Y0100207D01*
X0601787Y0100365D01*
X0601813Y0100522D01*
X0601843Y0100679D01*
X0601876Y0100835D01*
X0601914Y0100990D01*
X0601955Y0101144D01*
X0602000Y0101297D01*
X0602049Y0101449D01*
X0602102Y0101599D01*
X0602158Y0101748D01*
X0602218Y0101896D01*
X0602282Y0102042D01*
X0602350Y0102187D01*
X0602421Y0102330D01*
X0602495Y0102471D01*
X0602573Y0102610D01*
X0602655Y0102747D01*
X0602740Y0102882D01*
X0602828Y0103015D01*
X0602919Y0103146D01*
X0603014Y0103274D01*
X0603112Y0103400D01*
X0603213Y0103524D01*
X0603317Y0103644D01*
X0603424Y0103763D01*
X0603534Y0103878D01*
X0603647Y0103991D01*
X0603762Y0104101D01*
X0603881Y0104208D01*
X0604001Y0104312D01*
X0604125Y0104413D01*
X0604251Y0104511D01*
X0604379Y0104606D01*
X0604510Y0104697D01*
X0604643Y0104785D01*
X0604778Y0104870D01*
X0604915Y0104952D01*
X0605054Y0105030D01*
X0605195Y0105104D01*
X0605338Y0105175D01*
X0605483Y0105243D01*
X0605629Y0105307D01*
X0605777Y0105367D01*
X0605926Y0105423D01*
X0606076Y0105476D01*
X0606228Y0105525D01*
X0606381Y0105570D01*
X0606535Y0105611D01*
X0606690Y0105649D01*
X0606846Y0105682D01*
X0607003Y0105712D01*
X0607160Y0105738D01*
X0607318Y0105759D01*
X0607477Y0105777D01*
X0607636Y0105791D01*
X0607795Y0105801D01*
X0607954Y0105807D01*
X0608114Y0105809D01*
X0608274Y0105807D01*
X0608433Y0105801D01*
X0608592Y0105791D01*
X0608751Y0105777D01*
X0608910Y0105759D01*
X0609068Y0105738D01*
X0609225Y0105712D01*
X0609382Y0105682D01*
X0609538Y0105649D01*
X0609693Y0105611D01*
X0609847Y0105570D01*
X0610000Y0105525D01*
X0610152Y0105476D01*
X0610302Y0105423D01*
X0610451Y0105367D01*
X0610599Y0105307D01*
X0610745Y0105243D01*
X0610890Y0105175D01*
X0611033Y0105104D01*
X0611174Y0105030D01*
X0611313Y0104952D01*
X0611450Y0104870D01*
X0611585Y0104785D01*
X0611718Y0104697D01*
X0611849Y0104606D01*
X0611977Y0104511D01*
X0612103Y0104413D01*
X0612227Y0104312D01*
X0612347Y0104208D01*
X0612466Y0104101D01*
X0612581Y0103991D01*
X0612694Y0103878D01*
X0612804Y0103763D01*
X0612911Y0103644D01*
X0613015Y0103524D01*
X0613116Y0103400D01*
X0613214Y0103274D01*
X0613309Y0103146D01*
X0613400Y0103015D01*
X0613488Y0102882D01*
X0613573Y0102747D01*
X0613655Y0102610D01*
X0613733Y0102471D01*
X0613807Y0102330D01*
X0613878Y0102187D01*
X0613946Y0102042D01*
X0614010Y0101896D01*
X0614070Y0101748D01*
X0614126Y0101599D01*
X0614179Y0101449D01*
X0614228Y0101297D01*
X0614273Y0101144D01*
X0614314Y0100990D01*
X0614352Y0100835D01*
X0614385Y0100679D01*
X0614415Y0100522D01*
X0614441Y0100365D01*
X0614462Y0100207D01*
X0614480Y0100048D01*
X0614494Y0099889D01*
X0614504Y0099730D01*
X0614510Y0099571D01*
X0614512Y0099411D01*
X0614510Y0099251D01*
X0614504Y0099092D01*
X0614494Y0098933D01*
X0614480Y0098774D01*
X0614462Y0098615D01*
X0614441Y0098457D01*
X0614415Y0098300D01*
X0614385Y0098143D01*
X0614352Y0097987D01*
X0614314Y0097832D01*
X0614273Y0097678D01*
X0614228Y0097525D01*
X0614179Y0097373D01*
X0614126Y0097223D01*
X0614070Y0097074D01*
X0614010Y0096926D01*
X0613946Y0096780D01*
X0613878Y0096635D01*
X0613807Y0096492D01*
X0613733Y0096351D01*
X0613655Y0096212D01*
X0613573Y0096075D01*
X0613488Y0095940D01*
X0613400Y0095807D01*
X0613309Y0095676D01*
X0613214Y0095548D01*
X0613116Y0095422D01*
X0613015Y0095298D01*
X0612911Y0095178D01*
X0612804Y0095059D01*
X0612694Y0094944D01*
X0612581Y0094831D01*
X0612466Y0094721D01*
X0612347Y0094614D01*
X0612227Y0094510D01*
X0612103Y0094409D01*
X0611977Y0094311D01*
X0611849Y0094216D01*
X0611718Y0094125D01*
X0611585Y0094037D01*
X0611450Y0093952D01*
X0611313Y0093870D01*
X0611174Y0093792D01*
X0611033Y0093718D01*
X0610890Y0093647D01*
X0610745Y0093579D01*
X0610599Y0093515D01*
X0610451Y0093455D01*
X0610302Y0093399D01*
X0610152Y0093346D01*
X0610000Y0093297D01*
X0609847Y0093252D01*
X0609693Y0093211D01*
X0609538Y0093173D01*
X0609382Y0093140D01*
X0609225Y0093110D01*
X0609068Y0093084D01*
X0608910Y0093063D01*
X0608751Y0093045D01*
X0608592Y0093031D01*
X0608433Y0093021D01*
X0608274Y0093015D01*
X0608114Y0093013D01*
X0607954Y0093015D01*
X0607795Y0093021D01*
X0607636Y0093031D01*
X0607477Y0093045D01*
X0607318Y0093063D01*
X0607160Y0093084D01*
X0607003Y0093110D01*
X0606846Y0093140D01*
X0606690Y0093173D01*
X0606535Y0093211D01*
X0606381Y0093252D01*
X0606228Y0093297D01*
X0606076Y0093346D01*
X0605926Y0093399D01*
X0605777Y0093455D01*
X0605629Y0093515D01*
X0605483Y0093579D01*
X0605338Y0093647D01*
X0605195Y0093718D01*
X0605054Y0093792D01*
X0604915Y0093870D01*
X0604778Y0093952D01*
X0604643Y0094037D01*
X0604510Y0094125D01*
X0604379Y0094216D01*
X0604251Y0094311D01*
X0604125Y0094409D01*
X0604001Y0094510D01*
X0603881Y0094614D01*
X0603762Y0094721D01*
X0603647Y0094831D01*
X0603534Y0094944D01*
X0603424Y0095059D01*
X0603317Y0095178D01*
X0603213Y0095298D01*
X0603112Y0095422D01*
X0603014Y0095548D01*
X0602919Y0095676D01*
X0602828Y0095807D01*
X0602740Y0095940D01*
X0602655Y0096075D01*
X0602573Y0096212D01*
X0602495Y0096351D01*
X0602421Y0096492D01*
X0602350Y0096635D01*
X0602282Y0096780D01*
X0602218Y0096926D01*
X0602158Y0097074D01*
X0602102Y0097223D01*
X0602049Y0097373D01*
X0602000Y0097525D01*
X0601955Y0097678D01*
X0601914Y0097832D01*
X0601876Y0097987D01*
X0601843Y0098143D01*
X0601813Y0098300D01*
X0601787Y0098457D01*
X0601766Y0098615D01*
X0601748Y0098774D01*
X0601734Y0098933D01*
X0601724Y0099092D01*
X0601718Y0099251D01*
X0601716Y0099411D01*
X0601716Y0049411D02*
X0601718Y0049571D01*
X0601724Y0049730D01*
X0601734Y0049889D01*
X0601748Y0050048D01*
X0601766Y0050207D01*
X0601787Y0050365D01*
X0601813Y0050522D01*
X0601843Y0050679D01*
X0601876Y0050835D01*
X0601914Y0050990D01*
X0601955Y0051144D01*
X0602000Y0051297D01*
X0602049Y0051449D01*
X0602102Y0051599D01*
X0602158Y0051748D01*
X0602218Y0051896D01*
X0602282Y0052042D01*
X0602350Y0052187D01*
X0602421Y0052330D01*
X0602495Y0052471D01*
X0602573Y0052610D01*
X0602655Y0052747D01*
X0602740Y0052882D01*
X0602828Y0053015D01*
X0602919Y0053146D01*
X0603014Y0053274D01*
X0603112Y0053400D01*
X0603213Y0053524D01*
X0603317Y0053644D01*
X0603424Y0053763D01*
X0603534Y0053878D01*
X0603647Y0053991D01*
X0603762Y0054101D01*
X0603881Y0054208D01*
X0604001Y0054312D01*
X0604125Y0054413D01*
X0604251Y0054511D01*
X0604379Y0054606D01*
X0604510Y0054697D01*
X0604643Y0054785D01*
X0604778Y0054870D01*
X0604915Y0054952D01*
X0605054Y0055030D01*
X0605195Y0055104D01*
X0605338Y0055175D01*
X0605483Y0055243D01*
X0605629Y0055307D01*
X0605777Y0055367D01*
X0605926Y0055423D01*
X0606076Y0055476D01*
X0606228Y0055525D01*
X0606381Y0055570D01*
X0606535Y0055611D01*
X0606690Y0055649D01*
X0606846Y0055682D01*
X0607003Y0055712D01*
X0607160Y0055738D01*
X0607318Y0055759D01*
X0607477Y0055777D01*
X0607636Y0055791D01*
X0607795Y0055801D01*
X0607954Y0055807D01*
X0608114Y0055809D01*
X0608274Y0055807D01*
X0608433Y0055801D01*
X0608592Y0055791D01*
X0608751Y0055777D01*
X0608910Y0055759D01*
X0609068Y0055738D01*
X0609225Y0055712D01*
X0609382Y0055682D01*
X0609538Y0055649D01*
X0609693Y0055611D01*
X0609847Y0055570D01*
X0610000Y0055525D01*
X0610152Y0055476D01*
X0610302Y0055423D01*
X0610451Y0055367D01*
X0610599Y0055307D01*
X0610745Y0055243D01*
X0610890Y0055175D01*
X0611033Y0055104D01*
X0611174Y0055030D01*
X0611313Y0054952D01*
X0611450Y0054870D01*
X0611585Y0054785D01*
X0611718Y0054697D01*
X0611849Y0054606D01*
X0611977Y0054511D01*
X0612103Y0054413D01*
X0612227Y0054312D01*
X0612347Y0054208D01*
X0612466Y0054101D01*
X0612581Y0053991D01*
X0612694Y0053878D01*
X0612804Y0053763D01*
X0612911Y0053644D01*
X0613015Y0053524D01*
X0613116Y0053400D01*
X0613214Y0053274D01*
X0613309Y0053146D01*
X0613400Y0053015D01*
X0613488Y0052882D01*
X0613573Y0052747D01*
X0613655Y0052610D01*
X0613733Y0052471D01*
X0613807Y0052330D01*
X0613878Y0052187D01*
X0613946Y0052042D01*
X0614010Y0051896D01*
X0614070Y0051748D01*
X0614126Y0051599D01*
X0614179Y0051449D01*
X0614228Y0051297D01*
X0614273Y0051144D01*
X0614314Y0050990D01*
X0614352Y0050835D01*
X0614385Y0050679D01*
X0614415Y0050522D01*
X0614441Y0050365D01*
X0614462Y0050207D01*
X0614480Y0050048D01*
X0614494Y0049889D01*
X0614504Y0049730D01*
X0614510Y0049571D01*
X0614512Y0049411D01*
X0614510Y0049251D01*
X0614504Y0049092D01*
X0614494Y0048933D01*
X0614480Y0048774D01*
X0614462Y0048615D01*
X0614441Y0048457D01*
X0614415Y0048300D01*
X0614385Y0048143D01*
X0614352Y0047987D01*
X0614314Y0047832D01*
X0614273Y0047678D01*
X0614228Y0047525D01*
X0614179Y0047373D01*
X0614126Y0047223D01*
X0614070Y0047074D01*
X0614010Y0046926D01*
X0613946Y0046780D01*
X0613878Y0046635D01*
X0613807Y0046492D01*
X0613733Y0046351D01*
X0613655Y0046212D01*
X0613573Y0046075D01*
X0613488Y0045940D01*
X0613400Y0045807D01*
X0613309Y0045676D01*
X0613214Y0045548D01*
X0613116Y0045422D01*
X0613015Y0045298D01*
X0612911Y0045178D01*
X0612804Y0045059D01*
X0612694Y0044944D01*
X0612581Y0044831D01*
X0612466Y0044721D01*
X0612347Y0044614D01*
X0612227Y0044510D01*
X0612103Y0044409D01*
X0611977Y0044311D01*
X0611849Y0044216D01*
X0611718Y0044125D01*
X0611585Y0044037D01*
X0611450Y0043952D01*
X0611313Y0043870D01*
X0611174Y0043792D01*
X0611033Y0043718D01*
X0610890Y0043647D01*
X0610745Y0043579D01*
X0610599Y0043515D01*
X0610451Y0043455D01*
X0610302Y0043399D01*
X0610152Y0043346D01*
X0610000Y0043297D01*
X0609847Y0043252D01*
X0609693Y0043211D01*
X0609538Y0043173D01*
X0609382Y0043140D01*
X0609225Y0043110D01*
X0609068Y0043084D01*
X0608910Y0043063D01*
X0608751Y0043045D01*
X0608592Y0043031D01*
X0608433Y0043021D01*
X0608274Y0043015D01*
X0608114Y0043013D01*
X0607954Y0043015D01*
X0607795Y0043021D01*
X0607636Y0043031D01*
X0607477Y0043045D01*
X0607318Y0043063D01*
X0607160Y0043084D01*
X0607003Y0043110D01*
X0606846Y0043140D01*
X0606690Y0043173D01*
X0606535Y0043211D01*
X0606381Y0043252D01*
X0606228Y0043297D01*
X0606076Y0043346D01*
X0605926Y0043399D01*
X0605777Y0043455D01*
X0605629Y0043515D01*
X0605483Y0043579D01*
X0605338Y0043647D01*
X0605195Y0043718D01*
X0605054Y0043792D01*
X0604915Y0043870D01*
X0604778Y0043952D01*
X0604643Y0044037D01*
X0604510Y0044125D01*
X0604379Y0044216D01*
X0604251Y0044311D01*
X0604125Y0044409D01*
X0604001Y0044510D01*
X0603881Y0044614D01*
X0603762Y0044721D01*
X0603647Y0044831D01*
X0603534Y0044944D01*
X0603424Y0045059D01*
X0603317Y0045178D01*
X0603213Y0045298D01*
X0603112Y0045422D01*
X0603014Y0045548D01*
X0602919Y0045676D01*
X0602828Y0045807D01*
X0602740Y0045940D01*
X0602655Y0046075D01*
X0602573Y0046212D01*
X0602495Y0046351D01*
X0602421Y0046492D01*
X0602350Y0046635D01*
X0602282Y0046780D01*
X0602218Y0046926D01*
X0602158Y0047074D01*
X0602102Y0047223D01*
X0602049Y0047373D01*
X0602000Y0047525D01*
X0601955Y0047678D01*
X0601914Y0047832D01*
X0601876Y0047987D01*
X0601843Y0048143D01*
X0601813Y0048300D01*
X0601787Y0048457D01*
X0601766Y0048615D01*
X0601748Y0048774D01*
X0601734Y0048933D01*
X0601724Y0049092D01*
X0601718Y0049251D01*
X0601716Y0049411D01*
X0605036Y0020985D02*
X0605038Y0021146D01*
X0605044Y0021306D01*
X0605054Y0021467D01*
X0605068Y0021627D01*
X0605086Y0021787D01*
X0605107Y0021946D01*
X0605133Y0022105D01*
X0605163Y0022263D01*
X0605196Y0022420D01*
X0605234Y0022577D01*
X0605275Y0022732D01*
X0605320Y0022886D01*
X0605369Y0023039D01*
X0605422Y0023191D01*
X0605478Y0023342D01*
X0605539Y0023491D01*
X0605602Y0023639D01*
X0605670Y0023785D01*
X0605741Y0023929D01*
X0605815Y0024071D01*
X0605893Y0024212D01*
X0605975Y0024350D01*
X0606060Y0024487D01*
X0606148Y0024621D01*
X0606240Y0024753D01*
X0606335Y0024883D01*
X0606433Y0025011D01*
X0606534Y0025136D01*
X0606638Y0025258D01*
X0606745Y0025378D01*
X0606855Y0025495D01*
X0606968Y0025610D01*
X0607084Y0025721D01*
X0607203Y0025830D01*
X0607324Y0025935D01*
X0607448Y0026038D01*
X0607574Y0026138D01*
X0607702Y0026234D01*
X0607833Y0026327D01*
X0607967Y0026417D01*
X0608102Y0026504D01*
X0608240Y0026587D01*
X0608379Y0026667D01*
X0608521Y0026743D01*
X0608664Y0026816D01*
X0608809Y0026885D01*
X0608956Y0026951D01*
X0609104Y0027013D01*
X0609254Y0027071D01*
X0609405Y0027126D01*
X0609558Y0027177D01*
X0609712Y0027224D01*
X0609867Y0027267D01*
X0610023Y0027306D01*
X0610179Y0027342D01*
X0610337Y0027373D01*
X0610495Y0027401D01*
X0610654Y0027425D01*
X0610814Y0027445D01*
X0610974Y0027461D01*
X0611134Y0027473D01*
X0611295Y0027481D01*
X0611456Y0027485D01*
X0611616Y0027485D01*
X0611777Y0027481D01*
X0611938Y0027473D01*
X0612098Y0027461D01*
X0612258Y0027445D01*
X0612418Y0027425D01*
X0612577Y0027401D01*
X0612735Y0027373D01*
X0612893Y0027342D01*
X0613049Y0027306D01*
X0613205Y0027267D01*
X0613360Y0027224D01*
X0613514Y0027177D01*
X0613667Y0027126D01*
X0613818Y0027071D01*
X0613968Y0027013D01*
X0614116Y0026951D01*
X0614263Y0026885D01*
X0614408Y0026816D01*
X0614551Y0026743D01*
X0614693Y0026667D01*
X0614832Y0026587D01*
X0614970Y0026504D01*
X0615105Y0026417D01*
X0615239Y0026327D01*
X0615370Y0026234D01*
X0615498Y0026138D01*
X0615624Y0026038D01*
X0615748Y0025935D01*
X0615869Y0025830D01*
X0615988Y0025721D01*
X0616104Y0025610D01*
X0616217Y0025495D01*
X0616327Y0025378D01*
X0616434Y0025258D01*
X0616538Y0025136D01*
X0616639Y0025011D01*
X0616737Y0024883D01*
X0616832Y0024753D01*
X0616924Y0024621D01*
X0617012Y0024487D01*
X0617097Y0024350D01*
X0617179Y0024212D01*
X0617257Y0024071D01*
X0617331Y0023929D01*
X0617402Y0023785D01*
X0617470Y0023639D01*
X0617533Y0023491D01*
X0617594Y0023342D01*
X0617650Y0023191D01*
X0617703Y0023039D01*
X0617752Y0022886D01*
X0617797Y0022732D01*
X0617838Y0022577D01*
X0617876Y0022420D01*
X0617909Y0022263D01*
X0617939Y0022105D01*
X0617965Y0021946D01*
X0617986Y0021787D01*
X0618004Y0021627D01*
X0618018Y0021467D01*
X0618028Y0021306D01*
X0618034Y0021146D01*
X0618036Y0020985D01*
X0618034Y0020824D01*
X0618028Y0020664D01*
X0618018Y0020503D01*
X0618004Y0020343D01*
X0617986Y0020183D01*
X0617965Y0020024D01*
X0617939Y0019865D01*
X0617909Y0019707D01*
X0617876Y0019550D01*
X0617838Y0019393D01*
X0617797Y0019238D01*
X0617752Y0019084D01*
X0617703Y0018931D01*
X0617650Y0018779D01*
X0617594Y0018628D01*
X0617533Y0018479D01*
X0617470Y0018331D01*
X0617402Y0018185D01*
X0617331Y0018041D01*
X0617257Y0017899D01*
X0617179Y0017758D01*
X0617097Y0017620D01*
X0617012Y0017483D01*
X0616924Y0017349D01*
X0616832Y0017217D01*
X0616737Y0017087D01*
X0616639Y0016959D01*
X0616538Y0016834D01*
X0616434Y0016712D01*
X0616327Y0016592D01*
X0616217Y0016475D01*
X0616104Y0016360D01*
X0615988Y0016249D01*
X0615869Y0016140D01*
X0615748Y0016035D01*
X0615624Y0015932D01*
X0615498Y0015832D01*
X0615370Y0015736D01*
X0615239Y0015643D01*
X0615105Y0015553D01*
X0614970Y0015466D01*
X0614832Y0015383D01*
X0614693Y0015303D01*
X0614551Y0015227D01*
X0614408Y0015154D01*
X0614263Y0015085D01*
X0614116Y0015019D01*
X0613968Y0014957D01*
X0613818Y0014899D01*
X0613667Y0014844D01*
X0613514Y0014793D01*
X0613360Y0014746D01*
X0613205Y0014703D01*
X0613049Y0014664D01*
X0612893Y0014628D01*
X0612735Y0014597D01*
X0612577Y0014569D01*
X0612418Y0014545D01*
X0612258Y0014525D01*
X0612098Y0014509D01*
X0611938Y0014497D01*
X0611777Y0014489D01*
X0611616Y0014485D01*
X0611456Y0014485D01*
X0611295Y0014489D01*
X0611134Y0014497D01*
X0610974Y0014509D01*
X0610814Y0014525D01*
X0610654Y0014545D01*
X0610495Y0014569D01*
X0610337Y0014597D01*
X0610179Y0014628D01*
X0610023Y0014664D01*
X0609867Y0014703D01*
X0609712Y0014746D01*
X0609558Y0014793D01*
X0609405Y0014844D01*
X0609254Y0014899D01*
X0609104Y0014957D01*
X0608956Y0015019D01*
X0608809Y0015085D01*
X0608664Y0015154D01*
X0608521Y0015227D01*
X0608379Y0015303D01*
X0608240Y0015383D01*
X0608102Y0015466D01*
X0607967Y0015553D01*
X0607833Y0015643D01*
X0607702Y0015736D01*
X0607574Y0015832D01*
X0607448Y0015932D01*
X0607324Y0016035D01*
X0607203Y0016140D01*
X0607084Y0016249D01*
X0606968Y0016360D01*
X0606855Y0016475D01*
X0606745Y0016592D01*
X0606638Y0016712D01*
X0606534Y0016834D01*
X0606433Y0016959D01*
X0606335Y0017087D01*
X0606240Y0017217D01*
X0606148Y0017349D01*
X0606060Y0017483D01*
X0605975Y0017620D01*
X0605893Y0017758D01*
X0605815Y0017899D01*
X0605741Y0018041D01*
X0605670Y0018185D01*
X0605602Y0018331D01*
X0605539Y0018479D01*
X0605478Y0018628D01*
X0605422Y0018779D01*
X0605369Y0018931D01*
X0605320Y0019084D01*
X0605275Y0019238D01*
X0605234Y0019393D01*
X0605196Y0019550D01*
X0605163Y0019707D01*
X0605133Y0019865D01*
X0605107Y0020024D01*
X0605086Y0020183D01*
X0605068Y0020343D01*
X0605054Y0020503D01*
X0605044Y0020664D01*
X0605038Y0020824D01*
X0605036Y0020985D01*
X0533601Y0024544D02*
X0533603Y0024704D01*
X0533609Y0024863D01*
X0533619Y0025022D01*
X0533633Y0025181D01*
X0533651Y0025340D01*
X0533672Y0025498D01*
X0533698Y0025655D01*
X0533728Y0025812D01*
X0533761Y0025968D01*
X0533799Y0026123D01*
X0533840Y0026277D01*
X0533885Y0026430D01*
X0533934Y0026582D01*
X0533987Y0026732D01*
X0534043Y0026881D01*
X0534103Y0027029D01*
X0534167Y0027175D01*
X0534235Y0027320D01*
X0534306Y0027463D01*
X0534380Y0027604D01*
X0534458Y0027743D01*
X0534540Y0027880D01*
X0534625Y0028015D01*
X0534713Y0028148D01*
X0534804Y0028279D01*
X0534899Y0028407D01*
X0534997Y0028533D01*
X0535098Y0028657D01*
X0535202Y0028777D01*
X0535309Y0028896D01*
X0535419Y0029011D01*
X0535532Y0029124D01*
X0535647Y0029234D01*
X0535766Y0029341D01*
X0535886Y0029445D01*
X0536010Y0029546D01*
X0536136Y0029644D01*
X0536264Y0029739D01*
X0536395Y0029830D01*
X0536528Y0029918D01*
X0536663Y0030003D01*
X0536800Y0030085D01*
X0536939Y0030163D01*
X0537080Y0030237D01*
X0537223Y0030308D01*
X0537368Y0030376D01*
X0537514Y0030440D01*
X0537662Y0030500D01*
X0537811Y0030556D01*
X0537961Y0030609D01*
X0538113Y0030658D01*
X0538266Y0030703D01*
X0538420Y0030744D01*
X0538575Y0030782D01*
X0538731Y0030815D01*
X0538888Y0030845D01*
X0539045Y0030871D01*
X0539203Y0030892D01*
X0539362Y0030910D01*
X0539521Y0030924D01*
X0539680Y0030934D01*
X0539839Y0030940D01*
X0539999Y0030942D01*
X0540159Y0030940D01*
X0540318Y0030934D01*
X0540477Y0030924D01*
X0540636Y0030910D01*
X0540795Y0030892D01*
X0540953Y0030871D01*
X0541110Y0030845D01*
X0541267Y0030815D01*
X0541423Y0030782D01*
X0541578Y0030744D01*
X0541732Y0030703D01*
X0541885Y0030658D01*
X0542037Y0030609D01*
X0542187Y0030556D01*
X0542336Y0030500D01*
X0542484Y0030440D01*
X0542630Y0030376D01*
X0542775Y0030308D01*
X0542918Y0030237D01*
X0543059Y0030163D01*
X0543198Y0030085D01*
X0543335Y0030003D01*
X0543470Y0029918D01*
X0543603Y0029830D01*
X0543734Y0029739D01*
X0543862Y0029644D01*
X0543988Y0029546D01*
X0544112Y0029445D01*
X0544232Y0029341D01*
X0544351Y0029234D01*
X0544466Y0029124D01*
X0544579Y0029011D01*
X0544689Y0028896D01*
X0544796Y0028777D01*
X0544900Y0028657D01*
X0545001Y0028533D01*
X0545099Y0028407D01*
X0545194Y0028279D01*
X0545285Y0028148D01*
X0545373Y0028015D01*
X0545458Y0027880D01*
X0545540Y0027743D01*
X0545618Y0027604D01*
X0545692Y0027463D01*
X0545763Y0027320D01*
X0545831Y0027175D01*
X0545895Y0027029D01*
X0545955Y0026881D01*
X0546011Y0026732D01*
X0546064Y0026582D01*
X0546113Y0026430D01*
X0546158Y0026277D01*
X0546199Y0026123D01*
X0546237Y0025968D01*
X0546270Y0025812D01*
X0546300Y0025655D01*
X0546326Y0025498D01*
X0546347Y0025340D01*
X0546365Y0025181D01*
X0546379Y0025022D01*
X0546389Y0024863D01*
X0546395Y0024704D01*
X0546397Y0024544D01*
X0546395Y0024384D01*
X0546389Y0024225D01*
X0546379Y0024066D01*
X0546365Y0023907D01*
X0546347Y0023748D01*
X0546326Y0023590D01*
X0546300Y0023433D01*
X0546270Y0023276D01*
X0546237Y0023120D01*
X0546199Y0022965D01*
X0546158Y0022811D01*
X0546113Y0022658D01*
X0546064Y0022506D01*
X0546011Y0022356D01*
X0545955Y0022207D01*
X0545895Y0022059D01*
X0545831Y0021913D01*
X0545763Y0021768D01*
X0545692Y0021625D01*
X0545618Y0021484D01*
X0545540Y0021345D01*
X0545458Y0021208D01*
X0545373Y0021073D01*
X0545285Y0020940D01*
X0545194Y0020809D01*
X0545099Y0020681D01*
X0545001Y0020555D01*
X0544900Y0020431D01*
X0544796Y0020311D01*
X0544689Y0020192D01*
X0544579Y0020077D01*
X0544466Y0019964D01*
X0544351Y0019854D01*
X0544232Y0019747D01*
X0544112Y0019643D01*
X0543988Y0019542D01*
X0543862Y0019444D01*
X0543734Y0019349D01*
X0543603Y0019258D01*
X0543470Y0019170D01*
X0543335Y0019085D01*
X0543198Y0019003D01*
X0543059Y0018925D01*
X0542918Y0018851D01*
X0542775Y0018780D01*
X0542630Y0018712D01*
X0542484Y0018648D01*
X0542336Y0018588D01*
X0542187Y0018532D01*
X0542037Y0018479D01*
X0541885Y0018430D01*
X0541732Y0018385D01*
X0541578Y0018344D01*
X0541423Y0018306D01*
X0541267Y0018273D01*
X0541110Y0018243D01*
X0540953Y0018217D01*
X0540795Y0018196D01*
X0540636Y0018178D01*
X0540477Y0018164D01*
X0540318Y0018154D01*
X0540159Y0018148D01*
X0539999Y0018146D01*
X0539839Y0018148D01*
X0539680Y0018154D01*
X0539521Y0018164D01*
X0539362Y0018178D01*
X0539203Y0018196D01*
X0539045Y0018217D01*
X0538888Y0018243D01*
X0538731Y0018273D01*
X0538575Y0018306D01*
X0538420Y0018344D01*
X0538266Y0018385D01*
X0538113Y0018430D01*
X0537961Y0018479D01*
X0537811Y0018532D01*
X0537662Y0018588D01*
X0537514Y0018648D01*
X0537368Y0018712D01*
X0537223Y0018780D01*
X0537080Y0018851D01*
X0536939Y0018925D01*
X0536800Y0019003D01*
X0536663Y0019085D01*
X0536528Y0019170D01*
X0536395Y0019258D01*
X0536264Y0019349D01*
X0536136Y0019444D01*
X0536010Y0019542D01*
X0535886Y0019643D01*
X0535766Y0019747D01*
X0535647Y0019854D01*
X0535532Y0019964D01*
X0535419Y0020077D01*
X0535309Y0020192D01*
X0535202Y0020311D01*
X0535098Y0020431D01*
X0534997Y0020555D01*
X0534899Y0020681D01*
X0534804Y0020809D01*
X0534713Y0020940D01*
X0534625Y0021073D01*
X0534540Y0021208D01*
X0534458Y0021345D01*
X0534380Y0021484D01*
X0534306Y0021625D01*
X0534235Y0021768D01*
X0534167Y0021913D01*
X0534103Y0022059D01*
X0534043Y0022207D01*
X0533987Y0022356D01*
X0533934Y0022506D01*
X0533885Y0022658D01*
X0533840Y0022811D01*
X0533799Y0022965D01*
X0533761Y0023120D01*
X0533728Y0023276D01*
X0533698Y0023433D01*
X0533672Y0023590D01*
X0533651Y0023748D01*
X0533633Y0023907D01*
X0533619Y0024066D01*
X0533609Y0024225D01*
X0533603Y0024384D01*
X0533601Y0024544D01*
X0483601Y0024544D02*
X0483603Y0024704D01*
X0483609Y0024863D01*
X0483619Y0025022D01*
X0483633Y0025181D01*
X0483651Y0025340D01*
X0483672Y0025498D01*
X0483698Y0025655D01*
X0483728Y0025812D01*
X0483761Y0025968D01*
X0483799Y0026123D01*
X0483840Y0026277D01*
X0483885Y0026430D01*
X0483934Y0026582D01*
X0483987Y0026732D01*
X0484043Y0026881D01*
X0484103Y0027029D01*
X0484167Y0027175D01*
X0484235Y0027320D01*
X0484306Y0027463D01*
X0484380Y0027604D01*
X0484458Y0027743D01*
X0484540Y0027880D01*
X0484625Y0028015D01*
X0484713Y0028148D01*
X0484804Y0028279D01*
X0484899Y0028407D01*
X0484997Y0028533D01*
X0485098Y0028657D01*
X0485202Y0028777D01*
X0485309Y0028896D01*
X0485419Y0029011D01*
X0485532Y0029124D01*
X0485647Y0029234D01*
X0485766Y0029341D01*
X0485886Y0029445D01*
X0486010Y0029546D01*
X0486136Y0029644D01*
X0486264Y0029739D01*
X0486395Y0029830D01*
X0486528Y0029918D01*
X0486663Y0030003D01*
X0486800Y0030085D01*
X0486939Y0030163D01*
X0487080Y0030237D01*
X0487223Y0030308D01*
X0487368Y0030376D01*
X0487514Y0030440D01*
X0487662Y0030500D01*
X0487811Y0030556D01*
X0487961Y0030609D01*
X0488113Y0030658D01*
X0488266Y0030703D01*
X0488420Y0030744D01*
X0488575Y0030782D01*
X0488731Y0030815D01*
X0488888Y0030845D01*
X0489045Y0030871D01*
X0489203Y0030892D01*
X0489362Y0030910D01*
X0489521Y0030924D01*
X0489680Y0030934D01*
X0489839Y0030940D01*
X0489999Y0030942D01*
X0490159Y0030940D01*
X0490318Y0030934D01*
X0490477Y0030924D01*
X0490636Y0030910D01*
X0490795Y0030892D01*
X0490953Y0030871D01*
X0491110Y0030845D01*
X0491267Y0030815D01*
X0491423Y0030782D01*
X0491578Y0030744D01*
X0491732Y0030703D01*
X0491885Y0030658D01*
X0492037Y0030609D01*
X0492187Y0030556D01*
X0492336Y0030500D01*
X0492484Y0030440D01*
X0492630Y0030376D01*
X0492775Y0030308D01*
X0492918Y0030237D01*
X0493059Y0030163D01*
X0493198Y0030085D01*
X0493335Y0030003D01*
X0493470Y0029918D01*
X0493603Y0029830D01*
X0493734Y0029739D01*
X0493862Y0029644D01*
X0493988Y0029546D01*
X0494112Y0029445D01*
X0494232Y0029341D01*
X0494351Y0029234D01*
X0494466Y0029124D01*
X0494579Y0029011D01*
X0494689Y0028896D01*
X0494796Y0028777D01*
X0494900Y0028657D01*
X0495001Y0028533D01*
X0495099Y0028407D01*
X0495194Y0028279D01*
X0495285Y0028148D01*
X0495373Y0028015D01*
X0495458Y0027880D01*
X0495540Y0027743D01*
X0495618Y0027604D01*
X0495692Y0027463D01*
X0495763Y0027320D01*
X0495831Y0027175D01*
X0495895Y0027029D01*
X0495955Y0026881D01*
X0496011Y0026732D01*
X0496064Y0026582D01*
X0496113Y0026430D01*
X0496158Y0026277D01*
X0496199Y0026123D01*
X0496237Y0025968D01*
X0496270Y0025812D01*
X0496300Y0025655D01*
X0496326Y0025498D01*
X0496347Y0025340D01*
X0496365Y0025181D01*
X0496379Y0025022D01*
X0496389Y0024863D01*
X0496395Y0024704D01*
X0496397Y0024544D01*
X0496395Y0024384D01*
X0496389Y0024225D01*
X0496379Y0024066D01*
X0496365Y0023907D01*
X0496347Y0023748D01*
X0496326Y0023590D01*
X0496300Y0023433D01*
X0496270Y0023276D01*
X0496237Y0023120D01*
X0496199Y0022965D01*
X0496158Y0022811D01*
X0496113Y0022658D01*
X0496064Y0022506D01*
X0496011Y0022356D01*
X0495955Y0022207D01*
X0495895Y0022059D01*
X0495831Y0021913D01*
X0495763Y0021768D01*
X0495692Y0021625D01*
X0495618Y0021484D01*
X0495540Y0021345D01*
X0495458Y0021208D01*
X0495373Y0021073D01*
X0495285Y0020940D01*
X0495194Y0020809D01*
X0495099Y0020681D01*
X0495001Y0020555D01*
X0494900Y0020431D01*
X0494796Y0020311D01*
X0494689Y0020192D01*
X0494579Y0020077D01*
X0494466Y0019964D01*
X0494351Y0019854D01*
X0494232Y0019747D01*
X0494112Y0019643D01*
X0493988Y0019542D01*
X0493862Y0019444D01*
X0493734Y0019349D01*
X0493603Y0019258D01*
X0493470Y0019170D01*
X0493335Y0019085D01*
X0493198Y0019003D01*
X0493059Y0018925D01*
X0492918Y0018851D01*
X0492775Y0018780D01*
X0492630Y0018712D01*
X0492484Y0018648D01*
X0492336Y0018588D01*
X0492187Y0018532D01*
X0492037Y0018479D01*
X0491885Y0018430D01*
X0491732Y0018385D01*
X0491578Y0018344D01*
X0491423Y0018306D01*
X0491267Y0018273D01*
X0491110Y0018243D01*
X0490953Y0018217D01*
X0490795Y0018196D01*
X0490636Y0018178D01*
X0490477Y0018164D01*
X0490318Y0018154D01*
X0490159Y0018148D01*
X0489999Y0018146D01*
X0489839Y0018148D01*
X0489680Y0018154D01*
X0489521Y0018164D01*
X0489362Y0018178D01*
X0489203Y0018196D01*
X0489045Y0018217D01*
X0488888Y0018243D01*
X0488731Y0018273D01*
X0488575Y0018306D01*
X0488420Y0018344D01*
X0488266Y0018385D01*
X0488113Y0018430D01*
X0487961Y0018479D01*
X0487811Y0018532D01*
X0487662Y0018588D01*
X0487514Y0018648D01*
X0487368Y0018712D01*
X0487223Y0018780D01*
X0487080Y0018851D01*
X0486939Y0018925D01*
X0486800Y0019003D01*
X0486663Y0019085D01*
X0486528Y0019170D01*
X0486395Y0019258D01*
X0486264Y0019349D01*
X0486136Y0019444D01*
X0486010Y0019542D01*
X0485886Y0019643D01*
X0485766Y0019747D01*
X0485647Y0019854D01*
X0485532Y0019964D01*
X0485419Y0020077D01*
X0485309Y0020192D01*
X0485202Y0020311D01*
X0485098Y0020431D01*
X0484997Y0020555D01*
X0484899Y0020681D01*
X0484804Y0020809D01*
X0484713Y0020940D01*
X0484625Y0021073D01*
X0484540Y0021208D01*
X0484458Y0021345D01*
X0484380Y0021484D01*
X0484306Y0021625D01*
X0484235Y0021768D01*
X0484167Y0021913D01*
X0484103Y0022059D01*
X0484043Y0022207D01*
X0483987Y0022356D01*
X0483934Y0022506D01*
X0483885Y0022658D01*
X0483840Y0022811D01*
X0483799Y0022965D01*
X0483761Y0023120D01*
X0483728Y0023276D01*
X0483698Y0023433D01*
X0483672Y0023590D01*
X0483651Y0023748D01*
X0483633Y0023907D01*
X0483619Y0024066D01*
X0483609Y0024225D01*
X0483603Y0024384D01*
X0483601Y0024544D01*
X0014485Y0020985D02*
X0014487Y0021146D01*
X0014493Y0021306D01*
X0014503Y0021467D01*
X0014517Y0021627D01*
X0014535Y0021787D01*
X0014556Y0021946D01*
X0014582Y0022105D01*
X0014612Y0022263D01*
X0014645Y0022420D01*
X0014683Y0022577D01*
X0014724Y0022732D01*
X0014769Y0022886D01*
X0014818Y0023039D01*
X0014871Y0023191D01*
X0014927Y0023342D01*
X0014988Y0023491D01*
X0015051Y0023639D01*
X0015119Y0023785D01*
X0015190Y0023929D01*
X0015264Y0024071D01*
X0015342Y0024212D01*
X0015424Y0024350D01*
X0015509Y0024487D01*
X0015597Y0024621D01*
X0015689Y0024753D01*
X0015784Y0024883D01*
X0015882Y0025011D01*
X0015983Y0025136D01*
X0016087Y0025258D01*
X0016194Y0025378D01*
X0016304Y0025495D01*
X0016417Y0025610D01*
X0016533Y0025721D01*
X0016652Y0025830D01*
X0016773Y0025935D01*
X0016897Y0026038D01*
X0017023Y0026138D01*
X0017151Y0026234D01*
X0017282Y0026327D01*
X0017416Y0026417D01*
X0017551Y0026504D01*
X0017689Y0026587D01*
X0017828Y0026667D01*
X0017970Y0026743D01*
X0018113Y0026816D01*
X0018258Y0026885D01*
X0018405Y0026951D01*
X0018553Y0027013D01*
X0018703Y0027071D01*
X0018854Y0027126D01*
X0019007Y0027177D01*
X0019161Y0027224D01*
X0019316Y0027267D01*
X0019472Y0027306D01*
X0019628Y0027342D01*
X0019786Y0027373D01*
X0019944Y0027401D01*
X0020103Y0027425D01*
X0020263Y0027445D01*
X0020423Y0027461D01*
X0020583Y0027473D01*
X0020744Y0027481D01*
X0020905Y0027485D01*
X0021065Y0027485D01*
X0021226Y0027481D01*
X0021387Y0027473D01*
X0021547Y0027461D01*
X0021707Y0027445D01*
X0021867Y0027425D01*
X0022026Y0027401D01*
X0022184Y0027373D01*
X0022342Y0027342D01*
X0022498Y0027306D01*
X0022654Y0027267D01*
X0022809Y0027224D01*
X0022963Y0027177D01*
X0023116Y0027126D01*
X0023267Y0027071D01*
X0023417Y0027013D01*
X0023565Y0026951D01*
X0023712Y0026885D01*
X0023857Y0026816D01*
X0024000Y0026743D01*
X0024142Y0026667D01*
X0024281Y0026587D01*
X0024419Y0026504D01*
X0024554Y0026417D01*
X0024688Y0026327D01*
X0024819Y0026234D01*
X0024947Y0026138D01*
X0025073Y0026038D01*
X0025197Y0025935D01*
X0025318Y0025830D01*
X0025437Y0025721D01*
X0025553Y0025610D01*
X0025666Y0025495D01*
X0025776Y0025378D01*
X0025883Y0025258D01*
X0025987Y0025136D01*
X0026088Y0025011D01*
X0026186Y0024883D01*
X0026281Y0024753D01*
X0026373Y0024621D01*
X0026461Y0024487D01*
X0026546Y0024350D01*
X0026628Y0024212D01*
X0026706Y0024071D01*
X0026780Y0023929D01*
X0026851Y0023785D01*
X0026919Y0023639D01*
X0026982Y0023491D01*
X0027043Y0023342D01*
X0027099Y0023191D01*
X0027152Y0023039D01*
X0027201Y0022886D01*
X0027246Y0022732D01*
X0027287Y0022577D01*
X0027325Y0022420D01*
X0027358Y0022263D01*
X0027388Y0022105D01*
X0027414Y0021946D01*
X0027435Y0021787D01*
X0027453Y0021627D01*
X0027467Y0021467D01*
X0027477Y0021306D01*
X0027483Y0021146D01*
X0027485Y0020985D01*
X0027483Y0020824D01*
X0027477Y0020664D01*
X0027467Y0020503D01*
X0027453Y0020343D01*
X0027435Y0020183D01*
X0027414Y0020024D01*
X0027388Y0019865D01*
X0027358Y0019707D01*
X0027325Y0019550D01*
X0027287Y0019393D01*
X0027246Y0019238D01*
X0027201Y0019084D01*
X0027152Y0018931D01*
X0027099Y0018779D01*
X0027043Y0018628D01*
X0026982Y0018479D01*
X0026919Y0018331D01*
X0026851Y0018185D01*
X0026780Y0018041D01*
X0026706Y0017899D01*
X0026628Y0017758D01*
X0026546Y0017620D01*
X0026461Y0017483D01*
X0026373Y0017349D01*
X0026281Y0017217D01*
X0026186Y0017087D01*
X0026088Y0016959D01*
X0025987Y0016834D01*
X0025883Y0016712D01*
X0025776Y0016592D01*
X0025666Y0016475D01*
X0025553Y0016360D01*
X0025437Y0016249D01*
X0025318Y0016140D01*
X0025197Y0016035D01*
X0025073Y0015932D01*
X0024947Y0015832D01*
X0024819Y0015736D01*
X0024688Y0015643D01*
X0024554Y0015553D01*
X0024419Y0015466D01*
X0024281Y0015383D01*
X0024142Y0015303D01*
X0024000Y0015227D01*
X0023857Y0015154D01*
X0023712Y0015085D01*
X0023565Y0015019D01*
X0023417Y0014957D01*
X0023267Y0014899D01*
X0023116Y0014844D01*
X0022963Y0014793D01*
X0022809Y0014746D01*
X0022654Y0014703D01*
X0022498Y0014664D01*
X0022342Y0014628D01*
X0022184Y0014597D01*
X0022026Y0014569D01*
X0021867Y0014545D01*
X0021707Y0014525D01*
X0021547Y0014509D01*
X0021387Y0014497D01*
X0021226Y0014489D01*
X0021065Y0014485D01*
X0020905Y0014485D01*
X0020744Y0014489D01*
X0020583Y0014497D01*
X0020423Y0014509D01*
X0020263Y0014525D01*
X0020103Y0014545D01*
X0019944Y0014569D01*
X0019786Y0014597D01*
X0019628Y0014628D01*
X0019472Y0014664D01*
X0019316Y0014703D01*
X0019161Y0014746D01*
X0019007Y0014793D01*
X0018854Y0014844D01*
X0018703Y0014899D01*
X0018553Y0014957D01*
X0018405Y0015019D01*
X0018258Y0015085D01*
X0018113Y0015154D01*
X0017970Y0015227D01*
X0017828Y0015303D01*
X0017689Y0015383D01*
X0017551Y0015466D01*
X0017416Y0015553D01*
X0017282Y0015643D01*
X0017151Y0015736D01*
X0017023Y0015832D01*
X0016897Y0015932D01*
X0016773Y0016035D01*
X0016652Y0016140D01*
X0016533Y0016249D01*
X0016417Y0016360D01*
X0016304Y0016475D01*
X0016194Y0016592D01*
X0016087Y0016712D01*
X0015983Y0016834D01*
X0015882Y0016959D01*
X0015784Y0017087D01*
X0015689Y0017217D01*
X0015597Y0017349D01*
X0015509Y0017483D01*
X0015424Y0017620D01*
X0015342Y0017758D01*
X0015264Y0017899D01*
X0015190Y0018041D01*
X0015119Y0018185D01*
X0015051Y0018331D01*
X0014988Y0018479D01*
X0014927Y0018628D01*
X0014871Y0018779D01*
X0014818Y0018931D01*
X0014769Y0019084D01*
X0014724Y0019238D01*
X0014683Y0019393D01*
X0014645Y0019550D01*
X0014612Y0019707D01*
X0014582Y0019865D01*
X0014556Y0020024D01*
X0014535Y0020183D01*
X0014517Y0020343D01*
X0014503Y0020503D01*
X0014493Y0020664D01*
X0014487Y0020824D01*
X0014485Y0020985D01*
D11*
X0001300Y0001300D02*
X0631221Y0001300D01*
X0631221Y0395001D01*
X0001300Y0395001D01*
D12*
X0097821Y0323912D02*
X0098871Y0324963D01*
X0100973Y0324963D01*
X0102024Y0323912D01*
X0104266Y0323912D02*
X0105317Y0324963D01*
X0107419Y0324963D01*
X0108470Y0323912D01*
X0108470Y0322861D01*
X0107419Y0321811D01*
X0105317Y0321811D01*
X0104266Y0320760D01*
X0104266Y0319709D01*
X0105317Y0318658D01*
X0107419Y0318658D01*
X0108470Y0319709D01*
X0102024Y0318658D02*
X0097821Y0322861D01*
X0097821Y0323912D01*
X0097821Y0318658D02*
X0102024Y0318658D01*
X0063616Y0304434D02*
X0063616Y0301131D01*
X0063616Y0302232D02*
X0061965Y0302232D01*
X0061414Y0302783D01*
X0061414Y0303883D01*
X0061965Y0304434D01*
X0063616Y0304434D01*
X0062515Y0302232D02*
X0061414Y0301131D01*
X0059933Y0301131D02*
X0059933Y0301682D01*
X0057731Y0303883D01*
X0057731Y0304434D01*
X0059933Y0304434D01*
X0058431Y0290054D02*
X0059532Y0289504D01*
X0060633Y0288403D01*
X0058982Y0288403D01*
X0058431Y0287853D01*
X0058431Y0287302D01*
X0058982Y0286752D01*
X0060083Y0286752D01*
X0060633Y0287302D01*
X0060633Y0288403D01*
X0062114Y0288403D02*
X0062665Y0287853D01*
X0064316Y0287853D01*
X0063215Y0287853D02*
X0062114Y0286752D01*
X0062114Y0288403D02*
X0062114Y0289504D01*
X0062665Y0290054D01*
X0064316Y0290054D01*
X0064316Y0286752D01*
X0283619Y0230500D02*
X0283619Y0228398D01*
X0284669Y0227347D01*
X0284669Y0225106D02*
X0283619Y0224055D01*
X0283619Y0221953D01*
X0284669Y0220902D01*
X0286771Y0221953D02*
X0287822Y0220902D01*
X0288873Y0220902D01*
X0289924Y0221953D01*
X0289924Y0224055D01*
X0288873Y0225106D01*
X0288873Y0227347D02*
X0289924Y0228398D01*
X0289924Y0230500D01*
X0288873Y0231551D01*
X0287822Y0231551D01*
X0286771Y0230500D01*
X0285720Y0231551D01*
X0284669Y0231551D01*
X0283619Y0230500D01*
X0286771Y0230500D02*
X0286771Y0229449D01*
X0285720Y0225106D02*
X0284669Y0225106D01*
X0285720Y0225106D02*
X0286771Y0224055D01*
X0286771Y0221953D01*
X0402052Y0097085D02*
X0402052Y0092882D01*
X0402052Y0094983D02*
X0408357Y0094983D01*
X0406255Y0092882D01*
X0407306Y0090640D02*
X0408357Y0089589D01*
X0408357Y0087487D01*
X0407306Y0086436D01*
X0406255Y0086436D01*
X0405204Y0087487D01*
X0405204Y0089589D01*
X0404153Y0090640D01*
X0403102Y0090640D01*
X0402052Y0089589D01*
X0402052Y0087487D01*
X0403102Y0086436D01*
X0403391Y0085421D02*
X0404492Y0084320D01*
X0404492Y0084870D02*
X0404492Y0083219D01*
X0403391Y0083219D02*
X0406694Y0083219D01*
X0406694Y0084870D01*
X0406143Y0085421D01*
X0405042Y0085421D01*
X0404492Y0084870D01*
X0405042Y0086902D02*
X0405042Y0089104D01*
X0403391Y0088553D02*
X0406694Y0088553D01*
X0405042Y0086902D01*
X0494258Y0087264D02*
X0494809Y0086714D01*
X0494258Y0087264D02*
X0494258Y0088365D01*
X0494809Y0088915D01*
X0495910Y0088915D01*
X0496460Y0088365D01*
X0496460Y0087814D01*
X0495910Y0086714D01*
X0497561Y0086714D01*
X0497561Y0088915D01*
X0497011Y0085232D02*
X0495910Y0085232D01*
X0495359Y0084682D01*
X0495359Y0083030D01*
X0494258Y0083030D02*
X0497561Y0083030D01*
X0497561Y0084682D01*
X0497011Y0085232D01*
X0495359Y0084131D02*
X0494258Y0085232D01*
D13*
X0467835Y0103662D02*
X0452087Y0103662D01*
X0451963Y0103664D01*
X0451840Y0103670D01*
X0451716Y0103679D01*
X0451594Y0103693D01*
X0451471Y0103710D01*
X0451349Y0103732D01*
X0451228Y0103757D01*
X0451108Y0103786D01*
X0450989Y0103818D01*
X0450870Y0103855D01*
X0450753Y0103895D01*
X0450638Y0103938D01*
X0450523Y0103986D01*
X0450411Y0104037D01*
X0450300Y0104091D01*
X0450190Y0104149D01*
X0450083Y0104210D01*
X0449977Y0104275D01*
X0449874Y0104343D01*
X0449773Y0104414D01*
X0449674Y0104488D01*
X0449577Y0104565D01*
X0449483Y0104646D01*
X0449392Y0104729D01*
X0449303Y0104815D01*
X0449217Y0104904D01*
X0449134Y0104995D01*
X0449053Y0105089D01*
X0448976Y0105186D01*
X0448902Y0105285D01*
X0448831Y0105386D01*
X0448763Y0105489D01*
X0448698Y0105595D01*
X0448637Y0105702D01*
X0448579Y0105812D01*
X0448525Y0105923D01*
X0448474Y0106035D01*
X0448426Y0106150D01*
X0448383Y0106265D01*
X0448343Y0106382D01*
X0448306Y0106501D01*
X0448274Y0106620D01*
X0448245Y0106740D01*
X0448220Y0106861D01*
X0448198Y0106983D01*
X0448181Y0107106D01*
X0448167Y0107228D01*
X0448158Y0107352D01*
X0448152Y0107475D01*
X0448150Y0107599D01*
X0448152Y0107723D01*
X0448158Y0107846D01*
X0448167Y0107970D01*
X0448181Y0108092D01*
X0448198Y0108215D01*
X0448220Y0108337D01*
X0448245Y0108458D01*
X0448274Y0108578D01*
X0448306Y0108697D01*
X0448343Y0108816D01*
X0448383Y0108933D01*
X0448426Y0109048D01*
X0448474Y0109163D01*
X0448525Y0109275D01*
X0448579Y0109386D01*
X0448637Y0109496D01*
X0448698Y0109603D01*
X0448763Y0109709D01*
X0448831Y0109812D01*
X0448902Y0109913D01*
X0448976Y0110012D01*
X0449053Y0110109D01*
X0449134Y0110203D01*
X0449217Y0110294D01*
X0449303Y0110383D01*
X0449392Y0110469D01*
X0449483Y0110552D01*
X0449577Y0110633D01*
X0449674Y0110710D01*
X0449773Y0110784D01*
X0449874Y0110855D01*
X0449977Y0110923D01*
X0450083Y0110988D01*
X0450190Y0111049D01*
X0450300Y0111107D01*
X0450411Y0111161D01*
X0450523Y0111212D01*
X0450638Y0111260D01*
X0450753Y0111303D01*
X0450870Y0111343D01*
X0450989Y0111380D01*
X0451108Y0111412D01*
X0451228Y0111441D01*
X0451349Y0111466D01*
X0451471Y0111488D01*
X0451594Y0111505D01*
X0451716Y0111519D01*
X0451840Y0111528D01*
X0451963Y0111534D01*
X0452087Y0111536D01*
X0467835Y0111536D01*
X0467959Y0111534D01*
X0468082Y0111528D01*
X0468206Y0111519D01*
X0468328Y0111505D01*
X0468451Y0111488D01*
X0468573Y0111466D01*
X0468694Y0111441D01*
X0468814Y0111412D01*
X0468933Y0111380D01*
X0469052Y0111343D01*
X0469169Y0111303D01*
X0469284Y0111260D01*
X0469399Y0111212D01*
X0469511Y0111161D01*
X0469622Y0111107D01*
X0469732Y0111049D01*
X0469839Y0110988D01*
X0469945Y0110923D01*
X0470048Y0110855D01*
X0470149Y0110784D01*
X0470248Y0110710D01*
X0470345Y0110633D01*
X0470439Y0110552D01*
X0470530Y0110469D01*
X0470619Y0110383D01*
X0470705Y0110294D01*
X0470788Y0110203D01*
X0470869Y0110109D01*
X0470946Y0110012D01*
X0471020Y0109913D01*
X0471091Y0109812D01*
X0471159Y0109709D01*
X0471224Y0109603D01*
X0471285Y0109496D01*
X0471343Y0109386D01*
X0471397Y0109275D01*
X0471448Y0109163D01*
X0471496Y0109048D01*
X0471539Y0108933D01*
X0471579Y0108816D01*
X0471616Y0108697D01*
X0471648Y0108578D01*
X0471677Y0108458D01*
X0471702Y0108337D01*
X0471724Y0108215D01*
X0471741Y0108092D01*
X0471755Y0107970D01*
X0471764Y0107846D01*
X0471770Y0107723D01*
X0471772Y0107599D01*
X0471770Y0107475D01*
X0471764Y0107352D01*
X0471755Y0107228D01*
X0471741Y0107106D01*
X0471724Y0106983D01*
X0471702Y0106861D01*
X0471677Y0106740D01*
X0471648Y0106620D01*
X0471616Y0106501D01*
X0471579Y0106382D01*
X0471539Y0106265D01*
X0471496Y0106150D01*
X0471448Y0106035D01*
X0471397Y0105923D01*
X0471343Y0105812D01*
X0471285Y0105702D01*
X0471224Y0105595D01*
X0471159Y0105489D01*
X0471091Y0105386D01*
X0471020Y0105285D01*
X0470946Y0105186D01*
X0470869Y0105089D01*
X0470788Y0104995D01*
X0470705Y0104904D01*
X0470619Y0104815D01*
X0470530Y0104729D01*
X0470439Y0104646D01*
X0470345Y0104565D01*
X0470248Y0104488D01*
X0470149Y0104414D01*
X0470048Y0104343D01*
X0469945Y0104275D01*
X0469839Y0104210D01*
X0469732Y0104149D01*
X0469622Y0104091D01*
X0469511Y0104037D01*
X0469399Y0103986D01*
X0469284Y0103938D01*
X0469169Y0103895D01*
X0469052Y0103855D01*
X0468933Y0103818D01*
X0468814Y0103786D01*
X0468694Y0103757D01*
X0468573Y0103732D01*
X0468451Y0103710D01*
X0468328Y0103693D01*
X0468206Y0103679D01*
X0468082Y0103670D01*
X0467959Y0103664D01*
X0467835Y0103662D01*
X0428465Y0103662D02*
X0412717Y0103662D01*
X0412593Y0103664D01*
X0412470Y0103670D01*
X0412346Y0103679D01*
X0412224Y0103693D01*
X0412101Y0103710D01*
X0411979Y0103732D01*
X0411858Y0103757D01*
X0411738Y0103786D01*
X0411619Y0103818D01*
X0411500Y0103855D01*
X0411383Y0103895D01*
X0411268Y0103938D01*
X0411153Y0103986D01*
X0411041Y0104037D01*
X0410930Y0104091D01*
X0410820Y0104149D01*
X0410713Y0104210D01*
X0410607Y0104275D01*
X0410504Y0104343D01*
X0410403Y0104414D01*
X0410304Y0104488D01*
X0410207Y0104565D01*
X0410113Y0104646D01*
X0410022Y0104729D01*
X0409933Y0104815D01*
X0409847Y0104904D01*
X0409764Y0104995D01*
X0409683Y0105089D01*
X0409606Y0105186D01*
X0409532Y0105285D01*
X0409461Y0105386D01*
X0409393Y0105489D01*
X0409328Y0105595D01*
X0409267Y0105702D01*
X0409209Y0105812D01*
X0409155Y0105923D01*
X0409104Y0106035D01*
X0409056Y0106150D01*
X0409013Y0106265D01*
X0408973Y0106382D01*
X0408936Y0106501D01*
X0408904Y0106620D01*
X0408875Y0106740D01*
X0408850Y0106861D01*
X0408828Y0106983D01*
X0408811Y0107106D01*
X0408797Y0107228D01*
X0408788Y0107352D01*
X0408782Y0107475D01*
X0408780Y0107599D01*
X0408782Y0107723D01*
X0408788Y0107846D01*
X0408797Y0107970D01*
X0408811Y0108092D01*
X0408828Y0108215D01*
X0408850Y0108337D01*
X0408875Y0108458D01*
X0408904Y0108578D01*
X0408936Y0108697D01*
X0408973Y0108816D01*
X0409013Y0108933D01*
X0409056Y0109048D01*
X0409104Y0109163D01*
X0409155Y0109275D01*
X0409209Y0109386D01*
X0409267Y0109496D01*
X0409328Y0109603D01*
X0409393Y0109709D01*
X0409461Y0109812D01*
X0409532Y0109913D01*
X0409606Y0110012D01*
X0409683Y0110109D01*
X0409764Y0110203D01*
X0409847Y0110294D01*
X0409933Y0110383D01*
X0410022Y0110469D01*
X0410113Y0110552D01*
X0410207Y0110633D01*
X0410304Y0110710D01*
X0410403Y0110784D01*
X0410504Y0110855D01*
X0410607Y0110923D01*
X0410713Y0110988D01*
X0410820Y0111049D01*
X0410930Y0111107D01*
X0411041Y0111161D01*
X0411153Y0111212D01*
X0411268Y0111260D01*
X0411383Y0111303D01*
X0411500Y0111343D01*
X0411619Y0111380D01*
X0411738Y0111412D01*
X0411858Y0111441D01*
X0411979Y0111466D01*
X0412101Y0111488D01*
X0412224Y0111505D01*
X0412346Y0111519D01*
X0412470Y0111528D01*
X0412593Y0111534D01*
X0412717Y0111536D01*
X0428465Y0111536D01*
X0428589Y0111534D01*
X0428712Y0111528D01*
X0428836Y0111519D01*
X0428958Y0111505D01*
X0429081Y0111488D01*
X0429203Y0111466D01*
X0429324Y0111441D01*
X0429444Y0111412D01*
X0429563Y0111380D01*
X0429682Y0111343D01*
X0429799Y0111303D01*
X0429914Y0111260D01*
X0430029Y0111212D01*
X0430141Y0111161D01*
X0430252Y0111107D01*
X0430362Y0111049D01*
X0430469Y0110988D01*
X0430575Y0110923D01*
X0430678Y0110855D01*
X0430779Y0110784D01*
X0430878Y0110710D01*
X0430975Y0110633D01*
X0431069Y0110552D01*
X0431160Y0110469D01*
X0431249Y0110383D01*
X0431335Y0110294D01*
X0431418Y0110203D01*
X0431499Y0110109D01*
X0431576Y0110012D01*
X0431650Y0109913D01*
X0431721Y0109812D01*
X0431789Y0109709D01*
X0431854Y0109603D01*
X0431915Y0109496D01*
X0431973Y0109386D01*
X0432027Y0109275D01*
X0432078Y0109163D01*
X0432126Y0109048D01*
X0432169Y0108933D01*
X0432209Y0108816D01*
X0432246Y0108697D01*
X0432278Y0108578D01*
X0432307Y0108458D01*
X0432332Y0108337D01*
X0432354Y0108215D01*
X0432371Y0108092D01*
X0432385Y0107970D01*
X0432394Y0107846D01*
X0432400Y0107723D01*
X0432402Y0107599D01*
X0432400Y0107475D01*
X0432394Y0107352D01*
X0432385Y0107228D01*
X0432371Y0107106D01*
X0432354Y0106983D01*
X0432332Y0106861D01*
X0432307Y0106740D01*
X0432278Y0106620D01*
X0432246Y0106501D01*
X0432209Y0106382D01*
X0432169Y0106265D01*
X0432126Y0106150D01*
X0432078Y0106035D01*
X0432027Y0105923D01*
X0431973Y0105812D01*
X0431915Y0105702D01*
X0431854Y0105595D01*
X0431789Y0105489D01*
X0431721Y0105386D01*
X0431650Y0105285D01*
X0431576Y0105186D01*
X0431499Y0105089D01*
X0431418Y0104995D01*
X0431335Y0104904D01*
X0431249Y0104815D01*
X0431160Y0104729D01*
X0431069Y0104646D01*
X0430975Y0104565D01*
X0430878Y0104488D01*
X0430779Y0104414D01*
X0430678Y0104343D01*
X0430575Y0104275D01*
X0430469Y0104210D01*
X0430362Y0104149D01*
X0430252Y0104091D01*
X0430141Y0104037D01*
X0430029Y0103986D01*
X0429914Y0103938D01*
X0429799Y0103895D01*
X0429682Y0103855D01*
X0429563Y0103818D01*
X0429444Y0103786D01*
X0429324Y0103757D01*
X0429203Y0103732D01*
X0429081Y0103710D01*
X0428958Y0103693D01*
X0428836Y0103679D01*
X0428712Y0103670D01*
X0428589Y0103664D01*
X0428465Y0103662D01*
X0383351Y0078387D02*
X0300351Y0078387D01*
X0300351Y0038387D01*
X0383351Y0038387D01*
X0383351Y0078387D01*
X0383190Y0064293D02*
X0383038Y0064291D01*
X0382886Y0064285D01*
X0382734Y0064275D01*
X0382583Y0064262D01*
X0382432Y0064244D01*
X0382281Y0064223D01*
X0382131Y0064197D01*
X0381982Y0064168D01*
X0381833Y0064135D01*
X0381686Y0064098D01*
X0381539Y0064058D01*
X0381394Y0064013D01*
X0381250Y0063965D01*
X0381107Y0063913D01*
X0380965Y0063858D01*
X0380825Y0063799D01*
X0380686Y0063736D01*
X0380549Y0063670D01*
X0380414Y0063600D01*
X0380281Y0063527D01*
X0380150Y0063450D01*
X0380020Y0063370D01*
X0379893Y0063287D01*
X0379768Y0063201D01*
X0379645Y0063111D01*
X0379525Y0063018D01*
X0379407Y0062922D01*
X0379291Y0062823D01*
X0379178Y0062721D01*
X0379068Y0062617D01*
X0378960Y0062509D01*
X0378856Y0062399D01*
X0378754Y0062286D01*
X0378655Y0062170D01*
X0378559Y0062052D01*
X0378466Y0061932D01*
X0378376Y0061809D01*
X0378290Y0061684D01*
X0378207Y0061557D01*
X0378127Y0061427D01*
X0378050Y0061296D01*
X0377977Y0061163D01*
X0377907Y0061028D01*
X0377841Y0060891D01*
X0377778Y0060752D01*
X0377719Y0060612D01*
X0377664Y0060470D01*
X0377612Y0060327D01*
X0377564Y0060183D01*
X0377519Y0060038D01*
X0377479Y0059891D01*
X0377442Y0059744D01*
X0377409Y0059595D01*
X0377380Y0059446D01*
X0377354Y0059296D01*
X0377333Y0059145D01*
X0377315Y0058994D01*
X0377302Y0058843D01*
X0377292Y0058691D01*
X0377286Y0058539D01*
X0377284Y0058387D01*
X0377286Y0058235D01*
X0377292Y0058083D01*
X0377302Y0057931D01*
X0377315Y0057780D01*
X0377333Y0057629D01*
X0377354Y0057478D01*
X0377380Y0057328D01*
X0377409Y0057179D01*
X0377442Y0057030D01*
X0377479Y0056883D01*
X0377519Y0056736D01*
X0377564Y0056591D01*
X0377612Y0056447D01*
X0377664Y0056304D01*
X0377719Y0056162D01*
X0377778Y0056022D01*
X0377841Y0055883D01*
X0377907Y0055746D01*
X0377977Y0055611D01*
X0378050Y0055478D01*
X0378127Y0055347D01*
X0378207Y0055217D01*
X0378290Y0055090D01*
X0378376Y0054965D01*
X0378466Y0054842D01*
X0378559Y0054722D01*
X0378655Y0054604D01*
X0378754Y0054488D01*
X0378856Y0054375D01*
X0378960Y0054265D01*
X0379068Y0054157D01*
X0379178Y0054053D01*
X0379291Y0053951D01*
X0379407Y0053852D01*
X0379525Y0053756D01*
X0379645Y0053663D01*
X0379768Y0053573D01*
X0379893Y0053487D01*
X0380020Y0053404D01*
X0380150Y0053324D01*
X0380281Y0053247D01*
X0380414Y0053174D01*
X0380549Y0053104D01*
X0380686Y0053038D01*
X0380825Y0052975D01*
X0380965Y0052916D01*
X0381107Y0052861D01*
X0381250Y0052809D01*
X0381394Y0052761D01*
X0381539Y0052716D01*
X0381686Y0052676D01*
X0381833Y0052639D01*
X0381982Y0052606D01*
X0382131Y0052577D01*
X0382281Y0052551D01*
X0382432Y0052530D01*
X0382583Y0052512D01*
X0382734Y0052499D01*
X0382886Y0052489D01*
X0383038Y0052483D01*
X0383190Y0052481D01*
X0165867Y0099725D02*
X0165867Y0112324D01*
X0165865Y0112435D01*
X0165859Y0112546D01*
X0165849Y0112657D01*
X0165836Y0112767D01*
X0165818Y0112877D01*
X0165797Y0112986D01*
X0165771Y0113094D01*
X0165742Y0113202D01*
X0165709Y0113308D01*
X0165673Y0113413D01*
X0165633Y0113517D01*
X0165589Y0113619D01*
X0165541Y0113719D01*
X0165490Y0113818D01*
X0165436Y0113915D01*
X0165378Y0114010D01*
X0165317Y0114103D01*
X0165252Y0114193D01*
X0165185Y0114282D01*
X0165114Y0114368D01*
X0165040Y0114451D01*
X0164964Y0114532D01*
X0164885Y0114610D01*
X0164803Y0114685D01*
X0164718Y0114757D01*
X0164631Y0114826D01*
X0164541Y0114892D01*
X0164450Y0114955D01*
X0164356Y0115014D01*
X0164260Y0115070D01*
X0164162Y0115123D01*
X0164062Y0115172D01*
X0163961Y0115218D01*
X0163858Y0115260D01*
X0163754Y0115299D01*
X0163648Y0115333D01*
X0163541Y0115364D01*
X0163433Y0115391D01*
X0163325Y0115415D01*
X0163215Y0115434D01*
X0163105Y0115450D01*
X0162995Y0115462D01*
X0162884Y0115470D01*
X0162773Y0115474D01*
X0162661Y0115474D01*
X0162550Y0115470D01*
X0162439Y0115462D01*
X0162329Y0115450D01*
X0162219Y0115434D01*
X0162109Y0115415D01*
X0162001Y0115391D01*
X0161893Y0115364D01*
X0161786Y0115333D01*
X0161680Y0115299D01*
X0161576Y0115260D01*
X0161473Y0115218D01*
X0161372Y0115172D01*
X0161272Y0115123D01*
X0161174Y0115070D01*
X0161078Y0115014D01*
X0160984Y0114955D01*
X0160893Y0114892D01*
X0160803Y0114826D01*
X0160716Y0114757D01*
X0160631Y0114685D01*
X0160549Y0114610D01*
X0160470Y0114532D01*
X0160394Y0114451D01*
X0160320Y0114368D01*
X0160249Y0114282D01*
X0160182Y0114193D01*
X0160117Y0114103D01*
X0160056Y0114010D01*
X0159998Y0113915D01*
X0159944Y0113818D01*
X0159893Y0113719D01*
X0159845Y0113619D01*
X0159801Y0113517D01*
X0159761Y0113413D01*
X0159725Y0113308D01*
X0159692Y0113202D01*
X0159663Y0113094D01*
X0159637Y0112986D01*
X0159616Y0112877D01*
X0159598Y0112767D01*
X0159585Y0112657D01*
X0159575Y0112546D01*
X0159569Y0112435D01*
X0159567Y0112324D01*
X0159568Y0112324D02*
X0159568Y0099725D01*
X0159567Y0099725D02*
X0159569Y0099614D01*
X0159575Y0099503D01*
X0159585Y0099392D01*
X0159598Y0099282D01*
X0159616Y0099172D01*
X0159637Y0099063D01*
X0159663Y0098955D01*
X0159692Y0098847D01*
X0159725Y0098741D01*
X0159761Y0098636D01*
X0159801Y0098532D01*
X0159845Y0098430D01*
X0159893Y0098330D01*
X0159944Y0098231D01*
X0159998Y0098134D01*
X0160056Y0098039D01*
X0160117Y0097946D01*
X0160182Y0097856D01*
X0160249Y0097767D01*
X0160320Y0097681D01*
X0160394Y0097598D01*
X0160470Y0097517D01*
X0160549Y0097439D01*
X0160631Y0097364D01*
X0160716Y0097292D01*
X0160803Y0097223D01*
X0160893Y0097157D01*
X0160984Y0097094D01*
X0161078Y0097035D01*
X0161174Y0096979D01*
X0161272Y0096926D01*
X0161372Y0096877D01*
X0161473Y0096831D01*
X0161576Y0096789D01*
X0161680Y0096750D01*
X0161786Y0096716D01*
X0161893Y0096685D01*
X0162001Y0096658D01*
X0162109Y0096634D01*
X0162219Y0096615D01*
X0162329Y0096599D01*
X0162439Y0096587D01*
X0162550Y0096579D01*
X0162661Y0096575D01*
X0162773Y0096575D01*
X0162884Y0096579D01*
X0162995Y0096587D01*
X0163105Y0096599D01*
X0163215Y0096615D01*
X0163325Y0096634D01*
X0163433Y0096658D01*
X0163541Y0096685D01*
X0163648Y0096716D01*
X0163754Y0096750D01*
X0163858Y0096789D01*
X0163961Y0096831D01*
X0164062Y0096877D01*
X0164162Y0096926D01*
X0164260Y0096979D01*
X0164356Y0097035D01*
X0164450Y0097094D01*
X0164541Y0097157D01*
X0164631Y0097223D01*
X0164718Y0097292D01*
X0164803Y0097364D01*
X0164885Y0097439D01*
X0164964Y0097517D01*
X0165040Y0097598D01*
X0165114Y0097681D01*
X0165185Y0097767D01*
X0165252Y0097856D01*
X0165317Y0097946D01*
X0165378Y0098039D01*
X0165436Y0098134D01*
X0165490Y0098231D01*
X0165541Y0098330D01*
X0165589Y0098430D01*
X0165633Y0098532D01*
X0165673Y0098636D01*
X0165709Y0098741D01*
X0165742Y0098847D01*
X0165771Y0098955D01*
X0165797Y0099063D01*
X0165818Y0099172D01*
X0165836Y0099282D01*
X0165849Y0099392D01*
X0165859Y0099503D01*
X0165865Y0099614D01*
X0165867Y0099725D01*
X0039883Y0099725D02*
X0039883Y0112324D01*
X0039881Y0112435D01*
X0039875Y0112546D01*
X0039865Y0112657D01*
X0039852Y0112767D01*
X0039834Y0112877D01*
X0039813Y0112986D01*
X0039787Y0113094D01*
X0039758Y0113202D01*
X0039725Y0113308D01*
X0039689Y0113413D01*
X0039649Y0113517D01*
X0039605Y0113619D01*
X0039557Y0113719D01*
X0039506Y0113818D01*
X0039452Y0113915D01*
X0039394Y0114010D01*
X0039333Y0114103D01*
X0039268Y0114193D01*
X0039201Y0114282D01*
X0039130Y0114368D01*
X0039056Y0114451D01*
X0038980Y0114532D01*
X0038901Y0114610D01*
X0038819Y0114685D01*
X0038734Y0114757D01*
X0038647Y0114826D01*
X0038557Y0114892D01*
X0038466Y0114955D01*
X0038372Y0115014D01*
X0038276Y0115070D01*
X0038178Y0115123D01*
X0038078Y0115172D01*
X0037977Y0115218D01*
X0037874Y0115260D01*
X0037770Y0115299D01*
X0037664Y0115333D01*
X0037557Y0115364D01*
X0037449Y0115391D01*
X0037341Y0115415D01*
X0037231Y0115434D01*
X0037121Y0115450D01*
X0037011Y0115462D01*
X0036900Y0115470D01*
X0036789Y0115474D01*
X0036677Y0115474D01*
X0036566Y0115470D01*
X0036455Y0115462D01*
X0036345Y0115450D01*
X0036235Y0115434D01*
X0036125Y0115415D01*
X0036017Y0115391D01*
X0035909Y0115364D01*
X0035802Y0115333D01*
X0035696Y0115299D01*
X0035592Y0115260D01*
X0035489Y0115218D01*
X0035388Y0115172D01*
X0035288Y0115123D01*
X0035190Y0115070D01*
X0035094Y0115014D01*
X0035000Y0114955D01*
X0034909Y0114892D01*
X0034819Y0114826D01*
X0034732Y0114757D01*
X0034647Y0114685D01*
X0034565Y0114610D01*
X0034486Y0114532D01*
X0034410Y0114451D01*
X0034336Y0114368D01*
X0034265Y0114282D01*
X0034198Y0114193D01*
X0034133Y0114103D01*
X0034072Y0114010D01*
X0034014Y0113915D01*
X0033960Y0113818D01*
X0033909Y0113719D01*
X0033861Y0113619D01*
X0033817Y0113517D01*
X0033777Y0113413D01*
X0033741Y0113308D01*
X0033708Y0113202D01*
X0033679Y0113094D01*
X0033653Y0112986D01*
X0033632Y0112877D01*
X0033614Y0112767D01*
X0033601Y0112657D01*
X0033591Y0112546D01*
X0033585Y0112435D01*
X0033583Y0112324D01*
X0033583Y0099725D01*
X0033585Y0099614D01*
X0033591Y0099503D01*
X0033601Y0099392D01*
X0033614Y0099282D01*
X0033632Y0099172D01*
X0033653Y0099063D01*
X0033679Y0098955D01*
X0033708Y0098847D01*
X0033741Y0098741D01*
X0033777Y0098636D01*
X0033817Y0098532D01*
X0033861Y0098430D01*
X0033909Y0098330D01*
X0033960Y0098231D01*
X0034014Y0098134D01*
X0034072Y0098039D01*
X0034133Y0097946D01*
X0034198Y0097856D01*
X0034265Y0097767D01*
X0034336Y0097681D01*
X0034410Y0097598D01*
X0034486Y0097517D01*
X0034565Y0097439D01*
X0034647Y0097364D01*
X0034732Y0097292D01*
X0034819Y0097223D01*
X0034909Y0097157D01*
X0035000Y0097094D01*
X0035094Y0097035D01*
X0035190Y0096979D01*
X0035288Y0096926D01*
X0035388Y0096877D01*
X0035489Y0096831D01*
X0035592Y0096789D01*
X0035696Y0096750D01*
X0035802Y0096716D01*
X0035909Y0096685D01*
X0036017Y0096658D01*
X0036125Y0096634D01*
X0036235Y0096615D01*
X0036345Y0096599D01*
X0036455Y0096587D01*
X0036566Y0096579D01*
X0036677Y0096575D01*
X0036789Y0096575D01*
X0036900Y0096579D01*
X0037011Y0096587D01*
X0037121Y0096599D01*
X0037231Y0096615D01*
X0037341Y0096634D01*
X0037449Y0096658D01*
X0037557Y0096685D01*
X0037664Y0096716D01*
X0037770Y0096750D01*
X0037874Y0096789D01*
X0037977Y0096831D01*
X0038078Y0096877D01*
X0038178Y0096926D01*
X0038276Y0096979D01*
X0038372Y0097035D01*
X0038466Y0097094D01*
X0038557Y0097157D01*
X0038647Y0097223D01*
X0038734Y0097292D01*
X0038819Y0097364D01*
X0038901Y0097439D01*
X0038980Y0097517D01*
X0039056Y0097598D01*
X0039130Y0097681D01*
X0039201Y0097767D01*
X0039268Y0097856D01*
X0039333Y0097946D01*
X0039394Y0098039D01*
X0039452Y0098134D01*
X0039506Y0098231D01*
X0039557Y0098330D01*
X0039605Y0098430D01*
X0039649Y0098532D01*
X0039689Y0098636D01*
X0039725Y0098741D01*
X0039758Y0098847D01*
X0039787Y0098955D01*
X0039813Y0099063D01*
X0039834Y0099172D01*
X0039852Y0099282D01*
X0039865Y0099392D01*
X0039875Y0099503D01*
X0039881Y0099614D01*
X0039883Y0099725D01*
X0036733Y0194213D02*
X0083977Y0194213D01*
X0084108Y0194215D01*
X0084238Y0194221D01*
X0084369Y0194231D01*
X0084499Y0194245D01*
X0084629Y0194262D01*
X0084758Y0194284D01*
X0084886Y0194309D01*
X0085013Y0194339D01*
X0085140Y0194372D01*
X0085265Y0194409D01*
X0085390Y0194450D01*
X0085513Y0194494D01*
X0085634Y0194543D01*
X0085754Y0194595D01*
X0085873Y0194650D01*
X0085990Y0194709D01*
X0086105Y0194772D01*
X0086218Y0194838D01*
X0086329Y0194907D01*
X0086437Y0194980D01*
X0086544Y0195056D01*
X0086648Y0195135D01*
X0086750Y0195217D01*
X0086849Y0195302D01*
X0086946Y0195390D01*
X0087039Y0195482D01*
X0087131Y0195575D01*
X0087219Y0195672D01*
X0087304Y0195771D01*
X0087386Y0195873D01*
X0087465Y0195977D01*
X0087541Y0196084D01*
X0087614Y0196192D01*
X0087683Y0196303D01*
X0087749Y0196416D01*
X0087812Y0196531D01*
X0087871Y0196648D01*
X0087926Y0196767D01*
X0087978Y0196887D01*
X0088027Y0197008D01*
X0088071Y0197131D01*
X0088112Y0197256D01*
X0088149Y0197381D01*
X0088182Y0197508D01*
X0088212Y0197635D01*
X0088237Y0197763D01*
X0088259Y0197892D01*
X0088276Y0198022D01*
X0088290Y0198152D01*
X0088300Y0198283D01*
X0088306Y0198413D01*
X0088308Y0198544D01*
X0088306Y0198675D01*
X0088300Y0198805D01*
X0088290Y0198936D01*
X0088276Y0199066D01*
X0088259Y0199196D01*
X0088237Y0199325D01*
X0088212Y0199453D01*
X0088182Y0199580D01*
X0088149Y0199707D01*
X0088112Y0199832D01*
X0088071Y0199957D01*
X0088027Y0200080D01*
X0087978Y0200201D01*
X0087926Y0200321D01*
X0087871Y0200440D01*
X0087812Y0200557D01*
X0087749Y0200672D01*
X0087683Y0200785D01*
X0087614Y0200896D01*
X0087541Y0201004D01*
X0087465Y0201111D01*
X0087386Y0201215D01*
X0087304Y0201317D01*
X0087219Y0201416D01*
X0087131Y0201513D01*
X0087039Y0201606D01*
X0086946Y0201698D01*
X0086849Y0201786D01*
X0086750Y0201871D01*
X0086648Y0201953D01*
X0086544Y0202032D01*
X0086437Y0202108D01*
X0086329Y0202181D01*
X0086218Y0202250D01*
X0086105Y0202316D01*
X0085990Y0202379D01*
X0085873Y0202438D01*
X0085754Y0202493D01*
X0085634Y0202545D01*
X0085513Y0202594D01*
X0085390Y0202638D01*
X0085265Y0202679D01*
X0085140Y0202716D01*
X0085013Y0202749D01*
X0084886Y0202779D01*
X0084758Y0202804D01*
X0084629Y0202826D01*
X0084499Y0202843D01*
X0084369Y0202857D01*
X0084238Y0202867D01*
X0084108Y0202873D01*
X0083977Y0202875D01*
X0036733Y0202875D01*
X0036602Y0202873D01*
X0036472Y0202867D01*
X0036341Y0202857D01*
X0036211Y0202843D01*
X0036081Y0202826D01*
X0035952Y0202804D01*
X0035824Y0202779D01*
X0035697Y0202749D01*
X0035570Y0202716D01*
X0035445Y0202679D01*
X0035320Y0202638D01*
X0035197Y0202594D01*
X0035076Y0202545D01*
X0034956Y0202493D01*
X0034837Y0202438D01*
X0034720Y0202379D01*
X0034605Y0202316D01*
X0034492Y0202250D01*
X0034381Y0202181D01*
X0034273Y0202108D01*
X0034166Y0202032D01*
X0034062Y0201953D01*
X0033960Y0201871D01*
X0033861Y0201786D01*
X0033764Y0201698D01*
X0033671Y0201606D01*
X0033579Y0201513D01*
X0033491Y0201416D01*
X0033406Y0201317D01*
X0033324Y0201215D01*
X0033245Y0201111D01*
X0033169Y0201004D01*
X0033096Y0200896D01*
X0033027Y0200785D01*
X0032961Y0200672D01*
X0032898Y0200557D01*
X0032839Y0200440D01*
X0032784Y0200321D01*
X0032732Y0200201D01*
X0032683Y0200080D01*
X0032639Y0199957D01*
X0032598Y0199832D01*
X0032561Y0199707D01*
X0032528Y0199580D01*
X0032498Y0199453D01*
X0032473Y0199325D01*
X0032451Y0199196D01*
X0032434Y0199066D01*
X0032420Y0198936D01*
X0032410Y0198805D01*
X0032404Y0198675D01*
X0032402Y0198544D01*
X0032404Y0198413D01*
X0032410Y0198283D01*
X0032420Y0198152D01*
X0032434Y0198022D01*
X0032451Y0197892D01*
X0032473Y0197763D01*
X0032498Y0197635D01*
X0032528Y0197508D01*
X0032561Y0197381D01*
X0032598Y0197256D01*
X0032639Y0197131D01*
X0032683Y0197008D01*
X0032732Y0196887D01*
X0032784Y0196767D01*
X0032839Y0196648D01*
X0032898Y0196531D01*
X0032961Y0196416D01*
X0033027Y0196303D01*
X0033096Y0196192D01*
X0033169Y0196084D01*
X0033245Y0195977D01*
X0033324Y0195873D01*
X0033406Y0195771D01*
X0033491Y0195672D01*
X0033579Y0195575D01*
X0033671Y0195482D01*
X0033764Y0195390D01*
X0033861Y0195302D01*
X0033960Y0195217D01*
X0034062Y0195135D01*
X0034166Y0195056D01*
X0034273Y0194980D01*
X0034381Y0194907D01*
X0034492Y0194838D01*
X0034605Y0194772D01*
X0034720Y0194709D01*
X0034837Y0194650D01*
X0034956Y0194595D01*
X0035076Y0194543D01*
X0035197Y0194494D01*
X0035320Y0194450D01*
X0035445Y0194409D01*
X0035570Y0194372D01*
X0035697Y0194339D01*
X0035824Y0194309D01*
X0035952Y0194284D01*
X0036081Y0194262D01*
X0036211Y0194245D01*
X0036341Y0194231D01*
X0036472Y0194221D01*
X0036602Y0194215D01*
X0036733Y0194213D01*
X0115473Y0194213D02*
X0162717Y0194213D01*
X0162844Y0194221D01*
X0162971Y0194233D01*
X0163097Y0194248D01*
X0163223Y0194268D01*
X0163349Y0194292D01*
X0163473Y0194319D01*
X0163597Y0194351D01*
X0163719Y0194386D01*
X0163841Y0194424D01*
X0163961Y0194467D01*
X0164080Y0194513D01*
X0164197Y0194563D01*
X0164313Y0194616D01*
X0164427Y0194673D01*
X0164539Y0194734D01*
X0164649Y0194798D01*
X0164758Y0194865D01*
X0164864Y0194936D01*
X0164968Y0195009D01*
X0165069Y0195086D01*
X0165169Y0195166D01*
X0165265Y0195249D01*
X0165359Y0195335D01*
X0165451Y0195424D01*
X0165539Y0195516D01*
X0165625Y0195610D01*
X0165708Y0195707D01*
X0165788Y0195807D01*
X0165864Y0195908D01*
X0165938Y0196013D01*
X0166008Y0196119D01*
X0166075Y0196227D01*
X0166139Y0196338D01*
X0166199Y0196450D01*
X0166256Y0196565D01*
X0166309Y0196680D01*
X0166358Y0196798D01*
X0166404Y0196917D01*
X0166446Y0197037D01*
X0166485Y0197159D01*
X0166519Y0197281D01*
X0166550Y0197405D01*
X0166577Y0197530D01*
X0166601Y0197655D01*
X0166620Y0197781D01*
X0166636Y0197907D01*
X0166647Y0198034D01*
X0166655Y0198162D01*
X0166659Y0198289D01*
X0166658Y0198416D01*
X0166654Y0198544D01*
X0166658Y0198672D01*
X0166659Y0198799D01*
X0166655Y0198926D01*
X0166647Y0199054D01*
X0166636Y0199181D01*
X0166620Y0199307D01*
X0166601Y0199433D01*
X0166577Y0199558D01*
X0166550Y0199683D01*
X0166519Y0199807D01*
X0166485Y0199929D01*
X0166446Y0200051D01*
X0166404Y0200171D01*
X0166358Y0200290D01*
X0166309Y0200408D01*
X0166256Y0200523D01*
X0166199Y0200638D01*
X0166139Y0200750D01*
X0166075Y0200861D01*
X0166008Y0200969D01*
X0165938Y0201075D01*
X0165864Y0201180D01*
X0165788Y0201281D01*
X0165708Y0201381D01*
X0165625Y0201478D01*
X0165539Y0201572D01*
X0165451Y0201664D01*
X0165359Y0201753D01*
X0165265Y0201839D01*
X0165169Y0201922D01*
X0165069Y0202002D01*
X0164968Y0202079D01*
X0164864Y0202152D01*
X0164758Y0202223D01*
X0164649Y0202290D01*
X0164539Y0202354D01*
X0164427Y0202415D01*
X0164313Y0202472D01*
X0164197Y0202525D01*
X0164080Y0202575D01*
X0163961Y0202621D01*
X0163841Y0202664D01*
X0163719Y0202702D01*
X0163597Y0202737D01*
X0163473Y0202769D01*
X0163349Y0202796D01*
X0163223Y0202820D01*
X0163097Y0202840D01*
X0162971Y0202855D01*
X0162844Y0202867D01*
X0162717Y0202875D01*
X0115473Y0202875D01*
X0115342Y0202873D01*
X0115212Y0202867D01*
X0115081Y0202857D01*
X0114951Y0202843D01*
X0114821Y0202826D01*
X0114692Y0202804D01*
X0114564Y0202779D01*
X0114437Y0202749D01*
X0114310Y0202716D01*
X0114185Y0202679D01*
X0114060Y0202638D01*
X0113937Y0202594D01*
X0113816Y0202545D01*
X0113696Y0202493D01*
X0113577Y0202438D01*
X0113460Y0202379D01*
X0113345Y0202316D01*
X0113232Y0202250D01*
X0113121Y0202181D01*
X0113013Y0202108D01*
X0112906Y0202032D01*
X0112802Y0201953D01*
X0112700Y0201871D01*
X0112601Y0201786D01*
X0112504Y0201698D01*
X0112411Y0201606D01*
X0112319Y0201513D01*
X0112231Y0201416D01*
X0112146Y0201317D01*
X0112064Y0201215D01*
X0111985Y0201111D01*
X0111909Y0201004D01*
X0111836Y0200896D01*
X0111767Y0200785D01*
X0111701Y0200672D01*
X0111638Y0200557D01*
X0111579Y0200440D01*
X0111524Y0200321D01*
X0111472Y0200201D01*
X0111423Y0200080D01*
X0111379Y0199957D01*
X0111338Y0199832D01*
X0111301Y0199707D01*
X0111268Y0199580D01*
X0111238Y0199453D01*
X0111213Y0199325D01*
X0111191Y0199196D01*
X0111174Y0199066D01*
X0111160Y0198936D01*
X0111150Y0198805D01*
X0111144Y0198675D01*
X0111142Y0198544D01*
X0111144Y0198413D01*
X0111150Y0198283D01*
X0111160Y0198152D01*
X0111174Y0198022D01*
X0111191Y0197892D01*
X0111213Y0197763D01*
X0111238Y0197635D01*
X0111268Y0197508D01*
X0111301Y0197381D01*
X0111338Y0197256D01*
X0111379Y0197131D01*
X0111423Y0197008D01*
X0111472Y0196887D01*
X0111524Y0196767D01*
X0111579Y0196648D01*
X0111638Y0196531D01*
X0111701Y0196416D01*
X0111767Y0196303D01*
X0111836Y0196192D01*
X0111909Y0196084D01*
X0111985Y0195977D01*
X0112064Y0195873D01*
X0112146Y0195771D01*
X0112231Y0195672D01*
X0112319Y0195575D01*
X0112411Y0195482D01*
X0112504Y0195390D01*
X0112601Y0195302D01*
X0112700Y0195217D01*
X0112802Y0195135D01*
X0112906Y0195056D01*
X0113013Y0194980D01*
X0113121Y0194907D01*
X0113232Y0194838D01*
X0113345Y0194772D01*
X0113460Y0194709D01*
X0113577Y0194650D01*
X0113696Y0194595D01*
X0113816Y0194543D01*
X0113937Y0194494D01*
X0114060Y0194450D01*
X0114185Y0194409D01*
X0114310Y0194372D01*
X0114437Y0194339D01*
X0114564Y0194309D01*
X0114692Y0194284D01*
X0114821Y0194262D01*
X0114951Y0194245D01*
X0115081Y0194231D01*
X0115212Y0194221D01*
X0115342Y0194215D01*
X0115473Y0194213D01*
X0119410Y0241457D02*
X0119410Y0257206D01*
X0119412Y0257330D01*
X0119418Y0257453D01*
X0119427Y0257577D01*
X0119441Y0257699D01*
X0119458Y0257822D01*
X0119480Y0257944D01*
X0119505Y0258065D01*
X0119534Y0258185D01*
X0119566Y0258304D01*
X0119603Y0258423D01*
X0119643Y0258540D01*
X0119686Y0258655D01*
X0119734Y0258770D01*
X0119785Y0258882D01*
X0119839Y0258993D01*
X0119897Y0259103D01*
X0119958Y0259210D01*
X0120023Y0259316D01*
X0120091Y0259419D01*
X0120162Y0259520D01*
X0120236Y0259619D01*
X0120313Y0259716D01*
X0120394Y0259810D01*
X0120477Y0259901D01*
X0120563Y0259990D01*
X0120652Y0260076D01*
X0120743Y0260159D01*
X0120837Y0260240D01*
X0120934Y0260317D01*
X0121033Y0260391D01*
X0121134Y0260462D01*
X0121237Y0260530D01*
X0121343Y0260595D01*
X0121450Y0260656D01*
X0121560Y0260714D01*
X0121671Y0260768D01*
X0121783Y0260819D01*
X0121898Y0260867D01*
X0122013Y0260910D01*
X0122130Y0260950D01*
X0122249Y0260987D01*
X0122368Y0261019D01*
X0122488Y0261048D01*
X0122609Y0261073D01*
X0122731Y0261095D01*
X0122854Y0261112D01*
X0122976Y0261126D01*
X0123100Y0261135D01*
X0123223Y0261141D01*
X0123347Y0261143D01*
X0123471Y0261141D01*
X0123594Y0261135D01*
X0123718Y0261126D01*
X0123840Y0261112D01*
X0123963Y0261095D01*
X0124085Y0261073D01*
X0124206Y0261048D01*
X0124326Y0261019D01*
X0124445Y0260987D01*
X0124564Y0260950D01*
X0124681Y0260910D01*
X0124796Y0260867D01*
X0124911Y0260819D01*
X0125023Y0260768D01*
X0125134Y0260714D01*
X0125244Y0260656D01*
X0125351Y0260595D01*
X0125457Y0260530D01*
X0125560Y0260462D01*
X0125661Y0260391D01*
X0125760Y0260317D01*
X0125857Y0260240D01*
X0125951Y0260159D01*
X0126042Y0260076D01*
X0126131Y0259990D01*
X0126217Y0259901D01*
X0126300Y0259810D01*
X0126381Y0259716D01*
X0126458Y0259619D01*
X0126532Y0259520D01*
X0126603Y0259419D01*
X0126671Y0259316D01*
X0126736Y0259210D01*
X0126797Y0259103D01*
X0126855Y0258993D01*
X0126909Y0258882D01*
X0126960Y0258770D01*
X0127008Y0258655D01*
X0127051Y0258540D01*
X0127091Y0258423D01*
X0127128Y0258304D01*
X0127160Y0258185D01*
X0127189Y0258065D01*
X0127214Y0257944D01*
X0127236Y0257822D01*
X0127253Y0257699D01*
X0127267Y0257577D01*
X0127276Y0257453D01*
X0127282Y0257330D01*
X0127284Y0257206D01*
X0127284Y0241457D01*
X0127282Y0241333D01*
X0127276Y0241210D01*
X0127267Y0241086D01*
X0127253Y0240964D01*
X0127236Y0240841D01*
X0127214Y0240719D01*
X0127189Y0240598D01*
X0127160Y0240478D01*
X0127128Y0240359D01*
X0127091Y0240240D01*
X0127051Y0240123D01*
X0127008Y0240008D01*
X0126960Y0239893D01*
X0126909Y0239781D01*
X0126855Y0239670D01*
X0126797Y0239560D01*
X0126736Y0239453D01*
X0126671Y0239347D01*
X0126603Y0239244D01*
X0126532Y0239143D01*
X0126458Y0239044D01*
X0126381Y0238947D01*
X0126300Y0238853D01*
X0126217Y0238762D01*
X0126131Y0238673D01*
X0126042Y0238587D01*
X0125951Y0238504D01*
X0125857Y0238423D01*
X0125760Y0238346D01*
X0125661Y0238272D01*
X0125560Y0238201D01*
X0125457Y0238133D01*
X0125351Y0238068D01*
X0125244Y0238007D01*
X0125134Y0237949D01*
X0125023Y0237895D01*
X0124911Y0237844D01*
X0124796Y0237796D01*
X0124681Y0237753D01*
X0124564Y0237713D01*
X0124445Y0237676D01*
X0124326Y0237644D01*
X0124206Y0237615D01*
X0124085Y0237590D01*
X0123963Y0237568D01*
X0123840Y0237551D01*
X0123718Y0237537D01*
X0123594Y0237528D01*
X0123471Y0237522D01*
X0123347Y0237520D01*
X0123223Y0237522D01*
X0123100Y0237528D01*
X0122976Y0237537D01*
X0122854Y0237551D01*
X0122731Y0237568D01*
X0122609Y0237590D01*
X0122488Y0237615D01*
X0122368Y0237644D01*
X0122249Y0237676D01*
X0122130Y0237713D01*
X0122013Y0237753D01*
X0121898Y0237796D01*
X0121783Y0237844D01*
X0121671Y0237895D01*
X0121560Y0237949D01*
X0121450Y0238007D01*
X0121343Y0238068D01*
X0121237Y0238133D01*
X0121134Y0238201D01*
X0121033Y0238272D01*
X0120934Y0238346D01*
X0120837Y0238423D01*
X0120743Y0238504D01*
X0120652Y0238587D01*
X0120563Y0238673D01*
X0120477Y0238762D01*
X0120394Y0238853D01*
X0120313Y0238947D01*
X0120236Y0239044D01*
X0120162Y0239143D01*
X0120091Y0239244D01*
X0120023Y0239347D01*
X0119958Y0239453D01*
X0119897Y0239560D01*
X0119839Y0239670D01*
X0119785Y0239781D01*
X0119734Y0239893D01*
X0119686Y0240008D01*
X0119643Y0240123D01*
X0119603Y0240240D01*
X0119566Y0240359D01*
X0119534Y0240478D01*
X0119505Y0240598D01*
X0119480Y0240719D01*
X0119458Y0240841D01*
X0119441Y0240964D01*
X0119427Y0241086D01*
X0119418Y0241210D01*
X0119412Y0241333D01*
X0119410Y0241457D01*
X0119410Y0280828D02*
X0119410Y0296576D01*
X0119412Y0296700D01*
X0119418Y0296823D01*
X0119427Y0296947D01*
X0119441Y0297069D01*
X0119458Y0297192D01*
X0119480Y0297314D01*
X0119505Y0297435D01*
X0119534Y0297555D01*
X0119566Y0297674D01*
X0119603Y0297793D01*
X0119643Y0297910D01*
X0119686Y0298025D01*
X0119734Y0298140D01*
X0119785Y0298252D01*
X0119839Y0298363D01*
X0119897Y0298473D01*
X0119958Y0298580D01*
X0120023Y0298686D01*
X0120091Y0298789D01*
X0120162Y0298890D01*
X0120236Y0298989D01*
X0120313Y0299086D01*
X0120394Y0299180D01*
X0120477Y0299271D01*
X0120563Y0299360D01*
X0120652Y0299446D01*
X0120743Y0299529D01*
X0120837Y0299610D01*
X0120934Y0299687D01*
X0121033Y0299761D01*
X0121134Y0299832D01*
X0121237Y0299900D01*
X0121343Y0299965D01*
X0121450Y0300026D01*
X0121560Y0300084D01*
X0121671Y0300138D01*
X0121783Y0300189D01*
X0121898Y0300237D01*
X0122013Y0300280D01*
X0122130Y0300320D01*
X0122249Y0300357D01*
X0122368Y0300389D01*
X0122488Y0300418D01*
X0122609Y0300443D01*
X0122731Y0300465D01*
X0122854Y0300482D01*
X0122976Y0300496D01*
X0123100Y0300505D01*
X0123223Y0300511D01*
X0123347Y0300513D01*
X0123471Y0300511D01*
X0123594Y0300505D01*
X0123718Y0300496D01*
X0123840Y0300482D01*
X0123963Y0300465D01*
X0124085Y0300443D01*
X0124206Y0300418D01*
X0124326Y0300389D01*
X0124445Y0300357D01*
X0124564Y0300320D01*
X0124681Y0300280D01*
X0124796Y0300237D01*
X0124911Y0300189D01*
X0125023Y0300138D01*
X0125134Y0300084D01*
X0125244Y0300026D01*
X0125351Y0299965D01*
X0125457Y0299900D01*
X0125560Y0299832D01*
X0125661Y0299761D01*
X0125760Y0299687D01*
X0125857Y0299610D01*
X0125951Y0299529D01*
X0126042Y0299446D01*
X0126131Y0299360D01*
X0126217Y0299271D01*
X0126300Y0299180D01*
X0126381Y0299086D01*
X0126458Y0298989D01*
X0126532Y0298890D01*
X0126603Y0298789D01*
X0126671Y0298686D01*
X0126736Y0298580D01*
X0126797Y0298473D01*
X0126855Y0298363D01*
X0126909Y0298252D01*
X0126960Y0298140D01*
X0127008Y0298025D01*
X0127051Y0297910D01*
X0127091Y0297793D01*
X0127128Y0297674D01*
X0127160Y0297555D01*
X0127189Y0297435D01*
X0127214Y0297314D01*
X0127236Y0297192D01*
X0127253Y0297069D01*
X0127267Y0296947D01*
X0127276Y0296823D01*
X0127282Y0296700D01*
X0127284Y0296576D01*
X0127284Y0280828D01*
X0127282Y0280704D01*
X0127276Y0280581D01*
X0127267Y0280457D01*
X0127253Y0280335D01*
X0127236Y0280212D01*
X0127214Y0280090D01*
X0127189Y0279969D01*
X0127160Y0279849D01*
X0127128Y0279730D01*
X0127091Y0279611D01*
X0127051Y0279494D01*
X0127008Y0279379D01*
X0126960Y0279264D01*
X0126909Y0279152D01*
X0126855Y0279041D01*
X0126797Y0278931D01*
X0126736Y0278824D01*
X0126671Y0278718D01*
X0126603Y0278615D01*
X0126532Y0278514D01*
X0126458Y0278415D01*
X0126381Y0278318D01*
X0126300Y0278224D01*
X0126217Y0278133D01*
X0126131Y0278044D01*
X0126042Y0277958D01*
X0125951Y0277875D01*
X0125857Y0277794D01*
X0125760Y0277717D01*
X0125661Y0277643D01*
X0125560Y0277572D01*
X0125457Y0277504D01*
X0125351Y0277439D01*
X0125244Y0277378D01*
X0125134Y0277320D01*
X0125023Y0277266D01*
X0124911Y0277215D01*
X0124796Y0277167D01*
X0124681Y0277124D01*
X0124564Y0277084D01*
X0124445Y0277047D01*
X0124326Y0277015D01*
X0124206Y0276986D01*
X0124085Y0276961D01*
X0123963Y0276939D01*
X0123840Y0276922D01*
X0123718Y0276908D01*
X0123594Y0276899D01*
X0123471Y0276893D01*
X0123347Y0276891D01*
X0123223Y0276893D01*
X0123100Y0276899D01*
X0122976Y0276908D01*
X0122854Y0276922D01*
X0122731Y0276939D01*
X0122609Y0276961D01*
X0122488Y0276986D01*
X0122368Y0277015D01*
X0122249Y0277047D01*
X0122130Y0277084D01*
X0122013Y0277124D01*
X0121898Y0277167D01*
X0121783Y0277215D01*
X0121671Y0277266D01*
X0121560Y0277320D01*
X0121450Y0277378D01*
X0121343Y0277439D01*
X0121237Y0277504D01*
X0121134Y0277572D01*
X0121033Y0277643D01*
X0120934Y0277717D01*
X0120837Y0277794D01*
X0120743Y0277875D01*
X0120652Y0277958D01*
X0120563Y0278044D01*
X0120477Y0278133D01*
X0120394Y0278224D01*
X0120313Y0278318D01*
X0120236Y0278415D01*
X0120162Y0278514D01*
X0120091Y0278615D01*
X0120023Y0278718D01*
X0119958Y0278824D01*
X0119897Y0278931D01*
X0119839Y0279041D01*
X0119785Y0279152D01*
X0119734Y0279264D01*
X0119686Y0279379D01*
X0119643Y0279494D01*
X0119603Y0279611D01*
X0119566Y0279730D01*
X0119534Y0279849D01*
X0119505Y0279969D01*
X0119480Y0280090D01*
X0119458Y0280212D01*
X0119441Y0280335D01*
X0119427Y0280457D01*
X0119418Y0280581D01*
X0119412Y0280704D01*
X0119410Y0280828D01*
X0213898Y0209961D02*
X0229646Y0209961D01*
X0229770Y0209959D01*
X0229893Y0209953D01*
X0230017Y0209944D01*
X0230139Y0209930D01*
X0230262Y0209913D01*
X0230384Y0209891D01*
X0230505Y0209866D01*
X0230625Y0209837D01*
X0230744Y0209805D01*
X0230863Y0209768D01*
X0230980Y0209728D01*
X0231095Y0209685D01*
X0231210Y0209637D01*
X0231322Y0209586D01*
X0231433Y0209532D01*
X0231543Y0209474D01*
X0231650Y0209413D01*
X0231756Y0209348D01*
X0231859Y0209280D01*
X0231960Y0209209D01*
X0232059Y0209135D01*
X0232156Y0209058D01*
X0232250Y0208977D01*
X0232341Y0208894D01*
X0232430Y0208808D01*
X0232516Y0208719D01*
X0232599Y0208628D01*
X0232680Y0208534D01*
X0232757Y0208437D01*
X0232831Y0208338D01*
X0232902Y0208237D01*
X0232970Y0208134D01*
X0233035Y0208028D01*
X0233096Y0207921D01*
X0233154Y0207811D01*
X0233208Y0207700D01*
X0233259Y0207588D01*
X0233307Y0207473D01*
X0233350Y0207358D01*
X0233390Y0207241D01*
X0233427Y0207122D01*
X0233459Y0207003D01*
X0233488Y0206883D01*
X0233513Y0206762D01*
X0233535Y0206640D01*
X0233552Y0206517D01*
X0233566Y0206395D01*
X0233575Y0206271D01*
X0233581Y0206148D01*
X0233583Y0206024D01*
X0233581Y0205900D01*
X0233575Y0205777D01*
X0233566Y0205653D01*
X0233552Y0205531D01*
X0233535Y0205408D01*
X0233513Y0205286D01*
X0233488Y0205165D01*
X0233459Y0205045D01*
X0233427Y0204926D01*
X0233390Y0204807D01*
X0233350Y0204690D01*
X0233307Y0204575D01*
X0233259Y0204460D01*
X0233208Y0204348D01*
X0233154Y0204237D01*
X0233096Y0204127D01*
X0233035Y0204020D01*
X0232970Y0203914D01*
X0232902Y0203811D01*
X0232831Y0203710D01*
X0232757Y0203611D01*
X0232680Y0203514D01*
X0232599Y0203420D01*
X0232516Y0203329D01*
X0232430Y0203240D01*
X0232341Y0203154D01*
X0232250Y0203071D01*
X0232156Y0202990D01*
X0232059Y0202913D01*
X0231960Y0202839D01*
X0231859Y0202768D01*
X0231756Y0202700D01*
X0231650Y0202635D01*
X0231543Y0202574D01*
X0231433Y0202516D01*
X0231322Y0202462D01*
X0231210Y0202411D01*
X0231095Y0202363D01*
X0230980Y0202320D01*
X0230863Y0202280D01*
X0230744Y0202243D01*
X0230625Y0202211D01*
X0230505Y0202182D01*
X0230384Y0202157D01*
X0230262Y0202135D01*
X0230139Y0202118D01*
X0230017Y0202104D01*
X0229893Y0202095D01*
X0229770Y0202089D01*
X0229646Y0202087D01*
X0213898Y0202087D01*
X0213774Y0202089D01*
X0213651Y0202095D01*
X0213527Y0202104D01*
X0213405Y0202118D01*
X0213282Y0202135D01*
X0213160Y0202157D01*
X0213039Y0202182D01*
X0212919Y0202211D01*
X0212800Y0202243D01*
X0212681Y0202280D01*
X0212564Y0202320D01*
X0212449Y0202363D01*
X0212334Y0202411D01*
X0212222Y0202462D01*
X0212111Y0202516D01*
X0212001Y0202574D01*
X0211894Y0202635D01*
X0211788Y0202700D01*
X0211685Y0202768D01*
X0211584Y0202839D01*
X0211485Y0202913D01*
X0211388Y0202990D01*
X0211294Y0203071D01*
X0211203Y0203154D01*
X0211114Y0203240D01*
X0211028Y0203329D01*
X0210945Y0203420D01*
X0210864Y0203514D01*
X0210787Y0203611D01*
X0210713Y0203710D01*
X0210642Y0203811D01*
X0210574Y0203914D01*
X0210509Y0204020D01*
X0210448Y0204127D01*
X0210390Y0204237D01*
X0210336Y0204348D01*
X0210285Y0204460D01*
X0210237Y0204575D01*
X0210194Y0204690D01*
X0210154Y0204807D01*
X0210117Y0204926D01*
X0210085Y0205045D01*
X0210056Y0205165D01*
X0210031Y0205286D01*
X0210009Y0205408D01*
X0209992Y0205531D01*
X0209978Y0205653D01*
X0209969Y0205777D01*
X0209963Y0205900D01*
X0209961Y0206024D01*
X0209963Y0206148D01*
X0209969Y0206271D01*
X0209978Y0206395D01*
X0209992Y0206517D01*
X0210009Y0206640D01*
X0210031Y0206762D01*
X0210056Y0206883D01*
X0210085Y0207003D01*
X0210117Y0207122D01*
X0210154Y0207241D01*
X0210194Y0207358D01*
X0210237Y0207473D01*
X0210285Y0207588D01*
X0210336Y0207700D01*
X0210390Y0207811D01*
X0210448Y0207921D01*
X0210509Y0208028D01*
X0210574Y0208134D01*
X0210642Y0208237D01*
X0210713Y0208338D01*
X0210787Y0208437D01*
X0210864Y0208534D01*
X0210945Y0208628D01*
X0211028Y0208719D01*
X0211114Y0208808D01*
X0211203Y0208894D01*
X0211294Y0208977D01*
X0211388Y0209058D01*
X0211485Y0209135D01*
X0211584Y0209209D01*
X0211685Y0209280D01*
X0211788Y0209348D01*
X0211894Y0209413D01*
X0212001Y0209474D01*
X0212111Y0209532D01*
X0212222Y0209586D01*
X0212334Y0209637D01*
X0212449Y0209685D01*
X0212564Y0209728D01*
X0212681Y0209768D01*
X0212800Y0209805D01*
X0212919Y0209837D01*
X0213039Y0209866D01*
X0213160Y0209891D01*
X0213282Y0209913D01*
X0213405Y0209930D01*
X0213527Y0209944D01*
X0213651Y0209953D01*
X0213774Y0209959D01*
X0213898Y0209961D01*
X0253269Y0209961D02*
X0269017Y0209961D01*
X0269141Y0209959D01*
X0269264Y0209953D01*
X0269388Y0209944D01*
X0269510Y0209930D01*
X0269633Y0209913D01*
X0269755Y0209891D01*
X0269876Y0209866D01*
X0269996Y0209837D01*
X0270115Y0209805D01*
X0270234Y0209768D01*
X0270351Y0209728D01*
X0270466Y0209685D01*
X0270581Y0209637D01*
X0270693Y0209586D01*
X0270804Y0209532D01*
X0270914Y0209474D01*
X0271021Y0209413D01*
X0271127Y0209348D01*
X0271230Y0209280D01*
X0271331Y0209209D01*
X0271430Y0209135D01*
X0271527Y0209058D01*
X0271621Y0208977D01*
X0271712Y0208894D01*
X0271801Y0208808D01*
X0271887Y0208719D01*
X0271970Y0208628D01*
X0272051Y0208534D01*
X0272128Y0208437D01*
X0272202Y0208338D01*
X0272273Y0208237D01*
X0272341Y0208134D01*
X0272406Y0208028D01*
X0272467Y0207921D01*
X0272525Y0207811D01*
X0272579Y0207700D01*
X0272630Y0207588D01*
X0272678Y0207473D01*
X0272721Y0207358D01*
X0272761Y0207241D01*
X0272798Y0207122D01*
X0272830Y0207003D01*
X0272859Y0206883D01*
X0272884Y0206762D01*
X0272906Y0206640D01*
X0272923Y0206517D01*
X0272937Y0206395D01*
X0272946Y0206271D01*
X0272952Y0206148D01*
X0272954Y0206024D01*
X0272952Y0205900D01*
X0272946Y0205777D01*
X0272937Y0205653D01*
X0272923Y0205531D01*
X0272906Y0205408D01*
X0272884Y0205286D01*
X0272859Y0205165D01*
X0272830Y0205045D01*
X0272798Y0204926D01*
X0272761Y0204807D01*
X0272721Y0204690D01*
X0272678Y0204575D01*
X0272630Y0204460D01*
X0272579Y0204348D01*
X0272525Y0204237D01*
X0272467Y0204127D01*
X0272406Y0204020D01*
X0272341Y0203914D01*
X0272273Y0203811D01*
X0272202Y0203710D01*
X0272128Y0203611D01*
X0272051Y0203514D01*
X0271970Y0203420D01*
X0271887Y0203329D01*
X0271801Y0203240D01*
X0271712Y0203154D01*
X0271621Y0203071D01*
X0271527Y0202990D01*
X0271430Y0202913D01*
X0271331Y0202839D01*
X0271230Y0202768D01*
X0271127Y0202700D01*
X0271021Y0202635D01*
X0270914Y0202574D01*
X0270804Y0202516D01*
X0270693Y0202462D01*
X0270581Y0202411D01*
X0270466Y0202363D01*
X0270351Y0202320D01*
X0270234Y0202280D01*
X0270115Y0202243D01*
X0269996Y0202211D01*
X0269876Y0202182D01*
X0269755Y0202157D01*
X0269633Y0202135D01*
X0269510Y0202118D01*
X0269388Y0202104D01*
X0269264Y0202095D01*
X0269141Y0202089D01*
X0269017Y0202087D01*
X0253269Y0202087D01*
X0253145Y0202089D01*
X0253022Y0202095D01*
X0252898Y0202104D01*
X0252776Y0202118D01*
X0252653Y0202135D01*
X0252531Y0202157D01*
X0252410Y0202182D01*
X0252290Y0202211D01*
X0252171Y0202243D01*
X0252052Y0202280D01*
X0251935Y0202320D01*
X0251820Y0202363D01*
X0251705Y0202411D01*
X0251593Y0202462D01*
X0251482Y0202516D01*
X0251372Y0202574D01*
X0251265Y0202635D01*
X0251159Y0202700D01*
X0251056Y0202768D01*
X0250955Y0202839D01*
X0250856Y0202913D01*
X0250759Y0202990D01*
X0250665Y0203071D01*
X0250574Y0203154D01*
X0250485Y0203240D01*
X0250399Y0203329D01*
X0250316Y0203420D01*
X0250235Y0203514D01*
X0250158Y0203611D01*
X0250084Y0203710D01*
X0250013Y0203811D01*
X0249945Y0203914D01*
X0249880Y0204020D01*
X0249819Y0204127D01*
X0249761Y0204237D01*
X0249707Y0204348D01*
X0249656Y0204460D01*
X0249608Y0204575D01*
X0249565Y0204690D01*
X0249525Y0204807D01*
X0249488Y0204926D01*
X0249456Y0205045D01*
X0249427Y0205165D01*
X0249402Y0205286D01*
X0249380Y0205408D01*
X0249363Y0205531D01*
X0249349Y0205653D01*
X0249340Y0205777D01*
X0249334Y0205900D01*
X0249332Y0206024D01*
X0249334Y0206148D01*
X0249340Y0206271D01*
X0249349Y0206395D01*
X0249363Y0206517D01*
X0249380Y0206640D01*
X0249402Y0206762D01*
X0249427Y0206883D01*
X0249456Y0207003D01*
X0249488Y0207122D01*
X0249525Y0207241D01*
X0249565Y0207358D01*
X0249608Y0207473D01*
X0249656Y0207588D01*
X0249707Y0207700D01*
X0249761Y0207811D01*
X0249819Y0207921D01*
X0249880Y0208028D01*
X0249945Y0208134D01*
X0250013Y0208237D01*
X0250084Y0208338D01*
X0250158Y0208437D01*
X0250235Y0208534D01*
X0250316Y0208628D01*
X0250399Y0208719D01*
X0250485Y0208808D01*
X0250574Y0208894D01*
X0250665Y0208977D01*
X0250759Y0209058D01*
X0250856Y0209135D01*
X0250955Y0209209D01*
X0251056Y0209280D01*
X0251159Y0209348D01*
X0251265Y0209413D01*
X0251372Y0209474D01*
X0251482Y0209532D01*
X0251593Y0209586D01*
X0251705Y0209637D01*
X0251820Y0209685D01*
X0251935Y0209728D01*
X0252052Y0209768D01*
X0252171Y0209805D01*
X0252290Y0209837D01*
X0252410Y0209866D01*
X0252531Y0209891D01*
X0252653Y0209913D01*
X0252776Y0209930D01*
X0252898Y0209944D01*
X0253022Y0209953D01*
X0253145Y0209959D01*
X0253269Y0209961D01*
X0409961Y0233583D02*
X0409961Y0280828D01*
X0414292Y0285159D02*
X0414423Y0285157D01*
X0414553Y0285151D01*
X0414684Y0285141D01*
X0414814Y0285127D01*
X0414944Y0285110D01*
X0415073Y0285088D01*
X0415201Y0285063D01*
X0415328Y0285033D01*
X0415455Y0285000D01*
X0415580Y0284963D01*
X0415705Y0284922D01*
X0415828Y0284878D01*
X0415949Y0284829D01*
X0416069Y0284777D01*
X0416188Y0284722D01*
X0416305Y0284663D01*
X0416420Y0284600D01*
X0416533Y0284534D01*
X0416644Y0284465D01*
X0416752Y0284392D01*
X0416859Y0284316D01*
X0416963Y0284237D01*
X0417065Y0284155D01*
X0417164Y0284070D01*
X0417261Y0283982D01*
X0417354Y0283890D01*
X0417446Y0283797D01*
X0417534Y0283700D01*
X0417619Y0283601D01*
X0417701Y0283499D01*
X0417780Y0283395D01*
X0417856Y0283288D01*
X0417929Y0283180D01*
X0417998Y0283069D01*
X0418064Y0282956D01*
X0418127Y0282841D01*
X0418186Y0282724D01*
X0418241Y0282605D01*
X0418293Y0282485D01*
X0418342Y0282364D01*
X0418386Y0282241D01*
X0418427Y0282116D01*
X0418464Y0281991D01*
X0418497Y0281864D01*
X0418527Y0281737D01*
X0418552Y0281609D01*
X0418574Y0281480D01*
X0418591Y0281350D01*
X0418605Y0281220D01*
X0418615Y0281089D01*
X0418621Y0280959D01*
X0418623Y0280828D01*
X0418623Y0233583D01*
X0414292Y0229252D02*
X0414161Y0229254D01*
X0414031Y0229260D01*
X0413900Y0229270D01*
X0413770Y0229284D01*
X0413640Y0229301D01*
X0413511Y0229323D01*
X0413383Y0229348D01*
X0413256Y0229378D01*
X0413129Y0229411D01*
X0413004Y0229448D01*
X0412879Y0229489D01*
X0412756Y0229533D01*
X0412635Y0229582D01*
X0412515Y0229634D01*
X0412396Y0229689D01*
X0412279Y0229748D01*
X0412164Y0229811D01*
X0412051Y0229877D01*
X0411940Y0229946D01*
X0411832Y0230019D01*
X0411725Y0230095D01*
X0411621Y0230174D01*
X0411519Y0230256D01*
X0411420Y0230341D01*
X0411323Y0230429D01*
X0411230Y0230521D01*
X0411138Y0230614D01*
X0411050Y0230711D01*
X0410965Y0230810D01*
X0410883Y0230912D01*
X0410804Y0231016D01*
X0410728Y0231123D01*
X0410655Y0231231D01*
X0410586Y0231342D01*
X0410520Y0231455D01*
X0410457Y0231570D01*
X0410398Y0231687D01*
X0410343Y0231806D01*
X0410291Y0231926D01*
X0410242Y0232047D01*
X0410198Y0232170D01*
X0410157Y0232295D01*
X0410120Y0232420D01*
X0410087Y0232547D01*
X0410057Y0232674D01*
X0410032Y0232802D01*
X0410010Y0232931D01*
X0409993Y0233061D01*
X0409979Y0233191D01*
X0409969Y0233322D01*
X0409963Y0233452D01*
X0409961Y0233583D01*
X0414292Y0229252D02*
X0414423Y0229254D01*
X0414553Y0229260D01*
X0414684Y0229270D01*
X0414814Y0229284D01*
X0414944Y0229301D01*
X0415073Y0229323D01*
X0415201Y0229348D01*
X0415328Y0229378D01*
X0415455Y0229411D01*
X0415580Y0229448D01*
X0415705Y0229489D01*
X0415828Y0229533D01*
X0415949Y0229582D01*
X0416069Y0229634D01*
X0416188Y0229689D01*
X0416305Y0229748D01*
X0416420Y0229811D01*
X0416533Y0229877D01*
X0416644Y0229946D01*
X0416752Y0230019D01*
X0416859Y0230095D01*
X0416963Y0230174D01*
X0417065Y0230256D01*
X0417164Y0230341D01*
X0417261Y0230429D01*
X0417354Y0230521D01*
X0417446Y0230614D01*
X0417534Y0230711D01*
X0417619Y0230810D01*
X0417701Y0230912D01*
X0417780Y0231016D01*
X0417856Y0231123D01*
X0417929Y0231231D01*
X0417998Y0231342D01*
X0418064Y0231455D01*
X0418127Y0231570D01*
X0418186Y0231687D01*
X0418241Y0231806D01*
X0418293Y0231926D01*
X0418342Y0232047D01*
X0418386Y0232170D01*
X0418427Y0232295D01*
X0418464Y0232420D01*
X0418497Y0232547D01*
X0418527Y0232674D01*
X0418552Y0232802D01*
X0418574Y0232931D01*
X0418591Y0233061D01*
X0418605Y0233191D01*
X0418615Y0233322D01*
X0418621Y0233452D01*
X0418623Y0233583D01*
X0409961Y0280828D02*
X0409963Y0280959D01*
X0409969Y0281089D01*
X0409979Y0281220D01*
X0409993Y0281350D01*
X0410010Y0281480D01*
X0410032Y0281609D01*
X0410057Y0281737D01*
X0410087Y0281864D01*
X0410120Y0281991D01*
X0410157Y0282116D01*
X0410198Y0282241D01*
X0410242Y0282364D01*
X0410291Y0282485D01*
X0410343Y0282605D01*
X0410398Y0282724D01*
X0410457Y0282841D01*
X0410520Y0282956D01*
X0410586Y0283069D01*
X0410655Y0283180D01*
X0410728Y0283288D01*
X0410804Y0283395D01*
X0410883Y0283499D01*
X0410965Y0283601D01*
X0411050Y0283700D01*
X0411138Y0283797D01*
X0411230Y0283890D01*
X0411323Y0283982D01*
X0411420Y0284070D01*
X0411519Y0284155D01*
X0411621Y0284237D01*
X0411725Y0284316D01*
X0411832Y0284392D01*
X0411940Y0284465D01*
X0412051Y0284534D01*
X0412164Y0284600D01*
X0412279Y0284663D01*
X0412396Y0284722D01*
X0412515Y0284777D01*
X0412635Y0284829D01*
X0412756Y0284878D01*
X0412879Y0284922D01*
X0413004Y0284963D01*
X0413129Y0285000D01*
X0413256Y0285033D01*
X0413383Y0285063D01*
X0413511Y0285088D01*
X0413640Y0285110D01*
X0413770Y0285127D01*
X0413900Y0285141D01*
X0414031Y0285151D01*
X0414161Y0285157D01*
X0414292Y0285159D01*
X0414292Y0307993D02*
X0414161Y0307995D01*
X0414031Y0308001D01*
X0413900Y0308011D01*
X0413770Y0308025D01*
X0413640Y0308042D01*
X0413511Y0308064D01*
X0413383Y0308089D01*
X0413256Y0308119D01*
X0413129Y0308152D01*
X0413004Y0308189D01*
X0412879Y0308230D01*
X0412756Y0308274D01*
X0412635Y0308323D01*
X0412515Y0308375D01*
X0412396Y0308430D01*
X0412279Y0308489D01*
X0412164Y0308552D01*
X0412051Y0308618D01*
X0411940Y0308687D01*
X0411832Y0308760D01*
X0411725Y0308836D01*
X0411621Y0308915D01*
X0411519Y0308997D01*
X0411420Y0309082D01*
X0411323Y0309170D01*
X0411230Y0309262D01*
X0411138Y0309355D01*
X0411050Y0309452D01*
X0410965Y0309551D01*
X0410883Y0309653D01*
X0410804Y0309757D01*
X0410728Y0309864D01*
X0410655Y0309972D01*
X0410586Y0310083D01*
X0410520Y0310196D01*
X0410457Y0310311D01*
X0410398Y0310428D01*
X0410343Y0310547D01*
X0410291Y0310667D01*
X0410242Y0310788D01*
X0410198Y0310911D01*
X0410157Y0311036D01*
X0410120Y0311161D01*
X0410087Y0311288D01*
X0410057Y0311415D01*
X0410032Y0311543D01*
X0410010Y0311672D01*
X0409993Y0311802D01*
X0409979Y0311932D01*
X0409969Y0312063D01*
X0409963Y0312193D01*
X0409961Y0312324D01*
X0409961Y0359568D01*
X0409969Y0359695D01*
X0409981Y0359822D01*
X0409996Y0359948D01*
X0410016Y0360074D01*
X0410040Y0360200D01*
X0410067Y0360324D01*
X0410099Y0360448D01*
X0410134Y0360570D01*
X0410172Y0360692D01*
X0410215Y0360812D01*
X0410261Y0360931D01*
X0410311Y0361048D01*
X0410364Y0361164D01*
X0410421Y0361278D01*
X0410482Y0361390D01*
X0410546Y0361500D01*
X0410613Y0361609D01*
X0410684Y0361715D01*
X0410757Y0361819D01*
X0410834Y0361920D01*
X0410914Y0362020D01*
X0410997Y0362116D01*
X0411083Y0362210D01*
X0411172Y0362302D01*
X0411264Y0362390D01*
X0411358Y0362476D01*
X0411455Y0362559D01*
X0411555Y0362639D01*
X0411656Y0362715D01*
X0411761Y0362789D01*
X0411867Y0362859D01*
X0411975Y0362926D01*
X0412086Y0362990D01*
X0412198Y0363050D01*
X0412313Y0363107D01*
X0412428Y0363160D01*
X0412546Y0363209D01*
X0412665Y0363255D01*
X0412785Y0363297D01*
X0412907Y0363336D01*
X0413029Y0363370D01*
X0413153Y0363401D01*
X0413278Y0363428D01*
X0413403Y0363452D01*
X0413529Y0363471D01*
X0413655Y0363487D01*
X0413782Y0363498D01*
X0413910Y0363506D01*
X0414037Y0363510D01*
X0414164Y0363509D01*
X0414292Y0363505D01*
X0414420Y0363509D01*
X0414547Y0363510D01*
X0414674Y0363506D01*
X0414802Y0363498D01*
X0414929Y0363487D01*
X0415055Y0363471D01*
X0415181Y0363452D01*
X0415306Y0363428D01*
X0415431Y0363401D01*
X0415555Y0363370D01*
X0415677Y0363336D01*
X0415799Y0363297D01*
X0415919Y0363255D01*
X0416038Y0363209D01*
X0416156Y0363160D01*
X0416271Y0363107D01*
X0416386Y0363050D01*
X0416498Y0362990D01*
X0416609Y0362926D01*
X0416717Y0362859D01*
X0416823Y0362789D01*
X0416928Y0362715D01*
X0417029Y0362639D01*
X0417129Y0362559D01*
X0417226Y0362476D01*
X0417320Y0362390D01*
X0417412Y0362302D01*
X0417501Y0362210D01*
X0417587Y0362116D01*
X0417670Y0362020D01*
X0417750Y0361920D01*
X0417827Y0361819D01*
X0417900Y0361715D01*
X0417971Y0361609D01*
X0418038Y0361500D01*
X0418102Y0361390D01*
X0418163Y0361278D01*
X0418220Y0361164D01*
X0418273Y0361048D01*
X0418323Y0360931D01*
X0418369Y0360812D01*
X0418412Y0360692D01*
X0418450Y0360570D01*
X0418485Y0360448D01*
X0418517Y0360324D01*
X0418544Y0360200D01*
X0418568Y0360074D01*
X0418588Y0359948D01*
X0418603Y0359822D01*
X0418615Y0359695D01*
X0418623Y0359568D01*
X0418623Y0312324D01*
X0418621Y0312193D01*
X0418615Y0312063D01*
X0418605Y0311932D01*
X0418591Y0311802D01*
X0418574Y0311672D01*
X0418552Y0311543D01*
X0418527Y0311415D01*
X0418497Y0311288D01*
X0418464Y0311161D01*
X0418427Y0311036D01*
X0418386Y0310911D01*
X0418342Y0310788D01*
X0418293Y0310667D01*
X0418241Y0310547D01*
X0418186Y0310428D01*
X0418127Y0310311D01*
X0418064Y0310196D01*
X0417998Y0310083D01*
X0417929Y0309972D01*
X0417856Y0309864D01*
X0417780Y0309757D01*
X0417701Y0309653D01*
X0417619Y0309551D01*
X0417534Y0309452D01*
X0417446Y0309355D01*
X0417354Y0309262D01*
X0417261Y0309170D01*
X0417164Y0309082D01*
X0417065Y0308997D01*
X0416963Y0308915D01*
X0416859Y0308836D01*
X0416752Y0308760D01*
X0416644Y0308687D01*
X0416533Y0308618D01*
X0416420Y0308552D01*
X0416305Y0308489D01*
X0416188Y0308430D01*
X0416069Y0308375D01*
X0415949Y0308323D01*
X0415828Y0308274D01*
X0415705Y0308230D01*
X0415580Y0308189D01*
X0415455Y0308152D01*
X0415328Y0308119D01*
X0415201Y0308089D01*
X0415073Y0308064D01*
X0414944Y0308042D01*
X0414814Y0308025D01*
X0414684Y0308011D01*
X0414553Y0308001D01*
X0414423Y0307995D01*
X0414292Y0307993D01*
X0500513Y0356418D02*
X0513111Y0356418D01*
X0513222Y0356420D01*
X0513333Y0356426D01*
X0513444Y0356436D01*
X0513554Y0356449D01*
X0513664Y0356467D01*
X0513773Y0356488D01*
X0513881Y0356514D01*
X0513989Y0356543D01*
X0514095Y0356576D01*
X0514200Y0356612D01*
X0514304Y0356652D01*
X0514406Y0356696D01*
X0514506Y0356744D01*
X0514605Y0356795D01*
X0514702Y0356849D01*
X0514797Y0356907D01*
X0514890Y0356968D01*
X0514980Y0357033D01*
X0515069Y0357100D01*
X0515155Y0357171D01*
X0515238Y0357245D01*
X0515319Y0357321D01*
X0515397Y0357400D01*
X0515472Y0357482D01*
X0515544Y0357567D01*
X0515613Y0357654D01*
X0515679Y0357744D01*
X0515742Y0357835D01*
X0515801Y0357929D01*
X0515857Y0358025D01*
X0515910Y0358123D01*
X0515959Y0358223D01*
X0516005Y0358324D01*
X0516047Y0358427D01*
X0516086Y0358531D01*
X0516120Y0358637D01*
X0516151Y0358744D01*
X0516178Y0358852D01*
X0516202Y0358960D01*
X0516221Y0359070D01*
X0516237Y0359180D01*
X0516249Y0359290D01*
X0516257Y0359401D01*
X0516261Y0359512D01*
X0516261Y0359624D01*
X0516257Y0359735D01*
X0516249Y0359846D01*
X0516237Y0359956D01*
X0516221Y0360066D01*
X0516202Y0360176D01*
X0516178Y0360284D01*
X0516151Y0360392D01*
X0516120Y0360499D01*
X0516086Y0360605D01*
X0516047Y0360709D01*
X0516005Y0360812D01*
X0515959Y0360913D01*
X0515910Y0361013D01*
X0515857Y0361111D01*
X0515801Y0361207D01*
X0515742Y0361301D01*
X0515679Y0361392D01*
X0515613Y0361482D01*
X0515544Y0361569D01*
X0515472Y0361654D01*
X0515397Y0361736D01*
X0515319Y0361815D01*
X0515238Y0361891D01*
X0515155Y0361965D01*
X0515069Y0362036D01*
X0514980Y0362103D01*
X0514890Y0362168D01*
X0514797Y0362229D01*
X0514702Y0362287D01*
X0514605Y0362341D01*
X0514506Y0362392D01*
X0514406Y0362440D01*
X0514304Y0362484D01*
X0514200Y0362524D01*
X0514095Y0362560D01*
X0513989Y0362593D01*
X0513881Y0362622D01*
X0513773Y0362648D01*
X0513664Y0362669D01*
X0513554Y0362687D01*
X0513444Y0362700D01*
X0513333Y0362710D01*
X0513222Y0362716D01*
X0513111Y0362718D01*
X0513111Y0362717D02*
X0500513Y0362717D01*
X0500513Y0362718D02*
X0500402Y0362716D01*
X0500291Y0362710D01*
X0500180Y0362700D01*
X0500070Y0362687D01*
X0499960Y0362669D01*
X0499851Y0362648D01*
X0499743Y0362622D01*
X0499635Y0362593D01*
X0499529Y0362560D01*
X0499424Y0362524D01*
X0499320Y0362484D01*
X0499218Y0362440D01*
X0499118Y0362392D01*
X0499019Y0362341D01*
X0498922Y0362287D01*
X0498827Y0362229D01*
X0498734Y0362168D01*
X0498644Y0362103D01*
X0498555Y0362036D01*
X0498469Y0361965D01*
X0498386Y0361891D01*
X0498305Y0361815D01*
X0498227Y0361736D01*
X0498152Y0361654D01*
X0498080Y0361569D01*
X0498011Y0361482D01*
X0497945Y0361392D01*
X0497882Y0361301D01*
X0497823Y0361207D01*
X0497767Y0361111D01*
X0497714Y0361013D01*
X0497665Y0360913D01*
X0497619Y0360812D01*
X0497577Y0360709D01*
X0497538Y0360605D01*
X0497504Y0360499D01*
X0497473Y0360392D01*
X0497446Y0360284D01*
X0497422Y0360176D01*
X0497403Y0360066D01*
X0497387Y0359956D01*
X0497375Y0359846D01*
X0497367Y0359735D01*
X0497363Y0359624D01*
X0497363Y0359512D01*
X0497367Y0359401D01*
X0497375Y0359290D01*
X0497387Y0359180D01*
X0497403Y0359070D01*
X0497422Y0358960D01*
X0497446Y0358852D01*
X0497473Y0358744D01*
X0497504Y0358637D01*
X0497538Y0358531D01*
X0497577Y0358427D01*
X0497619Y0358324D01*
X0497665Y0358223D01*
X0497714Y0358123D01*
X0497767Y0358025D01*
X0497823Y0357929D01*
X0497882Y0357835D01*
X0497945Y0357744D01*
X0498011Y0357654D01*
X0498080Y0357567D01*
X0498152Y0357482D01*
X0498227Y0357400D01*
X0498305Y0357321D01*
X0498386Y0357245D01*
X0498469Y0357171D01*
X0498555Y0357100D01*
X0498644Y0357033D01*
X0498734Y0356968D01*
X0498827Y0356907D01*
X0498922Y0356849D01*
X0499019Y0356795D01*
X0499118Y0356744D01*
X0499218Y0356696D01*
X0499320Y0356652D01*
X0499424Y0356612D01*
X0499529Y0356576D01*
X0499635Y0356543D01*
X0499743Y0356514D01*
X0499851Y0356488D01*
X0499960Y0356467D01*
X0500070Y0356449D01*
X0500180Y0356436D01*
X0500291Y0356426D01*
X0500402Y0356420D01*
X0500513Y0356418D01*
X0500513Y0236733D02*
X0513111Y0236733D01*
X0513222Y0236731D01*
X0513333Y0236725D01*
X0513444Y0236715D01*
X0513554Y0236702D01*
X0513664Y0236684D01*
X0513773Y0236663D01*
X0513881Y0236637D01*
X0513989Y0236608D01*
X0514095Y0236575D01*
X0514200Y0236539D01*
X0514304Y0236499D01*
X0514406Y0236455D01*
X0514506Y0236407D01*
X0514605Y0236356D01*
X0514702Y0236302D01*
X0514797Y0236244D01*
X0514890Y0236183D01*
X0514980Y0236118D01*
X0515069Y0236051D01*
X0515155Y0235980D01*
X0515238Y0235906D01*
X0515319Y0235830D01*
X0515397Y0235751D01*
X0515472Y0235669D01*
X0515544Y0235584D01*
X0515613Y0235497D01*
X0515679Y0235407D01*
X0515742Y0235316D01*
X0515801Y0235222D01*
X0515857Y0235126D01*
X0515910Y0235028D01*
X0515959Y0234928D01*
X0516005Y0234827D01*
X0516047Y0234724D01*
X0516086Y0234620D01*
X0516120Y0234514D01*
X0516151Y0234407D01*
X0516178Y0234299D01*
X0516202Y0234191D01*
X0516221Y0234081D01*
X0516237Y0233971D01*
X0516249Y0233861D01*
X0516257Y0233750D01*
X0516261Y0233639D01*
X0516261Y0233527D01*
X0516257Y0233416D01*
X0516249Y0233305D01*
X0516237Y0233195D01*
X0516221Y0233085D01*
X0516202Y0232975D01*
X0516178Y0232867D01*
X0516151Y0232759D01*
X0516120Y0232652D01*
X0516086Y0232546D01*
X0516047Y0232442D01*
X0516005Y0232339D01*
X0515959Y0232238D01*
X0515910Y0232138D01*
X0515857Y0232040D01*
X0515801Y0231944D01*
X0515742Y0231850D01*
X0515679Y0231759D01*
X0515613Y0231669D01*
X0515544Y0231582D01*
X0515472Y0231497D01*
X0515397Y0231415D01*
X0515319Y0231336D01*
X0515238Y0231260D01*
X0515155Y0231186D01*
X0515069Y0231115D01*
X0514980Y0231048D01*
X0514890Y0230983D01*
X0514797Y0230922D01*
X0514702Y0230864D01*
X0514605Y0230810D01*
X0514506Y0230759D01*
X0514406Y0230711D01*
X0514304Y0230667D01*
X0514200Y0230627D01*
X0514095Y0230591D01*
X0513989Y0230558D01*
X0513881Y0230529D01*
X0513773Y0230503D01*
X0513664Y0230482D01*
X0513554Y0230464D01*
X0513444Y0230451D01*
X0513333Y0230441D01*
X0513222Y0230435D01*
X0513111Y0230433D01*
X0513111Y0230434D02*
X0500513Y0230434D01*
X0500513Y0230433D02*
X0500402Y0230435D01*
X0500291Y0230441D01*
X0500180Y0230451D01*
X0500070Y0230464D01*
X0499960Y0230482D01*
X0499851Y0230503D01*
X0499743Y0230529D01*
X0499635Y0230558D01*
X0499529Y0230591D01*
X0499424Y0230627D01*
X0499320Y0230667D01*
X0499218Y0230711D01*
X0499118Y0230759D01*
X0499019Y0230810D01*
X0498922Y0230864D01*
X0498827Y0230922D01*
X0498734Y0230983D01*
X0498644Y0231048D01*
X0498555Y0231115D01*
X0498469Y0231186D01*
X0498386Y0231260D01*
X0498305Y0231336D01*
X0498227Y0231415D01*
X0498152Y0231497D01*
X0498080Y0231582D01*
X0498011Y0231669D01*
X0497945Y0231759D01*
X0497882Y0231850D01*
X0497823Y0231944D01*
X0497767Y0232040D01*
X0497714Y0232138D01*
X0497665Y0232238D01*
X0497619Y0232339D01*
X0497577Y0232442D01*
X0497538Y0232546D01*
X0497504Y0232652D01*
X0497473Y0232759D01*
X0497446Y0232867D01*
X0497422Y0232975D01*
X0497403Y0233085D01*
X0497387Y0233195D01*
X0497375Y0233305D01*
X0497367Y0233416D01*
X0497363Y0233527D01*
X0497363Y0233639D01*
X0497367Y0233750D01*
X0497375Y0233861D01*
X0497387Y0233971D01*
X0497403Y0234081D01*
X0497422Y0234191D01*
X0497446Y0234299D01*
X0497473Y0234407D01*
X0497504Y0234514D01*
X0497538Y0234620D01*
X0497577Y0234724D01*
X0497619Y0234827D01*
X0497665Y0234928D01*
X0497714Y0235028D01*
X0497767Y0235126D01*
X0497823Y0235222D01*
X0497882Y0235316D01*
X0497945Y0235407D01*
X0498011Y0235497D01*
X0498080Y0235584D01*
X0498152Y0235669D01*
X0498227Y0235751D01*
X0498305Y0235830D01*
X0498386Y0235906D01*
X0498469Y0235980D01*
X0498555Y0236051D01*
X0498644Y0236118D01*
X0498734Y0236183D01*
X0498827Y0236244D01*
X0498922Y0236302D01*
X0499019Y0236356D01*
X0499118Y0236407D01*
X0499218Y0236455D01*
X0499320Y0236499D01*
X0499424Y0236539D01*
X0499529Y0236575D01*
X0499635Y0236608D01*
X0499743Y0236637D01*
X0499851Y0236663D01*
X0499960Y0236684D01*
X0500070Y0236702D01*
X0500180Y0236715D01*
X0500291Y0236725D01*
X0500402Y0236731D01*
X0500513Y0236733D01*
D14*
X0489425Y0273587D02*
X0489425Y0278191D01*
X0487123Y0278191D01*
X0486356Y0277424D01*
X0486356Y0275889D01*
X0487123Y0275122D01*
X0489425Y0275122D01*
X0490960Y0275122D02*
X0490960Y0278191D01*
X0490960Y0275122D02*
X0493262Y0275122D01*
X0494029Y0275889D01*
X0494029Y0278191D01*
X0495564Y0277424D02*
X0496331Y0278191D01*
X0497866Y0278191D01*
X0498633Y0277424D01*
X0498633Y0275889D01*
X0497866Y0275122D01*
X0496331Y0275122D01*
X0495564Y0275889D01*
X0495564Y0277424D01*
X0500168Y0278191D02*
X0502470Y0278191D01*
X0503237Y0277424D01*
X0503237Y0275889D01*
X0502470Y0275122D01*
X0500168Y0275122D01*
X0504772Y0275889D02*
X0504772Y0277424D01*
X0505539Y0278191D01*
X0507074Y0278191D01*
X0507841Y0277424D01*
X0507841Y0275889D01*
X0507074Y0275122D01*
X0505539Y0275122D01*
X0504772Y0275889D01*
X0509376Y0275122D02*
X0510143Y0275889D01*
X0510143Y0278959D01*
X0510910Y0278191D02*
X0509376Y0278191D01*
X0512445Y0277424D02*
X0513212Y0278191D01*
X0514747Y0278191D01*
X0515514Y0277424D01*
X0515514Y0275889D01*
X0514747Y0275122D01*
X0513212Y0275122D01*
X0512445Y0275889D01*
X0512445Y0277424D01*
X0517049Y0277424D02*
X0517049Y0275122D01*
X0517049Y0277424D02*
X0517816Y0278191D01*
X0519351Y0278191D01*
X0520118Y0277424D01*
X0521653Y0277424D02*
X0522420Y0276657D01*
X0524722Y0276657D01*
X0524722Y0275122D02*
X0524722Y0279726D01*
X0522420Y0279726D01*
X0521653Y0278959D01*
X0521653Y0277424D01*
X0520118Y0279726D02*
X0520118Y0275122D01*
X0484821Y0275122D02*
X0483287Y0275122D01*
X0484054Y0275122D02*
X0484054Y0279726D01*
X0484821Y0279726D01*
X0481752Y0277424D02*
X0480985Y0278191D01*
X0479450Y0278191D01*
X0478683Y0277424D01*
X0478683Y0276657D01*
X0481752Y0276657D01*
X0481752Y0277424D02*
X0481752Y0275889D01*
X0480985Y0275122D01*
X0479450Y0275122D01*
X0477148Y0275122D02*
X0477148Y0278191D01*
X0477148Y0276657D02*
X0475614Y0278191D01*
X0474846Y0278191D01*
X0477148Y0312524D02*
X0477148Y0315593D01*
X0475614Y0315593D02*
X0474846Y0315593D01*
X0475614Y0315593D02*
X0477148Y0314058D01*
X0478683Y0314058D02*
X0481752Y0314058D01*
X0481752Y0313291D02*
X0481752Y0314826D01*
X0480985Y0315593D01*
X0479450Y0315593D01*
X0478683Y0314826D01*
X0478683Y0314058D01*
X0479450Y0312524D02*
X0480985Y0312524D01*
X0481752Y0313291D01*
X0483287Y0312524D02*
X0484821Y0312524D01*
X0484054Y0312524D02*
X0484054Y0317128D01*
X0484821Y0317128D01*
X0487123Y0315593D02*
X0486356Y0314826D01*
X0486356Y0313291D01*
X0487123Y0312524D01*
X0489425Y0312524D01*
X0490960Y0312524D02*
X0490960Y0315593D01*
X0489425Y0315593D02*
X0487123Y0315593D01*
X0489425Y0315593D02*
X0489425Y0310989D01*
X0490960Y0312524D02*
X0493262Y0312524D01*
X0494029Y0313291D01*
X0494029Y0315593D01*
X0495564Y0314826D02*
X0496331Y0315593D01*
X0497866Y0315593D01*
X0498633Y0314826D01*
X0498633Y0313291D01*
X0497866Y0312524D01*
X0496331Y0312524D01*
X0495564Y0313291D01*
X0495564Y0314826D01*
X0500168Y0315593D02*
X0502470Y0315593D01*
X0503237Y0314826D01*
X0503237Y0313291D01*
X0502470Y0312524D01*
X0500168Y0312524D01*
X0504772Y0313291D02*
X0504772Y0314826D01*
X0505539Y0315593D01*
X0507074Y0315593D01*
X0507841Y0314826D01*
X0507841Y0313291D01*
X0507074Y0312524D01*
X0505539Y0312524D01*
X0504772Y0313291D01*
X0509376Y0312524D02*
X0510143Y0313291D01*
X0510143Y0316360D01*
X0510910Y0315593D02*
X0509376Y0315593D01*
X0512445Y0314826D02*
X0512445Y0313291D01*
X0513212Y0312524D01*
X0514747Y0312524D01*
X0515514Y0313291D01*
X0515514Y0314826D01*
X0514747Y0315593D01*
X0513212Y0315593D01*
X0512445Y0314826D01*
X0517049Y0314826D02*
X0517049Y0312524D01*
X0517049Y0314826D02*
X0517816Y0315593D01*
X0519351Y0315593D01*
X0520118Y0314826D01*
X0521653Y0314826D02*
X0522420Y0314058D01*
X0524722Y0314058D01*
X0524722Y0312524D02*
X0524722Y0317128D01*
X0522420Y0317128D01*
X0521653Y0316360D01*
X0521653Y0314826D01*
X0520118Y0317128D02*
X0520118Y0312524D01*
X0520118Y0349925D02*
X0520118Y0354529D01*
X0519351Y0352994D02*
X0517816Y0352994D01*
X0517049Y0352227D01*
X0517049Y0349925D01*
X0515514Y0350693D02*
X0514747Y0349925D01*
X0513212Y0349925D01*
X0512445Y0350693D01*
X0512445Y0352227D01*
X0513212Y0352994D01*
X0514747Y0352994D01*
X0515514Y0352227D01*
X0515514Y0350693D01*
X0519351Y0352994D02*
X0520118Y0352227D01*
X0521653Y0352227D02*
X0522420Y0351460D01*
X0524722Y0351460D01*
X0524722Y0349925D02*
X0524722Y0354529D01*
X0522420Y0354529D01*
X0521653Y0353762D01*
X0521653Y0352227D01*
X0510910Y0352994D02*
X0509376Y0352994D01*
X0510143Y0353762D02*
X0510143Y0350693D01*
X0509376Y0349925D01*
X0507841Y0350693D02*
X0507074Y0349925D01*
X0505539Y0349925D01*
X0504772Y0350693D01*
X0504772Y0352227D01*
X0505539Y0352994D01*
X0507074Y0352994D01*
X0507841Y0352227D01*
X0507841Y0350693D01*
X0503237Y0350693D02*
X0503237Y0352227D01*
X0502470Y0352994D01*
X0500168Y0352994D01*
X0498633Y0352227D02*
X0498633Y0350693D01*
X0497866Y0349925D01*
X0496331Y0349925D01*
X0495564Y0350693D01*
X0495564Y0352227D01*
X0496331Y0352994D01*
X0497866Y0352994D01*
X0498633Y0352227D01*
X0500168Y0349925D02*
X0502470Y0349925D01*
X0503237Y0350693D01*
X0494029Y0350693D02*
X0494029Y0352994D01*
X0494029Y0350693D02*
X0493262Y0349925D01*
X0490960Y0349925D01*
X0490960Y0352994D01*
X0489425Y0352994D02*
X0487123Y0352994D01*
X0486356Y0352227D01*
X0486356Y0350693D01*
X0487123Y0349925D01*
X0489425Y0349925D01*
X0489425Y0348391D02*
X0489425Y0352994D01*
X0484821Y0354529D02*
X0484054Y0354529D01*
X0484054Y0349925D01*
X0484821Y0349925D02*
X0483287Y0349925D01*
X0481752Y0350693D02*
X0481752Y0352227D01*
X0480985Y0352994D01*
X0479450Y0352994D01*
X0478683Y0352227D01*
X0478683Y0351460D01*
X0481752Y0351460D01*
X0481752Y0350693D02*
X0480985Y0349925D01*
X0479450Y0349925D01*
X0477148Y0349925D02*
X0477148Y0352994D01*
X0477148Y0351460D02*
X0475614Y0352994D01*
X0474846Y0352994D01*
X0279568Y0235950D02*
X0279568Y0234415D01*
X0278801Y0233648D01*
X0278801Y0232113D02*
X0277267Y0232113D01*
X0276499Y0231346D01*
X0276499Y0229044D01*
X0274965Y0229044D02*
X0279568Y0229044D01*
X0279568Y0231346D01*
X0278801Y0232113D01*
X0276499Y0230579D02*
X0274965Y0232113D01*
X0274965Y0233648D02*
X0278034Y0236717D01*
X0278801Y0236717D01*
X0279568Y0235950D01*
X0274965Y0236717D02*
X0274965Y0233648D01*
X0231576Y0233252D02*
X0231576Y0235554D01*
X0230809Y0236321D01*
X0229274Y0236321D01*
X0228507Y0235554D01*
X0228507Y0233252D01*
X0226972Y0233252D02*
X0231576Y0233252D01*
X0228507Y0234787D02*
X0226972Y0236321D01*
X0226972Y0237856D02*
X0226972Y0240925D01*
X0226972Y0239391D02*
X0231576Y0239391D01*
X0230042Y0237856D01*
X0229274Y0242460D02*
X0230042Y0243994D01*
X0230042Y0244762D01*
X0229274Y0245529D01*
X0227740Y0245529D01*
X0226972Y0244762D01*
X0226972Y0243227D01*
X0227740Y0242460D01*
X0229274Y0242460D02*
X0231576Y0242460D01*
X0231576Y0245529D01*
X0204765Y0235950D02*
X0203998Y0236717D01*
X0203231Y0236717D01*
X0202463Y0235950D01*
X0202463Y0234415D01*
X0203231Y0233648D01*
X0203998Y0233648D01*
X0204765Y0234415D01*
X0204765Y0235950D01*
X0202463Y0235950D02*
X0201696Y0236717D01*
X0200929Y0236717D01*
X0200161Y0235950D01*
X0200161Y0234415D01*
X0200929Y0233648D01*
X0201696Y0233648D01*
X0202463Y0234415D01*
X0202463Y0232113D02*
X0201696Y0231346D01*
X0201696Y0229044D01*
X0200161Y0229044D02*
X0204765Y0229044D01*
X0204765Y0231346D01*
X0203998Y0232113D01*
X0202463Y0232113D01*
X0201696Y0230579D02*
X0200161Y0232113D01*
X0119210Y0157679D02*
X0116908Y0157679D01*
X0116141Y0156911D01*
X0116141Y0155377D01*
X0116908Y0154609D01*
X0119210Y0154609D01*
X0119210Y0153075D02*
X0119210Y0157679D01*
X0114606Y0157679D02*
X0114606Y0153075D01*
X0114606Y0155377D02*
X0113839Y0156144D01*
X0112304Y0156144D01*
X0111537Y0155377D01*
X0111537Y0153075D01*
X0110002Y0153842D02*
X0109235Y0153075D01*
X0107700Y0153075D01*
X0106933Y0153842D01*
X0106933Y0155377D01*
X0107700Y0156144D01*
X0109235Y0156144D01*
X0110002Y0155377D01*
X0110002Y0153842D01*
X0105398Y0156144D02*
X0103864Y0156144D01*
X0104631Y0156911D02*
X0104631Y0153842D01*
X0103864Y0153075D01*
X0102329Y0153842D02*
X0101562Y0153075D01*
X0100027Y0153075D01*
X0099260Y0153842D01*
X0099260Y0155377D01*
X0100027Y0156144D01*
X0101562Y0156144D01*
X0102329Y0155377D01*
X0102329Y0153842D01*
X0097725Y0153842D02*
X0096958Y0153075D01*
X0094656Y0153075D01*
X0093121Y0153842D02*
X0092354Y0153075D01*
X0090819Y0153075D01*
X0090052Y0153842D01*
X0090052Y0155377D01*
X0090819Y0156144D01*
X0092354Y0156144D01*
X0093121Y0155377D01*
X0093121Y0153842D01*
X0094656Y0156144D02*
X0096958Y0156144D01*
X0097725Y0155377D01*
X0097725Y0153842D01*
X0088517Y0153842D02*
X0087750Y0153075D01*
X0085448Y0153075D01*
X0085448Y0156144D01*
X0083913Y0156144D02*
X0081612Y0156144D01*
X0080844Y0155377D01*
X0080844Y0153842D01*
X0081612Y0153075D01*
X0083913Y0153075D01*
X0083913Y0151540D02*
X0083913Y0156144D01*
X0088517Y0156144D02*
X0088517Y0153842D01*
X0079310Y0153075D02*
X0077775Y0153075D01*
X0078542Y0153075D02*
X0078542Y0157679D01*
X0079310Y0157679D01*
X0076240Y0155377D02*
X0075473Y0156144D01*
X0073938Y0156144D01*
X0073171Y0155377D01*
X0073171Y0154609D01*
X0076240Y0154609D01*
X0076240Y0153842D02*
X0076240Y0155377D01*
X0076240Y0153842D02*
X0075473Y0153075D01*
X0073938Y0153075D01*
X0071636Y0153075D02*
X0071636Y0156144D01*
X0070102Y0156144D02*
X0069334Y0156144D01*
X0070102Y0156144D02*
X0071636Y0154609D01*
X0071397Y0280122D02*
X0072932Y0281657D01*
X0072164Y0281657D02*
X0074466Y0281657D01*
X0074466Y0280122D02*
X0074466Y0284726D01*
X0072164Y0284726D01*
X0071397Y0283959D01*
X0071397Y0282424D01*
X0072164Y0281657D01*
X0069862Y0283191D02*
X0068328Y0284726D01*
X0068328Y0280122D01*
X0069862Y0280122D02*
X0066793Y0280122D01*
X0065258Y0280889D02*
X0064491Y0280122D01*
X0062956Y0280122D01*
X0062189Y0280889D01*
X0062189Y0281657D01*
X0062956Y0282424D01*
X0065258Y0282424D01*
X0065258Y0280889D01*
X0065258Y0282424D02*
X0063724Y0283959D01*
X0062189Y0284726D01*
X0304650Y0098290D02*
X0304650Y0096755D01*
X0305417Y0095988D01*
X0306952Y0095988D02*
X0307719Y0097523D01*
X0307719Y0098290D01*
X0306952Y0099057D01*
X0305417Y0099057D01*
X0304650Y0098290D01*
X0306952Y0095988D02*
X0309254Y0095988D01*
X0309254Y0099057D01*
X0324335Y0098290D02*
X0324335Y0096755D01*
X0325102Y0095988D01*
X0326637Y0095988D01*
X0326637Y0098290D01*
X0325869Y0099057D01*
X0325102Y0099057D01*
X0324335Y0098290D01*
X0326637Y0095988D02*
X0328171Y0097523D01*
X0328939Y0099057D01*
X0355831Y0095988D02*
X0356598Y0095988D01*
X0359667Y0099057D01*
X0360435Y0099057D01*
X0360435Y0095988D01*
X0375516Y0096755D02*
X0376283Y0095988D01*
X0377050Y0095988D01*
X0377818Y0096755D01*
X0377818Y0098290D01*
X0377050Y0099057D01*
X0376283Y0099057D01*
X0375516Y0098290D01*
X0375516Y0096755D01*
X0377818Y0096755D02*
X0378585Y0095988D01*
X0379352Y0095988D01*
X0380120Y0096755D01*
X0380120Y0098290D01*
X0379352Y0099057D01*
X0378585Y0099057D01*
X0377818Y0098290D01*
X0386559Y0071330D02*
X0385792Y0070563D01*
X0385792Y0069795D01*
X0387327Y0069028D02*
X0388094Y0068261D01*
X0390396Y0068261D01*
X0389629Y0066726D02*
X0387327Y0066726D01*
X0387327Y0064424D01*
X0388094Y0063657D01*
X0388861Y0064424D01*
X0388861Y0066726D01*
X0389629Y0066726D02*
X0390396Y0065959D01*
X0390396Y0064424D01*
X0391931Y0061355D02*
X0387327Y0061355D01*
X0387327Y0062122D02*
X0387327Y0060587D01*
X0388861Y0059053D02*
X0388861Y0055983D01*
X0388094Y0055983D02*
X0389629Y0055983D01*
X0390396Y0056751D01*
X0390396Y0058285D01*
X0389629Y0059053D01*
X0388861Y0059053D01*
X0387327Y0058285D02*
X0387327Y0056751D01*
X0388094Y0055983D01*
X0387327Y0054449D02*
X0388861Y0052914D01*
X0388861Y0053681D02*
X0388861Y0051380D01*
X0387327Y0051380D02*
X0391931Y0051380D01*
X0391931Y0053681D01*
X0391163Y0054449D01*
X0389629Y0054449D01*
X0388861Y0053681D01*
X0389629Y0049845D02*
X0387327Y0046776D01*
X0389629Y0049845D02*
X0391931Y0046776D01*
X0391931Y0060587D02*
X0391931Y0061355D01*
X0387327Y0069028D02*
X0387327Y0071330D01*
X0386559Y0071330D02*
X0390396Y0071330D01*
X0326637Y0024287D02*
X0326637Y0021217D01*
X0328171Y0019683D02*
X0328939Y0018915D01*
X0328939Y0016613D01*
X0324335Y0016613D01*
X0324335Y0018915D01*
X0325102Y0019683D01*
X0328171Y0019683D01*
X0328939Y0015079D02*
X0328939Y0012009D01*
X0324335Y0012009D01*
X0324335Y0015079D01*
X0326637Y0013544D02*
X0326637Y0012009D01*
X0324335Y0010475D02*
X0324335Y0007406D01*
X0328939Y0007406D01*
X0309254Y0013311D02*
X0304650Y0016380D01*
X0309254Y0016380D01*
X0308486Y0017915D02*
X0305417Y0017915D01*
X0304650Y0018682D01*
X0304650Y0020217D01*
X0305417Y0020984D01*
X0308486Y0020984D02*
X0309254Y0020217D01*
X0309254Y0018682D01*
X0308486Y0017915D01*
X0309254Y0013311D02*
X0304650Y0013311D01*
X0355831Y0013110D02*
X0355831Y0010041D01*
X0360435Y0010041D01*
X0360435Y0013110D01*
X0360435Y0014645D02*
X0360435Y0016947D01*
X0359667Y0017714D01*
X0356598Y0017714D01*
X0355831Y0016947D01*
X0355831Y0014645D01*
X0360435Y0014645D01*
X0358133Y0011576D02*
X0358133Y0010041D01*
X0355831Y0008506D02*
X0355831Y0005437D01*
X0360435Y0005437D01*
X0358133Y0019249D02*
X0358133Y0022318D01*
X0359667Y0020783D02*
X0356598Y0020783D01*
X0375516Y0020217D02*
X0375516Y0018682D01*
X0376283Y0017915D01*
X0379352Y0017915D01*
X0380120Y0018682D01*
X0380120Y0020217D01*
X0379352Y0020984D01*
X0376283Y0020984D02*
X0375516Y0020217D01*
X0375516Y0016380D02*
X0380120Y0016380D01*
X0380120Y0013311D02*
X0375516Y0013311D01*
X0375516Y0016380D02*
X0380120Y0013311D01*
X0465469Y0076146D02*
X0465469Y0080750D01*
X0467771Y0078448D01*
X0464702Y0078448D01*
X0469306Y0076146D02*
X0472375Y0076146D01*
X0473909Y0076146D02*
X0475444Y0077680D01*
X0474677Y0077680D02*
X0476979Y0077680D01*
X0476979Y0076146D02*
X0476979Y0080750D01*
X0474677Y0080750D01*
X0473909Y0079982D01*
X0473909Y0078448D01*
X0474677Y0077680D01*
X0472375Y0079215D02*
X0470840Y0080750D01*
X0470840Y0076146D01*
D15*
X0461595Y0075414D02*
X0415808Y0075414D01*
X0415808Y0092540D01*
X0461595Y0092540D01*
X0461595Y0075414D01*
X0276162Y0226989D02*
X0230375Y0226989D01*
X0230375Y0244115D01*
X0276162Y0244115D01*
X0276162Y0226989D01*
X0112520Y0151143D02*
X0112520Y0123111D01*
X0086930Y0123111D01*
X0086930Y0151143D01*
X0112520Y0151143D01*
X0065355Y0142127D02*
X0060355Y0142127D01*
X0060355Y0132127D02*
X0065355Y0132127D01*
X0085257Y0265414D02*
X0085257Y0311202D01*
X0102383Y0311202D01*
X0102383Y0265414D01*
X0085257Y0265414D01*
X0468741Y0267954D02*
X0473741Y0267954D01*
X0473741Y0277954D02*
X0468741Y0277954D01*
X0492442Y0282560D02*
X0492442Y0310591D01*
X0518032Y0310591D01*
X0518032Y0282560D01*
X0492442Y0282560D01*
X0492442Y0273190D02*
X0492442Y0245158D01*
X0518032Y0245158D01*
X0518032Y0273190D01*
X0492442Y0273190D01*
X0473741Y0305355D02*
X0468741Y0305355D01*
X0468741Y0315355D02*
X0473741Y0315355D01*
X0492442Y0319961D02*
X0492442Y0347993D01*
X0518032Y0347993D01*
X0518032Y0319961D01*
X0492442Y0319961D01*
X0473741Y0342757D02*
X0468741Y0342757D01*
X0468741Y0352757D02*
X0473741Y0352757D01*
D16*
X0532796Y0339883D03*
X0532796Y0302481D03*
X0532796Y0265080D03*
D17*
X0529747Y0264960D02*
X0529497Y0265211D01*
X0528997Y0265211D01*
X0528746Y0264960D01*
X0528746Y0264210D01*
X0528246Y0264210D02*
X0529747Y0264210D01*
X0529747Y0264960D01*
X0529247Y0265683D02*
X0529747Y0266183D01*
X0528246Y0266183D01*
X0528246Y0265683D02*
X0528246Y0266684D01*
X0528246Y0267156D02*
X0529247Y0268157D01*
X0529497Y0268157D01*
X0529747Y0267907D01*
X0529747Y0267406D01*
X0529497Y0267156D01*
X0528246Y0267156D02*
X0528246Y0268157D01*
X0528246Y0265211D02*
X0528746Y0264710D01*
X0474611Y0280215D02*
X0474611Y0281716D01*
X0473860Y0281716D01*
X0473610Y0281466D01*
X0473610Y0280965D01*
X0473860Y0280715D01*
X0474611Y0280715D01*
X0474110Y0280715D02*
X0473610Y0280215D01*
X0473137Y0280215D02*
X0472137Y0280215D01*
X0472637Y0280215D02*
X0472637Y0281716D01*
X0473137Y0281215D01*
X0471664Y0281466D02*
X0471414Y0281716D01*
X0470914Y0281716D01*
X0470663Y0281466D01*
X0470663Y0281215D01*
X0470914Y0280965D01*
X0470663Y0280715D01*
X0470663Y0280465D01*
X0470914Y0280215D01*
X0471414Y0280215D01*
X0471664Y0280465D01*
X0471164Y0280965D02*
X0470914Y0280965D01*
X0470663Y0317616D02*
X0471664Y0317616D01*
X0472137Y0317616D02*
X0472637Y0318117D01*
X0472387Y0318117D02*
X0473137Y0318117D01*
X0473137Y0317616D02*
X0473137Y0319117D01*
X0472387Y0319117D01*
X0472137Y0318867D01*
X0472137Y0318367D01*
X0472387Y0318117D01*
X0471664Y0318617D02*
X0471164Y0319117D01*
X0471164Y0317616D01*
X0528246Y0305308D02*
X0528246Y0304808D01*
X0528496Y0304558D01*
X0528746Y0304558D01*
X0528997Y0304808D01*
X0528997Y0305308D01*
X0528746Y0305559D01*
X0528496Y0305559D01*
X0528246Y0305308D01*
X0528997Y0305308D02*
X0529247Y0305559D01*
X0529497Y0305559D01*
X0529747Y0305308D01*
X0529747Y0304808D01*
X0529497Y0304558D01*
X0529247Y0304558D01*
X0528997Y0304808D01*
X0528246Y0304085D02*
X0528246Y0303085D01*
X0528246Y0302612D02*
X0528746Y0302112D01*
X0528746Y0302362D02*
X0528746Y0301611D01*
X0528246Y0301611D02*
X0529747Y0301611D01*
X0529747Y0302362D01*
X0529497Y0302612D01*
X0528997Y0302612D01*
X0528746Y0302362D01*
X0529247Y0303085D02*
X0529747Y0303585D01*
X0528246Y0303585D01*
X0528246Y0340486D02*
X0529747Y0340486D01*
X0529747Y0341237D01*
X0529497Y0341487D01*
X0528997Y0341487D01*
X0528746Y0341237D01*
X0528746Y0340486D01*
X0528746Y0340987D02*
X0528246Y0341487D01*
X0528496Y0341959D02*
X0528246Y0342210D01*
X0528246Y0342710D01*
X0528496Y0342960D01*
X0528746Y0342960D01*
X0528997Y0342710D01*
X0528997Y0342460D01*
X0528997Y0342710D02*
X0529247Y0342960D01*
X0529497Y0342960D01*
X0529747Y0342710D01*
X0529747Y0342210D01*
X0529497Y0341959D01*
X0473137Y0355018D02*
X0473137Y0356519D01*
X0472387Y0356519D01*
X0472137Y0356269D01*
X0472137Y0355768D01*
X0472387Y0355518D01*
X0473137Y0355518D01*
X0472637Y0355518D02*
X0472137Y0355018D01*
X0471664Y0355268D02*
X0471414Y0355018D01*
X0470914Y0355018D01*
X0470663Y0355268D01*
X0470663Y0356269D01*
X0470914Y0356519D01*
X0471414Y0356519D01*
X0471664Y0356269D01*
X0471664Y0356019D01*
X0471414Y0355768D01*
X0470663Y0355768D01*
X0447413Y0184985D02*
X0447663Y0184735D01*
X0447663Y0183734D01*
X0447413Y0183484D01*
X0446913Y0183484D01*
X0446663Y0183734D01*
X0446190Y0183484D02*
X0445189Y0183484D01*
X0445690Y0183484D02*
X0445690Y0184985D01*
X0446190Y0184485D01*
X0446663Y0184735D02*
X0446913Y0184985D01*
X0447413Y0184985D01*
X0236917Y0127922D02*
X0236917Y0126921D01*
X0236667Y0126671D01*
X0236166Y0126671D01*
X0235916Y0126921D01*
X0235444Y0126921D02*
X0235194Y0126671D01*
X0234693Y0126671D01*
X0234443Y0126921D01*
X0234443Y0127172D01*
X0234693Y0127422D01*
X0234943Y0127422D01*
X0234693Y0127422D02*
X0234443Y0127672D01*
X0234443Y0127922D01*
X0234693Y0128173D01*
X0235194Y0128173D01*
X0235444Y0127922D01*
X0235916Y0127922D02*
X0236166Y0128173D01*
X0236667Y0128173D01*
X0236917Y0127922D01*
X0110437Y0158167D02*
X0110437Y0159669D01*
X0109687Y0159669D01*
X0109437Y0159418D01*
X0109437Y0158918D01*
X0109687Y0158668D01*
X0110437Y0158668D01*
X0109937Y0158668D02*
X0109437Y0158167D01*
X0108964Y0158167D02*
X0107963Y0158167D01*
X0108464Y0158167D02*
X0108464Y0159669D01*
X0108964Y0159168D01*
X0107491Y0159418D02*
X0107241Y0159669D01*
X0106740Y0159669D01*
X0106490Y0159418D01*
X0107491Y0158418D01*
X0107241Y0158167D01*
X0106740Y0158167D01*
X0106490Y0158418D01*
X0106490Y0159418D01*
X0107491Y0159418D02*
X0107491Y0158418D01*
X0093333Y0165767D02*
X0093333Y0167269D01*
X0092582Y0167269D01*
X0092332Y0167018D01*
X0092332Y0166518D01*
X0092582Y0166268D01*
X0093333Y0166268D01*
X0092832Y0166268D02*
X0092332Y0165767D01*
X0091859Y0165767D02*
X0090859Y0165767D01*
X0090386Y0165767D02*
X0089385Y0165767D01*
X0089886Y0165767D02*
X0089886Y0167269D01*
X0090386Y0166768D01*
X0091359Y0167269D02*
X0091359Y0165767D01*
X0091859Y0166768D02*
X0091359Y0167269D01*
X0199232Y0261880D02*
X0199232Y0262380D01*
X0199482Y0262630D01*
X0199232Y0263103D02*
X0200233Y0264104D01*
X0200483Y0264104D01*
X0200733Y0263853D01*
X0200733Y0263353D01*
X0200483Y0263103D01*
X0200483Y0262630D02*
X0200733Y0262380D01*
X0200733Y0261880D01*
X0200483Y0261630D01*
X0199482Y0261630D01*
X0199232Y0261880D01*
X0199232Y0263103D02*
X0199232Y0264104D01*
D18*
X0109568Y0162717D03*
X0089883Y0162717D03*
X0473741Y0284765D03*
X0473741Y0322166D03*
X0473741Y0359568D03*
D19*
X0196302Y0265080D02*
X0196062Y0265080D01*
X0237520Y0131341D02*
X0237520Y0131101D01*
X0444213Y0180314D02*
X0444213Y0180554D01*
M02*
