%
M48
M72
T01C0.01378
T02C0.02362
T03C0.02559
T04C0.03543
T05C0.03937
T06C0.04000
T07C0.06100
T08C0.06496
T09C0.06929
T10C0.07087
T11C0.10120
T12C0.12795
T13C0.12992
T14C0.13000
%
T01
X127284Y339883
X83977Y288702
X202087Y217835
X339883Y168623
X481615Y93820
X469804Y80461
X509174Y93820
X520985Y99725
X526891Y109568
X536733Y109568
X546576Y109568
X556418Y101694
X513111Y113505
X560355Y76103
X548544Y52481
X515080Y68229
X509174Y62324
X554450Y19017
X487520Y198150
X509174Y192245
X528859Y180434
X479646Y180434
X446182Y202087
X469804Y300513
X288702Y105631
X292639Y97757
X335946Y83977
X343820Y15080
T02
X81477Y147127
X81477Y137127
X81477Y127127
X117973Y127127
X117973Y137127
X117973Y147127
X486989Y343977
X486989Y333977
X486989Y323977
X486989Y306576
X486989Y296576
X486989Y286576
X486989Y269174
X486989Y259174
X486989Y249174
X523485Y249174
X523485Y259174
X523485Y269174
X523485Y286576
X523485Y296576
X523485Y306576
X523485Y323977
X523485Y333977
X523485Y343977
T03
X139095Y184371
X60355Y184371
X36733Y87914
X162717Y85946
X292639Y206024
X426497Y257206
X522954Y233583
X522954Y359568
X426497Y335946
T04
X207599Y261497
X207599Y269017
X207599Y276536
X233938Y121772
X241457Y121772
X248977Y121772
X447796Y191851
X440276Y191851
X432757Y191851
T05
X101536Y332009
X111536Y332009
X121536Y332009
X116536Y322009
X106536Y322009
X126536Y322009
X253269Y74135
X292639Y74135
X503269Y101694
X542639Y101694
X572130Y101419
X572130Y92403
X591107Y84490
X598114Y88505
X598114Y80474
X591107Y76458
X598114Y72442
X591107Y68427
X598114Y64411
X591107Y60395
X572130Y56419
X572130Y47403
X542007Y60528
X532991Y60528
X525077Y41551
X517046Y41551
X509014Y41551
X500983Y41551
X504999Y34544
X513030Y34544
X521062Y34544
X529093Y34544
X487991Y60528
X497007Y60528
X570198Y336103
X560198Y331103
X570198Y326103
X570198Y316103
X560198Y311103
X560198Y321103
X570198Y261300
X570198Y251300
X560198Y246300
X560198Y256300
X570198Y241300
X560198Y236300
T06
X93820Y298308
X93820Y288308
X93820Y278308
X263269Y235552
X253269Y235552
X243269Y235552
X448702Y83977
X438702Y83977
X428702Y83977
T07
X99725Y241457
X21325Y241457
X371039Y320198
X560355Y201747
X540330Y190276
X461930Y190276
X292639Y320198
X560355Y123347
T08
X87048Y369017
X141064Y369017
X607206Y350591
X607206Y296576
X607206Y275788
X607206Y221772
T09
X12796Y383505
X22796Y383505
X32796Y383505
X42796Y383505
X52796Y383505
X52796Y343505
X42796Y343505
X32796Y343505
X22796Y343505
X12796Y343505
X12796Y308702
X22796Y308702
X32796Y308702
X42796Y308702
X52796Y308702
X52796Y268702
X42796Y268702
X32796Y268702
X22796Y268702
X12796Y268702
X178150Y343505
X188150Y343505
X198150Y343505
X208150Y343505
X218150Y343505
X252954Y343505
X262954Y343505
X272954Y343505
X282954Y343505
X292954Y343505
X327757Y343505
X337757Y343505
X347757Y343505
X357757Y343505
X367757Y343505
X367757Y383505
X357757Y383505
X347757Y383505
X337757Y383505
X327757Y383505
X292954Y383505
X282954Y383505
X272954Y383505
X262954Y383505
X252954Y383505
X218150Y383505
X208150Y383505
X198150Y383505
X188150Y383505
X178150Y383505
X591694Y186654
X601694Y186654
X611694Y186654
X621694Y186654
X581694Y186654
X581694Y146654
X591694Y146654
X601694Y146654
X611694Y146654
X621694Y146654
X446497Y12796
X436497Y12796
X426497Y12796
X416497Y12796
X406497Y12796
X406497Y52796
X416497Y52796
X426497Y52796
X436497Y52796
X446497Y52796
X271300Y52796
X261300Y52796
X251300Y52796
X241300Y52796
X231300Y52796
X186654Y52796
X176654Y52796
X166654Y52796
X156654Y52796
X146654Y52796
X100040Y52796
X90040Y52796
X80040Y52796
X70040Y52796
X60040Y52796
X60040Y12796
X70040Y12796
X80040Y12796
X90040Y12796
X100040Y12796
X146654Y12796
X156654Y12796
X166654Y12796
X176654Y12796
X186654Y12796
X231300Y12796
X241300Y12796
X251300Y12796
X261300Y12796
X271300Y12796
T10
X482991Y38047
X547007Y38047
X594611Y42403
X594611Y106419
T11
X312717Y146969
X351694Y146969
X383190Y146969
X350090Y113719
X350090Y180219
X335946Y213898
X335946Y245394
X369196Y246998
X335946Y284371
X302696Y246998
T12
X489999Y24544
X539999Y24544
X608114Y49411
X608114Y99411
T13
X94056Y357009
X134056Y357009
X595198Y343583
X595198Y303583
X595198Y268780
X595198Y228780
T14
X158780Y324135
X20985Y20985
X609568Y373347
X611536Y20985
M30
