G75*
%MOIN*%
%OFA0B0*%
%FSLAX25Y25*%
%IPPOS*%
%LPD*%
%AMOC8*
5,1,8,0,0,1.08239X$1,22.5*
%
%ADD10C,0.00000*%
%ADD11C,0.00600*%
%ADD12R,0.06337X0.06337*%
%ADD13C,0.06337*%
%ADD14C,0.13195*%
%ADD15C,0.11030*%
%ADD16R,0.05518X0.06306*%
%ADD17C,0.04140*%
%ADD18C,0.10794*%
%ADD19C,0.10144*%
%ADD20C,0.13392*%
%ADD21C,0.15400*%
%ADD22R,0.03943X0.03550*%
%ADD23R,0.04762X0.04762*%
%ADD24R,0.04337X0.04731*%
%ADD25R,0.09550X0.09550*%
%ADD26C,0.09550*%
%ADD27R,0.04731X0.04337*%
%ADD28C,0.00500*%
%ADD29C,0.05943*%
%ADD30R,0.06306X0.05518*%
%ADD31R,0.02900X0.05400*%
%ADD32R,0.05400X0.02900*%
%ADD33C,0.07400*%
%ADD34C,0.07800*%
%ADD35C,0.13400*%
D10*
X0001300Y0001300D02*
X0001300Y0395001D01*
X0087560Y0357009D02*
X0087562Y0357170D01*
X0087568Y0357330D01*
X0087578Y0357491D01*
X0087592Y0357651D01*
X0087610Y0357810D01*
X0087631Y0357970D01*
X0087657Y0358128D01*
X0087687Y0358286D01*
X0087720Y0358443D01*
X0087758Y0358600D01*
X0087799Y0358755D01*
X0087844Y0358909D01*
X0087893Y0359062D01*
X0087946Y0359214D01*
X0088002Y0359364D01*
X0088062Y0359513D01*
X0088126Y0359661D01*
X0088193Y0359807D01*
X0088264Y0359951D01*
X0088339Y0360093D01*
X0088417Y0360234D01*
X0088498Y0360372D01*
X0088583Y0360509D01*
X0088672Y0360643D01*
X0088763Y0360775D01*
X0088858Y0360905D01*
X0088956Y0361032D01*
X0089057Y0361157D01*
X0089161Y0361280D01*
X0089268Y0361399D01*
X0089378Y0361516D01*
X0089491Y0361631D01*
X0089607Y0361742D01*
X0089725Y0361851D01*
X0089846Y0361956D01*
X0089970Y0362059D01*
X0090096Y0362159D01*
X0090225Y0362255D01*
X0090356Y0362348D01*
X0090489Y0362438D01*
X0090624Y0362525D01*
X0090762Y0362608D01*
X0090901Y0362687D01*
X0091043Y0362764D01*
X0091186Y0362837D01*
X0091331Y0362906D01*
X0091478Y0362971D01*
X0091626Y0363033D01*
X0091776Y0363092D01*
X0091927Y0363146D01*
X0092079Y0363197D01*
X0092233Y0363244D01*
X0092388Y0363287D01*
X0092543Y0363326D01*
X0092700Y0363362D01*
X0092858Y0363394D01*
X0093016Y0363421D01*
X0093175Y0363445D01*
X0093334Y0363465D01*
X0093494Y0363481D01*
X0093655Y0363493D01*
X0093815Y0363501D01*
X0093976Y0363505D01*
X0094136Y0363505D01*
X0094297Y0363501D01*
X0094457Y0363493D01*
X0094618Y0363481D01*
X0094778Y0363465D01*
X0094937Y0363445D01*
X0095096Y0363421D01*
X0095254Y0363394D01*
X0095412Y0363362D01*
X0095569Y0363326D01*
X0095724Y0363287D01*
X0095879Y0363244D01*
X0096033Y0363197D01*
X0096185Y0363146D01*
X0096336Y0363092D01*
X0096486Y0363033D01*
X0096634Y0362971D01*
X0096781Y0362906D01*
X0096926Y0362837D01*
X0097069Y0362764D01*
X0097211Y0362687D01*
X0097350Y0362608D01*
X0097488Y0362525D01*
X0097623Y0362438D01*
X0097756Y0362348D01*
X0097887Y0362255D01*
X0098016Y0362159D01*
X0098142Y0362059D01*
X0098266Y0361956D01*
X0098387Y0361851D01*
X0098505Y0361742D01*
X0098621Y0361631D01*
X0098734Y0361516D01*
X0098844Y0361399D01*
X0098951Y0361280D01*
X0099055Y0361157D01*
X0099156Y0361032D01*
X0099254Y0360905D01*
X0099349Y0360775D01*
X0099440Y0360643D01*
X0099529Y0360509D01*
X0099614Y0360372D01*
X0099695Y0360234D01*
X0099773Y0360093D01*
X0099848Y0359951D01*
X0099919Y0359807D01*
X0099986Y0359661D01*
X0100050Y0359513D01*
X0100110Y0359364D01*
X0100166Y0359214D01*
X0100219Y0359062D01*
X0100268Y0358909D01*
X0100313Y0358755D01*
X0100354Y0358600D01*
X0100392Y0358443D01*
X0100425Y0358286D01*
X0100455Y0358128D01*
X0100481Y0357970D01*
X0100502Y0357810D01*
X0100520Y0357651D01*
X0100534Y0357491D01*
X0100544Y0357330D01*
X0100550Y0357170D01*
X0100552Y0357009D01*
X0100550Y0356848D01*
X0100544Y0356688D01*
X0100534Y0356527D01*
X0100520Y0356367D01*
X0100502Y0356208D01*
X0100481Y0356048D01*
X0100455Y0355890D01*
X0100425Y0355732D01*
X0100392Y0355575D01*
X0100354Y0355418D01*
X0100313Y0355263D01*
X0100268Y0355109D01*
X0100219Y0354956D01*
X0100166Y0354804D01*
X0100110Y0354654D01*
X0100050Y0354505D01*
X0099986Y0354357D01*
X0099919Y0354211D01*
X0099848Y0354067D01*
X0099773Y0353925D01*
X0099695Y0353784D01*
X0099614Y0353646D01*
X0099529Y0353509D01*
X0099440Y0353375D01*
X0099349Y0353243D01*
X0099254Y0353113D01*
X0099156Y0352986D01*
X0099055Y0352861D01*
X0098951Y0352738D01*
X0098844Y0352619D01*
X0098734Y0352502D01*
X0098621Y0352387D01*
X0098505Y0352276D01*
X0098387Y0352167D01*
X0098266Y0352062D01*
X0098142Y0351959D01*
X0098016Y0351859D01*
X0097887Y0351763D01*
X0097756Y0351670D01*
X0097623Y0351580D01*
X0097488Y0351493D01*
X0097350Y0351410D01*
X0097211Y0351331D01*
X0097069Y0351254D01*
X0096926Y0351181D01*
X0096781Y0351112D01*
X0096634Y0351047D01*
X0096486Y0350985D01*
X0096336Y0350926D01*
X0096185Y0350872D01*
X0096033Y0350821D01*
X0095879Y0350774D01*
X0095724Y0350731D01*
X0095569Y0350692D01*
X0095412Y0350656D01*
X0095254Y0350624D01*
X0095096Y0350597D01*
X0094937Y0350573D01*
X0094778Y0350553D01*
X0094618Y0350537D01*
X0094457Y0350525D01*
X0094297Y0350517D01*
X0094136Y0350513D01*
X0093976Y0350513D01*
X0093815Y0350517D01*
X0093655Y0350525D01*
X0093494Y0350537D01*
X0093334Y0350553D01*
X0093175Y0350573D01*
X0093016Y0350597D01*
X0092858Y0350624D01*
X0092700Y0350656D01*
X0092543Y0350692D01*
X0092388Y0350731D01*
X0092233Y0350774D01*
X0092079Y0350821D01*
X0091927Y0350872D01*
X0091776Y0350926D01*
X0091626Y0350985D01*
X0091478Y0351047D01*
X0091331Y0351112D01*
X0091186Y0351181D01*
X0091043Y0351254D01*
X0090901Y0351331D01*
X0090762Y0351410D01*
X0090624Y0351493D01*
X0090489Y0351580D01*
X0090356Y0351670D01*
X0090225Y0351763D01*
X0090096Y0351859D01*
X0089970Y0351959D01*
X0089846Y0352062D01*
X0089725Y0352167D01*
X0089607Y0352276D01*
X0089491Y0352387D01*
X0089378Y0352502D01*
X0089268Y0352619D01*
X0089161Y0352738D01*
X0089057Y0352861D01*
X0088956Y0352986D01*
X0088858Y0353113D01*
X0088763Y0353243D01*
X0088672Y0353375D01*
X0088583Y0353509D01*
X0088498Y0353646D01*
X0088417Y0353784D01*
X0088339Y0353925D01*
X0088264Y0354067D01*
X0088193Y0354211D01*
X0088126Y0354357D01*
X0088062Y0354505D01*
X0088002Y0354654D01*
X0087946Y0354804D01*
X0087893Y0354956D01*
X0087844Y0355109D01*
X0087799Y0355263D01*
X0087758Y0355418D01*
X0087720Y0355575D01*
X0087687Y0355732D01*
X0087657Y0355890D01*
X0087631Y0356048D01*
X0087610Y0356208D01*
X0087592Y0356367D01*
X0087578Y0356527D01*
X0087568Y0356688D01*
X0087562Y0356848D01*
X0087560Y0357009D01*
X0127560Y0357009D02*
X0127562Y0357170D01*
X0127568Y0357330D01*
X0127578Y0357491D01*
X0127592Y0357651D01*
X0127610Y0357810D01*
X0127631Y0357970D01*
X0127657Y0358128D01*
X0127687Y0358286D01*
X0127720Y0358443D01*
X0127758Y0358600D01*
X0127799Y0358755D01*
X0127844Y0358909D01*
X0127893Y0359062D01*
X0127946Y0359214D01*
X0128002Y0359364D01*
X0128062Y0359513D01*
X0128126Y0359661D01*
X0128193Y0359807D01*
X0128264Y0359951D01*
X0128339Y0360093D01*
X0128417Y0360234D01*
X0128498Y0360372D01*
X0128583Y0360509D01*
X0128672Y0360643D01*
X0128763Y0360775D01*
X0128858Y0360905D01*
X0128956Y0361032D01*
X0129057Y0361157D01*
X0129161Y0361280D01*
X0129268Y0361399D01*
X0129378Y0361516D01*
X0129491Y0361631D01*
X0129607Y0361742D01*
X0129725Y0361851D01*
X0129846Y0361956D01*
X0129970Y0362059D01*
X0130096Y0362159D01*
X0130225Y0362255D01*
X0130356Y0362348D01*
X0130489Y0362438D01*
X0130624Y0362525D01*
X0130762Y0362608D01*
X0130901Y0362687D01*
X0131043Y0362764D01*
X0131186Y0362837D01*
X0131331Y0362906D01*
X0131478Y0362971D01*
X0131626Y0363033D01*
X0131776Y0363092D01*
X0131927Y0363146D01*
X0132079Y0363197D01*
X0132233Y0363244D01*
X0132388Y0363287D01*
X0132543Y0363326D01*
X0132700Y0363362D01*
X0132858Y0363394D01*
X0133016Y0363421D01*
X0133175Y0363445D01*
X0133334Y0363465D01*
X0133494Y0363481D01*
X0133655Y0363493D01*
X0133815Y0363501D01*
X0133976Y0363505D01*
X0134136Y0363505D01*
X0134297Y0363501D01*
X0134457Y0363493D01*
X0134618Y0363481D01*
X0134778Y0363465D01*
X0134937Y0363445D01*
X0135096Y0363421D01*
X0135254Y0363394D01*
X0135412Y0363362D01*
X0135569Y0363326D01*
X0135724Y0363287D01*
X0135879Y0363244D01*
X0136033Y0363197D01*
X0136185Y0363146D01*
X0136336Y0363092D01*
X0136486Y0363033D01*
X0136634Y0362971D01*
X0136781Y0362906D01*
X0136926Y0362837D01*
X0137069Y0362764D01*
X0137211Y0362687D01*
X0137350Y0362608D01*
X0137488Y0362525D01*
X0137623Y0362438D01*
X0137756Y0362348D01*
X0137887Y0362255D01*
X0138016Y0362159D01*
X0138142Y0362059D01*
X0138266Y0361956D01*
X0138387Y0361851D01*
X0138505Y0361742D01*
X0138621Y0361631D01*
X0138734Y0361516D01*
X0138844Y0361399D01*
X0138951Y0361280D01*
X0139055Y0361157D01*
X0139156Y0361032D01*
X0139254Y0360905D01*
X0139349Y0360775D01*
X0139440Y0360643D01*
X0139529Y0360509D01*
X0139614Y0360372D01*
X0139695Y0360234D01*
X0139773Y0360093D01*
X0139848Y0359951D01*
X0139919Y0359807D01*
X0139986Y0359661D01*
X0140050Y0359513D01*
X0140110Y0359364D01*
X0140166Y0359214D01*
X0140219Y0359062D01*
X0140268Y0358909D01*
X0140313Y0358755D01*
X0140354Y0358600D01*
X0140392Y0358443D01*
X0140425Y0358286D01*
X0140455Y0358128D01*
X0140481Y0357970D01*
X0140502Y0357810D01*
X0140520Y0357651D01*
X0140534Y0357491D01*
X0140544Y0357330D01*
X0140550Y0357170D01*
X0140552Y0357009D01*
X0140550Y0356848D01*
X0140544Y0356688D01*
X0140534Y0356527D01*
X0140520Y0356367D01*
X0140502Y0356208D01*
X0140481Y0356048D01*
X0140455Y0355890D01*
X0140425Y0355732D01*
X0140392Y0355575D01*
X0140354Y0355418D01*
X0140313Y0355263D01*
X0140268Y0355109D01*
X0140219Y0354956D01*
X0140166Y0354804D01*
X0140110Y0354654D01*
X0140050Y0354505D01*
X0139986Y0354357D01*
X0139919Y0354211D01*
X0139848Y0354067D01*
X0139773Y0353925D01*
X0139695Y0353784D01*
X0139614Y0353646D01*
X0139529Y0353509D01*
X0139440Y0353375D01*
X0139349Y0353243D01*
X0139254Y0353113D01*
X0139156Y0352986D01*
X0139055Y0352861D01*
X0138951Y0352738D01*
X0138844Y0352619D01*
X0138734Y0352502D01*
X0138621Y0352387D01*
X0138505Y0352276D01*
X0138387Y0352167D01*
X0138266Y0352062D01*
X0138142Y0351959D01*
X0138016Y0351859D01*
X0137887Y0351763D01*
X0137756Y0351670D01*
X0137623Y0351580D01*
X0137488Y0351493D01*
X0137350Y0351410D01*
X0137211Y0351331D01*
X0137069Y0351254D01*
X0136926Y0351181D01*
X0136781Y0351112D01*
X0136634Y0351047D01*
X0136486Y0350985D01*
X0136336Y0350926D01*
X0136185Y0350872D01*
X0136033Y0350821D01*
X0135879Y0350774D01*
X0135724Y0350731D01*
X0135569Y0350692D01*
X0135412Y0350656D01*
X0135254Y0350624D01*
X0135096Y0350597D01*
X0134937Y0350573D01*
X0134778Y0350553D01*
X0134618Y0350537D01*
X0134457Y0350525D01*
X0134297Y0350517D01*
X0134136Y0350513D01*
X0133976Y0350513D01*
X0133815Y0350517D01*
X0133655Y0350525D01*
X0133494Y0350537D01*
X0133334Y0350553D01*
X0133175Y0350573D01*
X0133016Y0350597D01*
X0132858Y0350624D01*
X0132700Y0350656D01*
X0132543Y0350692D01*
X0132388Y0350731D01*
X0132233Y0350774D01*
X0132079Y0350821D01*
X0131927Y0350872D01*
X0131776Y0350926D01*
X0131626Y0350985D01*
X0131478Y0351047D01*
X0131331Y0351112D01*
X0131186Y0351181D01*
X0131043Y0351254D01*
X0130901Y0351331D01*
X0130762Y0351410D01*
X0130624Y0351493D01*
X0130489Y0351580D01*
X0130356Y0351670D01*
X0130225Y0351763D01*
X0130096Y0351859D01*
X0129970Y0351959D01*
X0129846Y0352062D01*
X0129725Y0352167D01*
X0129607Y0352276D01*
X0129491Y0352387D01*
X0129378Y0352502D01*
X0129268Y0352619D01*
X0129161Y0352738D01*
X0129057Y0352861D01*
X0128956Y0352986D01*
X0128858Y0353113D01*
X0128763Y0353243D01*
X0128672Y0353375D01*
X0128583Y0353509D01*
X0128498Y0353646D01*
X0128417Y0353784D01*
X0128339Y0353925D01*
X0128264Y0354067D01*
X0128193Y0354211D01*
X0128126Y0354357D01*
X0128062Y0354505D01*
X0128002Y0354654D01*
X0127946Y0354804D01*
X0127893Y0354956D01*
X0127844Y0355109D01*
X0127799Y0355263D01*
X0127758Y0355418D01*
X0127720Y0355575D01*
X0127687Y0355732D01*
X0127657Y0355890D01*
X0127631Y0356048D01*
X0127610Y0356208D01*
X0127592Y0356367D01*
X0127578Y0356527D01*
X0127568Y0356688D01*
X0127562Y0356848D01*
X0127560Y0357009D01*
X0152280Y0324135D02*
X0152282Y0324296D01*
X0152288Y0324456D01*
X0152298Y0324617D01*
X0152312Y0324777D01*
X0152330Y0324937D01*
X0152351Y0325096D01*
X0152377Y0325255D01*
X0152407Y0325413D01*
X0152440Y0325570D01*
X0152478Y0325727D01*
X0152519Y0325882D01*
X0152564Y0326036D01*
X0152613Y0326189D01*
X0152666Y0326341D01*
X0152722Y0326492D01*
X0152783Y0326641D01*
X0152846Y0326789D01*
X0152914Y0326935D01*
X0152985Y0327079D01*
X0153059Y0327221D01*
X0153137Y0327362D01*
X0153219Y0327500D01*
X0153304Y0327637D01*
X0153392Y0327771D01*
X0153484Y0327903D01*
X0153579Y0328033D01*
X0153677Y0328161D01*
X0153778Y0328286D01*
X0153882Y0328408D01*
X0153989Y0328528D01*
X0154099Y0328645D01*
X0154212Y0328760D01*
X0154328Y0328871D01*
X0154447Y0328980D01*
X0154568Y0329085D01*
X0154692Y0329188D01*
X0154818Y0329288D01*
X0154946Y0329384D01*
X0155077Y0329477D01*
X0155211Y0329567D01*
X0155346Y0329654D01*
X0155484Y0329737D01*
X0155623Y0329817D01*
X0155765Y0329893D01*
X0155908Y0329966D01*
X0156053Y0330035D01*
X0156200Y0330101D01*
X0156348Y0330163D01*
X0156498Y0330221D01*
X0156649Y0330276D01*
X0156802Y0330327D01*
X0156956Y0330374D01*
X0157111Y0330417D01*
X0157267Y0330456D01*
X0157423Y0330492D01*
X0157581Y0330523D01*
X0157739Y0330551D01*
X0157898Y0330575D01*
X0158058Y0330595D01*
X0158218Y0330611D01*
X0158378Y0330623D01*
X0158539Y0330631D01*
X0158700Y0330635D01*
X0158860Y0330635D01*
X0159021Y0330631D01*
X0159182Y0330623D01*
X0159342Y0330611D01*
X0159502Y0330595D01*
X0159662Y0330575D01*
X0159821Y0330551D01*
X0159979Y0330523D01*
X0160137Y0330492D01*
X0160293Y0330456D01*
X0160449Y0330417D01*
X0160604Y0330374D01*
X0160758Y0330327D01*
X0160911Y0330276D01*
X0161062Y0330221D01*
X0161212Y0330163D01*
X0161360Y0330101D01*
X0161507Y0330035D01*
X0161652Y0329966D01*
X0161795Y0329893D01*
X0161937Y0329817D01*
X0162076Y0329737D01*
X0162214Y0329654D01*
X0162349Y0329567D01*
X0162483Y0329477D01*
X0162614Y0329384D01*
X0162742Y0329288D01*
X0162868Y0329188D01*
X0162992Y0329085D01*
X0163113Y0328980D01*
X0163232Y0328871D01*
X0163348Y0328760D01*
X0163461Y0328645D01*
X0163571Y0328528D01*
X0163678Y0328408D01*
X0163782Y0328286D01*
X0163883Y0328161D01*
X0163981Y0328033D01*
X0164076Y0327903D01*
X0164168Y0327771D01*
X0164256Y0327637D01*
X0164341Y0327500D01*
X0164423Y0327362D01*
X0164501Y0327221D01*
X0164575Y0327079D01*
X0164646Y0326935D01*
X0164714Y0326789D01*
X0164777Y0326641D01*
X0164838Y0326492D01*
X0164894Y0326341D01*
X0164947Y0326189D01*
X0164996Y0326036D01*
X0165041Y0325882D01*
X0165082Y0325727D01*
X0165120Y0325570D01*
X0165153Y0325413D01*
X0165183Y0325255D01*
X0165209Y0325096D01*
X0165230Y0324937D01*
X0165248Y0324777D01*
X0165262Y0324617D01*
X0165272Y0324456D01*
X0165278Y0324296D01*
X0165280Y0324135D01*
X0165278Y0323974D01*
X0165272Y0323814D01*
X0165262Y0323653D01*
X0165248Y0323493D01*
X0165230Y0323333D01*
X0165209Y0323174D01*
X0165183Y0323015D01*
X0165153Y0322857D01*
X0165120Y0322700D01*
X0165082Y0322543D01*
X0165041Y0322388D01*
X0164996Y0322234D01*
X0164947Y0322081D01*
X0164894Y0321929D01*
X0164838Y0321778D01*
X0164777Y0321629D01*
X0164714Y0321481D01*
X0164646Y0321335D01*
X0164575Y0321191D01*
X0164501Y0321049D01*
X0164423Y0320908D01*
X0164341Y0320770D01*
X0164256Y0320633D01*
X0164168Y0320499D01*
X0164076Y0320367D01*
X0163981Y0320237D01*
X0163883Y0320109D01*
X0163782Y0319984D01*
X0163678Y0319862D01*
X0163571Y0319742D01*
X0163461Y0319625D01*
X0163348Y0319510D01*
X0163232Y0319399D01*
X0163113Y0319290D01*
X0162992Y0319185D01*
X0162868Y0319082D01*
X0162742Y0318982D01*
X0162614Y0318886D01*
X0162483Y0318793D01*
X0162349Y0318703D01*
X0162214Y0318616D01*
X0162076Y0318533D01*
X0161937Y0318453D01*
X0161795Y0318377D01*
X0161652Y0318304D01*
X0161507Y0318235D01*
X0161360Y0318169D01*
X0161212Y0318107D01*
X0161062Y0318049D01*
X0160911Y0317994D01*
X0160758Y0317943D01*
X0160604Y0317896D01*
X0160449Y0317853D01*
X0160293Y0317814D01*
X0160137Y0317778D01*
X0159979Y0317747D01*
X0159821Y0317719D01*
X0159662Y0317695D01*
X0159502Y0317675D01*
X0159342Y0317659D01*
X0159182Y0317647D01*
X0159021Y0317639D01*
X0158860Y0317635D01*
X0158700Y0317635D01*
X0158539Y0317639D01*
X0158378Y0317647D01*
X0158218Y0317659D01*
X0158058Y0317675D01*
X0157898Y0317695D01*
X0157739Y0317719D01*
X0157581Y0317747D01*
X0157423Y0317778D01*
X0157267Y0317814D01*
X0157111Y0317853D01*
X0156956Y0317896D01*
X0156802Y0317943D01*
X0156649Y0317994D01*
X0156498Y0318049D01*
X0156348Y0318107D01*
X0156200Y0318169D01*
X0156053Y0318235D01*
X0155908Y0318304D01*
X0155765Y0318377D01*
X0155623Y0318453D01*
X0155484Y0318533D01*
X0155346Y0318616D01*
X0155211Y0318703D01*
X0155077Y0318793D01*
X0154946Y0318886D01*
X0154818Y0318982D01*
X0154692Y0319082D01*
X0154568Y0319185D01*
X0154447Y0319290D01*
X0154328Y0319399D01*
X0154212Y0319510D01*
X0154099Y0319625D01*
X0153989Y0319742D01*
X0153882Y0319862D01*
X0153778Y0319984D01*
X0153677Y0320109D01*
X0153579Y0320237D01*
X0153484Y0320367D01*
X0153392Y0320499D01*
X0153304Y0320633D01*
X0153219Y0320770D01*
X0153137Y0320908D01*
X0153059Y0321049D01*
X0152985Y0321191D01*
X0152914Y0321335D01*
X0152846Y0321481D01*
X0152783Y0321629D01*
X0152722Y0321778D01*
X0152666Y0321929D01*
X0152613Y0322081D01*
X0152564Y0322234D01*
X0152519Y0322388D01*
X0152478Y0322543D01*
X0152440Y0322700D01*
X0152407Y0322857D01*
X0152377Y0323015D01*
X0152351Y0323174D01*
X0152330Y0323333D01*
X0152312Y0323493D01*
X0152298Y0323653D01*
X0152288Y0323814D01*
X0152282Y0323974D01*
X0152280Y0324135D01*
X0588702Y0343583D02*
X0588704Y0343744D01*
X0588710Y0343904D01*
X0588720Y0344065D01*
X0588734Y0344225D01*
X0588752Y0344384D01*
X0588773Y0344544D01*
X0588799Y0344702D01*
X0588829Y0344860D01*
X0588862Y0345017D01*
X0588900Y0345174D01*
X0588941Y0345329D01*
X0588986Y0345483D01*
X0589035Y0345636D01*
X0589088Y0345788D01*
X0589144Y0345938D01*
X0589204Y0346087D01*
X0589268Y0346235D01*
X0589335Y0346381D01*
X0589406Y0346525D01*
X0589481Y0346667D01*
X0589559Y0346808D01*
X0589640Y0346946D01*
X0589725Y0347083D01*
X0589814Y0347217D01*
X0589905Y0347349D01*
X0590000Y0347479D01*
X0590098Y0347606D01*
X0590199Y0347731D01*
X0590303Y0347854D01*
X0590410Y0347973D01*
X0590520Y0348090D01*
X0590633Y0348205D01*
X0590749Y0348316D01*
X0590867Y0348425D01*
X0590988Y0348530D01*
X0591112Y0348633D01*
X0591238Y0348733D01*
X0591367Y0348829D01*
X0591498Y0348922D01*
X0591631Y0349012D01*
X0591766Y0349099D01*
X0591904Y0349182D01*
X0592043Y0349261D01*
X0592185Y0349338D01*
X0592328Y0349411D01*
X0592473Y0349480D01*
X0592620Y0349545D01*
X0592768Y0349607D01*
X0592918Y0349666D01*
X0593069Y0349720D01*
X0593221Y0349771D01*
X0593375Y0349818D01*
X0593530Y0349861D01*
X0593685Y0349900D01*
X0593842Y0349936D01*
X0594000Y0349968D01*
X0594158Y0349995D01*
X0594317Y0350019D01*
X0594476Y0350039D01*
X0594636Y0350055D01*
X0594797Y0350067D01*
X0594957Y0350075D01*
X0595118Y0350079D01*
X0595278Y0350079D01*
X0595439Y0350075D01*
X0595599Y0350067D01*
X0595760Y0350055D01*
X0595920Y0350039D01*
X0596079Y0350019D01*
X0596238Y0349995D01*
X0596396Y0349968D01*
X0596554Y0349936D01*
X0596711Y0349900D01*
X0596866Y0349861D01*
X0597021Y0349818D01*
X0597175Y0349771D01*
X0597327Y0349720D01*
X0597478Y0349666D01*
X0597628Y0349607D01*
X0597776Y0349545D01*
X0597923Y0349480D01*
X0598068Y0349411D01*
X0598211Y0349338D01*
X0598353Y0349261D01*
X0598492Y0349182D01*
X0598630Y0349099D01*
X0598765Y0349012D01*
X0598898Y0348922D01*
X0599029Y0348829D01*
X0599158Y0348733D01*
X0599284Y0348633D01*
X0599408Y0348530D01*
X0599529Y0348425D01*
X0599647Y0348316D01*
X0599763Y0348205D01*
X0599876Y0348090D01*
X0599986Y0347973D01*
X0600093Y0347854D01*
X0600197Y0347731D01*
X0600298Y0347606D01*
X0600396Y0347479D01*
X0600491Y0347349D01*
X0600582Y0347217D01*
X0600671Y0347083D01*
X0600756Y0346946D01*
X0600837Y0346808D01*
X0600915Y0346667D01*
X0600990Y0346525D01*
X0601061Y0346381D01*
X0601128Y0346235D01*
X0601192Y0346087D01*
X0601252Y0345938D01*
X0601308Y0345788D01*
X0601361Y0345636D01*
X0601410Y0345483D01*
X0601455Y0345329D01*
X0601496Y0345174D01*
X0601534Y0345017D01*
X0601567Y0344860D01*
X0601597Y0344702D01*
X0601623Y0344544D01*
X0601644Y0344384D01*
X0601662Y0344225D01*
X0601676Y0344065D01*
X0601686Y0343904D01*
X0601692Y0343744D01*
X0601694Y0343583D01*
X0601692Y0343422D01*
X0601686Y0343262D01*
X0601676Y0343101D01*
X0601662Y0342941D01*
X0601644Y0342782D01*
X0601623Y0342622D01*
X0601597Y0342464D01*
X0601567Y0342306D01*
X0601534Y0342149D01*
X0601496Y0341992D01*
X0601455Y0341837D01*
X0601410Y0341683D01*
X0601361Y0341530D01*
X0601308Y0341378D01*
X0601252Y0341228D01*
X0601192Y0341079D01*
X0601128Y0340931D01*
X0601061Y0340785D01*
X0600990Y0340641D01*
X0600915Y0340499D01*
X0600837Y0340358D01*
X0600756Y0340220D01*
X0600671Y0340083D01*
X0600582Y0339949D01*
X0600491Y0339817D01*
X0600396Y0339687D01*
X0600298Y0339560D01*
X0600197Y0339435D01*
X0600093Y0339312D01*
X0599986Y0339193D01*
X0599876Y0339076D01*
X0599763Y0338961D01*
X0599647Y0338850D01*
X0599529Y0338741D01*
X0599408Y0338636D01*
X0599284Y0338533D01*
X0599158Y0338433D01*
X0599029Y0338337D01*
X0598898Y0338244D01*
X0598765Y0338154D01*
X0598630Y0338067D01*
X0598492Y0337984D01*
X0598353Y0337905D01*
X0598211Y0337828D01*
X0598068Y0337755D01*
X0597923Y0337686D01*
X0597776Y0337621D01*
X0597628Y0337559D01*
X0597478Y0337500D01*
X0597327Y0337446D01*
X0597175Y0337395D01*
X0597021Y0337348D01*
X0596866Y0337305D01*
X0596711Y0337266D01*
X0596554Y0337230D01*
X0596396Y0337198D01*
X0596238Y0337171D01*
X0596079Y0337147D01*
X0595920Y0337127D01*
X0595760Y0337111D01*
X0595599Y0337099D01*
X0595439Y0337091D01*
X0595278Y0337087D01*
X0595118Y0337087D01*
X0594957Y0337091D01*
X0594797Y0337099D01*
X0594636Y0337111D01*
X0594476Y0337127D01*
X0594317Y0337147D01*
X0594158Y0337171D01*
X0594000Y0337198D01*
X0593842Y0337230D01*
X0593685Y0337266D01*
X0593530Y0337305D01*
X0593375Y0337348D01*
X0593221Y0337395D01*
X0593069Y0337446D01*
X0592918Y0337500D01*
X0592768Y0337559D01*
X0592620Y0337621D01*
X0592473Y0337686D01*
X0592328Y0337755D01*
X0592185Y0337828D01*
X0592043Y0337905D01*
X0591904Y0337984D01*
X0591766Y0338067D01*
X0591631Y0338154D01*
X0591498Y0338244D01*
X0591367Y0338337D01*
X0591238Y0338433D01*
X0591112Y0338533D01*
X0590988Y0338636D01*
X0590867Y0338741D01*
X0590749Y0338850D01*
X0590633Y0338961D01*
X0590520Y0339076D01*
X0590410Y0339193D01*
X0590303Y0339312D01*
X0590199Y0339435D01*
X0590098Y0339560D01*
X0590000Y0339687D01*
X0589905Y0339817D01*
X0589814Y0339949D01*
X0589725Y0340083D01*
X0589640Y0340220D01*
X0589559Y0340358D01*
X0589481Y0340499D01*
X0589406Y0340641D01*
X0589335Y0340785D01*
X0589268Y0340931D01*
X0589204Y0341079D01*
X0589144Y0341228D01*
X0589088Y0341378D01*
X0589035Y0341530D01*
X0588986Y0341683D01*
X0588941Y0341837D01*
X0588900Y0341992D01*
X0588862Y0342149D01*
X0588829Y0342306D01*
X0588799Y0342464D01*
X0588773Y0342622D01*
X0588752Y0342782D01*
X0588734Y0342941D01*
X0588720Y0343101D01*
X0588710Y0343262D01*
X0588704Y0343422D01*
X0588702Y0343583D01*
X0603068Y0373347D02*
X0603070Y0373508D01*
X0603076Y0373668D01*
X0603086Y0373829D01*
X0603100Y0373989D01*
X0603118Y0374149D01*
X0603139Y0374308D01*
X0603165Y0374467D01*
X0603195Y0374625D01*
X0603228Y0374782D01*
X0603266Y0374939D01*
X0603307Y0375094D01*
X0603352Y0375248D01*
X0603401Y0375401D01*
X0603454Y0375553D01*
X0603510Y0375704D01*
X0603571Y0375853D01*
X0603634Y0376001D01*
X0603702Y0376147D01*
X0603773Y0376291D01*
X0603847Y0376433D01*
X0603925Y0376574D01*
X0604007Y0376712D01*
X0604092Y0376849D01*
X0604180Y0376983D01*
X0604272Y0377115D01*
X0604367Y0377245D01*
X0604465Y0377373D01*
X0604566Y0377498D01*
X0604670Y0377620D01*
X0604777Y0377740D01*
X0604887Y0377857D01*
X0605000Y0377972D01*
X0605116Y0378083D01*
X0605235Y0378192D01*
X0605356Y0378297D01*
X0605480Y0378400D01*
X0605606Y0378500D01*
X0605734Y0378596D01*
X0605865Y0378689D01*
X0605999Y0378779D01*
X0606134Y0378866D01*
X0606272Y0378949D01*
X0606411Y0379029D01*
X0606553Y0379105D01*
X0606696Y0379178D01*
X0606841Y0379247D01*
X0606988Y0379313D01*
X0607136Y0379375D01*
X0607286Y0379433D01*
X0607437Y0379488D01*
X0607590Y0379539D01*
X0607744Y0379586D01*
X0607899Y0379629D01*
X0608055Y0379668D01*
X0608211Y0379704D01*
X0608369Y0379735D01*
X0608527Y0379763D01*
X0608686Y0379787D01*
X0608846Y0379807D01*
X0609006Y0379823D01*
X0609166Y0379835D01*
X0609327Y0379843D01*
X0609488Y0379847D01*
X0609648Y0379847D01*
X0609809Y0379843D01*
X0609970Y0379835D01*
X0610130Y0379823D01*
X0610290Y0379807D01*
X0610450Y0379787D01*
X0610609Y0379763D01*
X0610767Y0379735D01*
X0610925Y0379704D01*
X0611081Y0379668D01*
X0611237Y0379629D01*
X0611392Y0379586D01*
X0611546Y0379539D01*
X0611699Y0379488D01*
X0611850Y0379433D01*
X0612000Y0379375D01*
X0612148Y0379313D01*
X0612295Y0379247D01*
X0612440Y0379178D01*
X0612583Y0379105D01*
X0612725Y0379029D01*
X0612864Y0378949D01*
X0613002Y0378866D01*
X0613137Y0378779D01*
X0613271Y0378689D01*
X0613402Y0378596D01*
X0613530Y0378500D01*
X0613656Y0378400D01*
X0613780Y0378297D01*
X0613901Y0378192D01*
X0614020Y0378083D01*
X0614136Y0377972D01*
X0614249Y0377857D01*
X0614359Y0377740D01*
X0614466Y0377620D01*
X0614570Y0377498D01*
X0614671Y0377373D01*
X0614769Y0377245D01*
X0614864Y0377115D01*
X0614956Y0376983D01*
X0615044Y0376849D01*
X0615129Y0376712D01*
X0615211Y0376574D01*
X0615289Y0376433D01*
X0615363Y0376291D01*
X0615434Y0376147D01*
X0615502Y0376001D01*
X0615565Y0375853D01*
X0615626Y0375704D01*
X0615682Y0375553D01*
X0615735Y0375401D01*
X0615784Y0375248D01*
X0615829Y0375094D01*
X0615870Y0374939D01*
X0615908Y0374782D01*
X0615941Y0374625D01*
X0615971Y0374467D01*
X0615997Y0374308D01*
X0616018Y0374149D01*
X0616036Y0373989D01*
X0616050Y0373829D01*
X0616060Y0373668D01*
X0616066Y0373508D01*
X0616068Y0373347D01*
X0616066Y0373186D01*
X0616060Y0373026D01*
X0616050Y0372865D01*
X0616036Y0372705D01*
X0616018Y0372545D01*
X0615997Y0372386D01*
X0615971Y0372227D01*
X0615941Y0372069D01*
X0615908Y0371912D01*
X0615870Y0371755D01*
X0615829Y0371600D01*
X0615784Y0371446D01*
X0615735Y0371293D01*
X0615682Y0371141D01*
X0615626Y0370990D01*
X0615565Y0370841D01*
X0615502Y0370693D01*
X0615434Y0370547D01*
X0615363Y0370403D01*
X0615289Y0370261D01*
X0615211Y0370120D01*
X0615129Y0369982D01*
X0615044Y0369845D01*
X0614956Y0369711D01*
X0614864Y0369579D01*
X0614769Y0369449D01*
X0614671Y0369321D01*
X0614570Y0369196D01*
X0614466Y0369074D01*
X0614359Y0368954D01*
X0614249Y0368837D01*
X0614136Y0368722D01*
X0614020Y0368611D01*
X0613901Y0368502D01*
X0613780Y0368397D01*
X0613656Y0368294D01*
X0613530Y0368194D01*
X0613402Y0368098D01*
X0613271Y0368005D01*
X0613137Y0367915D01*
X0613002Y0367828D01*
X0612864Y0367745D01*
X0612725Y0367665D01*
X0612583Y0367589D01*
X0612440Y0367516D01*
X0612295Y0367447D01*
X0612148Y0367381D01*
X0612000Y0367319D01*
X0611850Y0367261D01*
X0611699Y0367206D01*
X0611546Y0367155D01*
X0611392Y0367108D01*
X0611237Y0367065D01*
X0611081Y0367026D01*
X0610925Y0366990D01*
X0610767Y0366959D01*
X0610609Y0366931D01*
X0610450Y0366907D01*
X0610290Y0366887D01*
X0610130Y0366871D01*
X0609970Y0366859D01*
X0609809Y0366851D01*
X0609648Y0366847D01*
X0609488Y0366847D01*
X0609327Y0366851D01*
X0609166Y0366859D01*
X0609006Y0366871D01*
X0608846Y0366887D01*
X0608686Y0366907D01*
X0608527Y0366931D01*
X0608369Y0366959D01*
X0608211Y0366990D01*
X0608055Y0367026D01*
X0607899Y0367065D01*
X0607744Y0367108D01*
X0607590Y0367155D01*
X0607437Y0367206D01*
X0607286Y0367261D01*
X0607136Y0367319D01*
X0606988Y0367381D01*
X0606841Y0367447D01*
X0606696Y0367516D01*
X0606553Y0367589D01*
X0606411Y0367665D01*
X0606272Y0367745D01*
X0606134Y0367828D01*
X0605999Y0367915D01*
X0605865Y0368005D01*
X0605734Y0368098D01*
X0605606Y0368194D01*
X0605480Y0368294D01*
X0605356Y0368397D01*
X0605235Y0368502D01*
X0605116Y0368611D01*
X0605000Y0368722D01*
X0604887Y0368837D01*
X0604777Y0368954D01*
X0604670Y0369074D01*
X0604566Y0369196D01*
X0604465Y0369321D01*
X0604367Y0369449D01*
X0604272Y0369579D01*
X0604180Y0369711D01*
X0604092Y0369845D01*
X0604007Y0369982D01*
X0603925Y0370120D01*
X0603847Y0370261D01*
X0603773Y0370403D01*
X0603702Y0370547D01*
X0603634Y0370693D01*
X0603571Y0370841D01*
X0603510Y0370990D01*
X0603454Y0371141D01*
X0603401Y0371293D01*
X0603352Y0371446D01*
X0603307Y0371600D01*
X0603266Y0371755D01*
X0603228Y0371912D01*
X0603195Y0372069D01*
X0603165Y0372227D01*
X0603139Y0372386D01*
X0603118Y0372545D01*
X0603100Y0372705D01*
X0603086Y0372865D01*
X0603076Y0373026D01*
X0603070Y0373186D01*
X0603068Y0373347D01*
X0588702Y0303583D02*
X0588704Y0303744D01*
X0588710Y0303904D01*
X0588720Y0304065D01*
X0588734Y0304225D01*
X0588752Y0304384D01*
X0588773Y0304544D01*
X0588799Y0304702D01*
X0588829Y0304860D01*
X0588862Y0305017D01*
X0588900Y0305174D01*
X0588941Y0305329D01*
X0588986Y0305483D01*
X0589035Y0305636D01*
X0589088Y0305788D01*
X0589144Y0305938D01*
X0589204Y0306087D01*
X0589268Y0306235D01*
X0589335Y0306381D01*
X0589406Y0306525D01*
X0589481Y0306667D01*
X0589559Y0306808D01*
X0589640Y0306946D01*
X0589725Y0307083D01*
X0589814Y0307217D01*
X0589905Y0307349D01*
X0590000Y0307479D01*
X0590098Y0307606D01*
X0590199Y0307731D01*
X0590303Y0307854D01*
X0590410Y0307973D01*
X0590520Y0308090D01*
X0590633Y0308205D01*
X0590749Y0308316D01*
X0590867Y0308425D01*
X0590988Y0308530D01*
X0591112Y0308633D01*
X0591238Y0308733D01*
X0591367Y0308829D01*
X0591498Y0308922D01*
X0591631Y0309012D01*
X0591766Y0309099D01*
X0591904Y0309182D01*
X0592043Y0309261D01*
X0592185Y0309338D01*
X0592328Y0309411D01*
X0592473Y0309480D01*
X0592620Y0309545D01*
X0592768Y0309607D01*
X0592918Y0309666D01*
X0593069Y0309720D01*
X0593221Y0309771D01*
X0593375Y0309818D01*
X0593530Y0309861D01*
X0593685Y0309900D01*
X0593842Y0309936D01*
X0594000Y0309968D01*
X0594158Y0309995D01*
X0594317Y0310019D01*
X0594476Y0310039D01*
X0594636Y0310055D01*
X0594797Y0310067D01*
X0594957Y0310075D01*
X0595118Y0310079D01*
X0595278Y0310079D01*
X0595439Y0310075D01*
X0595599Y0310067D01*
X0595760Y0310055D01*
X0595920Y0310039D01*
X0596079Y0310019D01*
X0596238Y0309995D01*
X0596396Y0309968D01*
X0596554Y0309936D01*
X0596711Y0309900D01*
X0596866Y0309861D01*
X0597021Y0309818D01*
X0597175Y0309771D01*
X0597327Y0309720D01*
X0597478Y0309666D01*
X0597628Y0309607D01*
X0597776Y0309545D01*
X0597923Y0309480D01*
X0598068Y0309411D01*
X0598211Y0309338D01*
X0598353Y0309261D01*
X0598492Y0309182D01*
X0598630Y0309099D01*
X0598765Y0309012D01*
X0598898Y0308922D01*
X0599029Y0308829D01*
X0599158Y0308733D01*
X0599284Y0308633D01*
X0599408Y0308530D01*
X0599529Y0308425D01*
X0599647Y0308316D01*
X0599763Y0308205D01*
X0599876Y0308090D01*
X0599986Y0307973D01*
X0600093Y0307854D01*
X0600197Y0307731D01*
X0600298Y0307606D01*
X0600396Y0307479D01*
X0600491Y0307349D01*
X0600582Y0307217D01*
X0600671Y0307083D01*
X0600756Y0306946D01*
X0600837Y0306808D01*
X0600915Y0306667D01*
X0600990Y0306525D01*
X0601061Y0306381D01*
X0601128Y0306235D01*
X0601192Y0306087D01*
X0601252Y0305938D01*
X0601308Y0305788D01*
X0601361Y0305636D01*
X0601410Y0305483D01*
X0601455Y0305329D01*
X0601496Y0305174D01*
X0601534Y0305017D01*
X0601567Y0304860D01*
X0601597Y0304702D01*
X0601623Y0304544D01*
X0601644Y0304384D01*
X0601662Y0304225D01*
X0601676Y0304065D01*
X0601686Y0303904D01*
X0601692Y0303744D01*
X0601694Y0303583D01*
X0601692Y0303422D01*
X0601686Y0303262D01*
X0601676Y0303101D01*
X0601662Y0302941D01*
X0601644Y0302782D01*
X0601623Y0302622D01*
X0601597Y0302464D01*
X0601567Y0302306D01*
X0601534Y0302149D01*
X0601496Y0301992D01*
X0601455Y0301837D01*
X0601410Y0301683D01*
X0601361Y0301530D01*
X0601308Y0301378D01*
X0601252Y0301228D01*
X0601192Y0301079D01*
X0601128Y0300931D01*
X0601061Y0300785D01*
X0600990Y0300641D01*
X0600915Y0300499D01*
X0600837Y0300358D01*
X0600756Y0300220D01*
X0600671Y0300083D01*
X0600582Y0299949D01*
X0600491Y0299817D01*
X0600396Y0299687D01*
X0600298Y0299560D01*
X0600197Y0299435D01*
X0600093Y0299312D01*
X0599986Y0299193D01*
X0599876Y0299076D01*
X0599763Y0298961D01*
X0599647Y0298850D01*
X0599529Y0298741D01*
X0599408Y0298636D01*
X0599284Y0298533D01*
X0599158Y0298433D01*
X0599029Y0298337D01*
X0598898Y0298244D01*
X0598765Y0298154D01*
X0598630Y0298067D01*
X0598492Y0297984D01*
X0598353Y0297905D01*
X0598211Y0297828D01*
X0598068Y0297755D01*
X0597923Y0297686D01*
X0597776Y0297621D01*
X0597628Y0297559D01*
X0597478Y0297500D01*
X0597327Y0297446D01*
X0597175Y0297395D01*
X0597021Y0297348D01*
X0596866Y0297305D01*
X0596711Y0297266D01*
X0596554Y0297230D01*
X0596396Y0297198D01*
X0596238Y0297171D01*
X0596079Y0297147D01*
X0595920Y0297127D01*
X0595760Y0297111D01*
X0595599Y0297099D01*
X0595439Y0297091D01*
X0595278Y0297087D01*
X0595118Y0297087D01*
X0594957Y0297091D01*
X0594797Y0297099D01*
X0594636Y0297111D01*
X0594476Y0297127D01*
X0594317Y0297147D01*
X0594158Y0297171D01*
X0594000Y0297198D01*
X0593842Y0297230D01*
X0593685Y0297266D01*
X0593530Y0297305D01*
X0593375Y0297348D01*
X0593221Y0297395D01*
X0593069Y0297446D01*
X0592918Y0297500D01*
X0592768Y0297559D01*
X0592620Y0297621D01*
X0592473Y0297686D01*
X0592328Y0297755D01*
X0592185Y0297828D01*
X0592043Y0297905D01*
X0591904Y0297984D01*
X0591766Y0298067D01*
X0591631Y0298154D01*
X0591498Y0298244D01*
X0591367Y0298337D01*
X0591238Y0298433D01*
X0591112Y0298533D01*
X0590988Y0298636D01*
X0590867Y0298741D01*
X0590749Y0298850D01*
X0590633Y0298961D01*
X0590520Y0299076D01*
X0590410Y0299193D01*
X0590303Y0299312D01*
X0590199Y0299435D01*
X0590098Y0299560D01*
X0590000Y0299687D01*
X0589905Y0299817D01*
X0589814Y0299949D01*
X0589725Y0300083D01*
X0589640Y0300220D01*
X0589559Y0300358D01*
X0589481Y0300499D01*
X0589406Y0300641D01*
X0589335Y0300785D01*
X0589268Y0300931D01*
X0589204Y0301079D01*
X0589144Y0301228D01*
X0589088Y0301378D01*
X0589035Y0301530D01*
X0588986Y0301683D01*
X0588941Y0301837D01*
X0588900Y0301992D01*
X0588862Y0302149D01*
X0588829Y0302306D01*
X0588799Y0302464D01*
X0588773Y0302622D01*
X0588752Y0302782D01*
X0588734Y0302941D01*
X0588720Y0303101D01*
X0588710Y0303262D01*
X0588704Y0303422D01*
X0588702Y0303583D01*
X0588702Y0268780D02*
X0588704Y0268941D01*
X0588710Y0269101D01*
X0588720Y0269262D01*
X0588734Y0269422D01*
X0588752Y0269581D01*
X0588773Y0269741D01*
X0588799Y0269899D01*
X0588829Y0270057D01*
X0588862Y0270214D01*
X0588900Y0270371D01*
X0588941Y0270526D01*
X0588986Y0270680D01*
X0589035Y0270833D01*
X0589088Y0270985D01*
X0589144Y0271135D01*
X0589204Y0271284D01*
X0589268Y0271432D01*
X0589335Y0271578D01*
X0589406Y0271722D01*
X0589481Y0271864D01*
X0589559Y0272005D01*
X0589640Y0272143D01*
X0589725Y0272280D01*
X0589814Y0272414D01*
X0589905Y0272546D01*
X0590000Y0272676D01*
X0590098Y0272803D01*
X0590199Y0272928D01*
X0590303Y0273051D01*
X0590410Y0273170D01*
X0590520Y0273287D01*
X0590633Y0273402D01*
X0590749Y0273513D01*
X0590867Y0273622D01*
X0590988Y0273727D01*
X0591112Y0273830D01*
X0591238Y0273930D01*
X0591367Y0274026D01*
X0591498Y0274119D01*
X0591631Y0274209D01*
X0591766Y0274296D01*
X0591904Y0274379D01*
X0592043Y0274458D01*
X0592185Y0274535D01*
X0592328Y0274608D01*
X0592473Y0274677D01*
X0592620Y0274742D01*
X0592768Y0274804D01*
X0592918Y0274863D01*
X0593069Y0274917D01*
X0593221Y0274968D01*
X0593375Y0275015D01*
X0593530Y0275058D01*
X0593685Y0275097D01*
X0593842Y0275133D01*
X0594000Y0275165D01*
X0594158Y0275192D01*
X0594317Y0275216D01*
X0594476Y0275236D01*
X0594636Y0275252D01*
X0594797Y0275264D01*
X0594957Y0275272D01*
X0595118Y0275276D01*
X0595278Y0275276D01*
X0595439Y0275272D01*
X0595599Y0275264D01*
X0595760Y0275252D01*
X0595920Y0275236D01*
X0596079Y0275216D01*
X0596238Y0275192D01*
X0596396Y0275165D01*
X0596554Y0275133D01*
X0596711Y0275097D01*
X0596866Y0275058D01*
X0597021Y0275015D01*
X0597175Y0274968D01*
X0597327Y0274917D01*
X0597478Y0274863D01*
X0597628Y0274804D01*
X0597776Y0274742D01*
X0597923Y0274677D01*
X0598068Y0274608D01*
X0598211Y0274535D01*
X0598353Y0274458D01*
X0598492Y0274379D01*
X0598630Y0274296D01*
X0598765Y0274209D01*
X0598898Y0274119D01*
X0599029Y0274026D01*
X0599158Y0273930D01*
X0599284Y0273830D01*
X0599408Y0273727D01*
X0599529Y0273622D01*
X0599647Y0273513D01*
X0599763Y0273402D01*
X0599876Y0273287D01*
X0599986Y0273170D01*
X0600093Y0273051D01*
X0600197Y0272928D01*
X0600298Y0272803D01*
X0600396Y0272676D01*
X0600491Y0272546D01*
X0600582Y0272414D01*
X0600671Y0272280D01*
X0600756Y0272143D01*
X0600837Y0272005D01*
X0600915Y0271864D01*
X0600990Y0271722D01*
X0601061Y0271578D01*
X0601128Y0271432D01*
X0601192Y0271284D01*
X0601252Y0271135D01*
X0601308Y0270985D01*
X0601361Y0270833D01*
X0601410Y0270680D01*
X0601455Y0270526D01*
X0601496Y0270371D01*
X0601534Y0270214D01*
X0601567Y0270057D01*
X0601597Y0269899D01*
X0601623Y0269741D01*
X0601644Y0269581D01*
X0601662Y0269422D01*
X0601676Y0269262D01*
X0601686Y0269101D01*
X0601692Y0268941D01*
X0601694Y0268780D01*
X0601692Y0268619D01*
X0601686Y0268459D01*
X0601676Y0268298D01*
X0601662Y0268138D01*
X0601644Y0267979D01*
X0601623Y0267819D01*
X0601597Y0267661D01*
X0601567Y0267503D01*
X0601534Y0267346D01*
X0601496Y0267189D01*
X0601455Y0267034D01*
X0601410Y0266880D01*
X0601361Y0266727D01*
X0601308Y0266575D01*
X0601252Y0266425D01*
X0601192Y0266276D01*
X0601128Y0266128D01*
X0601061Y0265982D01*
X0600990Y0265838D01*
X0600915Y0265696D01*
X0600837Y0265555D01*
X0600756Y0265417D01*
X0600671Y0265280D01*
X0600582Y0265146D01*
X0600491Y0265014D01*
X0600396Y0264884D01*
X0600298Y0264757D01*
X0600197Y0264632D01*
X0600093Y0264509D01*
X0599986Y0264390D01*
X0599876Y0264273D01*
X0599763Y0264158D01*
X0599647Y0264047D01*
X0599529Y0263938D01*
X0599408Y0263833D01*
X0599284Y0263730D01*
X0599158Y0263630D01*
X0599029Y0263534D01*
X0598898Y0263441D01*
X0598765Y0263351D01*
X0598630Y0263264D01*
X0598492Y0263181D01*
X0598353Y0263102D01*
X0598211Y0263025D01*
X0598068Y0262952D01*
X0597923Y0262883D01*
X0597776Y0262818D01*
X0597628Y0262756D01*
X0597478Y0262697D01*
X0597327Y0262643D01*
X0597175Y0262592D01*
X0597021Y0262545D01*
X0596866Y0262502D01*
X0596711Y0262463D01*
X0596554Y0262427D01*
X0596396Y0262395D01*
X0596238Y0262368D01*
X0596079Y0262344D01*
X0595920Y0262324D01*
X0595760Y0262308D01*
X0595599Y0262296D01*
X0595439Y0262288D01*
X0595278Y0262284D01*
X0595118Y0262284D01*
X0594957Y0262288D01*
X0594797Y0262296D01*
X0594636Y0262308D01*
X0594476Y0262324D01*
X0594317Y0262344D01*
X0594158Y0262368D01*
X0594000Y0262395D01*
X0593842Y0262427D01*
X0593685Y0262463D01*
X0593530Y0262502D01*
X0593375Y0262545D01*
X0593221Y0262592D01*
X0593069Y0262643D01*
X0592918Y0262697D01*
X0592768Y0262756D01*
X0592620Y0262818D01*
X0592473Y0262883D01*
X0592328Y0262952D01*
X0592185Y0263025D01*
X0592043Y0263102D01*
X0591904Y0263181D01*
X0591766Y0263264D01*
X0591631Y0263351D01*
X0591498Y0263441D01*
X0591367Y0263534D01*
X0591238Y0263630D01*
X0591112Y0263730D01*
X0590988Y0263833D01*
X0590867Y0263938D01*
X0590749Y0264047D01*
X0590633Y0264158D01*
X0590520Y0264273D01*
X0590410Y0264390D01*
X0590303Y0264509D01*
X0590199Y0264632D01*
X0590098Y0264757D01*
X0590000Y0264884D01*
X0589905Y0265014D01*
X0589814Y0265146D01*
X0589725Y0265280D01*
X0589640Y0265417D01*
X0589559Y0265555D01*
X0589481Y0265696D01*
X0589406Y0265838D01*
X0589335Y0265982D01*
X0589268Y0266128D01*
X0589204Y0266276D01*
X0589144Y0266425D01*
X0589088Y0266575D01*
X0589035Y0266727D01*
X0588986Y0266880D01*
X0588941Y0267034D01*
X0588900Y0267189D01*
X0588862Y0267346D01*
X0588829Y0267503D01*
X0588799Y0267661D01*
X0588773Y0267819D01*
X0588752Y0267979D01*
X0588734Y0268138D01*
X0588720Y0268298D01*
X0588710Y0268459D01*
X0588704Y0268619D01*
X0588702Y0268780D01*
X0588702Y0228780D02*
X0588704Y0228941D01*
X0588710Y0229101D01*
X0588720Y0229262D01*
X0588734Y0229422D01*
X0588752Y0229581D01*
X0588773Y0229741D01*
X0588799Y0229899D01*
X0588829Y0230057D01*
X0588862Y0230214D01*
X0588900Y0230371D01*
X0588941Y0230526D01*
X0588986Y0230680D01*
X0589035Y0230833D01*
X0589088Y0230985D01*
X0589144Y0231135D01*
X0589204Y0231284D01*
X0589268Y0231432D01*
X0589335Y0231578D01*
X0589406Y0231722D01*
X0589481Y0231864D01*
X0589559Y0232005D01*
X0589640Y0232143D01*
X0589725Y0232280D01*
X0589814Y0232414D01*
X0589905Y0232546D01*
X0590000Y0232676D01*
X0590098Y0232803D01*
X0590199Y0232928D01*
X0590303Y0233051D01*
X0590410Y0233170D01*
X0590520Y0233287D01*
X0590633Y0233402D01*
X0590749Y0233513D01*
X0590867Y0233622D01*
X0590988Y0233727D01*
X0591112Y0233830D01*
X0591238Y0233930D01*
X0591367Y0234026D01*
X0591498Y0234119D01*
X0591631Y0234209D01*
X0591766Y0234296D01*
X0591904Y0234379D01*
X0592043Y0234458D01*
X0592185Y0234535D01*
X0592328Y0234608D01*
X0592473Y0234677D01*
X0592620Y0234742D01*
X0592768Y0234804D01*
X0592918Y0234863D01*
X0593069Y0234917D01*
X0593221Y0234968D01*
X0593375Y0235015D01*
X0593530Y0235058D01*
X0593685Y0235097D01*
X0593842Y0235133D01*
X0594000Y0235165D01*
X0594158Y0235192D01*
X0594317Y0235216D01*
X0594476Y0235236D01*
X0594636Y0235252D01*
X0594797Y0235264D01*
X0594957Y0235272D01*
X0595118Y0235276D01*
X0595278Y0235276D01*
X0595439Y0235272D01*
X0595599Y0235264D01*
X0595760Y0235252D01*
X0595920Y0235236D01*
X0596079Y0235216D01*
X0596238Y0235192D01*
X0596396Y0235165D01*
X0596554Y0235133D01*
X0596711Y0235097D01*
X0596866Y0235058D01*
X0597021Y0235015D01*
X0597175Y0234968D01*
X0597327Y0234917D01*
X0597478Y0234863D01*
X0597628Y0234804D01*
X0597776Y0234742D01*
X0597923Y0234677D01*
X0598068Y0234608D01*
X0598211Y0234535D01*
X0598353Y0234458D01*
X0598492Y0234379D01*
X0598630Y0234296D01*
X0598765Y0234209D01*
X0598898Y0234119D01*
X0599029Y0234026D01*
X0599158Y0233930D01*
X0599284Y0233830D01*
X0599408Y0233727D01*
X0599529Y0233622D01*
X0599647Y0233513D01*
X0599763Y0233402D01*
X0599876Y0233287D01*
X0599986Y0233170D01*
X0600093Y0233051D01*
X0600197Y0232928D01*
X0600298Y0232803D01*
X0600396Y0232676D01*
X0600491Y0232546D01*
X0600582Y0232414D01*
X0600671Y0232280D01*
X0600756Y0232143D01*
X0600837Y0232005D01*
X0600915Y0231864D01*
X0600990Y0231722D01*
X0601061Y0231578D01*
X0601128Y0231432D01*
X0601192Y0231284D01*
X0601252Y0231135D01*
X0601308Y0230985D01*
X0601361Y0230833D01*
X0601410Y0230680D01*
X0601455Y0230526D01*
X0601496Y0230371D01*
X0601534Y0230214D01*
X0601567Y0230057D01*
X0601597Y0229899D01*
X0601623Y0229741D01*
X0601644Y0229581D01*
X0601662Y0229422D01*
X0601676Y0229262D01*
X0601686Y0229101D01*
X0601692Y0228941D01*
X0601694Y0228780D01*
X0601692Y0228619D01*
X0601686Y0228459D01*
X0601676Y0228298D01*
X0601662Y0228138D01*
X0601644Y0227979D01*
X0601623Y0227819D01*
X0601597Y0227661D01*
X0601567Y0227503D01*
X0601534Y0227346D01*
X0601496Y0227189D01*
X0601455Y0227034D01*
X0601410Y0226880D01*
X0601361Y0226727D01*
X0601308Y0226575D01*
X0601252Y0226425D01*
X0601192Y0226276D01*
X0601128Y0226128D01*
X0601061Y0225982D01*
X0600990Y0225838D01*
X0600915Y0225696D01*
X0600837Y0225555D01*
X0600756Y0225417D01*
X0600671Y0225280D01*
X0600582Y0225146D01*
X0600491Y0225014D01*
X0600396Y0224884D01*
X0600298Y0224757D01*
X0600197Y0224632D01*
X0600093Y0224509D01*
X0599986Y0224390D01*
X0599876Y0224273D01*
X0599763Y0224158D01*
X0599647Y0224047D01*
X0599529Y0223938D01*
X0599408Y0223833D01*
X0599284Y0223730D01*
X0599158Y0223630D01*
X0599029Y0223534D01*
X0598898Y0223441D01*
X0598765Y0223351D01*
X0598630Y0223264D01*
X0598492Y0223181D01*
X0598353Y0223102D01*
X0598211Y0223025D01*
X0598068Y0222952D01*
X0597923Y0222883D01*
X0597776Y0222818D01*
X0597628Y0222756D01*
X0597478Y0222697D01*
X0597327Y0222643D01*
X0597175Y0222592D01*
X0597021Y0222545D01*
X0596866Y0222502D01*
X0596711Y0222463D01*
X0596554Y0222427D01*
X0596396Y0222395D01*
X0596238Y0222368D01*
X0596079Y0222344D01*
X0595920Y0222324D01*
X0595760Y0222308D01*
X0595599Y0222296D01*
X0595439Y0222288D01*
X0595278Y0222284D01*
X0595118Y0222284D01*
X0594957Y0222288D01*
X0594797Y0222296D01*
X0594636Y0222308D01*
X0594476Y0222324D01*
X0594317Y0222344D01*
X0594158Y0222368D01*
X0594000Y0222395D01*
X0593842Y0222427D01*
X0593685Y0222463D01*
X0593530Y0222502D01*
X0593375Y0222545D01*
X0593221Y0222592D01*
X0593069Y0222643D01*
X0592918Y0222697D01*
X0592768Y0222756D01*
X0592620Y0222818D01*
X0592473Y0222883D01*
X0592328Y0222952D01*
X0592185Y0223025D01*
X0592043Y0223102D01*
X0591904Y0223181D01*
X0591766Y0223264D01*
X0591631Y0223351D01*
X0591498Y0223441D01*
X0591367Y0223534D01*
X0591238Y0223630D01*
X0591112Y0223730D01*
X0590988Y0223833D01*
X0590867Y0223938D01*
X0590749Y0224047D01*
X0590633Y0224158D01*
X0590520Y0224273D01*
X0590410Y0224390D01*
X0590303Y0224509D01*
X0590199Y0224632D01*
X0590098Y0224757D01*
X0590000Y0224884D01*
X0589905Y0225014D01*
X0589814Y0225146D01*
X0589725Y0225280D01*
X0589640Y0225417D01*
X0589559Y0225555D01*
X0589481Y0225696D01*
X0589406Y0225838D01*
X0589335Y0225982D01*
X0589268Y0226128D01*
X0589204Y0226276D01*
X0589144Y0226425D01*
X0589088Y0226575D01*
X0589035Y0226727D01*
X0588986Y0226880D01*
X0588941Y0227034D01*
X0588900Y0227189D01*
X0588862Y0227346D01*
X0588829Y0227503D01*
X0588799Y0227661D01*
X0588773Y0227819D01*
X0588752Y0227979D01*
X0588734Y0228138D01*
X0588720Y0228298D01*
X0588710Y0228459D01*
X0588704Y0228619D01*
X0588702Y0228780D01*
X0601716Y0099411D02*
X0601718Y0099571D01*
X0601724Y0099730D01*
X0601734Y0099889D01*
X0601748Y0100048D01*
X0601766Y0100207D01*
X0601787Y0100365D01*
X0601813Y0100522D01*
X0601843Y0100679D01*
X0601876Y0100835D01*
X0601914Y0100990D01*
X0601955Y0101144D01*
X0602000Y0101297D01*
X0602049Y0101449D01*
X0602102Y0101599D01*
X0602158Y0101748D01*
X0602218Y0101896D01*
X0602282Y0102042D01*
X0602350Y0102187D01*
X0602421Y0102330D01*
X0602495Y0102471D01*
X0602573Y0102610D01*
X0602655Y0102747D01*
X0602740Y0102882D01*
X0602828Y0103015D01*
X0602919Y0103146D01*
X0603014Y0103274D01*
X0603112Y0103400D01*
X0603213Y0103524D01*
X0603317Y0103644D01*
X0603424Y0103763D01*
X0603534Y0103878D01*
X0603647Y0103991D01*
X0603762Y0104101D01*
X0603881Y0104208D01*
X0604001Y0104312D01*
X0604125Y0104413D01*
X0604251Y0104511D01*
X0604379Y0104606D01*
X0604510Y0104697D01*
X0604643Y0104785D01*
X0604778Y0104870D01*
X0604915Y0104952D01*
X0605054Y0105030D01*
X0605195Y0105104D01*
X0605338Y0105175D01*
X0605483Y0105243D01*
X0605629Y0105307D01*
X0605777Y0105367D01*
X0605926Y0105423D01*
X0606076Y0105476D01*
X0606228Y0105525D01*
X0606381Y0105570D01*
X0606535Y0105611D01*
X0606690Y0105649D01*
X0606846Y0105682D01*
X0607003Y0105712D01*
X0607160Y0105738D01*
X0607318Y0105759D01*
X0607477Y0105777D01*
X0607636Y0105791D01*
X0607795Y0105801D01*
X0607954Y0105807D01*
X0608114Y0105809D01*
X0608274Y0105807D01*
X0608433Y0105801D01*
X0608592Y0105791D01*
X0608751Y0105777D01*
X0608910Y0105759D01*
X0609068Y0105738D01*
X0609225Y0105712D01*
X0609382Y0105682D01*
X0609538Y0105649D01*
X0609693Y0105611D01*
X0609847Y0105570D01*
X0610000Y0105525D01*
X0610152Y0105476D01*
X0610302Y0105423D01*
X0610451Y0105367D01*
X0610599Y0105307D01*
X0610745Y0105243D01*
X0610890Y0105175D01*
X0611033Y0105104D01*
X0611174Y0105030D01*
X0611313Y0104952D01*
X0611450Y0104870D01*
X0611585Y0104785D01*
X0611718Y0104697D01*
X0611849Y0104606D01*
X0611977Y0104511D01*
X0612103Y0104413D01*
X0612227Y0104312D01*
X0612347Y0104208D01*
X0612466Y0104101D01*
X0612581Y0103991D01*
X0612694Y0103878D01*
X0612804Y0103763D01*
X0612911Y0103644D01*
X0613015Y0103524D01*
X0613116Y0103400D01*
X0613214Y0103274D01*
X0613309Y0103146D01*
X0613400Y0103015D01*
X0613488Y0102882D01*
X0613573Y0102747D01*
X0613655Y0102610D01*
X0613733Y0102471D01*
X0613807Y0102330D01*
X0613878Y0102187D01*
X0613946Y0102042D01*
X0614010Y0101896D01*
X0614070Y0101748D01*
X0614126Y0101599D01*
X0614179Y0101449D01*
X0614228Y0101297D01*
X0614273Y0101144D01*
X0614314Y0100990D01*
X0614352Y0100835D01*
X0614385Y0100679D01*
X0614415Y0100522D01*
X0614441Y0100365D01*
X0614462Y0100207D01*
X0614480Y0100048D01*
X0614494Y0099889D01*
X0614504Y0099730D01*
X0614510Y0099571D01*
X0614512Y0099411D01*
X0614510Y0099251D01*
X0614504Y0099092D01*
X0614494Y0098933D01*
X0614480Y0098774D01*
X0614462Y0098615D01*
X0614441Y0098457D01*
X0614415Y0098300D01*
X0614385Y0098143D01*
X0614352Y0097987D01*
X0614314Y0097832D01*
X0614273Y0097678D01*
X0614228Y0097525D01*
X0614179Y0097373D01*
X0614126Y0097223D01*
X0614070Y0097074D01*
X0614010Y0096926D01*
X0613946Y0096780D01*
X0613878Y0096635D01*
X0613807Y0096492D01*
X0613733Y0096351D01*
X0613655Y0096212D01*
X0613573Y0096075D01*
X0613488Y0095940D01*
X0613400Y0095807D01*
X0613309Y0095676D01*
X0613214Y0095548D01*
X0613116Y0095422D01*
X0613015Y0095298D01*
X0612911Y0095178D01*
X0612804Y0095059D01*
X0612694Y0094944D01*
X0612581Y0094831D01*
X0612466Y0094721D01*
X0612347Y0094614D01*
X0612227Y0094510D01*
X0612103Y0094409D01*
X0611977Y0094311D01*
X0611849Y0094216D01*
X0611718Y0094125D01*
X0611585Y0094037D01*
X0611450Y0093952D01*
X0611313Y0093870D01*
X0611174Y0093792D01*
X0611033Y0093718D01*
X0610890Y0093647D01*
X0610745Y0093579D01*
X0610599Y0093515D01*
X0610451Y0093455D01*
X0610302Y0093399D01*
X0610152Y0093346D01*
X0610000Y0093297D01*
X0609847Y0093252D01*
X0609693Y0093211D01*
X0609538Y0093173D01*
X0609382Y0093140D01*
X0609225Y0093110D01*
X0609068Y0093084D01*
X0608910Y0093063D01*
X0608751Y0093045D01*
X0608592Y0093031D01*
X0608433Y0093021D01*
X0608274Y0093015D01*
X0608114Y0093013D01*
X0607954Y0093015D01*
X0607795Y0093021D01*
X0607636Y0093031D01*
X0607477Y0093045D01*
X0607318Y0093063D01*
X0607160Y0093084D01*
X0607003Y0093110D01*
X0606846Y0093140D01*
X0606690Y0093173D01*
X0606535Y0093211D01*
X0606381Y0093252D01*
X0606228Y0093297D01*
X0606076Y0093346D01*
X0605926Y0093399D01*
X0605777Y0093455D01*
X0605629Y0093515D01*
X0605483Y0093579D01*
X0605338Y0093647D01*
X0605195Y0093718D01*
X0605054Y0093792D01*
X0604915Y0093870D01*
X0604778Y0093952D01*
X0604643Y0094037D01*
X0604510Y0094125D01*
X0604379Y0094216D01*
X0604251Y0094311D01*
X0604125Y0094409D01*
X0604001Y0094510D01*
X0603881Y0094614D01*
X0603762Y0094721D01*
X0603647Y0094831D01*
X0603534Y0094944D01*
X0603424Y0095059D01*
X0603317Y0095178D01*
X0603213Y0095298D01*
X0603112Y0095422D01*
X0603014Y0095548D01*
X0602919Y0095676D01*
X0602828Y0095807D01*
X0602740Y0095940D01*
X0602655Y0096075D01*
X0602573Y0096212D01*
X0602495Y0096351D01*
X0602421Y0096492D01*
X0602350Y0096635D01*
X0602282Y0096780D01*
X0602218Y0096926D01*
X0602158Y0097074D01*
X0602102Y0097223D01*
X0602049Y0097373D01*
X0602000Y0097525D01*
X0601955Y0097678D01*
X0601914Y0097832D01*
X0601876Y0097987D01*
X0601843Y0098143D01*
X0601813Y0098300D01*
X0601787Y0098457D01*
X0601766Y0098615D01*
X0601748Y0098774D01*
X0601734Y0098933D01*
X0601724Y0099092D01*
X0601718Y0099251D01*
X0601716Y0099411D01*
X0601716Y0049411D02*
X0601718Y0049571D01*
X0601724Y0049730D01*
X0601734Y0049889D01*
X0601748Y0050048D01*
X0601766Y0050207D01*
X0601787Y0050365D01*
X0601813Y0050522D01*
X0601843Y0050679D01*
X0601876Y0050835D01*
X0601914Y0050990D01*
X0601955Y0051144D01*
X0602000Y0051297D01*
X0602049Y0051449D01*
X0602102Y0051599D01*
X0602158Y0051748D01*
X0602218Y0051896D01*
X0602282Y0052042D01*
X0602350Y0052187D01*
X0602421Y0052330D01*
X0602495Y0052471D01*
X0602573Y0052610D01*
X0602655Y0052747D01*
X0602740Y0052882D01*
X0602828Y0053015D01*
X0602919Y0053146D01*
X0603014Y0053274D01*
X0603112Y0053400D01*
X0603213Y0053524D01*
X0603317Y0053644D01*
X0603424Y0053763D01*
X0603534Y0053878D01*
X0603647Y0053991D01*
X0603762Y0054101D01*
X0603881Y0054208D01*
X0604001Y0054312D01*
X0604125Y0054413D01*
X0604251Y0054511D01*
X0604379Y0054606D01*
X0604510Y0054697D01*
X0604643Y0054785D01*
X0604778Y0054870D01*
X0604915Y0054952D01*
X0605054Y0055030D01*
X0605195Y0055104D01*
X0605338Y0055175D01*
X0605483Y0055243D01*
X0605629Y0055307D01*
X0605777Y0055367D01*
X0605926Y0055423D01*
X0606076Y0055476D01*
X0606228Y0055525D01*
X0606381Y0055570D01*
X0606535Y0055611D01*
X0606690Y0055649D01*
X0606846Y0055682D01*
X0607003Y0055712D01*
X0607160Y0055738D01*
X0607318Y0055759D01*
X0607477Y0055777D01*
X0607636Y0055791D01*
X0607795Y0055801D01*
X0607954Y0055807D01*
X0608114Y0055809D01*
X0608274Y0055807D01*
X0608433Y0055801D01*
X0608592Y0055791D01*
X0608751Y0055777D01*
X0608910Y0055759D01*
X0609068Y0055738D01*
X0609225Y0055712D01*
X0609382Y0055682D01*
X0609538Y0055649D01*
X0609693Y0055611D01*
X0609847Y0055570D01*
X0610000Y0055525D01*
X0610152Y0055476D01*
X0610302Y0055423D01*
X0610451Y0055367D01*
X0610599Y0055307D01*
X0610745Y0055243D01*
X0610890Y0055175D01*
X0611033Y0055104D01*
X0611174Y0055030D01*
X0611313Y0054952D01*
X0611450Y0054870D01*
X0611585Y0054785D01*
X0611718Y0054697D01*
X0611849Y0054606D01*
X0611977Y0054511D01*
X0612103Y0054413D01*
X0612227Y0054312D01*
X0612347Y0054208D01*
X0612466Y0054101D01*
X0612581Y0053991D01*
X0612694Y0053878D01*
X0612804Y0053763D01*
X0612911Y0053644D01*
X0613015Y0053524D01*
X0613116Y0053400D01*
X0613214Y0053274D01*
X0613309Y0053146D01*
X0613400Y0053015D01*
X0613488Y0052882D01*
X0613573Y0052747D01*
X0613655Y0052610D01*
X0613733Y0052471D01*
X0613807Y0052330D01*
X0613878Y0052187D01*
X0613946Y0052042D01*
X0614010Y0051896D01*
X0614070Y0051748D01*
X0614126Y0051599D01*
X0614179Y0051449D01*
X0614228Y0051297D01*
X0614273Y0051144D01*
X0614314Y0050990D01*
X0614352Y0050835D01*
X0614385Y0050679D01*
X0614415Y0050522D01*
X0614441Y0050365D01*
X0614462Y0050207D01*
X0614480Y0050048D01*
X0614494Y0049889D01*
X0614504Y0049730D01*
X0614510Y0049571D01*
X0614512Y0049411D01*
X0614510Y0049251D01*
X0614504Y0049092D01*
X0614494Y0048933D01*
X0614480Y0048774D01*
X0614462Y0048615D01*
X0614441Y0048457D01*
X0614415Y0048300D01*
X0614385Y0048143D01*
X0614352Y0047987D01*
X0614314Y0047832D01*
X0614273Y0047678D01*
X0614228Y0047525D01*
X0614179Y0047373D01*
X0614126Y0047223D01*
X0614070Y0047074D01*
X0614010Y0046926D01*
X0613946Y0046780D01*
X0613878Y0046635D01*
X0613807Y0046492D01*
X0613733Y0046351D01*
X0613655Y0046212D01*
X0613573Y0046075D01*
X0613488Y0045940D01*
X0613400Y0045807D01*
X0613309Y0045676D01*
X0613214Y0045548D01*
X0613116Y0045422D01*
X0613015Y0045298D01*
X0612911Y0045178D01*
X0612804Y0045059D01*
X0612694Y0044944D01*
X0612581Y0044831D01*
X0612466Y0044721D01*
X0612347Y0044614D01*
X0612227Y0044510D01*
X0612103Y0044409D01*
X0611977Y0044311D01*
X0611849Y0044216D01*
X0611718Y0044125D01*
X0611585Y0044037D01*
X0611450Y0043952D01*
X0611313Y0043870D01*
X0611174Y0043792D01*
X0611033Y0043718D01*
X0610890Y0043647D01*
X0610745Y0043579D01*
X0610599Y0043515D01*
X0610451Y0043455D01*
X0610302Y0043399D01*
X0610152Y0043346D01*
X0610000Y0043297D01*
X0609847Y0043252D01*
X0609693Y0043211D01*
X0609538Y0043173D01*
X0609382Y0043140D01*
X0609225Y0043110D01*
X0609068Y0043084D01*
X0608910Y0043063D01*
X0608751Y0043045D01*
X0608592Y0043031D01*
X0608433Y0043021D01*
X0608274Y0043015D01*
X0608114Y0043013D01*
X0607954Y0043015D01*
X0607795Y0043021D01*
X0607636Y0043031D01*
X0607477Y0043045D01*
X0607318Y0043063D01*
X0607160Y0043084D01*
X0607003Y0043110D01*
X0606846Y0043140D01*
X0606690Y0043173D01*
X0606535Y0043211D01*
X0606381Y0043252D01*
X0606228Y0043297D01*
X0606076Y0043346D01*
X0605926Y0043399D01*
X0605777Y0043455D01*
X0605629Y0043515D01*
X0605483Y0043579D01*
X0605338Y0043647D01*
X0605195Y0043718D01*
X0605054Y0043792D01*
X0604915Y0043870D01*
X0604778Y0043952D01*
X0604643Y0044037D01*
X0604510Y0044125D01*
X0604379Y0044216D01*
X0604251Y0044311D01*
X0604125Y0044409D01*
X0604001Y0044510D01*
X0603881Y0044614D01*
X0603762Y0044721D01*
X0603647Y0044831D01*
X0603534Y0044944D01*
X0603424Y0045059D01*
X0603317Y0045178D01*
X0603213Y0045298D01*
X0603112Y0045422D01*
X0603014Y0045548D01*
X0602919Y0045676D01*
X0602828Y0045807D01*
X0602740Y0045940D01*
X0602655Y0046075D01*
X0602573Y0046212D01*
X0602495Y0046351D01*
X0602421Y0046492D01*
X0602350Y0046635D01*
X0602282Y0046780D01*
X0602218Y0046926D01*
X0602158Y0047074D01*
X0602102Y0047223D01*
X0602049Y0047373D01*
X0602000Y0047525D01*
X0601955Y0047678D01*
X0601914Y0047832D01*
X0601876Y0047987D01*
X0601843Y0048143D01*
X0601813Y0048300D01*
X0601787Y0048457D01*
X0601766Y0048615D01*
X0601748Y0048774D01*
X0601734Y0048933D01*
X0601724Y0049092D01*
X0601718Y0049251D01*
X0601716Y0049411D01*
X0605036Y0020985D02*
X0605038Y0021146D01*
X0605044Y0021306D01*
X0605054Y0021467D01*
X0605068Y0021627D01*
X0605086Y0021787D01*
X0605107Y0021946D01*
X0605133Y0022105D01*
X0605163Y0022263D01*
X0605196Y0022420D01*
X0605234Y0022577D01*
X0605275Y0022732D01*
X0605320Y0022886D01*
X0605369Y0023039D01*
X0605422Y0023191D01*
X0605478Y0023342D01*
X0605539Y0023491D01*
X0605602Y0023639D01*
X0605670Y0023785D01*
X0605741Y0023929D01*
X0605815Y0024071D01*
X0605893Y0024212D01*
X0605975Y0024350D01*
X0606060Y0024487D01*
X0606148Y0024621D01*
X0606240Y0024753D01*
X0606335Y0024883D01*
X0606433Y0025011D01*
X0606534Y0025136D01*
X0606638Y0025258D01*
X0606745Y0025378D01*
X0606855Y0025495D01*
X0606968Y0025610D01*
X0607084Y0025721D01*
X0607203Y0025830D01*
X0607324Y0025935D01*
X0607448Y0026038D01*
X0607574Y0026138D01*
X0607702Y0026234D01*
X0607833Y0026327D01*
X0607967Y0026417D01*
X0608102Y0026504D01*
X0608240Y0026587D01*
X0608379Y0026667D01*
X0608521Y0026743D01*
X0608664Y0026816D01*
X0608809Y0026885D01*
X0608956Y0026951D01*
X0609104Y0027013D01*
X0609254Y0027071D01*
X0609405Y0027126D01*
X0609558Y0027177D01*
X0609712Y0027224D01*
X0609867Y0027267D01*
X0610023Y0027306D01*
X0610179Y0027342D01*
X0610337Y0027373D01*
X0610495Y0027401D01*
X0610654Y0027425D01*
X0610814Y0027445D01*
X0610974Y0027461D01*
X0611134Y0027473D01*
X0611295Y0027481D01*
X0611456Y0027485D01*
X0611616Y0027485D01*
X0611777Y0027481D01*
X0611938Y0027473D01*
X0612098Y0027461D01*
X0612258Y0027445D01*
X0612418Y0027425D01*
X0612577Y0027401D01*
X0612735Y0027373D01*
X0612893Y0027342D01*
X0613049Y0027306D01*
X0613205Y0027267D01*
X0613360Y0027224D01*
X0613514Y0027177D01*
X0613667Y0027126D01*
X0613818Y0027071D01*
X0613968Y0027013D01*
X0614116Y0026951D01*
X0614263Y0026885D01*
X0614408Y0026816D01*
X0614551Y0026743D01*
X0614693Y0026667D01*
X0614832Y0026587D01*
X0614970Y0026504D01*
X0615105Y0026417D01*
X0615239Y0026327D01*
X0615370Y0026234D01*
X0615498Y0026138D01*
X0615624Y0026038D01*
X0615748Y0025935D01*
X0615869Y0025830D01*
X0615988Y0025721D01*
X0616104Y0025610D01*
X0616217Y0025495D01*
X0616327Y0025378D01*
X0616434Y0025258D01*
X0616538Y0025136D01*
X0616639Y0025011D01*
X0616737Y0024883D01*
X0616832Y0024753D01*
X0616924Y0024621D01*
X0617012Y0024487D01*
X0617097Y0024350D01*
X0617179Y0024212D01*
X0617257Y0024071D01*
X0617331Y0023929D01*
X0617402Y0023785D01*
X0617470Y0023639D01*
X0617533Y0023491D01*
X0617594Y0023342D01*
X0617650Y0023191D01*
X0617703Y0023039D01*
X0617752Y0022886D01*
X0617797Y0022732D01*
X0617838Y0022577D01*
X0617876Y0022420D01*
X0617909Y0022263D01*
X0617939Y0022105D01*
X0617965Y0021946D01*
X0617986Y0021787D01*
X0618004Y0021627D01*
X0618018Y0021467D01*
X0618028Y0021306D01*
X0618034Y0021146D01*
X0618036Y0020985D01*
X0618034Y0020824D01*
X0618028Y0020664D01*
X0618018Y0020503D01*
X0618004Y0020343D01*
X0617986Y0020183D01*
X0617965Y0020024D01*
X0617939Y0019865D01*
X0617909Y0019707D01*
X0617876Y0019550D01*
X0617838Y0019393D01*
X0617797Y0019238D01*
X0617752Y0019084D01*
X0617703Y0018931D01*
X0617650Y0018779D01*
X0617594Y0018628D01*
X0617533Y0018479D01*
X0617470Y0018331D01*
X0617402Y0018185D01*
X0617331Y0018041D01*
X0617257Y0017899D01*
X0617179Y0017758D01*
X0617097Y0017620D01*
X0617012Y0017483D01*
X0616924Y0017349D01*
X0616832Y0017217D01*
X0616737Y0017087D01*
X0616639Y0016959D01*
X0616538Y0016834D01*
X0616434Y0016712D01*
X0616327Y0016592D01*
X0616217Y0016475D01*
X0616104Y0016360D01*
X0615988Y0016249D01*
X0615869Y0016140D01*
X0615748Y0016035D01*
X0615624Y0015932D01*
X0615498Y0015832D01*
X0615370Y0015736D01*
X0615239Y0015643D01*
X0615105Y0015553D01*
X0614970Y0015466D01*
X0614832Y0015383D01*
X0614693Y0015303D01*
X0614551Y0015227D01*
X0614408Y0015154D01*
X0614263Y0015085D01*
X0614116Y0015019D01*
X0613968Y0014957D01*
X0613818Y0014899D01*
X0613667Y0014844D01*
X0613514Y0014793D01*
X0613360Y0014746D01*
X0613205Y0014703D01*
X0613049Y0014664D01*
X0612893Y0014628D01*
X0612735Y0014597D01*
X0612577Y0014569D01*
X0612418Y0014545D01*
X0612258Y0014525D01*
X0612098Y0014509D01*
X0611938Y0014497D01*
X0611777Y0014489D01*
X0611616Y0014485D01*
X0611456Y0014485D01*
X0611295Y0014489D01*
X0611134Y0014497D01*
X0610974Y0014509D01*
X0610814Y0014525D01*
X0610654Y0014545D01*
X0610495Y0014569D01*
X0610337Y0014597D01*
X0610179Y0014628D01*
X0610023Y0014664D01*
X0609867Y0014703D01*
X0609712Y0014746D01*
X0609558Y0014793D01*
X0609405Y0014844D01*
X0609254Y0014899D01*
X0609104Y0014957D01*
X0608956Y0015019D01*
X0608809Y0015085D01*
X0608664Y0015154D01*
X0608521Y0015227D01*
X0608379Y0015303D01*
X0608240Y0015383D01*
X0608102Y0015466D01*
X0607967Y0015553D01*
X0607833Y0015643D01*
X0607702Y0015736D01*
X0607574Y0015832D01*
X0607448Y0015932D01*
X0607324Y0016035D01*
X0607203Y0016140D01*
X0607084Y0016249D01*
X0606968Y0016360D01*
X0606855Y0016475D01*
X0606745Y0016592D01*
X0606638Y0016712D01*
X0606534Y0016834D01*
X0606433Y0016959D01*
X0606335Y0017087D01*
X0606240Y0017217D01*
X0606148Y0017349D01*
X0606060Y0017483D01*
X0605975Y0017620D01*
X0605893Y0017758D01*
X0605815Y0017899D01*
X0605741Y0018041D01*
X0605670Y0018185D01*
X0605602Y0018331D01*
X0605539Y0018479D01*
X0605478Y0018628D01*
X0605422Y0018779D01*
X0605369Y0018931D01*
X0605320Y0019084D01*
X0605275Y0019238D01*
X0605234Y0019393D01*
X0605196Y0019550D01*
X0605163Y0019707D01*
X0605133Y0019865D01*
X0605107Y0020024D01*
X0605086Y0020183D01*
X0605068Y0020343D01*
X0605054Y0020503D01*
X0605044Y0020664D01*
X0605038Y0020824D01*
X0605036Y0020985D01*
X0533601Y0024544D02*
X0533603Y0024704D01*
X0533609Y0024863D01*
X0533619Y0025022D01*
X0533633Y0025181D01*
X0533651Y0025340D01*
X0533672Y0025498D01*
X0533698Y0025655D01*
X0533728Y0025812D01*
X0533761Y0025968D01*
X0533799Y0026123D01*
X0533840Y0026277D01*
X0533885Y0026430D01*
X0533934Y0026582D01*
X0533987Y0026732D01*
X0534043Y0026881D01*
X0534103Y0027029D01*
X0534167Y0027175D01*
X0534235Y0027320D01*
X0534306Y0027463D01*
X0534380Y0027604D01*
X0534458Y0027743D01*
X0534540Y0027880D01*
X0534625Y0028015D01*
X0534713Y0028148D01*
X0534804Y0028279D01*
X0534899Y0028407D01*
X0534997Y0028533D01*
X0535098Y0028657D01*
X0535202Y0028777D01*
X0535309Y0028896D01*
X0535419Y0029011D01*
X0535532Y0029124D01*
X0535647Y0029234D01*
X0535766Y0029341D01*
X0535886Y0029445D01*
X0536010Y0029546D01*
X0536136Y0029644D01*
X0536264Y0029739D01*
X0536395Y0029830D01*
X0536528Y0029918D01*
X0536663Y0030003D01*
X0536800Y0030085D01*
X0536939Y0030163D01*
X0537080Y0030237D01*
X0537223Y0030308D01*
X0537368Y0030376D01*
X0537514Y0030440D01*
X0537662Y0030500D01*
X0537811Y0030556D01*
X0537961Y0030609D01*
X0538113Y0030658D01*
X0538266Y0030703D01*
X0538420Y0030744D01*
X0538575Y0030782D01*
X0538731Y0030815D01*
X0538888Y0030845D01*
X0539045Y0030871D01*
X0539203Y0030892D01*
X0539362Y0030910D01*
X0539521Y0030924D01*
X0539680Y0030934D01*
X0539839Y0030940D01*
X0539999Y0030942D01*
X0540159Y0030940D01*
X0540318Y0030934D01*
X0540477Y0030924D01*
X0540636Y0030910D01*
X0540795Y0030892D01*
X0540953Y0030871D01*
X0541110Y0030845D01*
X0541267Y0030815D01*
X0541423Y0030782D01*
X0541578Y0030744D01*
X0541732Y0030703D01*
X0541885Y0030658D01*
X0542037Y0030609D01*
X0542187Y0030556D01*
X0542336Y0030500D01*
X0542484Y0030440D01*
X0542630Y0030376D01*
X0542775Y0030308D01*
X0542918Y0030237D01*
X0543059Y0030163D01*
X0543198Y0030085D01*
X0543335Y0030003D01*
X0543470Y0029918D01*
X0543603Y0029830D01*
X0543734Y0029739D01*
X0543862Y0029644D01*
X0543988Y0029546D01*
X0544112Y0029445D01*
X0544232Y0029341D01*
X0544351Y0029234D01*
X0544466Y0029124D01*
X0544579Y0029011D01*
X0544689Y0028896D01*
X0544796Y0028777D01*
X0544900Y0028657D01*
X0545001Y0028533D01*
X0545099Y0028407D01*
X0545194Y0028279D01*
X0545285Y0028148D01*
X0545373Y0028015D01*
X0545458Y0027880D01*
X0545540Y0027743D01*
X0545618Y0027604D01*
X0545692Y0027463D01*
X0545763Y0027320D01*
X0545831Y0027175D01*
X0545895Y0027029D01*
X0545955Y0026881D01*
X0546011Y0026732D01*
X0546064Y0026582D01*
X0546113Y0026430D01*
X0546158Y0026277D01*
X0546199Y0026123D01*
X0546237Y0025968D01*
X0546270Y0025812D01*
X0546300Y0025655D01*
X0546326Y0025498D01*
X0546347Y0025340D01*
X0546365Y0025181D01*
X0546379Y0025022D01*
X0546389Y0024863D01*
X0546395Y0024704D01*
X0546397Y0024544D01*
X0546395Y0024384D01*
X0546389Y0024225D01*
X0546379Y0024066D01*
X0546365Y0023907D01*
X0546347Y0023748D01*
X0546326Y0023590D01*
X0546300Y0023433D01*
X0546270Y0023276D01*
X0546237Y0023120D01*
X0546199Y0022965D01*
X0546158Y0022811D01*
X0546113Y0022658D01*
X0546064Y0022506D01*
X0546011Y0022356D01*
X0545955Y0022207D01*
X0545895Y0022059D01*
X0545831Y0021913D01*
X0545763Y0021768D01*
X0545692Y0021625D01*
X0545618Y0021484D01*
X0545540Y0021345D01*
X0545458Y0021208D01*
X0545373Y0021073D01*
X0545285Y0020940D01*
X0545194Y0020809D01*
X0545099Y0020681D01*
X0545001Y0020555D01*
X0544900Y0020431D01*
X0544796Y0020311D01*
X0544689Y0020192D01*
X0544579Y0020077D01*
X0544466Y0019964D01*
X0544351Y0019854D01*
X0544232Y0019747D01*
X0544112Y0019643D01*
X0543988Y0019542D01*
X0543862Y0019444D01*
X0543734Y0019349D01*
X0543603Y0019258D01*
X0543470Y0019170D01*
X0543335Y0019085D01*
X0543198Y0019003D01*
X0543059Y0018925D01*
X0542918Y0018851D01*
X0542775Y0018780D01*
X0542630Y0018712D01*
X0542484Y0018648D01*
X0542336Y0018588D01*
X0542187Y0018532D01*
X0542037Y0018479D01*
X0541885Y0018430D01*
X0541732Y0018385D01*
X0541578Y0018344D01*
X0541423Y0018306D01*
X0541267Y0018273D01*
X0541110Y0018243D01*
X0540953Y0018217D01*
X0540795Y0018196D01*
X0540636Y0018178D01*
X0540477Y0018164D01*
X0540318Y0018154D01*
X0540159Y0018148D01*
X0539999Y0018146D01*
X0539839Y0018148D01*
X0539680Y0018154D01*
X0539521Y0018164D01*
X0539362Y0018178D01*
X0539203Y0018196D01*
X0539045Y0018217D01*
X0538888Y0018243D01*
X0538731Y0018273D01*
X0538575Y0018306D01*
X0538420Y0018344D01*
X0538266Y0018385D01*
X0538113Y0018430D01*
X0537961Y0018479D01*
X0537811Y0018532D01*
X0537662Y0018588D01*
X0537514Y0018648D01*
X0537368Y0018712D01*
X0537223Y0018780D01*
X0537080Y0018851D01*
X0536939Y0018925D01*
X0536800Y0019003D01*
X0536663Y0019085D01*
X0536528Y0019170D01*
X0536395Y0019258D01*
X0536264Y0019349D01*
X0536136Y0019444D01*
X0536010Y0019542D01*
X0535886Y0019643D01*
X0535766Y0019747D01*
X0535647Y0019854D01*
X0535532Y0019964D01*
X0535419Y0020077D01*
X0535309Y0020192D01*
X0535202Y0020311D01*
X0535098Y0020431D01*
X0534997Y0020555D01*
X0534899Y0020681D01*
X0534804Y0020809D01*
X0534713Y0020940D01*
X0534625Y0021073D01*
X0534540Y0021208D01*
X0534458Y0021345D01*
X0534380Y0021484D01*
X0534306Y0021625D01*
X0534235Y0021768D01*
X0534167Y0021913D01*
X0534103Y0022059D01*
X0534043Y0022207D01*
X0533987Y0022356D01*
X0533934Y0022506D01*
X0533885Y0022658D01*
X0533840Y0022811D01*
X0533799Y0022965D01*
X0533761Y0023120D01*
X0533728Y0023276D01*
X0533698Y0023433D01*
X0533672Y0023590D01*
X0533651Y0023748D01*
X0533633Y0023907D01*
X0533619Y0024066D01*
X0533609Y0024225D01*
X0533603Y0024384D01*
X0533601Y0024544D01*
X0483601Y0024544D02*
X0483603Y0024704D01*
X0483609Y0024863D01*
X0483619Y0025022D01*
X0483633Y0025181D01*
X0483651Y0025340D01*
X0483672Y0025498D01*
X0483698Y0025655D01*
X0483728Y0025812D01*
X0483761Y0025968D01*
X0483799Y0026123D01*
X0483840Y0026277D01*
X0483885Y0026430D01*
X0483934Y0026582D01*
X0483987Y0026732D01*
X0484043Y0026881D01*
X0484103Y0027029D01*
X0484167Y0027175D01*
X0484235Y0027320D01*
X0484306Y0027463D01*
X0484380Y0027604D01*
X0484458Y0027743D01*
X0484540Y0027880D01*
X0484625Y0028015D01*
X0484713Y0028148D01*
X0484804Y0028279D01*
X0484899Y0028407D01*
X0484997Y0028533D01*
X0485098Y0028657D01*
X0485202Y0028777D01*
X0485309Y0028896D01*
X0485419Y0029011D01*
X0485532Y0029124D01*
X0485647Y0029234D01*
X0485766Y0029341D01*
X0485886Y0029445D01*
X0486010Y0029546D01*
X0486136Y0029644D01*
X0486264Y0029739D01*
X0486395Y0029830D01*
X0486528Y0029918D01*
X0486663Y0030003D01*
X0486800Y0030085D01*
X0486939Y0030163D01*
X0487080Y0030237D01*
X0487223Y0030308D01*
X0487368Y0030376D01*
X0487514Y0030440D01*
X0487662Y0030500D01*
X0487811Y0030556D01*
X0487961Y0030609D01*
X0488113Y0030658D01*
X0488266Y0030703D01*
X0488420Y0030744D01*
X0488575Y0030782D01*
X0488731Y0030815D01*
X0488888Y0030845D01*
X0489045Y0030871D01*
X0489203Y0030892D01*
X0489362Y0030910D01*
X0489521Y0030924D01*
X0489680Y0030934D01*
X0489839Y0030940D01*
X0489999Y0030942D01*
X0490159Y0030940D01*
X0490318Y0030934D01*
X0490477Y0030924D01*
X0490636Y0030910D01*
X0490795Y0030892D01*
X0490953Y0030871D01*
X0491110Y0030845D01*
X0491267Y0030815D01*
X0491423Y0030782D01*
X0491578Y0030744D01*
X0491732Y0030703D01*
X0491885Y0030658D01*
X0492037Y0030609D01*
X0492187Y0030556D01*
X0492336Y0030500D01*
X0492484Y0030440D01*
X0492630Y0030376D01*
X0492775Y0030308D01*
X0492918Y0030237D01*
X0493059Y0030163D01*
X0493198Y0030085D01*
X0493335Y0030003D01*
X0493470Y0029918D01*
X0493603Y0029830D01*
X0493734Y0029739D01*
X0493862Y0029644D01*
X0493988Y0029546D01*
X0494112Y0029445D01*
X0494232Y0029341D01*
X0494351Y0029234D01*
X0494466Y0029124D01*
X0494579Y0029011D01*
X0494689Y0028896D01*
X0494796Y0028777D01*
X0494900Y0028657D01*
X0495001Y0028533D01*
X0495099Y0028407D01*
X0495194Y0028279D01*
X0495285Y0028148D01*
X0495373Y0028015D01*
X0495458Y0027880D01*
X0495540Y0027743D01*
X0495618Y0027604D01*
X0495692Y0027463D01*
X0495763Y0027320D01*
X0495831Y0027175D01*
X0495895Y0027029D01*
X0495955Y0026881D01*
X0496011Y0026732D01*
X0496064Y0026582D01*
X0496113Y0026430D01*
X0496158Y0026277D01*
X0496199Y0026123D01*
X0496237Y0025968D01*
X0496270Y0025812D01*
X0496300Y0025655D01*
X0496326Y0025498D01*
X0496347Y0025340D01*
X0496365Y0025181D01*
X0496379Y0025022D01*
X0496389Y0024863D01*
X0496395Y0024704D01*
X0496397Y0024544D01*
X0496395Y0024384D01*
X0496389Y0024225D01*
X0496379Y0024066D01*
X0496365Y0023907D01*
X0496347Y0023748D01*
X0496326Y0023590D01*
X0496300Y0023433D01*
X0496270Y0023276D01*
X0496237Y0023120D01*
X0496199Y0022965D01*
X0496158Y0022811D01*
X0496113Y0022658D01*
X0496064Y0022506D01*
X0496011Y0022356D01*
X0495955Y0022207D01*
X0495895Y0022059D01*
X0495831Y0021913D01*
X0495763Y0021768D01*
X0495692Y0021625D01*
X0495618Y0021484D01*
X0495540Y0021345D01*
X0495458Y0021208D01*
X0495373Y0021073D01*
X0495285Y0020940D01*
X0495194Y0020809D01*
X0495099Y0020681D01*
X0495001Y0020555D01*
X0494900Y0020431D01*
X0494796Y0020311D01*
X0494689Y0020192D01*
X0494579Y0020077D01*
X0494466Y0019964D01*
X0494351Y0019854D01*
X0494232Y0019747D01*
X0494112Y0019643D01*
X0493988Y0019542D01*
X0493862Y0019444D01*
X0493734Y0019349D01*
X0493603Y0019258D01*
X0493470Y0019170D01*
X0493335Y0019085D01*
X0493198Y0019003D01*
X0493059Y0018925D01*
X0492918Y0018851D01*
X0492775Y0018780D01*
X0492630Y0018712D01*
X0492484Y0018648D01*
X0492336Y0018588D01*
X0492187Y0018532D01*
X0492037Y0018479D01*
X0491885Y0018430D01*
X0491732Y0018385D01*
X0491578Y0018344D01*
X0491423Y0018306D01*
X0491267Y0018273D01*
X0491110Y0018243D01*
X0490953Y0018217D01*
X0490795Y0018196D01*
X0490636Y0018178D01*
X0490477Y0018164D01*
X0490318Y0018154D01*
X0490159Y0018148D01*
X0489999Y0018146D01*
X0489839Y0018148D01*
X0489680Y0018154D01*
X0489521Y0018164D01*
X0489362Y0018178D01*
X0489203Y0018196D01*
X0489045Y0018217D01*
X0488888Y0018243D01*
X0488731Y0018273D01*
X0488575Y0018306D01*
X0488420Y0018344D01*
X0488266Y0018385D01*
X0488113Y0018430D01*
X0487961Y0018479D01*
X0487811Y0018532D01*
X0487662Y0018588D01*
X0487514Y0018648D01*
X0487368Y0018712D01*
X0487223Y0018780D01*
X0487080Y0018851D01*
X0486939Y0018925D01*
X0486800Y0019003D01*
X0486663Y0019085D01*
X0486528Y0019170D01*
X0486395Y0019258D01*
X0486264Y0019349D01*
X0486136Y0019444D01*
X0486010Y0019542D01*
X0485886Y0019643D01*
X0485766Y0019747D01*
X0485647Y0019854D01*
X0485532Y0019964D01*
X0485419Y0020077D01*
X0485309Y0020192D01*
X0485202Y0020311D01*
X0485098Y0020431D01*
X0484997Y0020555D01*
X0484899Y0020681D01*
X0484804Y0020809D01*
X0484713Y0020940D01*
X0484625Y0021073D01*
X0484540Y0021208D01*
X0484458Y0021345D01*
X0484380Y0021484D01*
X0484306Y0021625D01*
X0484235Y0021768D01*
X0484167Y0021913D01*
X0484103Y0022059D01*
X0484043Y0022207D01*
X0483987Y0022356D01*
X0483934Y0022506D01*
X0483885Y0022658D01*
X0483840Y0022811D01*
X0483799Y0022965D01*
X0483761Y0023120D01*
X0483728Y0023276D01*
X0483698Y0023433D01*
X0483672Y0023590D01*
X0483651Y0023748D01*
X0483633Y0023907D01*
X0483619Y0024066D01*
X0483609Y0024225D01*
X0483603Y0024384D01*
X0483601Y0024544D01*
X0014485Y0020985D02*
X0014487Y0021146D01*
X0014493Y0021306D01*
X0014503Y0021467D01*
X0014517Y0021627D01*
X0014535Y0021787D01*
X0014556Y0021946D01*
X0014582Y0022105D01*
X0014612Y0022263D01*
X0014645Y0022420D01*
X0014683Y0022577D01*
X0014724Y0022732D01*
X0014769Y0022886D01*
X0014818Y0023039D01*
X0014871Y0023191D01*
X0014927Y0023342D01*
X0014988Y0023491D01*
X0015051Y0023639D01*
X0015119Y0023785D01*
X0015190Y0023929D01*
X0015264Y0024071D01*
X0015342Y0024212D01*
X0015424Y0024350D01*
X0015509Y0024487D01*
X0015597Y0024621D01*
X0015689Y0024753D01*
X0015784Y0024883D01*
X0015882Y0025011D01*
X0015983Y0025136D01*
X0016087Y0025258D01*
X0016194Y0025378D01*
X0016304Y0025495D01*
X0016417Y0025610D01*
X0016533Y0025721D01*
X0016652Y0025830D01*
X0016773Y0025935D01*
X0016897Y0026038D01*
X0017023Y0026138D01*
X0017151Y0026234D01*
X0017282Y0026327D01*
X0017416Y0026417D01*
X0017551Y0026504D01*
X0017689Y0026587D01*
X0017828Y0026667D01*
X0017970Y0026743D01*
X0018113Y0026816D01*
X0018258Y0026885D01*
X0018405Y0026951D01*
X0018553Y0027013D01*
X0018703Y0027071D01*
X0018854Y0027126D01*
X0019007Y0027177D01*
X0019161Y0027224D01*
X0019316Y0027267D01*
X0019472Y0027306D01*
X0019628Y0027342D01*
X0019786Y0027373D01*
X0019944Y0027401D01*
X0020103Y0027425D01*
X0020263Y0027445D01*
X0020423Y0027461D01*
X0020583Y0027473D01*
X0020744Y0027481D01*
X0020905Y0027485D01*
X0021065Y0027485D01*
X0021226Y0027481D01*
X0021387Y0027473D01*
X0021547Y0027461D01*
X0021707Y0027445D01*
X0021867Y0027425D01*
X0022026Y0027401D01*
X0022184Y0027373D01*
X0022342Y0027342D01*
X0022498Y0027306D01*
X0022654Y0027267D01*
X0022809Y0027224D01*
X0022963Y0027177D01*
X0023116Y0027126D01*
X0023267Y0027071D01*
X0023417Y0027013D01*
X0023565Y0026951D01*
X0023712Y0026885D01*
X0023857Y0026816D01*
X0024000Y0026743D01*
X0024142Y0026667D01*
X0024281Y0026587D01*
X0024419Y0026504D01*
X0024554Y0026417D01*
X0024688Y0026327D01*
X0024819Y0026234D01*
X0024947Y0026138D01*
X0025073Y0026038D01*
X0025197Y0025935D01*
X0025318Y0025830D01*
X0025437Y0025721D01*
X0025553Y0025610D01*
X0025666Y0025495D01*
X0025776Y0025378D01*
X0025883Y0025258D01*
X0025987Y0025136D01*
X0026088Y0025011D01*
X0026186Y0024883D01*
X0026281Y0024753D01*
X0026373Y0024621D01*
X0026461Y0024487D01*
X0026546Y0024350D01*
X0026628Y0024212D01*
X0026706Y0024071D01*
X0026780Y0023929D01*
X0026851Y0023785D01*
X0026919Y0023639D01*
X0026982Y0023491D01*
X0027043Y0023342D01*
X0027099Y0023191D01*
X0027152Y0023039D01*
X0027201Y0022886D01*
X0027246Y0022732D01*
X0027287Y0022577D01*
X0027325Y0022420D01*
X0027358Y0022263D01*
X0027388Y0022105D01*
X0027414Y0021946D01*
X0027435Y0021787D01*
X0027453Y0021627D01*
X0027467Y0021467D01*
X0027477Y0021306D01*
X0027483Y0021146D01*
X0027485Y0020985D01*
X0027483Y0020824D01*
X0027477Y0020664D01*
X0027467Y0020503D01*
X0027453Y0020343D01*
X0027435Y0020183D01*
X0027414Y0020024D01*
X0027388Y0019865D01*
X0027358Y0019707D01*
X0027325Y0019550D01*
X0027287Y0019393D01*
X0027246Y0019238D01*
X0027201Y0019084D01*
X0027152Y0018931D01*
X0027099Y0018779D01*
X0027043Y0018628D01*
X0026982Y0018479D01*
X0026919Y0018331D01*
X0026851Y0018185D01*
X0026780Y0018041D01*
X0026706Y0017899D01*
X0026628Y0017758D01*
X0026546Y0017620D01*
X0026461Y0017483D01*
X0026373Y0017349D01*
X0026281Y0017217D01*
X0026186Y0017087D01*
X0026088Y0016959D01*
X0025987Y0016834D01*
X0025883Y0016712D01*
X0025776Y0016592D01*
X0025666Y0016475D01*
X0025553Y0016360D01*
X0025437Y0016249D01*
X0025318Y0016140D01*
X0025197Y0016035D01*
X0025073Y0015932D01*
X0024947Y0015832D01*
X0024819Y0015736D01*
X0024688Y0015643D01*
X0024554Y0015553D01*
X0024419Y0015466D01*
X0024281Y0015383D01*
X0024142Y0015303D01*
X0024000Y0015227D01*
X0023857Y0015154D01*
X0023712Y0015085D01*
X0023565Y0015019D01*
X0023417Y0014957D01*
X0023267Y0014899D01*
X0023116Y0014844D01*
X0022963Y0014793D01*
X0022809Y0014746D01*
X0022654Y0014703D01*
X0022498Y0014664D01*
X0022342Y0014628D01*
X0022184Y0014597D01*
X0022026Y0014569D01*
X0021867Y0014545D01*
X0021707Y0014525D01*
X0021547Y0014509D01*
X0021387Y0014497D01*
X0021226Y0014489D01*
X0021065Y0014485D01*
X0020905Y0014485D01*
X0020744Y0014489D01*
X0020583Y0014497D01*
X0020423Y0014509D01*
X0020263Y0014525D01*
X0020103Y0014545D01*
X0019944Y0014569D01*
X0019786Y0014597D01*
X0019628Y0014628D01*
X0019472Y0014664D01*
X0019316Y0014703D01*
X0019161Y0014746D01*
X0019007Y0014793D01*
X0018854Y0014844D01*
X0018703Y0014899D01*
X0018553Y0014957D01*
X0018405Y0015019D01*
X0018258Y0015085D01*
X0018113Y0015154D01*
X0017970Y0015227D01*
X0017828Y0015303D01*
X0017689Y0015383D01*
X0017551Y0015466D01*
X0017416Y0015553D01*
X0017282Y0015643D01*
X0017151Y0015736D01*
X0017023Y0015832D01*
X0016897Y0015932D01*
X0016773Y0016035D01*
X0016652Y0016140D01*
X0016533Y0016249D01*
X0016417Y0016360D01*
X0016304Y0016475D01*
X0016194Y0016592D01*
X0016087Y0016712D01*
X0015983Y0016834D01*
X0015882Y0016959D01*
X0015784Y0017087D01*
X0015689Y0017217D01*
X0015597Y0017349D01*
X0015509Y0017483D01*
X0015424Y0017620D01*
X0015342Y0017758D01*
X0015264Y0017899D01*
X0015190Y0018041D01*
X0015119Y0018185D01*
X0015051Y0018331D01*
X0014988Y0018479D01*
X0014927Y0018628D01*
X0014871Y0018779D01*
X0014818Y0018931D01*
X0014769Y0019084D01*
X0014724Y0019238D01*
X0014683Y0019393D01*
X0014645Y0019550D01*
X0014612Y0019707D01*
X0014582Y0019865D01*
X0014556Y0020024D01*
X0014535Y0020183D01*
X0014517Y0020343D01*
X0014503Y0020503D01*
X0014493Y0020664D01*
X0014487Y0020824D01*
X0014485Y0020985D01*
D11*
X0001300Y0001300D02*
X0631221Y0001300D01*
X0631221Y0395001D01*
X0001300Y0395001D01*
D12*
X0126536Y0322009D03*
X0560198Y0311103D03*
X0560198Y0236300D03*
X0598114Y0088505D03*
X0529093Y0034544D03*
D13*
X0521062Y0034544D03*
X0513030Y0034544D03*
X0504999Y0034544D03*
X0509014Y0041551D03*
X0500983Y0041551D03*
X0517046Y0041551D03*
X0525077Y0041551D03*
X0532991Y0060528D03*
X0542007Y0060528D03*
X0572130Y0056419D03*
X0572130Y0047403D03*
X0591107Y0060395D03*
X0598114Y0064411D03*
X0591107Y0068427D03*
X0598114Y0072442D03*
X0591107Y0076458D03*
X0598114Y0080474D03*
X0591107Y0084490D03*
X0572130Y0092403D03*
X0572130Y0101419D03*
X0497007Y0060528D03*
X0487991Y0060528D03*
X0570198Y0241300D03*
X0560198Y0246300D03*
X0560198Y0256300D03*
X0570198Y0251300D03*
X0570198Y0261300D03*
X0570198Y0316103D03*
X0570198Y0326103D03*
X0560198Y0321103D03*
X0560198Y0331103D03*
X0570198Y0336103D03*
X0121536Y0332009D03*
X0111536Y0332009D03*
X0101536Y0332009D03*
X0106536Y0322009D03*
X0116536Y0322009D03*
D14*
X0489999Y0024544D03*
X0539999Y0024544D03*
X0608114Y0049411D03*
X0608114Y0099411D03*
D15*
X0594611Y0106419D03*
X0594611Y0042403D03*
X0547007Y0038047D03*
X0482991Y0038047D03*
D16*
X0481812Y0085946D03*
X0489292Y0085946D03*
X0469607Y0085946D03*
X0462127Y0085946D03*
X0418426Y0085946D03*
X0410946Y0085946D03*
X0075906Y0274922D03*
X0068426Y0274922D03*
X0068426Y0288702D03*
X0075906Y0288702D03*
X0075906Y0302481D03*
X0068426Y0302481D03*
D17*
X0306847Y0091753D02*
X0306847Y0087619D01*
X0326855Y0087619D02*
X0326855Y0091753D01*
X0356855Y0091753D02*
X0356855Y0087619D01*
X0376855Y0087619D02*
X0376855Y0091753D01*
X0376855Y0029154D02*
X0376855Y0025020D01*
X0356855Y0025020D02*
X0356855Y0029154D01*
X0326847Y0029154D02*
X0326847Y0025020D01*
X0306847Y0025020D02*
X0306847Y0029154D01*
D18*
X0271300Y0012796D03*
X0261300Y0012796D03*
X0251300Y0012796D03*
X0241300Y0012796D03*
X0231300Y0012796D03*
X0186654Y0012796D03*
X0176654Y0012796D03*
X0166654Y0012796D03*
X0156654Y0012796D03*
X0146654Y0012796D03*
X0100040Y0012796D03*
X0090040Y0012796D03*
X0080040Y0012796D03*
X0070040Y0012796D03*
X0060040Y0012796D03*
X0060040Y0052796D03*
X0070040Y0052796D03*
X0080040Y0052796D03*
X0090040Y0052796D03*
X0100040Y0052796D03*
X0146654Y0052796D03*
X0156654Y0052796D03*
X0166654Y0052796D03*
X0176654Y0052796D03*
X0186654Y0052796D03*
X0231300Y0052796D03*
X0241300Y0052796D03*
X0251300Y0052796D03*
X0261300Y0052796D03*
X0271300Y0052796D03*
X0406497Y0052796D03*
X0416497Y0052796D03*
X0426497Y0052796D03*
X0436497Y0052796D03*
X0446497Y0052796D03*
X0446497Y0012796D03*
X0436497Y0012796D03*
X0426497Y0012796D03*
X0416497Y0012796D03*
X0406497Y0012796D03*
X0581694Y0146654D03*
X0591694Y0146654D03*
X0601694Y0146654D03*
X0611694Y0146654D03*
X0621694Y0146654D03*
X0621694Y0186654D03*
X0611694Y0186654D03*
X0601694Y0186654D03*
X0591694Y0186654D03*
X0581694Y0186654D03*
X0367757Y0343505D03*
X0357757Y0343505D03*
X0347757Y0343505D03*
X0337757Y0343505D03*
X0327757Y0343505D03*
X0292954Y0343505D03*
X0282954Y0343505D03*
X0272954Y0343505D03*
X0262954Y0343505D03*
X0252954Y0343505D03*
X0218150Y0343505D03*
X0208150Y0343505D03*
X0198150Y0343505D03*
X0188150Y0343505D03*
X0178150Y0343505D03*
X0178150Y0383505D03*
X0188150Y0383505D03*
X0198150Y0383505D03*
X0208150Y0383505D03*
X0218150Y0383505D03*
X0252954Y0383505D03*
X0262954Y0383505D03*
X0272954Y0383505D03*
X0282954Y0383505D03*
X0292954Y0383505D03*
X0327757Y0383505D03*
X0337757Y0383505D03*
X0347757Y0383505D03*
X0357757Y0383505D03*
X0367757Y0383505D03*
X0052796Y0383505D03*
X0042796Y0383505D03*
X0032796Y0383505D03*
X0022796Y0383505D03*
X0012796Y0383505D03*
X0012796Y0343505D03*
X0022796Y0343505D03*
X0032796Y0343505D03*
X0042796Y0343505D03*
X0052796Y0343505D03*
X0052796Y0308702D03*
X0042796Y0308702D03*
X0032796Y0308702D03*
X0022796Y0308702D03*
X0012796Y0308702D03*
X0012796Y0268702D03*
X0022796Y0268702D03*
X0032796Y0268702D03*
X0042796Y0268702D03*
X0052796Y0268702D03*
D19*
X0087048Y0369017D03*
X0141064Y0369017D03*
X0607206Y0350591D03*
X0607206Y0296576D03*
X0607206Y0275788D03*
X0607206Y0221772D03*
D20*
X0595198Y0228780D03*
X0595198Y0268780D03*
X0595198Y0303583D03*
X0595198Y0343583D03*
X0134056Y0357009D03*
X0094056Y0357009D03*
D21*
X0302696Y0246998D03*
X0335946Y0245394D03*
X0369196Y0246998D03*
X0335946Y0213898D03*
X0350090Y0180219D03*
X0351694Y0146969D03*
X0383190Y0146969D03*
X0350090Y0113719D03*
X0312717Y0146969D03*
X0335946Y0284371D03*
D22*
X0469804Y0272954D03*
X0477678Y0276694D03*
X0477678Y0269213D03*
X0477678Y0306615D03*
X0477678Y0314095D03*
X0469804Y0310355D03*
X0477678Y0344017D03*
X0469804Y0347757D03*
X0477678Y0351497D03*
X0064292Y0137127D03*
X0056418Y0140867D03*
X0056418Y0133387D03*
D23*
X0081477Y0137127D03*
X0081477Y0127127D03*
X0081477Y0147127D03*
X0117973Y0147127D03*
X0117973Y0137127D03*
X0117973Y0127127D03*
X0486989Y0249174D03*
X0486989Y0259174D03*
X0486989Y0269174D03*
X0486989Y0286576D03*
X0486989Y0296576D03*
X0486989Y0306576D03*
X0486989Y0323977D03*
X0486989Y0333977D03*
X0486989Y0343977D03*
X0523485Y0343977D03*
X0523485Y0333977D03*
X0523485Y0323977D03*
X0523485Y0306576D03*
X0523485Y0296576D03*
X0523485Y0286576D03*
X0523485Y0269174D03*
X0523485Y0259174D03*
X0523485Y0249174D03*
D24*
X0532796Y0261733D03*
X0532796Y0268426D03*
X0532796Y0299135D03*
X0532796Y0305828D03*
X0532796Y0336536D03*
X0532796Y0343229D03*
X0196182Y0268426D03*
X0196182Y0261733D03*
D25*
X0371039Y0320198D03*
X0560355Y0201747D03*
X0540330Y0190276D03*
X0021325Y0241457D03*
D26*
X0099725Y0241457D03*
X0292639Y0320198D03*
X0461930Y0190276D03*
X0560355Y0123347D03*
D27*
X0447560Y0180434D03*
X0440867Y0180434D03*
X0470394Y0284765D03*
X0477087Y0284765D03*
X0477087Y0322166D03*
X0470394Y0322166D03*
X0470394Y0359568D03*
X0477087Y0359568D03*
X0240867Y0131221D03*
X0234174Y0131221D03*
X0112914Y0162717D03*
X0106221Y0162717D03*
X0093229Y0162717D03*
X0086536Y0162717D03*
D28*
X0083977Y0191851D02*
X0036733Y0191851D01*
X0035631Y0191942D01*
X0034560Y0192214D01*
X0033548Y0192658D01*
X0032622Y0193262D01*
X0031809Y0194011D01*
X0031130Y0194883D01*
X0030604Y0195856D01*
X0030245Y0196901D01*
X0030063Y0197991D01*
X0030063Y0199097D01*
X0030245Y0200187D01*
X0030604Y0201233D01*
X0031130Y0202205D01*
X0031809Y0203077D01*
X0032622Y0203826D01*
X0033548Y0204430D01*
X0034560Y0204874D01*
X0035631Y0205146D01*
X0036733Y0205237D01*
X0083977Y0205237D01*
X0085079Y0205146D01*
X0086150Y0204874D01*
X0087163Y0204430D01*
X0088088Y0203826D01*
X0088901Y0203077D01*
X0089580Y0202205D01*
X0090106Y0201233D01*
X0090465Y0200187D01*
X0090647Y0199097D01*
X0090647Y0197991D01*
X0090465Y0196901D01*
X0090106Y0195856D01*
X0089580Y0194883D01*
X0088901Y0194011D01*
X0088088Y0193262D01*
X0087163Y0192658D01*
X0086150Y0192214D01*
X0085079Y0191942D01*
X0083977Y0191851D01*
X0086187Y0192230D02*
X0034523Y0192230D01*
X0033440Y0192728D02*
X0087271Y0192728D01*
X0088034Y0193227D02*
X0032677Y0193227D01*
X0032119Y0193725D02*
X0088591Y0193725D01*
X0089067Y0194224D02*
X0031643Y0194224D01*
X0031255Y0194722D02*
X0089455Y0194722D01*
X0089763Y0195221D02*
X0030947Y0195221D01*
X0030678Y0195719D02*
X0090033Y0195719D01*
X0090231Y0196218D02*
X0030479Y0196218D01*
X0030308Y0196716D02*
X0090402Y0196716D01*
X0090518Y0197215D02*
X0030193Y0197215D01*
X0030109Y0197713D02*
X0090601Y0197713D01*
X0090647Y0198212D02*
X0030063Y0198212D01*
X0030063Y0198710D02*
X0090647Y0198710D01*
X0090628Y0199209D02*
X0030082Y0199209D01*
X0030165Y0199708D02*
X0090545Y0199708D01*
X0090459Y0200206D02*
X0030251Y0200206D01*
X0030423Y0200705D02*
X0090288Y0200705D01*
X0090116Y0201203D02*
X0030594Y0201203D01*
X0030858Y0201702D02*
X0089853Y0201702D01*
X0089583Y0202200D02*
X0031127Y0202200D01*
X0031514Y0202699D02*
X0089196Y0202699D01*
X0088771Y0203197D02*
X0031939Y0203197D01*
X0032481Y0203696D02*
X0088229Y0203696D01*
X0087524Y0204194D02*
X0033186Y0204194D01*
X0034146Y0204693D02*
X0086565Y0204693D01*
X0084531Y0205191D02*
X0036179Y0205191D01*
X0036733Y0202875D02*
X0083977Y0202875D01*
X0088308Y0198544D02*
X0088306Y0198413D01*
X0088300Y0198283D01*
X0088290Y0198152D01*
X0088276Y0198022D01*
X0088259Y0197892D01*
X0088237Y0197763D01*
X0088212Y0197635D01*
X0088182Y0197508D01*
X0088149Y0197381D01*
X0088112Y0197256D01*
X0088071Y0197131D01*
X0088027Y0197008D01*
X0087978Y0196887D01*
X0087926Y0196767D01*
X0087871Y0196648D01*
X0087812Y0196531D01*
X0087749Y0196416D01*
X0087683Y0196303D01*
X0087614Y0196192D01*
X0087541Y0196084D01*
X0087465Y0195977D01*
X0087386Y0195873D01*
X0087304Y0195771D01*
X0087219Y0195672D01*
X0087131Y0195575D01*
X0087039Y0195482D01*
X0086946Y0195390D01*
X0086849Y0195302D01*
X0086750Y0195217D01*
X0086648Y0195135D01*
X0086544Y0195056D01*
X0086437Y0194980D01*
X0086329Y0194907D01*
X0086218Y0194838D01*
X0086105Y0194772D01*
X0085990Y0194709D01*
X0085873Y0194650D01*
X0085754Y0194595D01*
X0085634Y0194543D01*
X0085513Y0194494D01*
X0085390Y0194450D01*
X0085265Y0194409D01*
X0085140Y0194372D01*
X0085013Y0194339D01*
X0084886Y0194309D01*
X0084758Y0194284D01*
X0084629Y0194262D01*
X0084499Y0194245D01*
X0084369Y0194231D01*
X0084238Y0194221D01*
X0084108Y0194215D01*
X0083977Y0194213D01*
X0036733Y0194213D01*
X0032402Y0198544D02*
X0032404Y0198675D01*
X0032410Y0198805D01*
X0032420Y0198936D01*
X0032434Y0199066D01*
X0032451Y0199196D01*
X0032473Y0199325D01*
X0032498Y0199453D01*
X0032528Y0199580D01*
X0032561Y0199707D01*
X0032598Y0199832D01*
X0032639Y0199957D01*
X0032683Y0200080D01*
X0032732Y0200201D01*
X0032784Y0200321D01*
X0032839Y0200440D01*
X0032898Y0200557D01*
X0032961Y0200672D01*
X0033027Y0200785D01*
X0033096Y0200896D01*
X0033169Y0201004D01*
X0033245Y0201111D01*
X0033324Y0201215D01*
X0033406Y0201317D01*
X0033491Y0201416D01*
X0033579Y0201513D01*
X0033671Y0201606D01*
X0033764Y0201698D01*
X0033861Y0201786D01*
X0033960Y0201871D01*
X0034062Y0201953D01*
X0034166Y0202032D01*
X0034273Y0202108D01*
X0034381Y0202181D01*
X0034492Y0202250D01*
X0034605Y0202316D01*
X0034720Y0202379D01*
X0034837Y0202438D01*
X0034956Y0202493D01*
X0035076Y0202545D01*
X0035197Y0202594D01*
X0035320Y0202638D01*
X0035445Y0202679D01*
X0035570Y0202716D01*
X0035697Y0202749D01*
X0035824Y0202779D01*
X0035952Y0202804D01*
X0036081Y0202826D01*
X0036211Y0202843D01*
X0036341Y0202857D01*
X0036472Y0202867D01*
X0036602Y0202873D01*
X0036733Y0202875D01*
X0032402Y0198544D02*
X0032404Y0198413D01*
X0032410Y0198283D01*
X0032420Y0198152D01*
X0032434Y0198022D01*
X0032451Y0197892D01*
X0032473Y0197763D01*
X0032498Y0197635D01*
X0032528Y0197508D01*
X0032561Y0197381D01*
X0032598Y0197256D01*
X0032639Y0197131D01*
X0032683Y0197008D01*
X0032732Y0196887D01*
X0032784Y0196767D01*
X0032839Y0196648D01*
X0032898Y0196531D01*
X0032961Y0196416D01*
X0033027Y0196303D01*
X0033096Y0196192D01*
X0033169Y0196084D01*
X0033245Y0195977D01*
X0033324Y0195873D01*
X0033406Y0195771D01*
X0033491Y0195672D01*
X0033579Y0195575D01*
X0033671Y0195482D01*
X0033764Y0195390D01*
X0033861Y0195302D01*
X0033960Y0195217D01*
X0034062Y0195135D01*
X0034166Y0195056D01*
X0034273Y0194980D01*
X0034381Y0194907D01*
X0034492Y0194838D01*
X0034605Y0194772D01*
X0034720Y0194709D01*
X0034837Y0194650D01*
X0034956Y0194595D01*
X0035076Y0194543D01*
X0035197Y0194494D01*
X0035320Y0194450D01*
X0035445Y0194409D01*
X0035570Y0194372D01*
X0035697Y0194339D01*
X0035824Y0194309D01*
X0035952Y0194284D01*
X0036081Y0194262D01*
X0036211Y0194245D01*
X0036341Y0194231D01*
X0036472Y0194221D01*
X0036602Y0194215D01*
X0036733Y0194213D01*
X0083977Y0202875D02*
X0084108Y0202873D01*
X0084238Y0202867D01*
X0084369Y0202857D01*
X0084499Y0202843D01*
X0084629Y0202826D01*
X0084758Y0202804D01*
X0084886Y0202779D01*
X0085013Y0202749D01*
X0085140Y0202716D01*
X0085265Y0202679D01*
X0085390Y0202638D01*
X0085513Y0202594D01*
X0085634Y0202545D01*
X0085754Y0202493D01*
X0085873Y0202438D01*
X0085990Y0202379D01*
X0086105Y0202316D01*
X0086218Y0202250D01*
X0086329Y0202181D01*
X0086437Y0202108D01*
X0086544Y0202032D01*
X0086648Y0201953D01*
X0086750Y0201871D01*
X0086849Y0201786D01*
X0086946Y0201698D01*
X0087039Y0201606D01*
X0087131Y0201513D01*
X0087219Y0201416D01*
X0087304Y0201317D01*
X0087386Y0201215D01*
X0087465Y0201111D01*
X0087541Y0201004D01*
X0087614Y0200896D01*
X0087683Y0200785D01*
X0087749Y0200672D01*
X0087812Y0200557D01*
X0087871Y0200440D01*
X0087926Y0200321D01*
X0087978Y0200201D01*
X0088027Y0200080D01*
X0088071Y0199957D01*
X0088112Y0199832D01*
X0088149Y0199707D01*
X0088182Y0199580D01*
X0088212Y0199453D01*
X0088237Y0199325D01*
X0088259Y0199196D01*
X0088276Y0199066D01*
X0088290Y0198936D01*
X0088300Y0198805D01*
X0088306Y0198675D01*
X0088308Y0198544D01*
X0108803Y0198710D02*
X0169387Y0198710D01*
X0169387Y0199097D02*
X0169387Y0197991D01*
X0169205Y0196901D01*
X0168847Y0195856D01*
X0168320Y0194883D01*
X0167641Y0194011D01*
X0166828Y0193262D01*
X0165903Y0192658D01*
X0164891Y0192214D01*
X0163819Y0191942D01*
X0162717Y0191851D01*
X0115473Y0191851D01*
X0114372Y0191942D01*
X0113300Y0192214D01*
X0112288Y0192658D01*
X0111362Y0193262D01*
X0110549Y0194011D01*
X0109870Y0194883D01*
X0109344Y0195856D01*
X0108985Y0196901D01*
X0108803Y0197991D01*
X0108803Y0199097D01*
X0108985Y0200187D01*
X0109344Y0201233D01*
X0109870Y0202205D01*
X0110549Y0203077D01*
X0111362Y0203826D01*
X0112288Y0204430D01*
X0113300Y0204874D01*
X0114372Y0205146D01*
X0115473Y0205237D01*
X0162717Y0205237D01*
X0163819Y0205146D01*
X0164891Y0204874D01*
X0165903Y0204430D01*
X0166828Y0203826D01*
X0167641Y0203077D01*
X0168320Y0202205D01*
X0168847Y0201233D01*
X0169205Y0200187D01*
X0169387Y0199097D01*
X0169369Y0199209D02*
X0108822Y0199209D01*
X0108905Y0199708D02*
X0169285Y0199708D01*
X0169199Y0200206D02*
X0108992Y0200206D01*
X0109163Y0200705D02*
X0169028Y0200705D01*
X0168857Y0201203D02*
X0109334Y0201203D01*
X0109598Y0201702D02*
X0168593Y0201702D01*
X0168323Y0202200D02*
X0109868Y0202200D01*
X0110254Y0202699D02*
X0167936Y0202699D01*
X0167511Y0203197D02*
X0110679Y0203197D01*
X0111221Y0203696D02*
X0166970Y0203696D01*
X0166264Y0204194D02*
X0111926Y0204194D01*
X0112886Y0204693D02*
X0165305Y0204693D01*
X0163271Y0205191D02*
X0114920Y0205191D01*
X0115473Y0202875D02*
X0162717Y0202875D01*
X0162844Y0202867D01*
X0162971Y0202855D01*
X0163097Y0202840D01*
X0163223Y0202820D01*
X0163349Y0202796D01*
X0163473Y0202769D01*
X0163597Y0202737D01*
X0163719Y0202702D01*
X0163841Y0202664D01*
X0163961Y0202621D01*
X0164080Y0202575D01*
X0164197Y0202525D01*
X0164313Y0202472D01*
X0164427Y0202415D01*
X0164539Y0202354D01*
X0164649Y0202290D01*
X0164758Y0202223D01*
X0164864Y0202152D01*
X0164968Y0202079D01*
X0165069Y0202002D01*
X0165169Y0201922D01*
X0165265Y0201839D01*
X0165359Y0201753D01*
X0165451Y0201664D01*
X0165539Y0201572D01*
X0165625Y0201478D01*
X0165708Y0201381D01*
X0165788Y0201281D01*
X0165864Y0201180D01*
X0165938Y0201075D01*
X0166008Y0200969D01*
X0166075Y0200861D01*
X0166139Y0200750D01*
X0166199Y0200638D01*
X0166256Y0200523D01*
X0166309Y0200408D01*
X0166358Y0200290D01*
X0166404Y0200171D01*
X0166446Y0200051D01*
X0166485Y0199929D01*
X0166519Y0199807D01*
X0166550Y0199683D01*
X0166577Y0199558D01*
X0166601Y0199433D01*
X0166620Y0199307D01*
X0166636Y0199181D01*
X0166647Y0199054D01*
X0166655Y0198926D01*
X0166659Y0198799D01*
X0166658Y0198672D01*
X0166654Y0198544D01*
X0169387Y0198212D02*
X0108803Y0198212D01*
X0108850Y0197713D02*
X0169341Y0197713D01*
X0169258Y0197215D02*
X0108933Y0197215D01*
X0109049Y0196716D02*
X0169142Y0196716D01*
X0168971Y0196218D02*
X0109220Y0196218D01*
X0109418Y0195719D02*
X0168773Y0195719D01*
X0168503Y0195221D02*
X0109688Y0195221D01*
X0109995Y0194722D02*
X0168195Y0194722D01*
X0167807Y0194224D02*
X0110383Y0194224D01*
X0110859Y0193725D02*
X0167331Y0193725D01*
X0166774Y0193227D02*
X0111417Y0193227D01*
X0112180Y0192728D02*
X0166011Y0192728D01*
X0164927Y0192230D02*
X0113264Y0192230D01*
X0115473Y0194213D02*
X0162717Y0194213D01*
X0162844Y0194221D01*
X0162971Y0194233D01*
X0163097Y0194248D01*
X0163223Y0194268D01*
X0163349Y0194292D01*
X0163473Y0194319D01*
X0163597Y0194351D01*
X0163719Y0194386D01*
X0163841Y0194424D01*
X0163961Y0194467D01*
X0164080Y0194513D01*
X0164197Y0194563D01*
X0164313Y0194616D01*
X0164427Y0194673D01*
X0164539Y0194734D01*
X0164649Y0194798D01*
X0164758Y0194865D01*
X0164864Y0194936D01*
X0164968Y0195009D01*
X0165069Y0195086D01*
X0165169Y0195166D01*
X0165265Y0195249D01*
X0165359Y0195335D01*
X0165451Y0195424D01*
X0165539Y0195516D01*
X0165625Y0195610D01*
X0165708Y0195707D01*
X0165788Y0195807D01*
X0165864Y0195908D01*
X0165938Y0196013D01*
X0166008Y0196119D01*
X0166075Y0196227D01*
X0166139Y0196338D01*
X0166199Y0196450D01*
X0166256Y0196565D01*
X0166309Y0196680D01*
X0166358Y0196798D01*
X0166404Y0196917D01*
X0166446Y0197037D01*
X0166485Y0197159D01*
X0166519Y0197281D01*
X0166550Y0197405D01*
X0166577Y0197530D01*
X0166601Y0197655D01*
X0166620Y0197781D01*
X0166636Y0197907D01*
X0166647Y0198034D01*
X0166655Y0198162D01*
X0166659Y0198289D01*
X0166658Y0198416D01*
X0166654Y0198544D01*
X0202208Y0204344D02*
X0202087Y0206024D01*
X0202208Y0207705D01*
X0202566Y0209352D01*
X0203155Y0210931D01*
X0203962Y0212410D01*
X0204972Y0213759D01*
X0206164Y0214951D01*
X0207513Y0215960D01*
X0208992Y0216768D01*
X0210571Y0217357D01*
X0212218Y0217715D01*
X0213898Y0217835D01*
X0237520Y0217835D01*
X0237959Y0217786D01*
X0238375Y0217640D01*
X0238748Y0217406D01*
X0239060Y0217094D01*
X0239294Y0216721D01*
X0239440Y0216305D01*
X0239489Y0215867D01*
X0239489Y0196182D01*
X0239440Y0195744D01*
X0239294Y0195328D01*
X0239060Y0194955D01*
X0238748Y0194643D01*
X0238375Y0194408D01*
X0237959Y0194263D01*
X0237520Y0194213D01*
X0213898Y0194213D01*
X0212218Y0194334D01*
X0210571Y0194692D01*
X0208992Y0195281D01*
X0207513Y0196088D01*
X0206164Y0197098D01*
X0204972Y0198290D01*
X0203962Y0199639D01*
X0203155Y0201118D01*
X0202566Y0202697D01*
X0202208Y0204344D01*
X0202240Y0204194D02*
X0239489Y0204194D01*
X0239489Y0203696D02*
X0202349Y0203696D01*
X0202457Y0203197D02*
X0239489Y0203197D01*
X0239489Y0202699D02*
X0202565Y0202699D01*
X0202751Y0202200D02*
X0239489Y0202200D01*
X0239489Y0201702D02*
X0202937Y0201702D01*
X0203123Y0201203D02*
X0239489Y0201203D01*
X0239489Y0200705D02*
X0203380Y0200705D01*
X0203653Y0200206D02*
X0239489Y0200206D01*
X0239489Y0199708D02*
X0203925Y0199708D01*
X0204284Y0199209D02*
X0239489Y0199209D01*
X0239489Y0198710D02*
X0204657Y0198710D01*
X0205050Y0198212D02*
X0239489Y0198212D01*
X0239489Y0197713D02*
X0205549Y0197713D01*
X0206047Y0197215D02*
X0239489Y0197215D01*
X0239489Y0196716D02*
X0206674Y0196716D01*
X0207340Y0196218D02*
X0239489Y0196218D01*
X0239431Y0195719D02*
X0208189Y0195719D01*
X0209152Y0195221D02*
X0239227Y0195221D01*
X0238827Y0194722D02*
X0210489Y0194722D01*
X0213752Y0194224D02*
X0237614Y0194224D01*
X0243475Y0195744D02*
X0243426Y0196182D01*
X0243426Y0215867D01*
X0243475Y0216305D01*
X0243621Y0216721D01*
X0243855Y0217094D01*
X0244167Y0217406D01*
X0244540Y0217640D01*
X0244956Y0217786D01*
X0245394Y0217835D01*
X0269017Y0217835D01*
X0270697Y0217715D01*
X0272344Y0217357D01*
X0273923Y0216768D01*
X0275402Y0215960D01*
X0276751Y0214951D01*
X0277943Y0213759D01*
X0278953Y0212410D01*
X0279760Y0210931D01*
X0280349Y0209352D01*
X0280707Y0207705D01*
X0280828Y0206024D01*
X0280707Y0204344D01*
X0280349Y0202697D01*
X0279760Y0201118D01*
X0278953Y0199639D01*
X0277943Y0198290D01*
X0276751Y0197098D01*
X0275402Y0196088D01*
X0273923Y0195281D01*
X0272344Y0194692D01*
X0270697Y0194334D01*
X0269017Y0194213D01*
X0245394Y0194213D01*
X0244956Y0194263D01*
X0244540Y0194408D01*
X0244167Y0194643D01*
X0243855Y0194955D01*
X0243621Y0195328D01*
X0243475Y0195744D01*
X0243484Y0195719D02*
X0274726Y0195719D01*
X0275575Y0196218D02*
X0243426Y0196218D01*
X0243426Y0196716D02*
X0276241Y0196716D01*
X0276868Y0197215D02*
X0243426Y0197215D01*
X0243426Y0197713D02*
X0277366Y0197713D01*
X0277865Y0198212D02*
X0243426Y0198212D01*
X0243426Y0198710D02*
X0278258Y0198710D01*
X0278631Y0199209D02*
X0243426Y0199209D01*
X0243426Y0199708D02*
X0278990Y0199708D01*
X0279262Y0200206D02*
X0243426Y0200206D01*
X0243426Y0200705D02*
X0279534Y0200705D01*
X0279792Y0201203D02*
X0243426Y0201203D01*
X0243426Y0201702D02*
X0279978Y0201702D01*
X0280164Y0202200D02*
X0243426Y0202200D01*
X0243426Y0202699D02*
X0280350Y0202699D01*
X0280458Y0203197D02*
X0243426Y0203197D01*
X0243426Y0203696D02*
X0280566Y0203696D01*
X0280675Y0204194D02*
X0243426Y0204194D01*
X0243426Y0204693D02*
X0280732Y0204693D01*
X0280768Y0205191D02*
X0243426Y0205191D01*
X0243426Y0205690D02*
X0280804Y0205690D01*
X0280816Y0206188D02*
X0243426Y0206188D01*
X0243426Y0206687D02*
X0280780Y0206687D01*
X0280745Y0207185D02*
X0243426Y0207185D01*
X0243426Y0207684D02*
X0280709Y0207684D01*
X0280604Y0208182D02*
X0243426Y0208182D01*
X0243426Y0208681D02*
X0280495Y0208681D01*
X0280387Y0209179D02*
X0243426Y0209179D01*
X0243426Y0209678D02*
X0280228Y0209678D01*
X0280042Y0210176D02*
X0243426Y0210176D01*
X0243426Y0210675D02*
X0279856Y0210675D01*
X0279628Y0211173D02*
X0243426Y0211173D01*
X0243426Y0211672D02*
X0279356Y0211672D01*
X0279083Y0212170D02*
X0243426Y0212170D01*
X0243426Y0212669D02*
X0278759Y0212669D01*
X0278386Y0213167D02*
X0243426Y0213167D01*
X0243426Y0213666D02*
X0278012Y0213666D01*
X0277537Y0214164D02*
X0243426Y0214164D01*
X0243426Y0214663D02*
X0277039Y0214663D01*
X0276470Y0215161D02*
X0243426Y0215161D01*
X0243426Y0215660D02*
X0275804Y0215660D01*
X0275040Y0216158D02*
X0243459Y0216158D01*
X0243598Y0216657D02*
X0274127Y0216657D01*
X0272885Y0217155D02*
X0243917Y0217155D01*
X0244579Y0217654D02*
X0270979Y0217654D01*
X0269017Y0209961D02*
X0253269Y0209961D01*
X0253145Y0209959D01*
X0253022Y0209953D01*
X0252898Y0209944D01*
X0252776Y0209930D01*
X0252653Y0209913D01*
X0252531Y0209891D01*
X0252410Y0209866D01*
X0252290Y0209837D01*
X0252171Y0209805D01*
X0252052Y0209768D01*
X0251935Y0209728D01*
X0251820Y0209685D01*
X0251705Y0209637D01*
X0251593Y0209586D01*
X0251482Y0209532D01*
X0251372Y0209474D01*
X0251265Y0209413D01*
X0251159Y0209348D01*
X0251056Y0209280D01*
X0250955Y0209209D01*
X0250856Y0209135D01*
X0250759Y0209058D01*
X0250665Y0208977D01*
X0250574Y0208894D01*
X0250485Y0208808D01*
X0250399Y0208719D01*
X0250316Y0208628D01*
X0250235Y0208534D01*
X0250158Y0208437D01*
X0250084Y0208338D01*
X0250013Y0208237D01*
X0249945Y0208134D01*
X0249880Y0208028D01*
X0249819Y0207921D01*
X0249761Y0207811D01*
X0249707Y0207700D01*
X0249656Y0207588D01*
X0249608Y0207473D01*
X0249565Y0207358D01*
X0249525Y0207241D01*
X0249488Y0207122D01*
X0249456Y0207003D01*
X0249427Y0206883D01*
X0249402Y0206762D01*
X0249380Y0206640D01*
X0249363Y0206517D01*
X0249349Y0206395D01*
X0249340Y0206271D01*
X0249334Y0206148D01*
X0249332Y0206024D01*
X0249334Y0205900D01*
X0249340Y0205777D01*
X0249349Y0205653D01*
X0249363Y0205531D01*
X0249380Y0205408D01*
X0249402Y0205286D01*
X0249427Y0205165D01*
X0249456Y0205045D01*
X0249488Y0204926D01*
X0249525Y0204807D01*
X0249565Y0204690D01*
X0249608Y0204575D01*
X0249656Y0204460D01*
X0249707Y0204348D01*
X0249761Y0204237D01*
X0249819Y0204127D01*
X0249880Y0204020D01*
X0249945Y0203914D01*
X0250013Y0203811D01*
X0250084Y0203710D01*
X0250158Y0203611D01*
X0250235Y0203514D01*
X0250316Y0203420D01*
X0250399Y0203329D01*
X0250485Y0203240D01*
X0250574Y0203154D01*
X0250665Y0203071D01*
X0250759Y0202990D01*
X0250856Y0202913D01*
X0250955Y0202839D01*
X0251056Y0202768D01*
X0251159Y0202700D01*
X0251265Y0202635D01*
X0251372Y0202574D01*
X0251482Y0202516D01*
X0251593Y0202462D01*
X0251705Y0202411D01*
X0251820Y0202363D01*
X0251935Y0202320D01*
X0252052Y0202280D01*
X0252171Y0202243D01*
X0252290Y0202211D01*
X0252410Y0202182D01*
X0252531Y0202157D01*
X0252653Y0202135D01*
X0252776Y0202118D01*
X0252898Y0202104D01*
X0253022Y0202095D01*
X0253145Y0202089D01*
X0253269Y0202087D01*
X0269017Y0202087D01*
X0269141Y0202089D01*
X0269264Y0202095D01*
X0269388Y0202104D01*
X0269510Y0202118D01*
X0269633Y0202135D01*
X0269755Y0202157D01*
X0269876Y0202182D01*
X0269996Y0202211D01*
X0270115Y0202243D01*
X0270234Y0202280D01*
X0270351Y0202320D01*
X0270466Y0202363D01*
X0270581Y0202411D01*
X0270693Y0202462D01*
X0270804Y0202516D01*
X0270914Y0202574D01*
X0271021Y0202635D01*
X0271127Y0202700D01*
X0271230Y0202768D01*
X0271331Y0202839D01*
X0271430Y0202913D01*
X0271527Y0202990D01*
X0271621Y0203071D01*
X0271712Y0203154D01*
X0271801Y0203240D01*
X0271887Y0203329D01*
X0271970Y0203420D01*
X0272051Y0203514D01*
X0272128Y0203611D01*
X0272202Y0203710D01*
X0272273Y0203811D01*
X0272341Y0203914D01*
X0272406Y0204020D01*
X0272467Y0204127D01*
X0272525Y0204237D01*
X0272579Y0204348D01*
X0272630Y0204460D01*
X0272678Y0204575D01*
X0272721Y0204690D01*
X0272761Y0204807D01*
X0272798Y0204926D01*
X0272830Y0205045D01*
X0272859Y0205165D01*
X0272884Y0205286D01*
X0272906Y0205408D01*
X0272923Y0205531D01*
X0272937Y0205653D01*
X0272946Y0205777D01*
X0272952Y0205900D01*
X0272954Y0206024D01*
X0272952Y0206148D01*
X0272946Y0206271D01*
X0272937Y0206395D01*
X0272923Y0206517D01*
X0272906Y0206640D01*
X0272884Y0206762D01*
X0272859Y0206883D01*
X0272830Y0207003D01*
X0272798Y0207122D01*
X0272761Y0207241D01*
X0272721Y0207358D01*
X0272678Y0207473D01*
X0272630Y0207588D01*
X0272579Y0207700D01*
X0272525Y0207811D01*
X0272467Y0207921D01*
X0272406Y0208028D01*
X0272341Y0208134D01*
X0272273Y0208237D01*
X0272202Y0208338D01*
X0272128Y0208437D01*
X0272051Y0208534D01*
X0271970Y0208628D01*
X0271887Y0208719D01*
X0271801Y0208808D01*
X0271712Y0208894D01*
X0271621Y0208977D01*
X0271527Y0209058D01*
X0271430Y0209135D01*
X0271331Y0209209D01*
X0271230Y0209280D01*
X0271127Y0209348D01*
X0271021Y0209413D01*
X0270914Y0209474D01*
X0270804Y0209532D01*
X0270693Y0209586D01*
X0270581Y0209637D01*
X0270466Y0209685D01*
X0270351Y0209728D01*
X0270234Y0209768D01*
X0270115Y0209805D01*
X0269996Y0209837D01*
X0269876Y0209866D01*
X0269755Y0209891D01*
X0269633Y0209913D01*
X0269510Y0209930D01*
X0269388Y0209944D01*
X0269264Y0209953D01*
X0269141Y0209959D01*
X0269017Y0209961D01*
X0273763Y0195221D02*
X0243688Y0195221D01*
X0244088Y0194722D02*
X0272426Y0194722D01*
X0269163Y0194224D02*
X0245301Y0194224D01*
X0239489Y0204693D02*
X0202183Y0204693D01*
X0202147Y0205191D02*
X0239489Y0205191D01*
X0239489Y0205690D02*
X0202111Y0205690D01*
X0202099Y0206188D02*
X0239489Y0206188D01*
X0239489Y0206687D02*
X0202135Y0206687D01*
X0202170Y0207185D02*
X0239489Y0207185D01*
X0239489Y0207684D02*
X0202206Y0207684D01*
X0202311Y0208182D02*
X0239489Y0208182D01*
X0239489Y0208681D02*
X0202420Y0208681D01*
X0202528Y0209179D02*
X0239489Y0209179D01*
X0239489Y0209678D02*
X0202687Y0209678D01*
X0202873Y0210176D02*
X0239489Y0210176D01*
X0239489Y0210675D02*
X0203059Y0210675D01*
X0203287Y0211173D02*
X0239489Y0211173D01*
X0239489Y0211672D02*
X0203559Y0211672D01*
X0203832Y0212170D02*
X0239489Y0212170D01*
X0239489Y0212669D02*
X0204156Y0212669D01*
X0204529Y0213167D02*
X0239489Y0213167D01*
X0239489Y0213666D02*
X0204902Y0213666D01*
X0205378Y0214164D02*
X0239489Y0214164D01*
X0239489Y0214663D02*
X0205876Y0214663D01*
X0206445Y0215161D02*
X0239489Y0215161D01*
X0239489Y0215660D02*
X0207111Y0215660D01*
X0207875Y0216158D02*
X0239456Y0216158D01*
X0239316Y0216657D02*
X0208788Y0216657D01*
X0210030Y0217155D02*
X0238998Y0217155D01*
X0238336Y0217654D02*
X0211936Y0217654D01*
X0213898Y0209961D02*
X0229646Y0209961D01*
X0229770Y0209959D01*
X0229893Y0209953D01*
X0230017Y0209944D01*
X0230139Y0209930D01*
X0230262Y0209913D01*
X0230384Y0209891D01*
X0230505Y0209866D01*
X0230625Y0209837D01*
X0230744Y0209805D01*
X0230863Y0209768D01*
X0230980Y0209728D01*
X0231095Y0209685D01*
X0231210Y0209637D01*
X0231322Y0209586D01*
X0231433Y0209532D01*
X0231543Y0209474D01*
X0231650Y0209413D01*
X0231756Y0209348D01*
X0231859Y0209280D01*
X0231960Y0209209D01*
X0232059Y0209135D01*
X0232156Y0209058D01*
X0232250Y0208977D01*
X0232341Y0208894D01*
X0232430Y0208808D01*
X0232516Y0208719D01*
X0232599Y0208628D01*
X0232680Y0208534D01*
X0232757Y0208437D01*
X0232831Y0208338D01*
X0232902Y0208237D01*
X0232970Y0208134D01*
X0233035Y0208028D01*
X0233096Y0207921D01*
X0233154Y0207811D01*
X0233208Y0207700D01*
X0233259Y0207588D01*
X0233307Y0207473D01*
X0233350Y0207358D01*
X0233390Y0207241D01*
X0233427Y0207122D01*
X0233459Y0207003D01*
X0233488Y0206883D01*
X0233513Y0206762D01*
X0233535Y0206640D01*
X0233552Y0206517D01*
X0233566Y0206395D01*
X0233575Y0206271D01*
X0233581Y0206148D01*
X0233583Y0206024D01*
X0233581Y0205900D01*
X0233575Y0205777D01*
X0233566Y0205653D01*
X0233552Y0205531D01*
X0233535Y0205408D01*
X0233513Y0205286D01*
X0233488Y0205165D01*
X0233459Y0205045D01*
X0233427Y0204926D01*
X0233390Y0204807D01*
X0233350Y0204690D01*
X0233307Y0204575D01*
X0233259Y0204460D01*
X0233208Y0204348D01*
X0233154Y0204237D01*
X0233096Y0204127D01*
X0233035Y0204020D01*
X0232970Y0203914D01*
X0232902Y0203811D01*
X0232831Y0203710D01*
X0232757Y0203611D01*
X0232680Y0203514D01*
X0232599Y0203420D01*
X0232516Y0203329D01*
X0232430Y0203240D01*
X0232341Y0203154D01*
X0232250Y0203071D01*
X0232156Y0202990D01*
X0232059Y0202913D01*
X0231960Y0202839D01*
X0231859Y0202768D01*
X0231756Y0202700D01*
X0231650Y0202635D01*
X0231543Y0202574D01*
X0231433Y0202516D01*
X0231322Y0202462D01*
X0231210Y0202411D01*
X0231095Y0202363D01*
X0230980Y0202320D01*
X0230863Y0202280D01*
X0230744Y0202243D01*
X0230625Y0202211D01*
X0230505Y0202182D01*
X0230384Y0202157D01*
X0230262Y0202135D01*
X0230139Y0202118D01*
X0230017Y0202104D01*
X0229893Y0202095D01*
X0229770Y0202089D01*
X0229646Y0202087D01*
X0213898Y0202087D01*
X0213774Y0202089D01*
X0213651Y0202095D01*
X0213527Y0202104D01*
X0213405Y0202118D01*
X0213282Y0202135D01*
X0213160Y0202157D01*
X0213039Y0202182D01*
X0212919Y0202211D01*
X0212800Y0202243D01*
X0212681Y0202280D01*
X0212564Y0202320D01*
X0212449Y0202363D01*
X0212334Y0202411D01*
X0212222Y0202462D01*
X0212111Y0202516D01*
X0212001Y0202574D01*
X0211894Y0202635D01*
X0211788Y0202700D01*
X0211685Y0202768D01*
X0211584Y0202839D01*
X0211485Y0202913D01*
X0211388Y0202990D01*
X0211294Y0203071D01*
X0211203Y0203154D01*
X0211114Y0203240D01*
X0211028Y0203329D01*
X0210945Y0203420D01*
X0210864Y0203514D01*
X0210787Y0203611D01*
X0210713Y0203710D01*
X0210642Y0203811D01*
X0210574Y0203914D01*
X0210509Y0204020D01*
X0210448Y0204127D01*
X0210390Y0204237D01*
X0210336Y0204348D01*
X0210285Y0204460D01*
X0210237Y0204575D01*
X0210194Y0204690D01*
X0210154Y0204807D01*
X0210117Y0204926D01*
X0210085Y0205045D01*
X0210056Y0205165D01*
X0210031Y0205286D01*
X0210009Y0205408D01*
X0209992Y0205531D01*
X0209978Y0205653D01*
X0209969Y0205777D01*
X0209963Y0205900D01*
X0209961Y0206024D01*
X0209963Y0206148D01*
X0209969Y0206271D01*
X0209978Y0206395D01*
X0209992Y0206517D01*
X0210009Y0206640D01*
X0210031Y0206762D01*
X0210056Y0206883D01*
X0210085Y0207003D01*
X0210117Y0207122D01*
X0210154Y0207241D01*
X0210194Y0207358D01*
X0210237Y0207473D01*
X0210285Y0207588D01*
X0210336Y0207700D01*
X0210390Y0207811D01*
X0210448Y0207921D01*
X0210509Y0208028D01*
X0210574Y0208134D01*
X0210642Y0208237D01*
X0210713Y0208338D01*
X0210787Y0208437D01*
X0210864Y0208534D01*
X0210945Y0208628D01*
X0211028Y0208719D01*
X0211114Y0208808D01*
X0211203Y0208894D01*
X0211294Y0208977D01*
X0211388Y0209058D01*
X0211485Y0209135D01*
X0211584Y0209209D01*
X0211685Y0209280D01*
X0211788Y0209348D01*
X0211894Y0209413D01*
X0212001Y0209474D01*
X0212111Y0209532D01*
X0212222Y0209586D01*
X0212334Y0209637D01*
X0212449Y0209685D01*
X0212564Y0209728D01*
X0212681Y0209768D01*
X0212800Y0209805D01*
X0212919Y0209837D01*
X0213039Y0209866D01*
X0213160Y0209891D01*
X0213282Y0209913D01*
X0213405Y0209930D01*
X0213527Y0209944D01*
X0213651Y0209953D01*
X0213774Y0209959D01*
X0213898Y0209961D01*
X0134680Y0238130D02*
X0134091Y0236551D01*
X0133283Y0235072D01*
X0132273Y0233723D01*
X0131082Y0232531D01*
X0129733Y0231521D01*
X0128254Y0230714D01*
X0126675Y0230125D01*
X0125028Y0229767D01*
X0123347Y0229646D01*
X0121666Y0229767D01*
X0120020Y0230125D01*
X0118441Y0230714D01*
X0116962Y0231521D01*
X0115613Y0232531D01*
X0114421Y0233723D01*
X0113411Y0235072D01*
X0112604Y0236551D01*
X0112015Y0238130D01*
X0111656Y0239777D01*
X0111536Y0241457D01*
X0111536Y0265080D01*
X0111586Y0265518D01*
X0111731Y0265934D01*
X0111966Y0266307D01*
X0112277Y0266619D01*
X0112651Y0266853D01*
X0113067Y0266999D01*
X0113505Y0267048D01*
X0133190Y0267048D01*
X0133628Y0266999D01*
X0134044Y0266853D01*
X0134417Y0266619D01*
X0134729Y0266307D01*
X0134963Y0265934D01*
X0135109Y0265518D01*
X0135158Y0265080D01*
X0135158Y0241457D01*
X0135038Y0239777D01*
X0134680Y0238130D01*
X0134666Y0238093D02*
X0112028Y0238093D01*
X0111914Y0238591D02*
X0134780Y0238591D01*
X0134889Y0239090D02*
X0111806Y0239090D01*
X0111697Y0239588D02*
X0134997Y0239588D01*
X0135060Y0240087D02*
X0111634Y0240087D01*
X0111599Y0240585D02*
X0135096Y0240585D01*
X0135132Y0241084D02*
X0111563Y0241084D01*
X0111536Y0241582D02*
X0135158Y0241582D01*
X0135158Y0242081D02*
X0111536Y0242081D01*
X0111536Y0242579D02*
X0135158Y0242579D01*
X0135158Y0243078D02*
X0111536Y0243078D01*
X0111536Y0243577D02*
X0135158Y0243577D01*
X0135158Y0244075D02*
X0111536Y0244075D01*
X0111536Y0244574D02*
X0135158Y0244574D01*
X0135158Y0245072D02*
X0111536Y0245072D01*
X0111536Y0245571D02*
X0135158Y0245571D01*
X0135158Y0246069D02*
X0111536Y0246069D01*
X0111536Y0246568D02*
X0135158Y0246568D01*
X0135158Y0247066D02*
X0111536Y0247066D01*
X0111536Y0247565D02*
X0135158Y0247565D01*
X0135158Y0248063D02*
X0111536Y0248063D01*
X0111536Y0248562D02*
X0135158Y0248562D01*
X0135158Y0249060D02*
X0111536Y0249060D01*
X0111536Y0249559D02*
X0135158Y0249559D01*
X0135158Y0250057D02*
X0111536Y0250057D01*
X0111536Y0250556D02*
X0135158Y0250556D01*
X0135158Y0251054D02*
X0111536Y0251054D01*
X0111536Y0251553D02*
X0135158Y0251553D01*
X0135158Y0252051D02*
X0111536Y0252051D01*
X0111536Y0252550D02*
X0135158Y0252550D01*
X0135158Y0253048D02*
X0111536Y0253048D01*
X0111536Y0253547D02*
X0135158Y0253547D01*
X0135158Y0254045D02*
X0111536Y0254045D01*
X0111536Y0254544D02*
X0135158Y0254544D01*
X0135158Y0255042D02*
X0111536Y0255042D01*
X0111536Y0255541D02*
X0135158Y0255541D01*
X0135158Y0256039D02*
X0111536Y0256039D01*
X0111536Y0256538D02*
X0135158Y0256538D01*
X0135158Y0257036D02*
X0111536Y0257036D01*
X0111536Y0257535D02*
X0135158Y0257535D01*
X0135158Y0258033D02*
X0111536Y0258033D01*
X0111536Y0258532D02*
X0135158Y0258532D01*
X0135158Y0259030D02*
X0111536Y0259030D01*
X0111536Y0259529D02*
X0135158Y0259529D01*
X0135158Y0260027D02*
X0111536Y0260027D01*
X0111536Y0260526D02*
X0135158Y0260526D01*
X0135158Y0261024D02*
X0111536Y0261024D01*
X0111536Y0261523D02*
X0135158Y0261523D01*
X0135158Y0262021D02*
X0111536Y0262021D01*
X0111536Y0262520D02*
X0135158Y0262520D01*
X0135158Y0263018D02*
X0111536Y0263018D01*
X0111536Y0263517D02*
X0135158Y0263517D01*
X0135158Y0264015D02*
X0111536Y0264015D01*
X0111536Y0264514D02*
X0135158Y0264514D01*
X0135158Y0265012D02*
X0111536Y0265012D01*
X0111585Y0265511D02*
X0135110Y0265511D01*
X0134916Y0266010D02*
X0111779Y0266010D01*
X0112167Y0266508D02*
X0134528Y0266508D01*
X0133558Y0267007D02*
X0113136Y0267007D01*
X0113505Y0270985D02*
X0133190Y0270985D01*
X0133628Y0271034D01*
X0134044Y0271180D01*
X0134417Y0271415D01*
X0134729Y0271726D01*
X0134963Y0272099D01*
X0135109Y0272516D01*
X0135158Y0272954D01*
X0135158Y0296576D01*
X0135038Y0298256D01*
X0134680Y0299903D01*
X0134091Y0301482D01*
X0133283Y0302961D01*
X0132273Y0304310D01*
X0131082Y0305502D01*
X0129733Y0306512D01*
X0128254Y0307319D01*
X0126675Y0307908D01*
X0125028Y0308266D01*
X0123347Y0308387D01*
X0121666Y0308266D01*
X0120020Y0307908D01*
X0118441Y0307319D01*
X0116962Y0306512D01*
X0115613Y0305502D01*
X0114421Y0304310D01*
X0113411Y0302961D01*
X0112604Y0301482D01*
X0112015Y0299903D01*
X0111656Y0298256D01*
X0111536Y0296576D01*
X0111536Y0272954D01*
X0111586Y0272516D01*
X0111731Y0272099D01*
X0111966Y0271726D01*
X0112277Y0271415D01*
X0112651Y0271180D01*
X0113067Y0271034D01*
X0113505Y0270985D01*
X0113420Y0270995D02*
X0133275Y0270995D01*
X0134496Y0271493D02*
X0112199Y0271493D01*
X0111799Y0271992D02*
X0134896Y0271992D01*
X0135100Y0272490D02*
X0111594Y0272490D01*
X0111536Y0272989D02*
X0135158Y0272989D01*
X0135158Y0273487D02*
X0111536Y0273487D01*
X0111536Y0273986D02*
X0135158Y0273986D01*
X0135158Y0274484D02*
X0111536Y0274484D01*
X0111536Y0274983D02*
X0135158Y0274983D01*
X0135158Y0275481D02*
X0111536Y0275481D01*
X0111536Y0275980D02*
X0135158Y0275980D01*
X0135158Y0276478D02*
X0111536Y0276478D01*
X0111536Y0276977D02*
X0135158Y0276977D01*
X0135158Y0277475D02*
X0111536Y0277475D01*
X0111536Y0277974D02*
X0135158Y0277974D01*
X0135158Y0278472D02*
X0111536Y0278472D01*
X0111536Y0278971D02*
X0135158Y0278971D01*
X0135158Y0279469D02*
X0111536Y0279469D01*
X0111536Y0279968D02*
X0135158Y0279968D01*
X0135158Y0280466D02*
X0111536Y0280466D01*
X0111536Y0280965D02*
X0135158Y0280965D01*
X0135158Y0281463D02*
X0111536Y0281463D01*
X0111536Y0281962D02*
X0135158Y0281962D01*
X0135158Y0282460D02*
X0111536Y0282460D01*
X0111536Y0282959D02*
X0135158Y0282959D01*
X0135158Y0283457D02*
X0111536Y0283457D01*
X0111536Y0283956D02*
X0135158Y0283956D01*
X0135158Y0284454D02*
X0111536Y0284454D01*
X0111536Y0284953D02*
X0135158Y0284953D01*
X0135158Y0285451D02*
X0111536Y0285451D01*
X0111536Y0285950D02*
X0135158Y0285950D01*
X0135158Y0286448D02*
X0111536Y0286448D01*
X0111536Y0286947D02*
X0135158Y0286947D01*
X0135158Y0287445D02*
X0111536Y0287445D01*
X0111536Y0287944D02*
X0135158Y0287944D01*
X0135158Y0288443D02*
X0111536Y0288443D01*
X0111536Y0288941D02*
X0135158Y0288941D01*
X0135158Y0289440D02*
X0111536Y0289440D01*
X0111536Y0289938D02*
X0135158Y0289938D01*
X0135158Y0290437D02*
X0111536Y0290437D01*
X0111536Y0290935D02*
X0135158Y0290935D01*
X0135158Y0291434D02*
X0111536Y0291434D01*
X0111536Y0291932D02*
X0135158Y0291932D01*
X0135158Y0292431D02*
X0111536Y0292431D01*
X0111536Y0292929D02*
X0135158Y0292929D01*
X0135158Y0293428D02*
X0111536Y0293428D01*
X0111536Y0293926D02*
X0135158Y0293926D01*
X0135158Y0294425D02*
X0111536Y0294425D01*
X0111536Y0294923D02*
X0135158Y0294923D01*
X0135158Y0295422D02*
X0111536Y0295422D01*
X0111536Y0295920D02*
X0135158Y0295920D01*
X0135158Y0296419D02*
X0111536Y0296419D01*
X0111561Y0296917D02*
X0135134Y0296917D01*
X0135098Y0297416D02*
X0111596Y0297416D01*
X0111632Y0297914D02*
X0135063Y0297914D01*
X0135004Y0298413D02*
X0111690Y0298413D01*
X0111799Y0298911D02*
X0134896Y0298911D01*
X0134787Y0299410D02*
X0111907Y0299410D01*
X0112017Y0299908D02*
X0134678Y0299908D01*
X0134492Y0300407D02*
X0112202Y0300407D01*
X0112388Y0300905D02*
X0134306Y0300905D01*
X0134120Y0301404D02*
X0112574Y0301404D01*
X0112833Y0301902D02*
X0133861Y0301902D01*
X0133589Y0302401D02*
X0113105Y0302401D01*
X0113377Y0302899D02*
X0133317Y0302899D01*
X0132956Y0303398D02*
X0113738Y0303398D01*
X0114111Y0303896D02*
X0132583Y0303896D01*
X0132189Y0304395D02*
X0114506Y0304395D01*
X0115004Y0304893D02*
X0131690Y0304893D01*
X0131192Y0305392D02*
X0115503Y0305392D01*
X0116132Y0305890D02*
X0130563Y0305890D01*
X0129897Y0306389D02*
X0116798Y0306389D01*
X0117650Y0306887D02*
X0129045Y0306887D01*
X0128075Y0307386D02*
X0118620Y0307386D01*
X0119956Y0307884D02*
X0126738Y0307884D01*
X0123398Y0308383D02*
X0123296Y0308383D01*
X0119410Y0296576D02*
X0119412Y0296700D01*
X0119418Y0296823D01*
X0119427Y0296947D01*
X0119441Y0297069D01*
X0119458Y0297192D01*
X0119480Y0297314D01*
X0119505Y0297435D01*
X0119534Y0297555D01*
X0119566Y0297674D01*
X0119603Y0297793D01*
X0119643Y0297910D01*
X0119686Y0298025D01*
X0119734Y0298140D01*
X0119785Y0298252D01*
X0119839Y0298363D01*
X0119897Y0298473D01*
X0119958Y0298580D01*
X0120023Y0298686D01*
X0120091Y0298789D01*
X0120162Y0298890D01*
X0120236Y0298989D01*
X0120313Y0299086D01*
X0120394Y0299180D01*
X0120477Y0299271D01*
X0120563Y0299360D01*
X0120652Y0299446D01*
X0120743Y0299529D01*
X0120837Y0299610D01*
X0120934Y0299687D01*
X0121033Y0299761D01*
X0121134Y0299832D01*
X0121237Y0299900D01*
X0121343Y0299965D01*
X0121450Y0300026D01*
X0121560Y0300084D01*
X0121671Y0300138D01*
X0121783Y0300189D01*
X0121898Y0300237D01*
X0122013Y0300280D01*
X0122130Y0300320D01*
X0122249Y0300357D01*
X0122368Y0300389D01*
X0122488Y0300418D01*
X0122609Y0300443D01*
X0122731Y0300465D01*
X0122854Y0300482D01*
X0122976Y0300496D01*
X0123100Y0300505D01*
X0123223Y0300511D01*
X0123347Y0300513D01*
X0123471Y0300511D01*
X0123594Y0300505D01*
X0123718Y0300496D01*
X0123840Y0300482D01*
X0123963Y0300465D01*
X0124085Y0300443D01*
X0124206Y0300418D01*
X0124326Y0300389D01*
X0124445Y0300357D01*
X0124564Y0300320D01*
X0124681Y0300280D01*
X0124796Y0300237D01*
X0124911Y0300189D01*
X0125023Y0300138D01*
X0125134Y0300084D01*
X0125244Y0300026D01*
X0125351Y0299965D01*
X0125457Y0299900D01*
X0125560Y0299832D01*
X0125661Y0299761D01*
X0125760Y0299687D01*
X0125857Y0299610D01*
X0125951Y0299529D01*
X0126042Y0299446D01*
X0126131Y0299360D01*
X0126217Y0299271D01*
X0126300Y0299180D01*
X0126381Y0299086D01*
X0126458Y0298989D01*
X0126532Y0298890D01*
X0126603Y0298789D01*
X0126671Y0298686D01*
X0126736Y0298580D01*
X0126797Y0298473D01*
X0126855Y0298363D01*
X0126909Y0298252D01*
X0126960Y0298140D01*
X0127008Y0298025D01*
X0127051Y0297910D01*
X0127091Y0297793D01*
X0127128Y0297674D01*
X0127160Y0297555D01*
X0127189Y0297435D01*
X0127214Y0297314D01*
X0127236Y0297192D01*
X0127253Y0297069D01*
X0127267Y0296947D01*
X0127276Y0296823D01*
X0127282Y0296700D01*
X0127284Y0296576D01*
X0127284Y0280828D01*
X0127282Y0280704D01*
X0127276Y0280581D01*
X0127267Y0280457D01*
X0127253Y0280335D01*
X0127236Y0280212D01*
X0127214Y0280090D01*
X0127189Y0279969D01*
X0127160Y0279849D01*
X0127128Y0279730D01*
X0127091Y0279611D01*
X0127051Y0279494D01*
X0127008Y0279379D01*
X0126960Y0279264D01*
X0126909Y0279152D01*
X0126855Y0279041D01*
X0126797Y0278931D01*
X0126736Y0278824D01*
X0126671Y0278718D01*
X0126603Y0278615D01*
X0126532Y0278514D01*
X0126458Y0278415D01*
X0126381Y0278318D01*
X0126300Y0278224D01*
X0126217Y0278133D01*
X0126131Y0278044D01*
X0126042Y0277958D01*
X0125951Y0277875D01*
X0125857Y0277794D01*
X0125760Y0277717D01*
X0125661Y0277643D01*
X0125560Y0277572D01*
X0125457Y0277504D01*
X0125351Y0277439D01*
X0125244Y0277378D01*
X0125134Y0277320D01*
X0125023Y0277266D01*
X0124911Y0277215D01*
X0124796Y0277167D01*
X0124681Y0277124D01*
X0124564Y0277084D01*
X0124445Y0277047D01*
X0124326Y0277015D01*
X0124206Y0276986D01*
X0124085Y0276961D01*
X0123963Y0276939D01*
X0123840Y0276922D01*
X0123718Y0276908D01*
X0123594Y0276899D01*
X0123471Y0276893D01*
X0123347Y0276891D01*
X0123223Y0276893D01*
X0123100Y0276899D01*
X0122976Y0276908D01*
X0122854Y0276922D01*
X0122731Y0276939D01*
X0122609Y0276961D01*
X0122488Y0276986D01*
X0122368Y0277015D01*
X0122249Y0277047D01*
X0122130Y0277084D01*
X0122013Y0277124D01*
X0121898Y0277167D01*
X0121783Y0277215D01*
X0121671Y0277266D01*
X0121560Y0277320D01*
X0121450Y0277378D01*
X0121343Y0277439D01*
X0121237Y0277504D01*
X0121134Y0277572D01*
X0121033Y0277643D01*
X0120934Y0277717D01*
X0120837Y0277794D01*
X0120743Y0277875D01*
X0120652Y0277958D01*
X0120563Y0278044D01*
X0120477Y0278133D01*
X0120394Y0278224D01*
X0120313Y0278318D01*
X0120236Y0278415D01*
X0120162Y0278514D01*
X0120091Y0278615D01*
X0120023Y0278718D01*
X0119958Y0278824D01*
X0119897Y0278931D01*
X0119839Y0279041D01*
X0119785Y0279152D01*
X0119734Y0279264D01*
X0119686Y0279379D01*
X0119643Y0279494D01*
X0119603Y0279611D01*
X0119566Y0279730D01*
X0119534Y0279849D01*
X0119505Y0279969D01*
X0119480Y0280090D01*
X0119458Y0280212D01*
X0119441Y0280335D01*
X0119427Y0280457D01*
X0119418Y0280581D01*
X0119412Y0280704D01*
X0119410Y0280828D01*
X0119410Y0296576D01*
X0119410Y0257206D02*
X0119410Y0241457D01*
X0119412Y0241333D01*
X0119418Y0241210D01*
X0119427Y0241086D01*
X0119441Y0240964D01*
X0119458Y0240841D01*
X0119480Y0240719D01*
X0119505Y0240598D01*
X0119534Y0240478D01*
X0119566Y0240359D01*
X0119603Y0240240D01*
X0119643Y0240123D01*
X0119686Y0240008D01*
X0119734Y0239893D01*
X0119785Y0239781D01*
X0119839Y0239670D01*
X0119897Y0239560D01*
X0119958Y0239453D01*
X0120023Y0239347D01*
X0120091Y0239244D01*
X0120162Y0239143D01*
X0120236Y0239044D01*
X0120313Y0238947D01*
X0120394Y0238853D01*
X0120477Y0238762D01*
X0120563Y0238673D01*
X0120652Y0238587D01*
X0120743Y0238504D01*
X0120837Y0238423D01*
X0120934Y0238346D01*
X0121033Y0238272D01*
X0121134Y0238201D01*
X0121237Y0238133D01*
X0121343Y0238068D01*
X0121450Y0238007D01*
X0121560Y0237949D01*
X0121671Y0237895D01*
X0121783Y0237844D01*
X0121898Y0237796D01*
X0122013Y0237753D01*
X0122130Y0237713D01*
X0122249Y0237676D01*
X0122368Y0237644D01*
X0122488Y0237615D01*
X0122609Y0237590D01*
X0122731Y0237568D01*
X0122854Y0237551D01*
X0122976Y0237537D01*
X0123100Y0237528D01*
X0123223Y0237522D01*
X0123347Y0237520D01*
X0123471Y0237522D01*
X0123594Y0237528D01*
X0123718Y0237537D01*
X0123840Y0237551D01*
X0123963Y0237568D01*
X0124085Y0237590D01*
X0124206Y0237615D01*
X0124326Y0237644D01*
X0124445Y0237676D01*
X0124564Y0237713D01*
X0124681Y0237753D01*
X0124796Y0237796D01*
X0124911Y0237844D01*
X0125023Y0237895D01*
X0125134Y0237949D01*
X0125244Y0238007D01*
X0125351Y0238068D01*
X0125457Y0238133D01*
X0125560Y0238201D01*
X0125661Y0238272D01*
X0125760Y0238346D01*
X0125857Y0238423D01*
X0125951Y0238504D01*
X0126042Y0238587D01*
X0126131Y0238673D01*
X0126217Y0238762D01*
X0126300Y0238853D01*
X0126381Y0238947D01*
X0126458Y0239044D01*
X0126532Y0239143D01*
X0126603Y0239244D01*
X0126671Y0239347D01*
X0126736Y0239453D01*
X0126797Y0239560D01*
X0126855Y0239670D01*
X0126909Y0239781D01*
X0126960Y0239893D01*
X0127008Y0240008D01*
X0127051Y0240123D01*
X0127091Y0240240D01*
X0127128Y0240359D01*
X0127160Y0240478D01*
X0127189Y0240598D01*
X0127214Y0240719D01*
X0127236Y0240841D01*
X0127253Y0240964D01*
X0127267Y0241086D01*
X0127276Y0241210D01*
X0127282Y0241333D01*
X0127284Y0241457D01*
X0127284Y0257206D01*
X0127282Y0257330D01*
X0127276Y0257453D01*
X0127267Y0257577D01*
X0127253Y0257699D01*
X0127236Y0257822D01*
X0127214Y0257944D01*
X0127189Y0258065D01*
X0127160Y0258185D01*
X0127128Y0258304D01*
X0127091Y0258423D01*
X0127051Y0258540D01*
X0127008Y0258655D01*
X0126960Y0258770D01*
X0126909Y0258882D01*
X0126855Y0258993D01*
X0126797Y0259103D01*
X0126736Y0259210D01*
X0126671Y0259316D01*
X0126603Y0259419D01*
X0126532Y0259520D01*
X0126458Y0259619D01*
X0126381Y0259716D01*
X0126300Y0259810D01*
X0126217Y0259901D01*
X0126131Y0259990D01*
X0126042Y0260076D01*
X0125951Y0260159D01*
X0125857Y0260240D01*
X0125760Y0260317D01*
X0125661Y0260391D01*
X0125560Y0260462D01*
X0125457Y0260530D01*
X0125351Y0260595D01*
X0125244Y0260656D01*
X0125134Y0260714D01*
X0125023Y0260768D01*
X0124911Y0260819D01*
X0124796Y0260867D01*
X0124681Y0260910D01*
X0124564Y0260950D01*
X0124445Y0260987D01*
X0124326Y0261019D01*
X0124206Y0261048D01*
X0124085Y0261073D01*
X0123963Y0261095D01*
X0123840Y0261112D01*
X0123718Y0261126D01*
X0123594Y0261135D01*
X0123471Y0261141D01*
X0123347Y0261143D01*
X0123223Y0261141D01*
X0123100Y0261135D01*
X0122976Y0261126D01*
X0122854Y0261112D01*
X0122731Y0261095D01*
X0122609Y0261073D01*
X0122488Y0261048D01*
X0122368Y0261019D01*
X0122249Y0260987D01*
X0122130Y0260950D01*
X0122013Y0260910D01*
X0121898Y0260867D01*
X0121783Y0260819D01*
X0121671Y0260768D01*
X0121560Y0260714D01*
X0121450Y0260656D01*
X0121343Y0260595D01*
X0121237Y0260530D01*
X0121134Y0260462D01*
X0121033Y0260391D01*
X0120934Y0260317D01*
X0120837Y0260240D01*
X0120743Y0260159D01*
X0120652Y0260076D01*
X0120563Y0259990D01*
X0120477Y0259901D01*
X0120394Y0259810D01*
X0120313Y0259716D01*
X0120236Y0259619D01*
X0120162Y0259520D01*
X0120091Y0259419D01*
X0120023Y0259316D01*
X0119958Y0259210D01*
X0119897Y0259103D01*
X0119839Y0258993D01*
X0119785Y0258882D01*
X0119734Y0258770D01*
X0119686Y0258655D01*
X0119643Y0258540D01*
X0119603Y0258423D01*
X0119566Y0258304D01*
X0119534Y0258185D01*
X0119505Y0258065D01*
X0119480Y0257944D01*
X0119458Y0257822D01*
X0119441Y0257699D01*
X0119427Y0257577D01*
X0119418Y0257453D01*
X0119412Y0257330D01*
X0119410Y0257206D01*
X0112214Y0237594D02*
X0134480Y0237594D01*
X0134294Y0237096D02*
X0112400Y0237096D01*
X0112586Y0236597D02*
X0134108Y0236597D01*
X0133844Y0236099D02*
X0112850Y0236099D01*
X0113123Y0235600D02*
X0133572Y0235600D01*
X0133300Y0235102D02*
X0113395Y0235102D01*
X0113762Y0234603D02*
X0132932Y0234603D01*
X0132559Y0234105D02*
X0114135Y0234105D01*
X0114538Y0233606D02*
X0132157Y0233606D01*
X0131658Y0233108D02*
X0115036Y0233108D01*
X0115535Y0232609D02*
X0131160Y0232609D01*
X0130520Y0232111D02*
X0116174Y0232111D01*
X0116840Y0231612D02*
X0129854Y0231612D01*
X0128986Y0231114D02*
X0117708Y0231114D01*
X0118705Y0230615D02*
X0127989Y0230615D01*
X0126637Y0230117D02*
X0120057Y0230117D01*
X0115473Y0202875D02*
X0115342Y0202873D01*
X0115212Y0202867D01*
X0115081Y0202857D01*
X0114951Y0202843D01*
X0114821Y0202826D01*
X0114692Y0202804D01*
X0114564Y0202779D01*
X0114437Y0202749D01*
X0114310Y0202716D01*
X0114185Y0202679D01*
X0114060Y0202638D01*
X0113937Y0202594D01*
X0113816Y0202545D01*
X0113696Y0202493D01*
X0113577Y0202438D01*
X0113460Y0202379D01*
X0113345Y0202316D01*
X0113232Y0202250D01*
X0113121Y0202181D01*
X0113013Y0202108D01*
X0112906Y0202032D01*
X0112802Y0201953D01*
X0112700Y0201871D01*
X0112601Y0201786D01*
X0112504Y0201698D01*
X0112411Y0201606D01*
X0112319Y0201513D01*
X0112231Y0201416D01*
X0112146Y0201317D01*
X0112064Y0201215D01*
X0111985Y0201111D01*
X0111909Y0201004D01*
X0111836Y0200896D01*
X0111767Y0200785D01*
X0111701Y0200672D01*
X0111638Y0200557D01*
X0111579Y0200440D01*
X0111524Y0200321D01*
X0111472Y0200201D01*
X0111423Y0200080D01*
X0111379Y0199957D01*
X0111338Y0199832D01*
X0111301Y0199707D01*
X0111268Y0199580D01*
X0111238Y0199453D01*
X0111213Y0199325D01*
X0111191Y0199196D01*
X0111174Y0199066D01*
X0111160Y0198936D01*
X0111150Y0198805D01*
X0111144Y0198675D01*
X0111142Y0198544D01*
X0111144Y0198413D01*
X0111150Y0198283D01*
X0111160Y0198152D01*
X0111174Y0198022D01*
X0111191Y0197892D01*
X0111213Y0197763D01*
X0111238Y0197635D01*
X0111268Y0197508D01*
X0111301Y0197381D01*
X0111338Y0197256D01*
X0111379Y0197131D01*
X0111423Y0197008D01*
X0111472Y0196887D01*
X0111524Y0196767D01*
X0111579Y0196648D01*
X0111638Y0196531D01*
X0111701Y0196416D01*
X0111767Y0196303D01*
X0111836Y0196192D01*
X0111909Y0196084D01*
X0111985Y0195977D01*
X0112064Y0195873D01*
X0112146Y0195771D01*
X0112231Y0195672D01*
X0112319Y0195575D01*
X0112411Y0195482D01*
X0112504Y0195390D01*
X0112601Y0195302D01*
X0112700Y0195217D01*
X0112802Y0195135D01*
X0112906Y0195056D01*
X0113013Y0194980D01*
X0113121Y0194907D01*
X0113232Y0194838D01*
X0113345Y0194772D01*
X0113460Y0194709D01*
X0113577Y0194650D01*
X0113696Y0194595D01*
X0113816Y0194543D01*
X0113937Y0194494D01*
X0114060Y0194450D01*
X0114185Y0194409D01*
X0114310Y0194372D01*
X0114437Y0194339D01*
X0114564Y0194309D01*
X0114692Y0194284D01*
X0114821Y0194262D01*
X0114951Y0194245D01*
X0115081Y0194231D01*
X0115212Y0194221D01*
X0115342Y0194215D01*
X0115473Y0194213D01*
X0159272Y0117597D02*
X0158451Y0116958D01*
X0157746Y0116193D01*
X0157177Y0115322D01*
X0156759Y0114369D01*
X0156504Y0113360D01*
X0156418Y0112324D01*
X0156418Y0099725D01*
X0156504Y0098688D01*
X0156759Y0097680D01*
X0157177Y0096727D01*
X0157746Y0095856D01*
X0158451Y0095091D01*
X0159272Y0094452D01*
X0160187Y0093957D01*
X0161171Y0093619D01*
X0162197Y0093448D01*
X0163238Y0093448D01*
X0164264Y0093619D01*
X0165248Y0093957D01*
X0166163Y0094452D01*
X0166984Y0095091D01*
X0167688Y0095856D01*
X0168257Y0096727D01*
X0168675Y0097680D01*
X0168931Y0098688D01*
X0169017Y0099725D01*
X0169017Y0112324D01*
X0168931Y0113360D01*
X0168675Y0114369D01*
X0168257Y0115322D01*
X0167688Y0116193D01*
X0166984Y0116958D01*
X0166163Y0117597D01*
X0165248Y0118092D01*
X0164264Y0118430D01*
X0163238Y0118601D01*
X0162197Y0118601D01*
X0161171Y0118430D01*
X0160187Y0118092D01*
X0159272Y0117597D01*
X0159087Y0117453D02*
X0166348Y0117453D01*
X0166987Y0116955D02*
X0158448Y0116955D01*
X0157989Y0116456D02*
X0167446Y0116456D01*
X0167842Y0115958D02*
X0157593Y0115958D01*
X0157267Y0115459D02*
X0168168Y0115459D01*
X0168416Y0114961D02*
X0157019Y0114961D01*
X0156800Y0114462D02*
X0168634Y0114462D01*
X0168778Y0113964D02*
X0156657Y0113964D01*
X0156531Y0113465D02*
X0168904Y0113465D01*
X0168963Y0112967D02*
X0156471Y0112967D01*
X0156430Y0112468D02*
X0169005Y0112468D01*
X0169017Y0111970D02*
X0156418Y0111970D01*
X0156418Y0111471D02*
X0169017Y0111471D01*
X0169017Y0110972D02*
X0156418Y0110972D01*
X0156418Y0110474D02*
X0169017Y0110474D01*
X0169017Y0109975D02*
X0156418Y0109975D01*
X0156418Y0109477D02*
X0169017Y0109477D01*
X0169017Y0108978D02*
X0156418Y0108978D01*
X0156418Y0108480D02*
X0169017Y0108480D01*
X0169017Y0107981D02*
X0156418Y0107981D01*
X0156418Y0107483D02*
X0169017Y0107483D01*
X0169017Y0106984D02*
X0156418Y0106984D01*
X0156418Y0106486D02*
X0169017Y0106486D01*
X0169017Y0105987D02*
X0156418Y0105987D01*
X0156418Y0105489D02*
X0169017Y0105489D01*
X0169017Y0104990D02*
X0156418Y0104990D01*
X0156418Y0104492D02*
X0169017Y0104492D01*
X0169017Y0103993D02*
X0156418Y0103993D01*
X0156418Y0103495D02*
X0169017Y0103495D01*
X0169017Y0102996D02*
X0156418Y0102996D01*
X0156418Y0102498D02*
X0169017Y0102498D01*
X0169017Y0101999D02*
X0156418Y0101999D01*
X0156418Y0101501D02*
X0169017Y0101501D01*
X0169017Y0101002D02*
X0156418Y0101002D01*
X0156418Y0100504D02*
X0169017Y0100504D01*
X0169017Y0100005D02*
X0156418Y0100005D01*
X0156436Y0099507D02*
X0168998Y0099507D01*
X0168957Y0099008D02*
X0156478Y0099008D01*
X0156549Y0098510D02*
X0168885Y0098510D01*
X0168759Y0098011D02*
X0156676Y0098011D01*
X0156833Y0097513D02*
X0168602Y0097513D01*
X0168383Y0097014D02*
X0157051Y0097014D01*
X0157315Y0096516D02*
X0168119Y0096516D01*
X0167793Y0096017D02*
X0157641Y0096017D01*
X0158057Y0095519D02*
X0167378Y0095519D01*
X0166893Y0095020D02*
X0158542Y0095020D01*
X0159182Y0094522D02*
X0166252Y0094522D01*
X0165371Y0094023D02*
X0160064Y0094023D01*
X0161735Y0093525D02*
X0163699Y0093525D01*
X0165867Y0099725D02*
X0165865Y0099614D01*
X0165859Y0099503D01*
X0165849Y0099392D01*
X0165836Y0099282D01*
X0165818Y0099172D01*
X0165797Y0099063D01*
X0165771Y0098955D01*
X0165742Y0098847D01*
X0165709Y0098741D01*
X0165673Y0098636D01*
X0165633Y0098532D01*
X0165589Y0098430D01*
X0165541Y0098330D01*
X0165490Y0098231D01*
X0165436Y0098134D01*
X0165378Y0098039D01*
X0165317Y0097946D01*
X0165252Y0097856D01*
X0165185Y0097767D01*
X0165114Y0097681D01*
X0165040Y0097598D01*
X0164964Y0097517D01*
X0164885Y0097439D01*
X0164803Y0097364D01*
X0164718Y0097292D01*
X0164631Y0097223D01*
X0164541Y0097157D01*
X0164450Y0097094D01*
X0164356Y0097035D01*
X0164260Y0096979D01*
X0164162Y0096926D01*
X0164062Y0096877D01*
X0163961Y0096831D01*
X0163858Y0096789D01*
X0163754Y0096750D01*
X0163648Y0096716D01*
X0163541Y0096685D01*
X0163433Y0096658D01*
X0163325Y0096634D01*
X0163215Y0096615D01*
X0163105Y0096599D01*
X0162995Y0096587D01*
X0162884Y0096579D01*
X0162773Y0096575D01*
X0162661Y0096575D01*
X0162550Y0096579D01*
X0162439Y0096587D01*
X0162329Y0096599D01*
X0162219Y0096615D01*
X0162109Y0096634D01*
X0162001Y0096658D01*
X0161893Y0096685D01*
X0161786Y0096716D01*
X0161680Y0096750D01*
X0161576Y0096789D01*
X0161473Y0096831D01*
X0161372Y0096877D01*
X0161272Y0096926D01*
X0161174Y0096979D01*
X0161078Y0097035D01*
X0160984Y0097094D01*
X0160893Y0097157D01*
X0160803Y0097223D01*
X0160716Y0097292D01*
X0160631Y0097364D01*
X0160549Y0097439D01*
X0160470Y0097517D01*
X0160394Y0097598D01*
X0160320Y0097681D01*
X0160249Y0097767D01*
X0160182Y0097856D01*
X0160117Y0097946D01*
X0160056Y0098039D01*
X0159998Y0098134D01*
X0159944Y0098231D01*
X0159893Y0098330D01*
X0159845Y0098430D01*
X0159801Y0098532D01*
X0159761Y0098636D01*
X0159725Y0098741D01*
X0159692Y0098847D01*
X0159663Y0098955D01*
X0159637Y0099063D01*
X0159616Y0099172D01*
X0159598Y0099282D01*
X0159585Y0099392D01*
X0159575Y0099503D01*
X0159569Y0099614D01*
X0159567Y0099725D01*
X0159568Y0099725D02*
X0159568Y0112324D01*
X0159567Y0112324D02*
X0159569Y0112435D01*
X0159575Y0112546D01*
X0159585Y0112657D01*
X0159598Y0112767D01*
X0159616Y0112877D01*
X0159637Y0112986D01*
X0159663Y0113094D01*
X0159692Y0113202D01*
X0159725Y0113308D01*
X0159761Y0113413D01*
X0159801Y0113517D01*
X0159845Y0113619D01*
X0159893Y0113719D01*
X0159944Y0113818D01*
X0159998Y0113915D01*
X0160056Y0114010D01*
X0160117Y0114103D01*
X0160182Y0114193D01*
X0160249Y0114282D01*
X0160320Y0114368D01*
X0160394Y0114451D01*
X0160470Y0114532D01*
X0160549Y0114610D01*
X0160631Y0114685D01*
X0160716Y0114757D01*
X0160803Y0114826D01*
X0160893Y0114892D01*
X0160984Y0114955D01*
X0161078Y0115014D01*
X0161174Y0115070D01*
X0161272Y0115123D01*
X0161372Y0115172D01*
X0161473Y0115218D01*
X0161576Y0115260D01*
X0161680Y0115299D01*
X0161786Y0115333D01*
X0161893Y0115364D01*
X0162001Y0115391D01*
X0162109Y0115415D01*
X0162219Y0115434D01*
X0162329Y0115450D01*
X0162439Y0115462D01*
X0162550Y0115470D01*
X0162661Y0115474D01*
X0162773Y0115474D01*
X0162884Y0115470D01*
X0162995Y0115462D01*
X0163105Y0115450D01*
X0163215Y0115434D01*
X0163325Y0115415D01*
X0163433Y0115391D01*
X0163541Y0115364D01*
X0163648Y0115333D01*
X0163754Y0115299D01*
X0163858Y0115260D01*
X0163961Y0115218D01*
X0164062Y0115172D01*
X0164162Y0115123D01*
X0164260Y0115070D01*
X0164356Y0115014D01*
X0164450Y0114955D01*
X0164541Y0114892D01*
X0164631Y0114826D01*
X0164718Y0114757D01*
X0164803Y0114685D01*
X0164885Y0114610D01*
X0164964Y0114532D01*
X0165040Y0114451D01*
X0165114Y0114368D01*
X0165185Y0114282D01*
X0165252Y0114193D01*
X0165317Y0114103D01*
X0165378Y0114010D01*
X0165436Y0113915D01*
X0165490Y0113818D01*
X0165541Y0113719D01*
X0165589Y0113619D01*
X0165633Y0113517D01*
X0165673Y0113413D01*
X0165709Y0113308D01*
X0165742Y0113202D01*
X0165771Y0113094D01*
X0165797Y0112986D01*
X0165818Y0112877D01*
X0165836Y0112767D01*
X0165849Y0112657D01*
X0165859Y0112546D01*
X0165865Y0112435D01*
X0165867Y0112324D01*
X0165867Y0099725D01*
X0165508Y0117952D02*
X0159927Y0117952D01*
X0161291Y0118450D02*
X0164143Y0118450D01*
X0043032Y0112324D02*
X0043032Y0099725D01*
X0042946Y0098688D01*
X0042691Y0097680D01*
X0042273Y0096727D01*
X0041704Y0095856D01*
X0040999Y0095091D01*
X0040178Y0094452D01*
X0039263Y0093957D01*
X0038279Y0093619D01*
X0037253Y0093448D01*
X0036213Y0093448D01*
X0035187Y0093619D01*
X0034203Y0093957D01*
X0033288Y0094452D01*
X0032467Y0095091D01*
X0031762Y0095856D01*
X0031193Y0096727D01*
X0030775Y0097680D01*
X0030520Y0098688D01*
X0030434Y0099725D01*
X0030434Y0112324D01*
X0030520Y0113360D01*
X0030775Y0114369D01*
X0031193Y0115322D01*
X0031762Y0116193D01*
X0032467Y0116958D01*
X0033288Y0117597D01*
X0034203Y0118092D01*
X0035187Y0118430D01*
X0036213Y0118601D01*
X0037253Y0118601D01*
X0038279Y0118430D01*
X0039263Y0118092D01*
X0040178Y0117597D01*
X0040999Y0116958D01*
X0041704Y0116193D01*
X0042273Y0115322D01*
X0042691Y0114369D01*
X0042946Y0113360D01*
X0043032Y0112324D01*
X0043020Y0112468D02*
X0030446Y0112468D01*
X0030434Y0111970D02*
X0043032Y0111970D01*
X0043032Y0111471D02*
X0030434Y0111471D01*
X0030434Y0110972D02*
X0043032Y0110972D01*
X0043032Y0110474D02*
X0030434Y0110474D01*
X0030434Y0109975D02*
X0043032Y0109975D01*
X0043032Y0109477D02*
X0030434Y0109477D01*
X0030434Y0108978D02*
X0043032Y0108978D01*
X0043032Y0108480D02*
X0030434Y0108480D01*
X0030434Y0107981D02*
X0043032Y0107981D01*
X0043032Y0107483D02*
X0030434Y0107483D01*
X0030434Y0106984D02*
X0043032Y0106984D01*
X0043032Y0106486D02*
X0030434Y0106486D01*
X0030434Y0105987D02*
X0043032Y0105987D01*
X0043032Y0105489D02*
X0030434Y0105489D01*
X0030434Y0104990D02*
X0043032Y0104990D01*
X0043032Y0104492D02*
X0030434Y0104492D01*
X0030434Y0103993D02*
X0043032Y0103993D01*
X0043032Y0103495D02*
X0030434Y0103495D01*
X0030434Y0102996D02*
X0043032Y0102996D01*
X0043032Y0102498D02*
X0030434Y0102498D01*
X0030434Y0101999D02*
X0043032Y0101999D01*
X0043032Y0101501D02*
X0030434Y0101501D01*
X0030434Y0101002D02*
X0043032Y0101002D01*
X0043032Y0100504D02*
X0030434Y0100504D01*
X0030434Y0100005D02*
X0043032Y0100005D01*
X0043014Y0099507D02*
X0030452Y0099507D01*
X0030493Y0099008D02*
X0042973Y0099008D01*
X0042901Y0098510D02*
X0030565Y0098510D01*
X0030691Y0098011D02*
X0042775Y0098011D01*
X0042618Y0097513D02*
X0030848Y0097513D01*
X0031067Y0097014D02*
X0042399Y0097014D01*
X0042135Y0096516D02*
X0031331Y0096516D01*
X0031657Y0096017D02*
X0041809Y0096017D01*
X0041393Y0095519D02*
X0032073Y0095519D01*
X0032557Y0095020D02*
X0040909Y0095020D01*
X0040268Y0094522D02*
X0033198Y0094522D01*
X0034080Y0094023D02*
X0039386Y0094023D01*
X0037715Y0093525D02*
X0035751Y0093525D01*
X0033583Y0099725D02*
X0033585Y0099614D01*
X0033591Y0099503D01*
X0033601Y0099392D01*
X0033614Y0099282D01*
X0033632Y0099172D01*
X0033653Y0099063D01*
X0033679Y0098955D01*
X0033708Y0098847D01*
X0033741Y0098741D01*
X0033777Y0098636D01*
X0033817Y0098532D01*
X0033861Y0098430D01*
X0033909Y0098330D01*
X0033960Y0098231D01*
X0034014Y0098134D01*
X0034072Y0098039D01*
X0034133Y0097946D01*
X0034198Y0097856D01*
X0034265Y0097767D01*
X0034336Y0097681D01*
X0034410Y0097598D01*
X0034486Y0097517D01*
X0034565Y0097439D01*
X0034647Y0097364D01*
X0034732Y0097292D01*
X0034819Y0097223D01*
X0034909Y0097157D01*
X0035000Y0097094D01*
X0035094Y0097035D01*
X0035190Y0096979D01*
X0035288Y0096926D01*
X0035388Y0096877D01*
X0035489Y0096831D01*
X0035592Y0096789D01*
X0035696Y0096750D01*
X0035802Y0096716D01*
X0035909Y0096685D01*
X0036017Y0096658D01*
X0036125Y0096634D01*
X0036235Y0096615D01*
X0036345Y0096599D01*
X0036455Y0096587D01*
X0036566Y0096579D01*
X0036677Y0096575D01*
X0036789Y0096575D01*
X0036900Y0096579D01*
X0037011Y0096587D01*
X0037121Y0096599D01*
X0037231Y0096615D01*
X0037341Y0096634D01*
X0037449Y0096658D01*
X0037557Y0096685D01*
X0037664Y0096716D01*
X0037770Y0096750D01*
X0037874Y0096789D01*
X0037977Y0096831D01*
X0038078Y0096877D01*
X0038178Y0096926D01*
X0038276Y0096979D01*
X0038372Y0097035D01*
X0038466Y0097094D01*
X0038557Y0097157D01*
X0038647Y0097223D01*
X0038734Y0097292D01*
X0038819Y0097364D01*
X0038901Y0097439D01*
X0038980Y0097517D01*
X0039056Y0097598D01*
X0039130Y0097681D01*
X0039201Y0097767D01*
X0039268Y0097856D01*
X0039333Y0097946D01*
X0039394Y0098039D01*
X0039452Y0098134D01*
X0039506Y0098231D01*
X0039557Y0098330D01*
X0039605Y0098430D01*
X0039649Y0098532D01*
X0039689Y0098636D01*
X0039725Y0098741D01*
X0039758Y0098847D01*
X0039787Y0098955D01*
X0039813Y0099063D01*
X0039834Y0099172D01*
X0039852Y0099282D01*
X0039865Y0099392D01*
X0039875Y0099503D01*
X0039881Y0099614D01*
X0039883Y0099725D01*
X0039883Y0112324D01*
X0039881Y0112435D01*
X0039875Y0112546D01*
X0039865Y0112657D01*
X0039852Y0112767D01*
X0039834Y0112877D01*
X0039813Y0112986D01*
X0039787Y0113094D01*
X0039758Y0113202D01*
X0039725Y0113308D01*
X0039689Y0113413D01*
X0039649Y0113517D01*
X0039605Y0113619D01*
X0039557Y0113719D01*
X0039506Y0113818D01*
X0039452Y0113915D01*
X0039394Y0114010D01*
X0039333Y0114103D01*
X0039268Y0114193D01*
X0039201Y0114282D01*
X0039130Y0114368D01*
X0039056Y0114451D01*
X0038980Y0114532D01*
X0038901Y0114610D01*
X0038819Y0114685D01*
X0038734Y0114757D01*
X0038647Y0114826D01*
X0038557Y0114892D01*
X0038466Y0114955D01*
X0038372Y0115014D01*
X0038276Y0115070D01*
X0038178Y0115123D01*
X0038078Y0115172D01*
X0037977Y0115218D01*
X0037874Y0115260D01*
X0037770Y0115299D01*
X0037664Y0115333D01*
X0037557Y0115364D01*
X0037449Y0115391D01*
X0037341Y0115415D01*
X0037231Y0115434D01*
X0037121Y0115450D01*
X0037011Y0115462D01*
X0036900Y0115470D01*
X0036789Y0115474D01*
X0036677Y0115474D01*
X0036566Y0115470D01*
X0036455Y0115462D01*
X0036345Y0115450D01*
X0036235Y0115434D01*
X0036125Y0115415D01*
X0036017Y0115391D01*
X0035909Y0115364D01*
X0035802Y0115333D01*
X0035696Y0115299D01*
X0035592Y0115260D01*
X0035489Y0115218D01*
X0035388Y0115172D01*
X0035288Y0115123D01*
X0035190Y0115070D01*
X0035094Y0115014D01*
X0035000Y0114955D01*
X0034909Y0114892D01*
X0034819Y0114826D01*
X0034732Y0114757D01*
X0034647Y0114685D01*
X0034565Y0114610D01*
X0034486Y0114532D01*
X0034410Y0114451D01*
X0034336Y0114368D01*
X0034265Y0114282D01*
X0034198Y0114193D01*
X0034133Y0114103D01*
X0034072Y0114010D01*
X0034014Y0113915D01*
X0033960Y0113818D01*
X0033909Y0113719D01*
X0033861Y0113619D01*
X0033817Y0113517D01*
X0033777Y0113413D01*
X0033741Y0113308D01*
X0033708Y0113202D01*
X0033679Y0113094D01*
X0033653Y0112986D01*
X0033632Y0112877D01*
X0033614Y0112767D01*
X0033601Y0112657D01*
X0033591Y0112546D01*
X0033585Y0112435D01*
X0033583Y0112324D01*
X0033583Y0099725D01*
X0030487Y0112967D02*
X0042979Y0112967D01*
X0042920Y0113465D02*
X0030546Y0113465D01*
X0030673Y0113964D02*
X0042794Y0113964D01*
X0042650Y0114462D02*
X0030816Y0114462D01*
X0031035Y0114961D02*
X0042431Y0114961D01*
X0042183Y0115459D02*
X0031283Y0115459D01*
X0031609Y0115958D02*
X0041858Y0115958D01*
X0041462Y0116456D02*
X0032005Y0116456D01*
X0032464Y0116955D02*
X0041003Y0116955D01*
X0040363Y0117453D02*
X0033103Y0117453D01*
X0033943Y0117952D02*
X0039523Y0117952D01*
X0038159Y0118450D02*
X0035307Y0118450D01*
X0400906Y0107599D02*
X0401027Y0109280D01*
X0401385Y0110927D01*
X0401974Y0112506D01*
X0402781Y0113985D01*
X0403791Y0115334D01*
X0404983Y0116525D01*
X0406332Y0117535D01*
X0407811Y0118343D01*
X0409390Y0118932D01*
X0411036Y0119290D01*
X0412717Y0119410D01*
X0436339Y0119410D01*
X0436777Y0119361D01*
X0437193Y0119215D01*
X0437567Y0118981D01*
X0437878Y0118669D01*
X0438113Y0118296D01*
X0438259Y0117880D01*
X0438308Y0117442D01*
X0438308Y0097757D01*
X0438259Y0097319D01*
X0438113Y0096903D01*
X0437878Y0096529D01*
X0437567Y0096218D01*
X0437193Y0095983D01*
X0436777Y0095838D01*
X0436339Y0095788D01*
X0412717Y0095788D01*
X0411036Y0095908D01*
X0409390Y0096267D01*
X0407811Y0096856D01*
X0406332Y0097663D01*
X0404983Y0098673D01*
X0403791Y0099865D01*
X0402781Y0101214D01*
X0401974Y0102693D01*
X0401385Y0104272D01*
X0401027Y0105918D01*
X0400906Y0107599D01*
X0400915Y0107483D02*
X0438308Y0107483D01*
X0438308Y0107981D02*
X0400934Y0107981D01*
X0400969Y0108480D02*
X0438308Y0108480D01*
X0438308Y0108978D02*
X0401005Y0108978D01*
X0401069Y0109477D02*
X0438308Y0109477D01*
X0438308Y0109975D02*
X0401178Y0109975D01*
X0401286Y0110474D02*
X0438308Y0110474D01*
X0438308Y0110972D02*
X0401402Y0110972D01*
X0401588Y0111471D02*
X0438308Y0111471D01*
X0438308Y0111970D02*
X0401774Y0111970D01*
X0401960Y0112468D02*
X0438308Y0112468D01*
X0438308Y0112967D02*
X0402225Y0112967D01*
X0402497Y0113465D02*
X0438308Y0113465D01*
X0438308Y0113964D02*
X0402770Y0113964D01*
X0403139Y0114462D02*
X0438308Y0114462D01*
X0438308Y0114961D02*
X0403512Y0114961D01*
X0403916Y0115459D02*
X0438308Y0115459D01*
X0438308Y0115958D02*
X0404415Y0115958D01*
X0404913Y0116456D02*
X0438308Y0116456D01*
X0438308Y0116955D02*
X0405556Y0116955D01*
X0406222Y0117453D02*
X0438307Y0117453D01*
X0438233Y0117952D02*
X0407094Y0117952D01*
X0408098Y0118450D02*
X0438016Y0118450D01*
X0437599Y0118949D02*
X0409467Y0118949D01*
X0412717Y0111536D02*
X0428465Y0111536D01*
X0428589Y0111534D01*
X0428712Y0111528D01*
X0428836Y0111519D01*
X0428958Y0111505D01*
X0429081Y0111488D01*
X0429203Y0111466D01*
X0429324Y0111441D01*
X0429444Y0111412D01*
X0429563Y0111380D01*
X0429682Y0111343D01*
X0429799Y0111303D01*
X0429914Y0111260D01*
X0430029Y0111212D01*
X0430141Y0111161D01*
X0430252Y0111107D01*
X0430362Y0111049D01*
X0430469Y0110988D01*
X0430575Y0110923D01*
X0430678Y0110855D01*
X0430779Y0110784D01*
X0430878Y0110710D01*
X0430975Y0110633D01*
X0431069Y0110552D01*
X0431160Y0110469D01*
X0431249Y0110383D01*
X0431335Y0110294D01*
X0431418Y0110203D01*
X0431499Y0110109D01*
X0431576Y0110012D01*
X0431650Y0109913D01*
X0431721Y0109812D01*
X0431789Y0109709D01*
X0431854Y0109603D01*
X0431915Y0109496D01*
X0431973Y0109386D01*
X0432027Y0109275D01*
X0432078Y0109163D01*
X0432126Y0109048D01*
X0432169Y0108933D01*
X0432209Y0108816D01*
X0432246Y0108697D01*
X0432278Y0108578D01*
X0432307Y0108458D01*
X0432332Y0108337D01*
X0432354Y0108215D01*
X0432371Y0108092D01*
X0432385Y0107970D01*
X0432394Y0107846D01*
X0432400Y0107723D01*
X0432402Y0107599D01*
X0432400Y0107475D01*
X0432394Y0107352D01*
X0432385Y0107228D01*
X0432371Y0107106D01*
X0432354Y0106983D01*
X0432332Y0106861D01*
X0432307Y0106740D01*
X0432278Y0106620D01*
X0432246Y0106501D01*
X0432209Y0106382D01*
X0432169Y0106265D01*
X0432126Y0106150D01*
X0432078Y0106035D01*
X0432027Y0105923D01*
X0431973Y0105812D01*
X0431915Y0105702D01*
X0431854Y0105595D01*
X0431789Y0105489D01*
X0431721Y0105386D01*
X0431650Y0105285D01*
X0431576Y0105186D01*
X0431499Y0105089D01*
X0431418Y0104995D01*
X0431335Y0104904D01*
X0431249Y0104815D01*
X0431160Y0104729D01*
X0431069Y0104646D01*
X0430975Y0104565D01*
X0430878Y0104488D01*
X0430779Y0104414D01*
X0430678Y0104343D01*
X0430575Y0104275D01*
X0430469Y0104210D01*
X0430362Y0104149D01*
X0430252Y0104091D01*
X0430141Y0104037D01*
X0430029Y0103986D01*
X0429914Y0103938D01*
X0429799Y0103895D01*
X0429682Y0103855D01*
X0429563Y0103818D01*
X0429444Y0103786D01*
X0429324Y0103757D01*
X0429203Y0103732D01*
X0429081Y0103710D01*
X0428958Y0103693D01*
X0428836Y0103679D01*
X0428712Y0103670D01*
X0428589Y0103664D01*
X0428465Y0103662D01*
X0412717Y0103662D01*
X0412593Y0103664D01*
X0412470Y0103670D01*
X0412346Y0103679D01*
X0412224Y0103693D01*
X0412101Y0103710D01*
X0411979Y0103732D01*
X0411858Y0103757D01*
X0411738Y0103786D01*
X0411619Y0103818D01*
X0411500Y0103855D01*
X0411383Y0103895D01*
X0411268Y0103938D01*
X0411153Y0103986D01*
X0411041Y0104037D01*
X0410930Y0104091D01*
X0410820Y0104149D01*
X0410713Y0104210D01*
X0410607Y0104275D01*
X0410504Y0104343D01*
X0410403Y0104414D01*
X0410304Y0104488D01*
X0410207Y0104565D01*
X0410113Y0104646D01*
X0410022Y0104729D01*
X0409933Y0104815D01*
X0409847Y0104904D01*
X0409764Y0104995D01*
X0409683Y0105089D01*
X0409606Y0105186D01*
X0409532Y0105285D01*
X0409461Y0105386D01*
X0409393Y0105489D01*
X0409328Y0105595D01*
X0409267Y0105702D01*
X0409209Y0105812D01*
X0409155Y0105923D01*
X0409104Y0106035D01*
X0409056Y0106150D01*
X0409013Y0106265D01*
X0408973Y0106382D01*
X0408936Y0106501D01*
X0408904Y0106620D01*
X0408875Y0106740D01*
X0408850Y0106861D01*
X0408828Y0106983D01*
X0408811Y0107106D01*
X0408797Y0107228D01*
X0408788Y0107352D01*
X0408782Y0107475D01*
X0408780Y0107599D01*
X0408782Y0107723D01*
X0408788Y0107846D01*
X0408797Y0107970D01*
X0408811Y0108092D01*
X0408828Y0108215D01*
X0408850Y0108337D01*
X0408875Y0108458D01*
X0408904Y0108578D01*
X0408936Y0108697D01*
X0408973Y0108816D01*
X0409013Y0108933D01*
X0409056Y0109048D01*
X0409104Y0109163D01*
X0409155Y0109275D01*
X0409209Y0109386D01*
X0409267Y0109496D01*
X0409328Y0109603D01*
X0409393Y0109709D01*
X0409461Y0109812D01*
X0409532Y0109913D01*
X0409606Y0110012D01*
X0409683Y0110109D01*
X0409764Y0110203D01*
X0409847Y0110294D01*
X0409933Y0110383D01*
X0410022Y0110469D01*
X0410113Y0110552D01*
X0410207Y0110633D01*
X0410304Y0110710D01*
X0410403Y0110784D01*
X0410504Y0110855D01*
X0410607Y0110923D01*
X0410713Y0110988D01*
X0410820Y0111049D01*
X0410930Y0111107D01*
X0411041Y0111161D01*
X0411153Y0111212D01*
X0411268Y0111260D01*
X0411383Y0111303D01*
X0411500Y0111343D01*
X0411619Y0111380D01*
X0411738Y0111412D01*
X0411858Y0111441D01*
X0411979Y0111466D01*
X0412101Y0111488D01*
X0412224Y0111505D01*
X0412346Y0111519D01*
X0412470Y0111528D01*
X0412593Y0111534D01*
X0412717Y0111536D01*
X0400950Y0106984D02*
X0438308Y0106984D01*
X0438308Y0106486D02*
X0400986Y0106486D01*
X0401022Y0105987D02*
X0438308Y0105987D01*
X0438308Y0105489D02*
X0401120Y0105489D01*
X0401228Y0104990D02*
X0438308Y0104990D01*
X0438308Y0104492D02*
X0401337Y0104492D01*
X0401489Y0103993D02*
X0438308Y0103993D01*
X0438308Y0103495D02*
X0401674Y0103495D01*
X0401860Y0102996D02*
X0438308Y0102996D01*
X0438308Y0102498D02*
X0402080Y0102498D01*
X0402352Y0101999D02*
X0438308Y0101999D01*
X0438308Y0101501D02*
X0402625Y0101501D01*
X0402940Y0101002D02*
X0438308Y0101002D01*
X0438308Y0100504D02*
X0403313Y0100504D01*
X0403686Y0100005D02*
X0438308Y0100005D01*
X0438308Y0099507D02*
X0404149Y0099507D01*
X0404648Y0099008D02*
X0438308Y0099008D01*
X0438308Y0098510D02*
X0405201Y0098510D01*
X0405867Y0098011D02*
X0438308Y0098011D01*
X0438280Y0097513D02*
X0406607Y0097513D01*
X0407520Y0097014D02*
X0438152Y0097014D01*
X0437865Y0096516D02*
X0408722Y0096516D01*
X0410537Y0096017D02*
X0437248Y0096017D01*
X0442294Y0097319D02*
X0442245Y0097757D01*
X0442245Y0117442D01*
X0442294Y0117880D01*
X0442440Y0118296D01*
X0442674Y0118669D01*
X0442986Y0118981D01*
X0443359Y0119215D01*
X0443775Y0119361D01*
X0444213Y0119410D01*
X0467835Y0119410D01*
X0469516Y0119290D01*
X0471163Y0118932D01*
X0472742Y0118343D01*
X0474221Y0117535D01*
X0475570Y0116525D01*
X0476762Y0115334D01*
X0477771Y0113985D01*
X0478579Y0112506D01*
X0479168Y0110927D01*
X0479526Y0109280D01*
X0479646Y0107599D01*
X0479526Y0105918D01*
X0479168Y0104272D01*
X0478579Y0102693D01*
X0477771Y0101214D01*
X0476762Y0099865D01*
X0475570Y0098673D01*
X0474221Y0097663D01*
X0472742Y0096856D01*
X0471163Y0096267D01*
X0469516Y0095908D01*
X0467835Y0095788D01*
X0444213Y0095788D01*
X0443775Y0095838D01*
X0443359Y0095983D01*
X0442986Y0096218D01*
X0442674Y0096529D01*
X0442440Y0096903D01*
X0442294Y0097319D01*
X0442272Y0097513D02*
X0473945Y0097513D01*
X0474686Y0098011D02*
X0442245Y0098011D01*
X0442245Y0098510D02*
X0475352Y0098510D01*
X0475905Y0099008D02*
X0442245Y0099008D01*
X0442245Y0099507D02*
X0476404Y0099507D01*
X0476867Y0100005D02*
X0442245Y0100005D01*
X0442245Y0100504D02*
X0477240Y0100504D01*
X0477613Y0101002D02*
X0442245Y0101002D01*
X0442245Y0101501D02*
X0477928Y0101501D01*
X0478200Y0101999D02*
X0442245Y0101999D01*
X0442245Y0102498D02*
X0478473Y0102498D01*
X0478692Y0102996D02*
X0442245Y0102996D01*
X0442245Y0103495D02*
X0478878Y0103495D01*
X0479064Y0103993D02*
X0442245Y0103993D01*
X0442245Y0104492D02*
X0479216Y0104492D01*
X0479324Y0104990D02*
X0442245Y0104990D01*
X0442245Y0105489D02*
X0479433Y0105489D01*
X0479531Y0105987D02*
X0442245Y0105987D01*
X0442245Y0106486D02*
X0479567Y0106486D01*
X0479602Y0106984D02*
X0442245Y0106984D01*
X0442245Y0107483D02*
X0479638Y0107483D01*
X0479619Y0107981D02*
X0442245Y0107981D01*
X0442245Y0108480D02*
X0479583Y0108480D01*
X0479548Y0108978D02*
X0442245Y0108978D01*
X0442245Y0109477D02*
X0479483Y0109477D01*
X0479375Y0109975D02*
X0442245Y0109975D01*
X0442245Y0110474D02*
X0479267Y0110474D01*
X0479151Y0110972D02*
X0442245Y0110972D01*
X0442245Y0111471D02*
X0478965Y0111471D01*
X0478779Y0111970D02*
X0442245Y0111970D01*
X0442245Y0112468D02*
X0478593Y0112468D01*
X0478327Y0112967D02*
X0442245Y0112967D01*
X0442245Y0113465D02*
X0478055Y0113465D01*
X0477783Y0113964D02*
X0442245Y0113964D01*
X0442245Y0114462D02*
X0477414Y0114462D01*
X0477041Y0114961D02*
X0442245Y0114961D01*
X0442245Y0115459D02*
X0476636Y0115459D01*
X0476138Y0115958D02*
X0442245Y0115958D01*
X0442245Y0116456D02*
X0475639Y0116456D01*
X0474997Y0116955D02*
X0442245Y0116955D01*
X0442246Y0117453D02*
X0474331Y0117453D01*
X0473458Y0117952D02*
X0442319Y0117952D01*
X0442537Y0118450D02*
X0472454Y0118450D01*
X0471085Y0118949D02*
X0442954Y0118949D01*
X0452087Y0111536D02*
X0467835Y0111536D01*
X0467959Y0111534D01*
X0468082Y0111528D01*
X0468206Y0111519D01*
X0468328Y0111505D01*
X0468451Y0111488D01*
X0468573Y0111466D01*
X0468694Y0111441D01*
X0468814Y0111412D01*
X0468933Y0111380D01*
X0469052Y0111343D01*
X0469169Y0111303D01*
X0469284Y0111260D01*
X0469399Y0111212D01*
X0469511Y0111161D01*
X0469622Y0111107D01*
X0469732Y0111049D01*
X0469839Y0110988D01*
X0469945Y0110923D01*
X0470048Y0110855D01*
X0470149Y0110784D01*
X0470248Y0110710D01*
X0470345Y0110633D01*
X0470439Y0110552D01*
X0470530Y0110469D01*
X0470619Y0110383D01*
X0470705Y0110294D01*
X0470788Y0110203D01*
X0470869Y0110109D01*
X0470946Y0110012D01*
X0471020Y0109913D01*
X0471091Y0109812D01*
X0471159Y0109709D01*
X0471224Y0109603D01*
X0471285Y0109496D01*
X0471343Y0109386D01*
X0471397Y0109275D01*
X0471448Y0109163D01*
X0471496Y0109048D01*
X0471539Y0108933D01*
X0471579Y0108816D01*
X0471616Y0108697D01*
X0471648Y0108578D01*
X0471677Y0108458D01*
X0471702Y0108337D01*
X0471724Y0108215D01*
X0471741Y0108092D01*
X0471755Y0107970D01*
X0471764Y0107846D01*
X0471770Y0107723D01*
X0471772Y0107599D01*
X0471770Y0107475D01*
X0471764Y0107352D01*
X0471755Y0107228D01*
X0471741Y0107106D01*
X0471724Y0106983D01*
X0471702Y0106861D01*
X0471677Y0106740D01*
X0471648Y0106620D01*
X0471616Y0106501D01*
X0471579Y0106382D01*
X0471539Y0106265D01*
X0471496Y0106150D01*
X0471448Y0106035D01*
X0471397Y0105923D01*
X0471343Y0105812D01*
X0471285Y0105702D01*
X0471224Y0105595D01*
X0471159Y0105489D01*
X0471091Y0105386D01*
X0471020Y0105285D01*
X0470946Y0105186D01*
X0470869Y0105089D01*
X0470788Y0104995D01*
X0470705Y0104904D01*
X0470619Y0104815D01*
X0470530Y0104729D01*
X0470439Y0104646D01*
X0470345Y0104565D01*
X0470248Y0104488D01*
X0470149Y0104414D01*
X0470048Y0104343D01*
X0469945Y0104275D01*
X0469839Y0104210D01*
X0469732Y0104149D01*
X0469622Y0104091D01*
X0469511Y0104037D01*
X0469399Y0103986D01*
X0469284Y0103938D01*
X0469169Y0103895D01*
X0469052Y0103855D01*
X0468933Y0103818D01*
X0468814Y0103786D01*
X0468694Y0103757D01*
X0468573Y0103732D01*
X0468451Y0103710D01*
X0468328Y0103693D01*
X0468206Y0103679D01*
X0468082Y0103670D01*
X0467959Y0103664D01*
X0467835Y0103662D01*
X0452087Y0103662D01*
X0451963Y0103664D01*
X0451840Y0103670D01*
X0451716Y0103679D01*
X0451594Y0103693D01*
X0451471Y0103710D01*
X0451349Y0103732D01*
X0451228Y0103757D01*
X0451108Y0103786D01*
X0450989Y0103818D01*
X0450870Y0103855D01*
X0450753Y0103895D01*
X0450638Y0103938D01*
X0450523Y0103986D01*
X0450411Y0104037D01*
X0450300Y0104091D01*
X0450190Y0104149D01*
X0450083Y0104210D01*
X0449977Y0104275D01*
X0449874Y0104343D01*
X0449773Y0104414D01*
X0449674Y0104488D01*
X0449577Y0104565D01*
X0449483Y0104646D01*
X0449392Y0104729D01*
X0449303Y0104815D01*
X0449217Y0104904D01*
X0449134Y0104995D01*
X0449053Y0105089D01*
X0448976Y0105186D01*
X0448902Y0105285D01*
X0448831Y0105386D01*
X0448763Y0105489D01*
X0448698Y0105595D01*
X0448637Y0105702D01*
X0448579Y0105812D01*
X0448525Y0105923D01*
X0448474Y0106035D01*
X0448426Y0106150D01*
X0448383Y0106265D01*
X0448343Y0106382D01*
X0448306Y0106501D01*
X0448274Y0106620D01*
X0448245Y0106740D01*
X0448220Y0106861D01*
X0448198Y0106983D01*
X0448181Y0107106D01*
X0448167Y0107228D01*
X0448158Y0107352D01*
X0448152Y0107475D01*
X0448150Y0107599D01*
X0448152Y0107723D01*
X0448158Y0107846D01*
X0448167Y0107970D01*
X0448181Y0108092D01*
X0448198Y0108215D01*
X0448220Y0108337D01*
X0448245Y0108458D01*
X0448274Y0108578D01*
X0448306Y0108697D01*
X0448343Y0108816D01*
X0448383Y0108933D01*
X0448426Y0109048D01*
X0448474Y0109163D01*
X0448525Y0109275D01*
X0448579Y0109386D01*
X0448637Y0109496D01*
X0448698Y0109603D01*
X0448763Y0109709D01*
X0448831Y0109812D01*
X0448902Y0109913D01*
X0448976Y0110012D01*
X0449053Y0110109D01*
X0449134Y0110203D01*
X0449217Y0110294D01*
X0449303Y0110383D01*
X0449392Y0110469D01*
X0449483Y0110552D01*
X0449577Y0110633D01*
X0449674Y0110710D01*
X0449773Y0110784D01*
X0449874Y0110855D01*
X0449977Y0110923D01*
X0450083Y0110988D01*
X0450190Y0111049D01*
X0450300Y0111107D01*
X0450411Y0111161D01*
X0450523Y0111212D01*
X0450638Y0111260D01*
X0450753Y0111303D01*
X0450870Y0111343D01*
X0450989Y0111380D01*
X0451108Y0111412D01*
X0451228Y0111441D01*
X0451349Y0111466D01*
X0451471Y0111488D01*
X0451594Y0111505D01*
X0451716Y0111519D01*
X0451840Y0111528D01*
X0451963Y0111534D01*
X0452087Y0111536D01*
X0442401Y0097014D02*
X0473032Y0097014D01*
X0471831Y0096516D02*
X0442688Y0096516D01*
X0443305Y0096017D02*
X0470016Y0096017D01*
X0499476Y0227370D02*
X0500513Y0227284D01*
X0513111Y0227284D01*
X0514148Y0227370D01*
X0515156Y0227626D01*
X0516109Y0228043D01*
X0516980Y0228612D01*
X0517746Y0229317D01*
X0518385Y0230138D01*
X0518880Y0231053D01*
X0519217Y0232037D01*
X0519389Y0233063D01*
X0519389Y0234104D01*
X0519217Y0235130D01*
X0518880Y0236114D01*
X0518385Y0237029D01*
X0517746Y0237850D01*
X0516980Y0238554D01*
X0516109Y0239123D01*
X0515156Y0239541D01*
X0514148Y0239797D01*
X0513111Y0239883D01*
X0500513Y0239883D01*
X0499476Y0239797D01*
X0498467Y0239541D01*
X0497515Y0239123D01*
X0496644Y0238554D01*
X0495878Y0237850D01*
X0495239Y0237029D01*
X0494744Y0236114D01*
X0494406Y0235130D01*
X0494235Y0234104D01*
X0494235Y0233063D01*
X0494406Y0232037D01*
X0494744Y0231053D01*
X0495239Y0230138D01*
X0495878Y0229317D01*
X0496644Y0228612D01*
X0497515Y0228043D01*
X0498467Y0227626D01*
X0499476Y0227370D01*
X0498473Y0227624D02*
X0515151Y0227624D01*
X0516230Y0228123D02*
X0497393Y0228123D01*
X0496634Y0228621D02*
X0516989Y0228621D01*
X0517531Y0229120D02*
X0496093Y0229120D01*
X0495644Y0229618D02*
X0517980Y0229618D01*
X0518368Y0230117D02*
X0495256Y0230117D01*
X0494981Y0230615D02*
X0518643Y0230615D01*
X0518900Y0231114D02*
X0494723Y0231114D01*
X0494552Y0231612D02*
X0519072Y0231612D01*
X0519230Y0232111D02*
X0494394Y0232111D01*
X0494311Y0232609D02*
X0519313Y0232609D01*
X0519389Y0233108D02*
X0494235Y0233108D01*
X0494235Y0233606D02*
X0519389Y0233606D01*
X0519389Y0234105D02*
X0494235Y0234105D01*
X0494318Y0234603D02*
X0519305Y0234603D01*
X0519222Y0235102D02*
X0494401Y0235102D01*
X0494568Y0235600D02*
X0519056Y0235600D01*
X0518885Y0236099D02*
X0494739Y0236099D01*
X0495006Y0236597D02*
X0518618Y0236597D01*
X0518332Y0237096D02*
X0495291Y0237096D01*
X0495679Y0237594D02*
X0517944Y0237594D01*
X0517481Y0238093D02*
X0496142Y0238093D01*
X0496700Y0238591D02*
X0516924Y0238591D01*
X0516160Y0239090D02*
X0497463Y0239090D01*
X0498653Y0239588D02*
X0514971Y0239588D01*
X0513111Y0236733D02*
X0500513Y0236733D01*
X0500402Y0236731D01*
X0500291Y0236725D01*
X0500180Y0236715D01*
X0500070Y0236702D01*
X0499960Y0236684D01*
X0499851Y0236663D01*
X0499743Y0236637D01*
X0499635Y0236608D01*
X0499529Y0236575D01*
X0499424Y0236539D01*
X0499320Y0236499D01*
X0499218Y0236455D01*
X0499118Y0236407D01*
X0499019Y0236356D01*
X0498922Y0236302D01*
X0498827Y0236244D01*
X0498734Y0236183D01*
X0498644Y0236118D01*
X0498555Y0236051D01*
X0498469Y0235980D01*
X0498386Y0235906D01*
X0498305Y0235830D01*
X0498227Y0235751D01*
X0498152Y0235669D01*
X0498080Y0235584D01*
X0498011Y0235497D01*
X0497945Y0235407D01*
X0497882Y0235316D01*
X0497823Y0235222D01*
X0497767Y0235126D01*
X0497714Y0235028D01*
X0497665Y0234928D01*
X0497619Y0234827D01*
X0497577Y0234724D01*
X0497538Y0234620D01*
X0497504Y0234514D01*
X0497473Y0234407D01*
X0497446Y0234299D01*
X0497422Y0234191D01*
X0497403Y0234081D01*
X0497387Y0233971D01*
X0497375Y0233861D01*
X0497367Y0233750D01*
X0497363Y0233639D01*
X0497363Y0233527D01*
X0497367Y0233416D01*
X0497375Y0233305D01*
X0497387Y0233195D01*
X0497403Y0233085D01*
X0497422Y0232975D01*
X0497446Y0232867D01*
X0497473Y0232759D01*
X0497504Y0232652D01*
X0497538Y0232546D01*
X0497577Y0232442D01*
X0497619Y0232339D01*
X0497665Y0232238D01*
X0497714Y0232138D01*
X0497767Y0232040D01*
X0497823Y0231944D01*
X0497882Y0231850D01*
X0497945Y0231759D01*
X0498011Y0231669D01*
X0498080Y0231582D01*
X0498152Y0231497D01*
X0498227Y0231415D01*
X0498305Y0231336D01*
X0498386Y0231260D01*
X0498469Y0231186D01*
X0498555Y0231115D01*
X0498644Y0231048D01*
X0498734Y0230983D01*
X0498827Y0230922D01*
X0498922Y0230864D01*
X0499019Y0230810D01*
X0499118Y0230759D01*
X0499218Y0230711D01*
X0499320Y0230667D01*
X0499424Y0230627D01*
X0499529Y0230591D01*
X0499635Y0230558D01*
X0499743Y0230529D01*
X0499851Y0230503D01*
X0499960Y0230482D01*
X0500070Y0230464D01*
X0500180Y0230451D01*
X0500291Y0230441D01*
X0500402Y0230435D01*
X0500513Y0230433D01*
X0500513Y0230434D02*
X0513111Y0230434D01*
X0513111Y0230433D02*
X0513222Y0230435D01*
X0513333Y0230441D01*
X0513444Y0230451D01*
X0513554Y0230464D01*
X0513664Y0230482D01*
X0513773Y0230503D01*
X0513881Y0230529D01*
X0513989Y0230558D01*
X0514095Y0230591D01*
X0514200Y0230627D01*
X0514304Y0230667D01*
X0514406Y0230711D01*
X0514506Y0230759D01*
X0514605Y0230810D01*
X0514702Y0230864D01*
X0514797Y0230922D01*
X0514890Y0230983D01*
X0514980Y0231048D01*
X0515069Y0231115D01*
X0515155Y0231186D01*
X0515238Y0231260D01*
X0515319Y0231336D01*
X0515397Y0231415D01*
X0515472Y0231497D01*
X0515544Y0231582D01*
X0515613Y0231669D01*
X0515679Y0231759D01*
X0515742Y0231850D01*
X0515801Y0231944D01*
X0515857Y0232040D01*
X0515910Y0232138D01*
X0515959Y0232238D01*
X0516005Y0232339D01*
X0516047Y0232442D01*
X0516086Y0232546D01*
X0516120Y0232652D01*
X0516151Y0232759D01*
X0516178Y0232867D01*
X0516202Y0232975D01*
X0516221Y0233085D01*
X0516237Y0233195D01*
X0516249Y0233305D01*
X0516257Y0233416D01*
X0516261Y0233527D01*
X0516261Y0233639D01*
X0516257Y0233750D01*
X0516249Y0233861D01*
X0516237Y0233971D01*
X0516221Y0234081D01*
X0516202Y0234191D01*
X0516178Y0234299D01*
X0516151Y0234407D01*
X0516120Y0234514D01*
X0516086Y0234620D01*
X0516047Y0234724D01*
X0516005Y0234827D01*
X0515959Y0234928D01*
X0515910Y0235028D01*
X0515857Y0235126D01*
X0515801Y0235222D01*
X0515742Y0235316D01*
X0515679Y0235407D01*
X0515613Y0235497D01*
X0515544Y0235584D01*
X0515472Y0235669D01*
X0515397Y0235751D01*
X0515319Y0235830D01*
X0515238Y0235906D01*
X0515155Y0235980D01*
X0515069Y0236051D01*
X0514980Y0236118D01*
X0514890Y0236183D01*
X0514797Y0236244D01*
X0514702Y0236302D01*
X0514605Y0236356D01*
X0514506Y0236407D01*
X0514406Y0236455D01*
X0514304Y0236499D01*
X0514200Y0236539D01*
X0514095Y0236575D01*
X0513989Y0236608D01*
X0513881Y0236637D01*
X0513773Y0236663D01*
X0513664Y0236684D01*
X0513554Y0236702D01*
X0513444Y0236715D01*
X0513333Y0236725D01*
X0513222Y0236731D01*
X0513111Y0236733D01*
X0420985Y0236597D02*
X0407599Y0236597D01*
X0407599Y0236099D02*
X0420985Y0236099D01*
X0420985Y0235600D02*
X0407599Y0235600D01*
X0407599Y0235102D02*
X0420985Y0235102D01*
X0420985Y0234603D02*
X0407599Y0234603D01*
X0407599Y0234105D02*
X0420985Y0234105D01*
X0420985Y0233606D02*
X0407599Y0233606D01*
X0407599Y0233583D02*
X0407690Y0232482D01*
X0407962Y0231410D01*
X0408406Y0230398D01*
X0409010Y0229473D01*
X0409759Y0228659D01*
X0410631Y0227980D01*
X0411604Y0227454D01*
X0412649Y0227095D01*
X0413739Y0226913D01*
X0414845Y0226913D01*
X0415935Y0227095D01*
X0416981Y0227454D01*
X0417953Y0227980D01*
X0418825Y0228659D01*
X0419574Y0229473D01*
X0420178Y0230398D01*
X0420622Y0231410D01*
X0420894Y0232482D01*
X0420985Y0233583D01*
X0420985Y0280828D01*
X0420894Y0281929D01*
X0420622Y0283001D01*
X0420178Y0284013D01*
X0419574Y0284938D01*
X0418825Y0285752D01*
X0417953Y0286431D01*
X0416981Y0286957D01*
X0415935Y0287316D01*
X0414845Y0287498D01*
X0413739Y0287498D01*
X0412649Y0287316D01*
X0411604Y0286957D01*
X0410631Y0286431D01*
X0409759Y0285752D01*
X0409010Y0284938D01*
X0408406Y0284013D01*
X0407962Y0283001D01*
X0407690Y0281929D01*
X0407599Y0280828D01*
X0407599Y0233583D01*
X0407639Y0233108D02*
X0420946Y0233108D01*
X0420904Y0232609D02*
X0407680Y0232609D01*
X0407784Y0232111D02*
X0420800Y0232111D01*
X0420674Y0231612D02*
X0407911Y0231612D01*
X0408092Y0231114D02*
X0420492Y0231114D01*
X0420274Y0230615D02*
X0408311Y0230615D01*
X0408590Y0230117D02*
X0419995Y0230117D01*
X0419669Y0229618D02*
X0408915Y0229618D01*
X0409335Y0229120D02*
X0419249Y0229120D01*
X0418776Y0228621D02*
X0409808Y0228621D01*
X0410449Y0228123D02*
X0418136Y0228123D01*
X0417295Y0227624D02*
X0411290Y0227624D01*
X0412561Y0227126D02*
X0416023Y0227126D01*
X0414292Y0229252D02*
X0414161Y0229254D01*
X0414031Y0229260D01*
X0413900Y0229270D01*
X0413770Y0229284D01*
X0413640Y0229301D01*
X0413511Y0229323D01*
X0413383Y0229348D01*
X0413256Y0229378D01*
X0413129Y0229411D01*
X0413004Y0229448D01*
X0412879Y0229489D01*
X0412756Y0229533D01*
X0412635Y0229582D01*
X0412515Y0229634D01*
X0412396Y0229689D01*
X0412279Y0229748D01*
X0412164Y0229811D01*
X0412051Y0229877D01*
X0411940Y0229946D01*
X0411832Y0230019D01*
X0411725Y0230095D01*
X0411621Y0230174D01*
X0411519Y0230256D01*
X0411420Y0230341D01*
X0411323Y0230429D01*
X0411230Y0230521D01*
X0411138Y0230614D01*
X0411050Y0230711D01*
X0410965Y0230810D01*
X0410883Y0230912D01*
X0410804Y0231016D01*
X0410728Y0231123D01*
X0410655Y0231231D01*
X0410586Y0231342D01*
X0410520Y0231455D01*
X0410457Y0231570D01*
X0410398Y0231687D01*
X0410343Y0231806D01*
X0410291Y0231926D01*
X0410242Y0232047D01*
X0410198Y0232170D01*
X0410157Y0232295D01*
X0410120Y0232420D01*
X0410087Y0232547D01*
X0410057Y0232674D01*
X0410032Y0232802D01*
X0410010Y0232931D01*
X0409993Y0233061D01*
X0409979Y0233191D01*
X0409969Y0233322D01*
X0409963Y0233452D01*
X0409961Y0233583D01*
X0409961Y0280828D01*
X0407611Y0280965D02*
X0420974Y0280965D01*
X0420985Y0280466D02*
X0407599Y0280466D01*
X0407599Y0279968D02*
X0420985Y0279968D01*
X0420985Y0279469D02*
X0407599Y0279469D01*
X0407599Y0278971D02*
X0420985Y0278971D01*
X0420985Y0278472D02*
X0407599Y0278472D01*
X0407599Y0277974D02*
X0420985Y0277974D01*
X0420985Y0277475D02*
X0407599Y0277475D01*
X0407599Y0276977D02*
X0420985Y0276977D01*
X0420985Y0276478D02*
X0407599Y0276478D01*
X0407599Y0275980D02*
X0420985Y0275980D01*
X0420985Y0275481D02*
X0407599Y0275481D01*
X0407599Y0274983D02*
X0420985Y0274983D01*
X0420985Y0274484D02*
X0407599Y0274484D01*
X0407599Y0273986D02*
X0420985Y0273986D01*
X0420985Y0273487D02*
X0407599Y0273487D01*
X0407599Y0272989D02*
X0420985Y0272989D01*
X0420985Y0272490D02*
X0407599Y0272490D01*
X0407599Y0271992D02*
X0420985Y0271992D01*
X0420985Y0271493D02*
X0407599Y0271493D01*
X0407599Y0270995D02*
X0420985Y0270995D01*
X0420985Y0270496D02*
X0407599Y0270496D01*
X0407599Y0269998D02*
X0420985Y0269998D01*
X0420985Y0269499D02*
X0407599Y0269499D01*
X0407599Y0269001D02*
X0420985Y0269001D01*
X0420985Y0268502D02*
X0407599Y0268502D01*
X0407599Y0268004D02*
X0420985Y0268004D01*
X0420985Y0267505D02*
X0407599Y0267505D01*
X0407599Y0267007D02*
X0420985Y0267007D01*
X0420985Y0266508D02*
X0407599Y0266508D01*
X0407599Y0266010D02*
X0420985Y0266010D01*
X0420985Y0265511D02*
X0407599Y0265511D01*
X0407599Y0265012D02*
X0420985Y0265012D01*
X0420985Y0264514D02*
X0407599Y0264514D01*
X0407599Y0264015D02*
X0420985Y0264015D01*
X0420985Y0263517D02*
X0407599Y0263517D01*
X0407599Y0263018D02*
X0420985Y0263018D01*
X0420985Y0262520D02*
X0407599Y0262520D01*
X0407599Y0262021D02*
X0420985Y0262021D01*
X0420985Y0261523D02*
X0407599Y0261523D01*
X0407599Y0261024D02*
X0420985Y0261024D01*
X0420985Y0260526D02*
X0407599Y0260526D01*
X0407599Y0260027D02*
X0420985Y0260027D01*
X0420985Y0259529D02*
X0407599Y0259529D01*
X0407599Y0259030D02*
X0420985Y0259030D01*
X0420985Y0258532D02*
X0407599Y0258532D01*
X0407599Y0258033D02*
X0420985Y0258033D01*
X0420985Y0257535D02*
X0407599Y0257535D01*
X0407599Y0257036D02*
X0420985Y0257036D01*
X0420985Y0256538D02*
X0407599Y0256538D01*
X0407599Y0256039D02*
X0420985Y0256039D01*
X0420985Y0255541D02*
X0407599Y0255541D01*
X0407599Y0255042D02*
X0420985Y0255042D01*
X0420985Y0254544D02*
X0407599Y0254544D01*
X0407599Y0254045D02*
X0420985Y0254045D01*
X0420985Y0253547D02*
X0407599Y0253547D01*
X0407599Y0253048D02*
X0420985Y0253048D01*
X0420985Y0252550D02*
X0407599Y0252550D01*
X0407599Y0252051D02*
X0420985Y0252051D01*
X0420985Y0251553D02*
X0407599Y0251553D01*
X0407599Y0251054D02*
X0420985Y0251054D01*
X0420985Y0250556D02*
X0407599Y0250556D01*
X0407599Y0250057D02*
X0420985Y0250057D01*
X0420985Y0249559D02*
X0407599Y0249559D01*
X0407599Y0249060D02*
X0420985Y0249060D01*
X0420985Y0248562D02*
X0407599Y0248562D01*
X0407599Y0248063D02*
X0420985Y0248063D01*
X0420985Y0247565D02*
X0407599Y0247565D01*
X0407599Y0247066D02*
X0420985Y0247066D01*
X0420985Y0246568D02*
X0407599Y0246568D01*
X0407599Y0246069D02*
X0420985Y0246069D01*
X0420985Y0245571D02*
X0407599Y0245571D01*
X0407599Y0245072D02*
X0420985Y0245072D01*
X0420985Y0244574D02*
X0407599Y0244574D01*
X0407599Y0244075D02*
X0420985Y0244075D01*
X0420985Y0243577D02*
X0407599Y0243577D01*
X0407599Y0243078D02*
X0420985Y0243078D01*
X0420985Y0242579D02*
X0407599Y0242579D01*
X0407599Y0242081D02*
X0420985Y0242081D01*
X0420985Y0241582D02*
X0407599Y0241582D01*
X0407599Y0241084D02*
X0420985Y0241084D01*
X0420985Y0240585D02*
X0407599Y0240585D01*
X0407599Y0240087D02*
X0420985Y0240087D01*
X0420985Y0239588D02*
X0407599Y0239588D01*
X0407599Y0239090D02*
X0420985Y0239090D01*
X0420985Y0238591D02*
X0407599Y0238591D01*
X0407599Y0238093D02*
X0420985Y0238093D01*
X0420985Y0237594D02*
X0407599Y0237594D01*
X0407599Y0237096D02*
X0420985Y0237096D01*
X0418623Y0233583D02*
X0418623Y0280828D01*
X0420932Y0281463D02*
X0407652Y0281463D01*
X0407699Y0281962D02*
X0420885Y0281962D01*
X0420759Y0282460D02*
X0407825Y0282460D01*
X0407951Y0282959D02*
X0420633Y0282959D01*
X0420422Y0283457D02*
X0408162Y0283457D01*
X0408381Y0283956D02*
X0420203Y0283956D01*
X0419890Y0284454D02*
X0408694Y0284454D01*
X0409024Y0284953D02*
X0419560Y0284953D01*
X0419102Y0285451D02*
X0409483Y0285451D01*
X0410014Y0285950D02*
X0418570Y0285950D01*
X0417920Y0286448D02*
X0410664Y0286448D01*
X0411586Y0286947D02*
X0416999Y0286947D01*
X0415157Y0287445D02*
X0413427Y0287445D01*
X0414292Y0285159D02*
X0414423Y0285157D01*
X0414553Y0285151D01*
X0414684Y0285141D01*
X0414814Y0285127D01*
X0414944Y0285110D01*
X0415073Y0285088D01*
X0415201Y0285063D01*
X0415328Y0285033D01*
X0415455Y0285000D01*
X0415580Y0284963D01*
X0415705Y0284922D01*
X0415828Y0284878D01*
X0415949Y0284829D01*
X0416069Y0284777D01*
X0416188Y0284722D01*
X0416305Y0284663D01*
X0416420Y0284600D01*
X0416533Y0284534D01*
X0416644Y0284465D01*
X0416752Y0284392D01*
X0416859Y0284316D01*
X0416963Y0284237D01*
X0417065Y0284155D01*
X0417164Y0284070D01*
X0417261Y0283982D01*
X0417354Y0283890D01*
X0417446Y0283797D01*
X0417534Y0283700D01*
X0417619Y0283601D01*
X0417701Y0283499D01*
X0417780Y0283395D01*
X0417856Y0283288D01*
X0417929Y0283180D01*
X0417998Y0283069D01*
X0418064Y0282956D01*
X0418127Y0282841D01*
X0418186Y0282724D01*
X0418241Y0282605D01*
X0418293Y0282485D01*
X0418342Y0282364D01*
X0418386Y0282241D01*
X0418427Y0282116D01*
X0418464Y0281991D01*
X0418497Y0281864D01*
X0418527Y0281737D01*
X0418552Y0281609D01*
X0418574Y0281480D01*
X0418591Y0281350D01*
X0418605Y0281220D01*
X0418615Y0281089D01*
X0418621Y0280959D01*
X0418623Y0280828D01*
X0414292Y0285159D02*
X0414161Y0285157D01*
X0414031Y0285151D01*
X0413900Y0285141D01*
X0413770Y0285127D01*
X0413640Y0285110D01*
X0413511Y0285088D01*
X0413383Y0285063D01*
X0413256Y0285033D01*
X0413129Y0285000D01*
X0413004Y0284963D01*
X0412879Y0284922D01*
X0412756Y0284878D01*
X0412635Y0284829D01*
X0412515Y0284777D01*
X0412396Y0284722D01*
X0412279Y0284663D01*
X0412164Y0284600D01*
X0412051Y0284534D01*
X0411940Y0284465D01*
X0411832Y0284392D01*
X0411725Y0284316D01*
X0411621Y0284237D01*
X0411519Y0284155D01*
X0411420Y0284070D01*
X0411323Y0283982D01*
X0411230Y0283890D01*
X0411138Y0283797D01*
X0411050Y0283700D01*
X0410965Y0283601D01*
X0410883Y0283499D01*
X0410804Y0283395D01*
X0410728Y0283288D01*
X0410655Y0283180D01*
X0410586Y0283069D01*
X0410520Y0282956D01*
X0410457Y0282841D01*
X0410398Y0282724D01*
X0410343Y0282605D01*
X0410291Y0282485D01*
X0410242Y0282364D01*
X0410198Y0282241D01*
X0410157Y0282116D01*
X0410120Y0281991D01*
X0410087Y0281864D01*
X0410057Y0281737D01*
X0410032Y0281609D01*
X0410010Y0281480D01*
X0409993Y0281350D01*
X0409979Y0281220D01*
X0409969Y0281089D01*
X0409963Y0280959D01*
X0409961Y0280828D01*
X0413739Y0305654D02*
X0412649Y0305836D01*
X0411604Y0306194D01*
X0410631Y0306721D01*
X0409759Y0307399D01*
X0409010Y0308213D01*
X0408406Y0309138D01*
X0407962Y0310150D01*
X0407690Y0311222D01*
X0407599Y0312324D01*
X0407599Y0359568D01*
X0407690Y0360669D01*
X0407962Y0361741D01*
X0408406Y0362753D01*
X0409010Y0363679D01*
X0409759Y0364492D01*
X0410631Y0365171D01*
X0411604Y0365697D01*
X0412649Y0366056D01*
X0413739Y0366238D01*
X0414845Y0366238D01*
X0415935Y0366056D01*
X0416981Y0365697D01*
X0417953Y0365171D01*
X0418825Y0364492D01*
X0419574Y0363679D01*
X0420178Y0362753D01*
X0420622Y0361741D01*
X0420894Y0360669D01*
X0420985Y0359568D01*
X0420985Y0312324D01*
X0420894Y0311222D01*
X0420622Y0310150D01*
X0420178Y0309138D01*
X0419574Y0308213D01*
X0418825Y0307399D01*
X0417953Y0306721D01*
X0416981Y0306194D01*
X0415935Y0305836D01*
X0414845Y0305654D01*
X0413739Y0305654D01*
X0412489Y0305890D02*
X0416095Y0305890D01*
X0417340Y0306389D02*
X0411244Y0306389D01*
X0410417Y0306887D02*
X0418167Y0306887D01*
X0418808Y0307386D02*
X0409777Y0307386D01*
X0409313Y0307884D02*
X0419272Y0307884D01*
X0419685Y0308383D02*
X0408899Y0308383D01*
X0408574Y0308881D02*
X0420011Y0308881D01*
X0420284Y0309380D02*
X0408300Y0309380D01*
X0408081Y0309879D02*
X0420503Y0309879D01*
X0420680Y0310377D02*
X0407904Y0310377D01*
X0407778Y0310876D02*
X0420806Y0310876D01*
X0420906Y0311374D02*
X0407678Y0311374D01*
X0407637Y0311873D02*
X0420948Y0311873D01*
X0420985Y0312371D02*
X0407599Y0312371D01*
X0407599Y0312870D02*
X0420985Y0312870D01*
X0420985Y0313368D02*
X0407599Y0313368D01*
X0407599Y0313867D02*
X0420985Y0313867D01*
X0420985Y0314365D02*
X0407599Y0314365D01*
X0407599Y0314864D02*
X0420985Y0314864D01*
X0420985Y0315362D02*
X0407599Y0315362D01*
X0407599Y0315861D02*
X0420985Y0315861D01*
X0420985Y0316359D02*
X0407599Y0316359D01*
X0407599Y0316858D02*
X0420985Y0316858D01*
X0420985Y0317356D02*
X0407599Y0317356D01*
X0407599Y0317855D02*
X0420985Y0317855D01*
X0420985Y0318353D02*
X0407599Y0318353D01*
X0407599Y0318852D02*
X0420985Y0318852D01*
X0420985Y0319350D02*
X0407599Y0319350D01*
X0407599Y0319849D02*
X0420985Y0319849D01*
X0420985Y0320347D02*
X0407599Y0320347D01*
X0407599Y0320846D02*
X0420985Y0320846D01*
X0420985Y0321344D02*
X0407599Y0321344D01*
X0407599Y0321843D02*
X0420985Y0321843D01*
X0420985Y0322341D02*
X0407599Y0322341D01*
X0407599Y0322840D02*
X0420985Y0322840D01*
X0420985Y0323338D02*
X0407599Y0323338D01*
X0407599Y0323837D02*
X0420985Y0323837D01*
X0420985Y0324335D02*
X0407599Y0324335D01*
X0407599Y0324834D02*
X0420985Y0324834D01*
X0420985Y0325332D02*
X0407599Y0325332D01*
X0407599Y0325831D02*
X0420985Y0325831D01*
X0420985Y0326329D02*
X0407599Y0326329D01*
X0407599Y0326828D02*
X0420985Y0326828D01*
X0420985Y0327326D02*
X0407599Y0327326D01*
X0407599Y0327825D02*
X0420985Y0327825D01*
X0420985Y0328323D02*
X0407599Y0328323D01*
X0407599Y0328822D02*
X0420985Y0328822D01*
X0420985Y0329320D02*
X0407599Y0329320D01*
X0407599Y0329819D02*
X0420985Y0329819D01*
X0420985Y0330317D02*
X0407599Y0330317D01*
X0407599Y0330816D02*
X0420985Y0330816D01*
X0420985Y0331314D02*
X0407599Y0331314D01*
X0407599Y0331813D02*
X0420985Y0331813D01*
X0420985Y0332312D02*
X0407599Y0332312D01*
X0407599Y0332810D02*
X0420985Y0332810D01*
X0420985Y0333309D02*
X0407599Y0333309D01*
X0407599Y0333807D02*
X0420985Y0333807D01*
X0420985Y0334306D02*
X0407599Y0334306D01*
X0407599Y0334804D02*
X0420985Y0334804D01*
X0420985Y0335303D02*
X0407599Y0335303D01*
X0407599Y0335801D02*
X0420985Y0335801D01*
X0420985Y0336300D02*
X0407599Y0336300D01*
X0407599Y0336798D02*
X0420985Y0336798D01*
X0420985Y0337297D02*
X0407599Y0337297D01*
X0407599Y0337795D02*
X0420985Y0337795D01*
X0420985Y0338294D02*
X0407599Y0338294D01*
X0407599Y0338792D02*
X0420985Y0338792D01*
X0420985Y0339291D02*
X0407599Y0339291D01*
X0407599Y0339789D02*
X0420985Y0339789D01*
X0420985Y0340288D02*
X0407599Y0340288D01*
X0407599Y0340786D02*
X0420985Y0340786D01*
X0420985Y0341285D02*
X0407599Y0341285D01*
X0407599Y0341783D02*
X0420985Y0341783D01*
X0420985Y0342282D02*
X0407599Y0342282D01*
X0407599Y0342780D02*
X0420985Y0342780D01*
X0420985Y0343279D02*
X0407599Y0343279D01*
X0407599Y0343777D02*
X0420985Y0343777D01*
X0420985Y0344276D02*
X0407599Y0344276D01*
X0407599Y0344774D02*
X0420985Y0344774D01*
X0420985Y0345273D02*
X0407599Y0345273D01*
X0407599Y0345771D02*
X0420985Y0345771D01*
X0420985Y0346270D02*
X0407599Y0346270D01*
X0407599Y0346768D02*
X0420985Y0346768D01*
X0420985Y0347267D02*
X0407599Y0347267D01*
X0407599Y0347765D02*
X0420985Y0347765D01*
X0420985Y0348264D02*
X0407599Y0348264D01*
X0407599Y0348762D02*
X0420985Y0348762D01*
X0420985Y0349261D02*
X0407599Y0349261D01*
X0407599Y0349759D02*
X0420985Y0349759D01*
X0420985Y0350258D02*
X0407599Y0350258D01*
X0407599Y0350756D02*
X0420985Y0350756D01*
X0420985Y0351255D02*
X0407599Y0351255D01*
X0407599Y0351753D02*
X0420985Y0351753D01*
X0420985Y0352252D02*
X0407599Y0352252D01*
X0407599Y0352750D02*
X0420985Y0352750D01*
X0420985Y0353249D02*
X0407599Y0353249D01*
X0407599Y0353748D02*
X0420985Y0353748D01*
X0420985Y0354246D02*
X0407599Y0354246D01*
X0407599Y0354745D02*
X0420985Y0354745D01*
X0420985Y0355243D02*
X0407599Y0355243D01*
X0407599Y0355742D02*
X0420985Y0355742D01*
X0420985Y0356240D02*
X0407599Y0356240D01*
X0407599Y0356739D02*
X0420985Y0356739D01*
X0420985Y0357237D02*
X0407599Y0357237D01*
X0407599Y0357736D02*
X0420985Y0357736D01*
X0420985Y0358234D02*
X0407599Y0358234D01*
X0407599Y0358733D02*
X0420985Y0358733D01*
X0420985Y0359231D02*
X0407599Y0359231D01*
X0407613Y0359730D02*
X0420972Y0359730D01*
X0420930Y0360228D02*
X0407654Y0360228D01*
X0407705Y0360727D02*
X0420879Y0360727D01*
X0420753Y0361225D02*
X0407831Y0361225D01*
X0407957Y0361724D02*
X0420627Y0361724D01*
X0420411Y0362222D02*
X0408173Y0362222D01*
X0408392Y0362721D02*
X0420193Y0362721D01*
X0419874Y0363219D02*
X0408710Y0363219D01*
X0409047Y0363718D02*
X0419538Y0363718D01*
X0419079Y0364216D02*
X0409505Y0364216D01*
X0410046Y0364715D02*
X0418539Y0364715D01*
X0417874Y0365213D02*
X0410710Y0365213D01*
X0411647Y0365712D02*
X0416937Y0365712D01*
X0415010Y0366210D02*
X0413575Y0366210D01*
X0414292Y0363505D02*
X0414164Y0363509D01*
X0414037Y0363510D01*
X0413910Y0363506D01*
X0413782Y0363498D01*
X0413655Y0363487D01*
X0413529Y0363471D01*
X0413403Y0363452D01*
X0413278Y0363428D01*
X0413153Y0363401D01*
X0413029Y0363370D01*
X0412907Y0363336D01*
X0412785Y0363297D01*
X0412665Y0363255D01*
X0412546Y0363209D01*
X0412428Y0363160D01*
X0412313Y0363107D01*
X0412198Y0363050D01*
X0412086Y0362990D01*
X0411975Y0362926D01*
X0411867Y0362859D01*
X0411761Y0362789D01*
X0411656Y0362715D01*
X0411555Y0362639D01*
X0411455Y0362559D01*
X0411358Y0362476D01*
X0411264Y0362390D01*
X0411172Y0362302D01*
X0411083Y0362210D01*
X0410997Y0362116D01*
X0410914Y0362020D01*
X0410834Y0361920D01*
X0410757Y0361819D01*
X0410684Y0361715D01*
X0410613Y0361609D01*
X0410546Y0361500D01*
X0410482Y0361390D01*
X0410421Y0361278D01*
X0410364Y0361164D01*
X0410311Y0361048D01*
X0410261Y0360931D01*
X0410215Y0360812D01*
X0410172Y0360692D01*
X0410134Y0360570D01*
X0410099Y0360448D01*
X0410067Y0360324D01*
X0410040Y0360200D01*
X0410016Y0360074D01*
X0409996Y0359948D01*
X0409981Y0359822D01*
X0409969Y0359695D01*
X0409961Y0359568D01*
X0409961Y0312324D01*
X0409963Y0312193D01*
X0409969Y0312063D01*
X0409979Y0311932D01*
X0409993Y0311802D01*
X0410010Y0311672D01*
X0410032Y0311543D01*
X0410057Y0311415D01*
X0410087Y0311288D01*
X0410120Y0311161D01*
X0410157Y0311036D01*
X0410198Y0310911D01*
X0410242Y0310788D01*
X0410291Y0310667D01*
X0410343Y0310547D01*
X0410398Y0310428D01*
X0410457Y0310311D01*
X0410520Y0310196D01*
X0410586Y0310083D01*
X0410655Y0309972D01*
X0410728Y0309864D01*
X0410804Y0309757D01*
X0410883Y0309653D01*
X0410965Y0309551D01*
X0411050Y0309452D01*
X0411138Y0309355D01*
X0411230Y0309262D01*
X0411323Y0309170D01*
X0411420Y0309082D01*
X0411519Y0308997D01*
X0411621Y0308915D01*
X0411725Y0308836D01*
X0411832Y0308760D01*
X0411940Y0308687D01*
X0412051Y0308618D01*
X0412164Y0308552D01*
X0412279Y0308489D01*
X0412396Y0308430D01*
X0412515Y0308375D01*
X0412635Y0308323D01*
X0412756Y0308274D01*
X0412879Y0308230D01*
X0413004Y0308189D01*
X0413129Y0308152D01*
X0413256Y0308119D01*
X0413383Y0308089D01*
X0413511Y0308064D01*
X0413640Y0308042D01*
X0413770Y0308025D01*
X0413900Y0308011D01*
X0414031Y0308001D01*
X0414161Y0307995D01*
X0414292Y0307993D01*
X0414423Y0307995D01*
X0414553Y0308001D01*
X0414684Y0308011D01*
X0414814Y0308025D01*
X0414944Y0308042D01*
X0415073Y0308064D01*
X0415201Y0308089D01*
X0415328Y0308119D01*
X0415455Y0308152D01*
X0415580Y0308189D01*
X0415705Y0308230D01*
X0415828Y0308274D01*
X0415949Y0308323D01*
X0416069Y0308375D01*
X0416188Y0308430D01*
X0416305Y0308489D01*
X0416420Y0308552D01*
X0416533Y0308618D01*
X0416644Y0308687D01*
X0416752Y0308760D01*
X0416859Y0308836D01*
X0416963Y0308915D01*
X0417065Y0308997D01*
X0417164Y0309082D01*
X0417261Y0309170D01*
X0417354Y0309262D01*
X0417446Y0309355D01*
X0417534Y0309452D01*
X0417619Y0309551D01*
X0417701Y0309653D01*
X0417780Y0309757D01*
X0417856Y0309864D01*
X0417929Y0309972D01*
X0417998Y0310083D01*
X0418064Y0310196D01*
X0418127Y0310311D01*
X0418186Y0310428D01*
X0418241Y0310547D01*
X0418293Y0310667D01*
X0418342Y0310788D01*
X0418386Y0310911D01*
X0418427Y0311036D01*
X0418464Y0311161D01*
X0418497Y0311288D01*
X0418527Y0311415D01*
X0418552Y0311543D01*
X0418574Y0311672D01*
X0418591Y0311802D01*
X0418605Y0311932D01*
X0418615Y0312063D01*
X0418621Y0312193D01*
X0418623Y0312324D01*
X0418623Y0359568D01*
X0418615Y0359695D01*
X0418603Y0359822D01*
X0418588Y0359948D01*
X0418568Y0360074D01*
X0418544Y0360200D01*
X0418517Y0360324D01*
X0418485Y0360448D01*
X0418450Y0360570D01*
X0418412Y0360692D01*
X0418369Y0360812D01*
X0418323Y0360931D01*
X0418273Y0361048D01*
X0418220Y0361164D01*
X0418163Y0361278D01*
X0418102Y0361390D01*
X0418038Y0361500D01*
X0417971Y0361609D01*
X0417900Y0361715D01*
X0417827Y0361819D01*
X0417750Y0361920D01*
X0417670Y0362020D01*
X0417587Y0362116D01*
X0417501Y0362210D01*
X0417412Y0362302D01*
X0417320Y0362390D01*
X0417226Y0362476D01*
X0417129Y0362559D01*
X0417029Y0362639D01*
X0416928Y0362715D01*
X0416823Y0362789D01*
X0416717Y0362859D01*
X0416609Y0362926D01*
X0416498Y0362990D01*
X0416386Y0363050D01*
X0416271Y0363107D01*
X0416156Y0363160D01*
X0416038Y0363209D01*
X0415919Y0363255D01*
X0415799Y0363297D01*
X0415677Y0363336D01*
X0415555Y0363370D01*
X0415431Y0363401D01*
X0415306Y0363428D01*
X0415181Y0363452D01*
X0415055Y0363471D01*
X0414929Y0363487D01*
X0414802Y0363498D01*
X0414674Y0363506D01*
X0414547Y0363510D01*
X0414420Y0363509D01*
X0414292Y0363505D01*
X0494235Y0360088D02*
X0494235Y0359048D01*
X0494406Y0358021D01*
X0494744Y0357037D01*
X0495239Y0356122D01*
X0495878Y0355301D01*
X0496644Y0354597D01*
X0497515Y0354028D01*
X0498467Y0353610D01*
X0499476Y0353354D01*
X0500513Y0353269D01*
X0513111Y0353269D01*
X0514148Y0353354D01*
X0515156Y0353610D01*
X0516109Y0354028D01*
X0516980Y0354597D01*
X0517746Y0355301D01*
X0518385Y0356122D01*
X0518880Y0357037D01*
X0519217Y0358021D01*
X0519389Y0359048D01*
X0519389Y0360088D01*
X0519217Y0361114D01*
X0518880Y0362098D01*
X0518385Y0363013D01*
X0517746Y0363834D01*
X0516980Y0364539D01*
X0516109Y0365108D01*
X0515156Y0365526D01*
X0514148Y0365781D01*
X0513111Y0365867D01*
X0500513Y0365867D01*
X0499476Y0365781D01*
X0498467Y0365526D01*
X0497515Y0365108D01*
X0496644Y0364539D01*
X0495878Y0363834D01*
X0495239Y0363013D01*
X0494744Y0362098D01*
X0494406Y0361114D01*
X0494235Y0360088D01*
X0494258Y0360228D02*
X0519365Y0360228D01*
X0519389Y0359730D02*
X0494235Y0359730D01*
X0494235Y0359231D02*
X0519389Y0359231D01*
X0519336Y0358733D02*
X0494287Y0358733D01*
X0494371Y0358234D02*
X0519253Y0358234D01*
X0519119Y0357736D02*
X0494504Y0357736D01*
X0494675Y0357237D02*
X0518948Y0357237D01*
X0518718Y0356739D02*
X0494906Y0356739D01*
X0495175Y0356240D02*
X0518448Y0356240D01*
X0518088Y0355742D02*
X0495536Y0355742D01*
X0495941Y0355243D02*
X0517682Y0355243D01*
X0517141Y0354745D02*
X0496483Y0354745D01*
X0497180Y0354246D02*
X0516443Y0354246D01*
X0515470Y0353748D02*
X0498153Y0353748D01*
X0500513Y0356418D02*
X0513111Y0356418D01*
X0513222Y0356420D01*
X0513333Y0356426D01*
X0513444Y0356436D01*
X0513554Y0356449D01*
X0513664Y0356467D01*
X0513773Y0356488D01*
X0513881Y0356514D01*
X0513989Y0356543D01*
X0514095Y0356576D01*
X0514200Y0356612D01*
X0514304Y0356652D01*
X0514406Y0356696D01*
X0514506Y0356744D01*
X0514605Y0356795D01*
X0514702Y0356849D01*
X0514797Y0356907D01*
X0514890Y0356968D01*
X0514980Y0357033D01*
X0515069Y0357100D01*
X0515155Y0357171D01*
X0515238Y0357245D01*
X0515319Y0357321D01*
X0515397Y0357400D01*
X0515472Y0357482D01*
X0515544Y0357567D01*
X0515613Y0357654D01*
X0515679Y0357744D01*
X0515742Y0357835D01*
X0515801Y0357929D01*
X0515857Y0358025D01*
X0515910Y0358123D01*
X0515959Y0358223D01*
X0516005Y0358324D01*
X0516047Y0358427D01*
X0516086Y0358531D01*
X0516120Y0358637D01*
X0516151Y0358744D01*
X0516178Y0358852D01*
X0516202Y0358960D01*
X0516221Y0359070D01*
X0516237Y0359180D01*
X0516249Y0359290D01*
X0516257Y0359401D01*
X0516261Y0359512D01*
X0516261Y0359624D01*
X0516257Y0359735D01*
X0516249Y0359846D01*
X0516237Y0359956D01*
X0516221Y0360066D01*
X0516202Y0360176D01*
X0516178Y0360284D01*
X0516151Y0360392D01*
X0516120Y0360499D01*
X0516086Y0360605D01*
X0516047Y0360709D01*
X0516005Y0360812D01*
X0515959Y0360913D01*
X0515910Y0361013D01*
X0515857Y0361111D01*
X0515801Y0361207D01*
X0515742Y0361301D01*
X0515679Y0361392D01*
X0515613Y0361482D01*
X0515544Y0361569D01*
X0515472Y0361654D01*
X0515397Y0361736D01*
X0515319Y0361815D01*
X0515238Y0361891D01*
X0515155Y0361965D01*
X0515069Y0362036D01*
X0514980Y0362103D01*
X0514890Y0362168D01*
X0514797Y0362229D01*
X0514702Y0362287D01*
X0514605Y0362341D01*
X0514506Y0362392D01*
X0514406Y0362440D01*
X0514304Y0362484D01*
X0514200Y0362524D01*
X0514095Y0362560D01*
X0513989Y0362593D01*
X0513881Y0362622D01*
X0513773Y0362648D01*
X0513664Y0362669D01*
X0513554Y0362687D01*
X0513444Y0362700D01*
X0513333Y0362710D01*
X0513222Y0362716D01*
X0513111Y0362718D01*
X0513111Y0362717D02*
X0500513Y0362717D01*
X0500513Y0362718D02*
X0500402Y0362716D01*
X0500291Y0362710D01*
X0500180Y0362700D01*
X0500070Y0362687D01*
X0499960Y0362669D01*
X0499851Y0362648D01*
X0499743Y0362622D01*
X0499635Y0362593D01*
X0499529Y0362560D01*
X0499424Y0362524D01*
X0499320Y0362484D01*
X0499218Y0362440D01*
X0499118Y0362392D01*
X0499019Y0362341D01*
X0498922Y0362287D01*
X0498827Y0362229D01*
X0498734Y0362168D01*
X0498644Y0362103D01*
X0498555Y0362036D01*
X0498469Y0361965D01*
X0498386Y0361891D01*
X0498305Y0361815D01*
X0498227Y0361736D01*
X0498152Y0361654D01*
X0498080Y0361569D01*
X0498011Y0361482D01*
X0497945Y0361392D01*
X0497882Y0361301D01*
X0497823Y0361207D01*
X0497767Y0361111D01*
X0497714Y0361013D01*
X0497665Y0360913D01*
X0497619Y0360812D01*
X0497577Y0360709D01*
X0497538Y0360605D01*
X0497504Y0360499D01*
X0497473Y0360392D01*
X0497446Y0360284D01*
X0497422Y0360176D01*
X0497403Y0360066D01*
X0497387Y0359956D01*
X0497375Y0359846D01*
X0497367Y0359735D01*
X0497363Y0359624D01*
X0497363Y0359512D01*
X0497367Y0359401D01*
X0497375Y0359290D01*
X0497387Y0359180D01*
X0497403Y0359070D01*
X0497422Y0358960D01*
X0497446Y0358852D01*
X0497473Y0358744D01*
X0497504Y0358637D01*
X0497538Y0358531D01*
X0497577Y0358427D01*
X0497619Y0358324D01*
X0497665Y0358223D01*
X0497714Y0358123D01*
X0497767Y0358025D01*
X0497823Y0357929D01*
X0497882Y0357835D01*
X0497945Y0357744D01*
X0498011Y0357654D01*
X0498080Y0357567D01*
X0498152Y0357482D01*
X0498227Y0357400D01*
X0498305Y0357321D01*
X0498386Y0357245D01*
X0498469Y0357171D01*
X0498555Y0357100D01*
X0498644Y0357033D01*
X0498734Y0356968D01*
X0498827Y0356907D01*
X0498922Y0356849D01*
X0499019Y0356795D01*
X0499118Y0356744D01*
X0499218Y0356696D01*
X0499320Y0356652D01*
X0499424Y0356612D01*
X0499529Y0356576D01*
X0499635Y0356543D01*
X0499743Y0356514D01*
X0499851Y0356488D01*
X0499960Y0356467D01*
X0500070Y0356449D01*
X0500180Y0356436D01*
X0500291Y0356426D01*
X0500402Y0356420D01*
X0500513Y0356418D01*
X0494341Y0360727D02*
X0519282Y0360727D01*
X0519179Y0361225D02*
X0494444Y0361225D01*
X0494615Y0361724D02*
X0519008Y0361724D01*
X0518813Y0362222D02*
X0494811Y0362222D01*
X0495081Y0362721D02*
X0518543Y0362721D01*
X0518224Y0363219D02*
X0495400Y0363219D01*
X0495788Y0363718D02*
X0517836Y0363718D01*
X0517330Y0364216D02*
X0496293Y0364216D01*
X0496913Y0364715D02*
X0516711Y0364715D01*
X0515868Y0365213D02*
X0497755Y0365213D01*
X0499202Y0365712D02*
X0514421Y0365712D01*
X0418623Y0233583D02*
X0418621Y0233452D01*
X0418615Y0233322D01*
X0418605Y0233191D01*
X0418591Y0233061D01*
X0418574Y0232931D01*
X0418552Y0232802D01*
X0418527Y0232674D01*
X0418497Y0232547D01*
X0418464Y0232420D01*
X0418427Y0232295D01*
X0418386Y0232170D01*
X0418342Y0232047D01*
X0418293Y0231926D01*
X0418241Y0231806D01*
X0418186Y0231687D01*
X0418127Y0231570D01*
X0418064Y0231455D01*
X0417998Y0231342D01*
X0417929Y0231231D01*
X0417856Y0231123D01*
X0417780Y0231016D01*
X0417701Y0230912D01*
X0417619Y0230810D01*
X0417534Y0230711D01*
X0417446Y0230614D01*
X0417354Y0230521D01*
X0417261Y0230429D01*
X0417164Y0230341D01*
X0417065Y0230256D01*
X0416963Y0230174D01*
X0416859Y0230095D01*
X0416752Y0230019D01*
X0416644Y0229946D01*
X0416533Y0229877D01*
X0416420Y0229811D01*
X0416305Y0229748D01*
X0416188Y0229689D01*
X0416069Y0229634D01*
X0415949Y0229582D01*
X0415828Y0229533D01*
X0415705Y0229489D01*
X0415580Y0229448D01*
X0415455Y0229411D01*
X0415328Y0229378D01*
X0415201Y0229348D01*
X0415073Y0229323D01*
X0414944Y0229301D01*
X0414814Y0229284D01*
X0414684Y0229270D01*
X0414553Y0229260D01*
X0414423Y0229254D01*
X0414292Y0229252D01*
D29*
X0432757Y0191851D03*
X0440276Y0191851D03*
X0447796Y0191851D03*
X0248977Y0121772D03*
X0241457Y0121772D03*
X0233938Y0121772D03*
X0207599Y0261497D03*
X0207599Y0269017D03*
X0207599Y0276536D03*
D30*
X0209961Y0239292D03*
X0209961Y0231812D03*
X0221772Y0231812D03*
X0221772Y0239292D03*
X0284765Y0239292D03*
X0284765Y0231812D03*
D31*
X0420591Y0257206D03*
X0519017Y0233583D03*
X0420591Y0335946D03*
X0519017Y0359568D03*
D32*
X0139095Y0192245D03*
X0060355Y0192245D03*
X0036733Y0093820D03*
X0162717Y0093820D03*
D33*
X0253269Y0074135D03*
X0292639Y0074135D03*
X0503269Y0101694D03*
X0542639Y0101694D03*
D34*
X0448702Y0083977D03*
X0438702Y0083977D03*
X0428702Y0083977D03*
X0263269Y0235552D03*
X0253269Y0235552D03*
X0243269Y0235552D03*
X0093820Y0278308D03*
X0093820Y0288308D03*
X0093820Y0298308D03*
D35*
X0158780Y0324135D03*
X0609568Y0373347D03*
X0611536Y0020985D03*
X0020985Y0020985D03*
M02*
